<?xml version="1.0" encoding="utf-8"?>
<!-- Generator: Adobe Illustrator 27.0.0, SVG Export Plug-In . SVG Version: 6.00 Build 0)  -->
<svg version="1.1" id="Layer_1" xmlns="http://www.w3.org/2000/svg" xmlns:xlink="http://www.w3.org/1999/xlink" x="0px" y="0px"
	 viewBox="0 0 680 405.3" style="enable-background:new 0 0 680 405.3;" xml:space="preserve">
<style type="text/css">
	.st0{opacity:0.31;}
	.st1{fill:#FFFFFF;}
	.st2{opacity:0.78;}
	.st3{opacity:0.64;}
	.st4{opacity:0.53;}
	.st5{opacity:0.55;}
</style>
<g class="st0">
	<path class="st1" d="M177.5,301.6c0,0.2,0.3,0.4,0.3,0.6c0,0.2-0.1,0.4-0.1,0.6c-0.1,0.2-0.1,0.4-0.2,0.6c-0.1,0.2-0.4,0.3-0.5,0.4
		c-0.1,0.2-0.2,0.3-0.4,0.5s0,0.5-0.2,0.6c-0.1,0.1-0.2,0.3-0.4,0.5s-0.5,0-0.6,0.2c-0.2,0.1-0.4,0.1-0.5,0.2
		c-0.2,0.1-0.3,0.2-0.5,0.3s-0.3,0.3-0.5,0.4c-0.2,0-0.4,0-0.6,0.1c-0.2,0-0.4,0.1-0.6,0.1s-0.4,0.2-0.6,0.2c-0.2,0-0.4-0.3-0.6-0.3
		c-0.2,0-0.3-0.3-0.5-0.4c-0.2-0.1-0.5,0.1-0.7,0c-0.2-0.1-0.3-0.3-0.4-0.4c-0.2-0.1-0.3-0.3-0.4-0.4c-0.1-0.1-0.3-0.2-0.4-0.4
		c-0.1-0.1-0.2-0.3-0.3-0.5s-0.2-0.3-0.3-0.5c-0.1-0.2-0.1-0.4-0.1-0.6c-0.1-0.2-0.4-0.3-0.5-0.5c-0.1-0.2,0.1-0.4,0.1-0.6
		c0-0.2,0-0.4,0-0.6s0-0.4,0-0.6c0-0.2-0.1-0.4,0-0.6s0.1-0.4,0.1-0.6c0.1-0.2,0.2-0.4,0.3-0.5c0.1-0.2,0-0.5,0.1-0.6
		s0.4-0.1,0.6-0.3c0.1-0.1,0.2-0.3,0.4-0.4s0.3-0.2,0.5-0.3s0.4-0.1,0.5-0.2s0.3-0.3,0.5-0.4c0.2-0.1,0.3-0.2,0.5-0.3
		s0.4,0.1,0.6,0.1c0.2,0,0.4-0.2,0.6-0.2s0.4,0.3,0.6,0.3c0.2,0,0.4-0.1,0.6-0.1c0.2,0,0.5-0.1,0.6,0c0.2,0.1,0.4,0.2,0.5,0.3
		c0.2,0.1,0.4,0.2,0.5,0.3c0.2,0.1,0.3,0.3,0.4,0.4s0.4,0.2,0.5,0.3c0.1,0.1,0,0.5,0.1,0.7c0.1,0.2,0.4,0.2,0.5,0.4s0,0.4,0.1,0.6
		s0.4,0.3,0.4,0.5c0.1,0.2-0.1,0.4-0.1,0.6C177.5,301.2,177.5,301.4,177.5,301.6L177.5,301.6z"/>
</g>
<g class="st0">
	<path class="st1" d="M202.9,202.4c0,0.2-0.1,0.4-0.2,0.6s-0.1,0.4-0.2,0.5c-0.1,0.2-0.3,0.3-0.4,0.4c-0.1,0.2-0.1,0.3-0.3,0.5
		c-0.1,0.1-0.1,0.5-0.2,0.6s-0.4,0.2-0.5,0.3c-0.2,0.1-0.4,0.1-0.6,0.2c-0.2,0.1-0.4-0.1-0.6-0.1c-0.2,0-0.4,0-0.6,0
		s-0.4,0.2-0.6,0.2c-0.2,0-0.4,0-0.6-0.1c-0.2-0.1-0.2-0.4-0.4-0.5c-0.2-0.1-0.2-0.3-0.4-0.4s-0.3-0.2-0.4-0.4
		c-0.1-0.1-0.4-0.2-0.5-0.3s-0.1-0.4-0.2-0.5c-0.1-0.2-0.1-0.4-0.2-0.5s-0.2-0.4-0.2-0.6s0.2-0.4,0.3-0.6c0-0.2,0.3-0.3,0.3-0.5
		c0.1-0.2-0.1-0.5-0.1-0.6s0.3-0.2,0.4-0.4s0.3-0.2,0.4-0.4c0.1-0.1,0.3-0.2,0.4-0.3c0.2-0.1,0.3-0.1,0.5-0.2
		c0.2-0.1,0.3-0.1,0.5-0.2c0.2,0,0.4,0.1,0.5,0.1s0.4-0.3,0.6-0.3c0.2,0,0.3,0.3,0.5,0.4c0.2,0.1,0.3,0.2,0.5,0.3
		c0.2,0.1,0.3,0.2,0.4,0.3s0.4,0.1,0.5,0.3s0.2,0.3,0.3,0.4s0.1,0.3,0.2,0.5c0.1,0.2,0.3,0.3,0.4,0.5
		C202.9,202,202.9,202.2,202.9,202.4L202.9,202.4z"/>
</g>
<g class="st0">
	<path class="st1" d="M35.2,126.4c0,0.2,0.2,0.4,0.1,0.6c0,0.2-0.3,0.3-0.4,0.5c-0.1,0.2-0.1,0.3-0.2,0.5c-0.1,0.2,0,0.5-0.1,0.6
		c-0.1,0.1-0.3,0.2-0.5,0.3c-0.1,0.1-0.3,0.2-0.5,0.3s-0.4,0-0.6,0.1c-0.2,0.1-0.3,0.2-0.5,0.2c-0.2,0-0.4,0.4-0.5,0.4
		s-0.4-0.1-0.6-0.1c-0.2,0-0.4-0.1-0.6-0.2c-0.2-0.1-0.2-0.4-0.4-0.4c-0.2-0.1-0.3-0.2-0.4-0.4c-0.1-0.1-0.5-0.1-0.6-0.2
		c-0.1-0.1-0.3-0.3-0.4-0.4c-0.1-0.2,0.1-0.4,0-0.6s0-0.3,0-0.5c0-0.2-0.1-0.3-0.1-0.5s-0.2-0.4-0.1-0.6c0-0.2,0.1-0.4,0.2-0.5
		c0.1-0.2,0.1-0.4,0.2-0.5c0.1-0.2,0-0.4,0.2-0.6s0.4-0.1,0.6-0.3c0.1-0.1,0.4-0.1,0.6-0.2c0.2-0.1,0.2-0.4,0.4-0.5
		c0.2-0.1,0.4,0,0.6,0c0.2,0,0.4,0,0.6,0c0.2,0,0.4,0,0.5,0c0.2,0,0.3,0.1,0.5,0.2c0.2,0.1,0.3,0.1,0.5,0.2c0.2,0.1,0.2,0.3,0.4,0.4
		c0.1,0.1,0.5,0,0.6,0.2s0,0.4,0.1,0.6c0.1,0.2,0.1,0.3,0.2,0.5s0.1,0.3,0.1,0.5C35,126.1,35.2,126.2,35.2,126.4L35.2,126.4z"/>
</g>
<g class="st2">
	<path class="st1" d="M468.8,10.6c0,0.2,0.1,0.4,0.1,0.6c0,0.2-0.3,0.3-0.4,0.5s-0.1,0.4-0.2,0.5s-0.1,0.4-0.2,0.5s-0.1,0.4-0.3,0.5
		c-0.1,0.1-0.5,0-0.6,0.1s-0.3,0.2-0.5,0.3s-0.3,0.4-0.5,0.4c-0.2,0-0.4-0.1-0.6-0.1s-0.4,0-0.6-0.1c-0.2,0-0.3-0.2-0.5-0.3
		c-0.2-0.1-0.4-0.1-0.5-0.2c-0.2-0.1-0.5,0-0.6-0.1c-0.1-0.1-0.3-0.3-0.4-0.4c-0.1-0.1-0.2-0.3-0.3-0.5c-0.1-0.2,0-0.4,0-0.6
		c-0.1-0.2,0-0.4-0.1-0.5c0-0.2-0.3-0.3-0.3-0.5s0-0.4,0-0.6c0-0.2,0.3-0.3,0.4-0.5c0.1-0.2,0.2-0.3,0.3-0.4
		c0.1-0.2,0.2-0.3,0.3-0.4c0.1-0.1,0.1-0.4,0.2-0.5c0.1-0.1,0.3-0.2,0.5-0.3c0.2-0.1,0.3-0.2,0.5-0.3c0.2-0.1,0.3-0.3,0.5-0.3
		c0.2,0,0.4,0.2,0.6,0.2s0.3,0.2,0.5,0.2c0.2,0,0.4-0.2,0.6-0.2s0.3,0.3,0.5,0.4c0.2,0.1,0.3,0.2,0.4,0.4s0.3,0.2,0.4,0.4
		c0.1,0.1,0.2,0.3,0.3,0.5s0.2,0.3,0.2,0.5c0.1,0.2,0,0.4,0,0.5C468.7,10.2,468.9,10.4,468.8,10.6L468.8,10.6z"/>
</g>
<g class="st0">
	<path class="st1" d="M282.5,150.3c0,0.2-0.2,0.4-0.2,0.6s0.1,0.4,0.1,0.6s0,0.4-0.1,0.6s-0.4,0.2-0.5,0.4c-0.1,0.2-0.1,0.4-0.2,0.5
		c-0.1,0.1-0.4,0.1-0.6,0.2c-0.1,0.1-0.2,0.3-0.4,0.4c-0.2,0.1-0.3,0.3-0.5,0.4c-0.2,0.1-0.3,0.3-0.5,0.4c-0.2,0.1-0.4-0.2-0.6-0.2
		c-0.2,0-0.4,0.1-0.5,0.1s-0.4,0.2-0.6,0.2c-0.2,0-0.4-0.2-0.5-0.2c-0.2-0.1-0.4-0.1-0.5-0.2s-0.3-0.3-0.4-0.4
		c-0.2-0.1-0.3-0.2-0.5-0.3c-0.1-0.1-0.5-0.1-0.6-0.2c-0.1-0.1-0.2-0.3-0.3-0.5c-0.1-0.2-0.2-0.4-0.2-0.5s0.1-0.4,0-0.6
		c0-0.2,0-0.4,0-0.6c0-0.2-0.3-0.4-0.3-0.6s0-0.4,0-0.6s0.3-0.3,0.4-0.5c0-0.2,0.2-0.3,0.3-0.5c0.1-0.2,0.1-0.3,0.2-0.5
		c0.1-0.2,0-0.4,0.2-0.6c0.1-0.1,0.3-0.2,0.4-0.4c0.1-0.1,0.3-0.3,0.4-0.4s0.2-0.4,0.4-0.5s0.4,0.1,0.6,0s0.4,0.1,0.6,0.1
		c0.2,0,0.4-0.4,0.5-0.4s0.4,0.2,0.6,0.2c0.2,0,0.4,0.1,0.5,0.2c0.2,0.1,0.4,0.1,0.5,0.2s0.3,0.2,0.5,0.3s0.3,0.2,0.5,0.3
		c0.1,0.1,0.2,0.3,0.3,0.4c0.1,0.1,0.5,0.1,0.6,0.3c0.1,0.2,0,0.4,0.1,0.6c0.1,0.2,0.1,0.4,0.1,0.5c0,0.2,0.1,0.3,0.1,0.5
		S282.5,150.1,282.5,150.3L282.5,150.3z"/>
</g>
<g class="st0">
	<path class="st1" d="M41.9,199.3c0,0.2,0,0.4-0.1,0.6c0,0.2,0,0.4,0,0.6c0,0.2-0.3,0.3-0.4,0.5c0,0.2,0,0.4-0.1,0.6
		c-0.1,0.2-0.1,0.3-0.2,0.5c-0.1,0.2,0,0.4-0.1,0.6c-0.1,0.2-0.2,0.3-0.3,0.5c-0.1,0.2-0.2,0.4-0.3,0.5s-0.4,0.2-0.5,0.3
		c-0.1,0.1-0.1,0.4-0.2,0.5c-0.1,0.1-0.2,0.4-0.3,0.5c-0.1,0.1-0.5,0-0.6,0.1c-0.2,0.1-0.2,0.3-0.4,0.4s-0.4,0-0.6,0.1
		c-0.2,0.1-0.3,0.2-0.5,0.3c-0.2,0.1-0.3,0.2-0.5,0.3s-0.3,0.3-0.5,0.3s-0.4-0.2-0.6-0.2c-0.2,0-0.4,0.1-0.5,0.1
		c-0.2,0-0.4,0.3-0.6,0.3s-0.4-0.1-0.6-0.1c-0.2,0-0.4-0.1-0.6-0.1c-0.2,0-0.3-0.2-0.5-0.3s-0.4,0-0.5-0.1c-0.2-0.1-0.5,0.2-0.6,0.1
		s-0.3-0.2-0.5-0.3s-0.3-0.2-0.5-0.3s-0.2-0.4-0.3-0.5s-0.2-0.3-0.4-0.4s-0.5-0.1-0.6-0.2c-0.1-0.1-0.3-0.2-0.4-0.4
		c-0.1-0.1,0-0.4-0.1-0.6c-0.1-0.1-0.1-0.4-0.2-0.5c-0.1-0.2-0.2-0.3-0.3-0.5s-0.3-0.2-0.4-0.4c-0.1-0.2-0.1-0.4-0.1-0.5
		s-0.1-0.4-0.2-0.5c0-0.2-0.3-0.3-0.3-0.5c0-0.2,0.2-0.4,0.1-0.6c0-0.2,0.2-0.4,0.2-0.6s-0.3-0.4-0.3-0.6c0-0.2,0.2-0.4,0.2-0.5
		c0-0.2,0.1-0.4,0.2-0.5c0-0.2,0.1-0.4,0.1-0.5s0.2-0.3,0.2-0.5s0.1-0.4,0.2-0.5c0.1-0.2,0.2-0.3,0.4-0.4c0.1-0.2-0.1-0.5,0-0.6
		c0.1-0.1,0.4-0.2,0.5-0.3s0.3-0.2,0.4-0.4s0.3-0.2,0.4-0.4c0.1-0.1,0.2-0.3,0.4-0.4s0.3-0.2,0.5-0.3c0.2-0.1,0.3-0.2,0.5-0.2
		c0.2-0.1,0.2-0.4,0.4-0.4c0.2-0.1,0.4,0.1,0.6,0.1s0.3-0.1,0.5-0.2s0.4-0.1,0.5-0.1c0.2,0,0.4,0,0.6,0c0.2,0,0.4-0.2,0.5-0.2
		s0.4-0.1,0.6-0.1c0.2,0,0.3,0.2,0.5,0.2c0.2,0,0.4-0.1,0.6-0.1c0.2,0,0.3,0.3,0.5,0.4s0.4-0.1,0.6,0c0.2,0.1,0.5-0.1,0.6,0
		c0.2,0.1,0.3,0.3,0.5,0.4c0.2,0.1,0.3,0.2,0.5,0.3c0.2,0.1,0.2,0.3,0.4,0.4s0.4,0.1,0.5,0.3c0.1,0.1,0,0.5,0.2,0.6
		c0.1,0.1,0.4,0.1,0.5,0.3c0.1,0.1,0,0.4,0.1,0.6s0.4,0.2,0.5,0.4c0.1,0.2,0,0.4,0.1,0.6s0.3,0.3,0.3,0.5s-0.1,0.4,0,0.6
		c0,0.2,0.2,0.3,0.2,0.5c0,0.2-0.1,0.4-0.1,0.6S41.9,199.1,41.9,199.3L41.9,199.3z"/>
</g>
<g class="st3">
	<path class="st1" d="M265.9,40c0,0.2,0.3,0.4,0.2,0.6s0,0.5,0,0.6c-0.1,0.2-0.2,0.4-0.3,0.6s-0.3,0.3-0.4,0.5
		c-0.1,0.2-0.3,0.3-0.4,0.4c-0.1,0.1-0.3,0.3-0.4,0.4s-0.5,0-0.6,0.1s-0.3,0.2-0.5,0.3s-0.4,0.1-0.6,0.1c-0.2,0-0.4,0.2-0.6,0.2
		s-0.4,0-0.6-0.1s-0.4,0-0.6-0.1c-0.2-0.1-0.3-0.3-0.5-0.4c-0.2-0.1-0.5,0-0.6-0.2c-0.2-0.1-0.4-0.2-0.6-0.3
		c-0.1-0.1-0.1-0.5-0.2-0.7c-0.1-0.2-0.4-0.2-0.4-0.4s0.1-0.4,0-0.6c-0.1-0.2-0.2-0.3-0.2-0.5s-0.1-0.4-0.1-0.6s-0.1-0.4-0.1-0.6
		c0-0.2,0.4-0.3,0.4-0.5s0.1-0.4,0.2-0.6s0-0.5,0.1-0.7s0.4-0.2,0.5-0.4c0.1-0.1,0.3-0.3,0.5-0.4c0.2-0.1,0.4-0.1,0.6-0.2
		s0.3-0.2,0.5-0.3s0.3-0.4,0.5-0.4c0.2,0,0.4,0,0.6,0s0.4,0.1,0.6,0.1c0.2,0,0.4,0.3,0.5,0.4c0.2,0.1,0.3,0.2,0.5,0.3
		c0.2,0.1,0.5,0,0.6,0.1c0.2,0.1,0.4,0.2,0.5,0.4c0.1,0.1,0.1,0.5,0.2,0.6c0.1,0.2,0.1,0.4,0.2,0.5c0.1,0.2,0.2,0.3,0.2,0.5
		c0.1,0.2,0.3,0.3,0.3,0.5C266.1,39.6,265.9,39.8,265.9,40L265.9,40z"/>
</g>
<g class="st4">
	<path class="st1" d="M477.9,78.6c0,0.2,0.1,0.4,0.1,0.6c0,0.2-0.2,0.4-0.2,0.6c0,0.2-0.1,0.4-0.2,0.6c0,0.2-0.1,0.4-0.1,0.6
		s-0.2,0.3-0.3,0.5c-0.1,0.2-0.1,0.3-0.2,0.5c-0.1,0.2-0.1,0.4-0.2,0.5c-0.1,0.2-0.3,0.2-0.4,0.4s0,0.5-0.2,0.6
		c-0.1,0.1-0.2,0.4-0.4,0.5s-0.3,0.2-0.5,0.3s-0.4,0.1-0.6,0.2s-0.4,0.2-0.5,0.2c-0.2,0.1-0.3,0.2-0.5,0.3s-0.4-0.1-0.6-0.1
		s-0.3,0.2-0.5,0.2c-0.2,0-0.4,0.1-0.6,0.1s-0.4,0.2-0.6,0.2s-0.4,0-0.6-0.1c-0.2,0-0.4,0-0.6,0c-0.2,0-0.3-0.3-0.5-0.3
		s-0.4,0.1-0.6,0s-0.4,0-0.6-0.1c-0.2-0.1-0.2-0.4-0.4-0.5s-0.4-0.1-0.6-0.2s-0.2-0.4-0.3-0.5c-0.1-0.1-0.3-0.2-0.5-0.3
		c-0.1-0.1-0.3-0.2-0.5-0.4c-0.1-0.2-0.4-0.2-0.5-0.4s0-0.5-0.1-0.6c-0.1-0.2-0.2-0.3-0.3-0.5c-0.1-0.2-0.4-0.2-0.5-0.4
		c-0.1-0.2,0-0.4-0.1-0.6c0-0.2-0.1-0.4-0.1-0.6c0-0.2,0.1-0.4,0.1-0.6c0-0.2-0.1-0.4-0.1-0.6s-0.3-0.4-0.3-0.6
		c0-0.2,0.1-0.4,0.1-0.6c0-0.2,0.1-0.4,0.2-0.6c0-0.2,0.3-0.3,0.4-0.5s0.2-0.3,0.3-0.5c0.1-0.2,0-0.5,0-0.6c0.1-0.2,0.2-0.4,0.3-0.5
		c0.1-0.2,0.4-0.2,0.6-0.3c0.1-0.2,0.3-0.2,0.5-0.3c0.1-0.1,0.2-0.3,0.4-0.4c0.1-0.1,0.2-0.4,0.3-0.5c0.2-0.1,0.3-0.2,0.5-0.3
		c0.2-0.1,0.3-0.2,0.5-0.3c0.2-0.1,0.3-0.3,0.5-0.4c0.2-0.1,0.4,0.1,0.6,0c0.2-0.1,0.4,0.1,0.6,0.1c0.2,0,0.3-0.4,0.5-0.4
		c0.2,0,0.4,0.1,0.6,0.1s0.4,0.1,0.6,0.1c0.2,0,0.4,0,0.6,0.1c0.2,0,0.4,0.1,0.5,0.2c0.2,0.1,0.4,0.1,0.5,0.2s0.3,0.2,0.5,0.3
		s0.5-0.1,0.6,0c0.2,0.1,0.2,0.4,0.4,0.5c0.2,0.1,0.3,0.3,0.4,0.4c0.1,0.1,0.3,0.2,0.4,0.4c0.1,0.1,0.4,0.2,0.5,0.3
		c0.1,0.2,0.3,0.3,0.4,0.4s0.2,0.3,0.3,0.5s0.4,0.2,0.5,0.4c0.1,0.2-0.1,0.5,0,0.6s0.1,0.3,0.2,0.5c0,0.2,0.1,0.4,0.1,0.6
		c0,0.2,0,0.4,0,0.6S477.9,78.4,477.9,78.6L477.9,78.6z"/>
</g>
<g class="st0">
	<path class="st1" d="M651.9,207.7c0,0.2,0.1,0.4,0,0.6c0,0.2-0.1,0.4-0.2,0.6s-0.1,0.4-0.2,0.6c-0.1,0.2-0.1,0.4-0.2,0.6
		c-0.1,0.2-0.1,0.4-0.2,0.6s-0.3,0.2-0.5,0.4c-0.1,0.1-0.3,0.2-0.5,0.4s-0.3,0.3-0.4,0.4s-0.4,0.1-0.5,0.2s-0.3,0.2-0.5,0.3
		c-0.2,0.1-0.3,0.2-0.5,0.2s-0.4,0-0.6,0s-0.4,0.3-0.6,0.3s-0.4,0.1-0.6,0.1s-0.4-0.1-0.6-0.1c-0.2-0.1-0.3-0.2-0.5-0.3
		c-0.2-0.1-0.3-0.2-0.5-0.3c-0.2-0.1-0.4-0.2-0.5-0.3c-0.2-0.1-0.2-0.4-0.3-0.6c-0.2-0.1-0.3-0.2-0.5-0.4c-0.1-0.1-0.2-0.3-0.3-0.4
		s-0.3-0.2-0.4-0.4c-0.1-0.2-0.2-0.4-0.2-0.6c-0.1-0.2-0.2-0.4-0.2-0.6s0.1-0.4,0.1-0.6c0-0.2-0.2-0.4-0.2-0.6s-0.1-0.4-0.1-0.6
		c0-0.2,0.3-0.3,0.4-0.5c0-0.2,0-0.4,0-0.6c0.1-0.2,0.4-0.3,0.5-0.4s0.1-0.4,0.2-0.5c0.1-0.2,0.2-0.4,0.3-0.5
		c0.1-0.1,0.2-0.4,0.3-0.5c0.2-0.1,0.5,0,0.6-0.1c0.2-0.1,0.3-0.2,0.5-0.3c0.2-0.1,0.2-0.4,0.4-0.5c0.2-0.1,0.4,0,0.6-0.1
		s0.4-0.1,0.6-0.1c0.2,0,0.4,0.1,0.6,0.1s0.4,0,0.6,0c0.2,0,0.5-0.2,0.6-0.2s0.4,0.1,0.6,0.2s0.4,0.2,0.5,0.3s0.2,0.4,0.4,0.5
		c0.2,0.1,0.3,0.3,0.4,0.4c0.2,0.1,0.5,0.1,0.6,0.2c0.1,0.1,0.3,0.3,0.4,0.4s0,0.5,0.1,0.6c0.1,0.2,0.1,0.4,0.1,0.6s0.1,0.3,0.2,0.5
		s0.3,0.3,0.3,0.5C651.8,207.3,651.9,207.5,651.9,207.7L651.9,207.7z"/>
</g>
<g class="st0">
	<path class="st1" d="M174,145.3c0,0.2-0.1,0.4-0.1,0.6s-0.1,0.4-0.2,0.6s-0.1,0.4-0.2,0.6c-0.1,0.2,0,0.4-0.1,0.6s-0.1,0.4-0.2,0.6
		c-0.1,0.2-0.3,0.3-0.4,0.4c-0.1,0.1-0.3,0.3-0.4,0.4c-0.1,0.1-0.3,0.3-0.4,0.4c-0.2,0.1-0.3,0.3-0.5,0.4c-0.2,0.1-0.4,0-0.6,0.1
		c-0.2,0.1-0.4,0.1-0.6,0.1s-0.4,0.1-0.6,0.1c-0.2,0-0.4-0.1-0.6-0.1s-0.4,0-0.6,0c-0.2,0-0.4,0-0.6,0c-0.2-0.1-0.3-0.2-0.5-0.3
		c-0.2-0.1-0.5,0.1-0.6,0s-0.4-0.1-0.6-0.2s-0.3-0.3-0.5-0.4c-0.1-0.1-0.2-0.4-0.3-0.5c-0.1-0.1-0.2-0.3-0.3-0.5
		c-0.1-0.2-0.2-0.3-0.3-0.5s0.1-0.4,0-0.6c-0.1-0.2-0.2-0.3-0.2-0.5s-0.1-0.4-0.1-0.6c0-0.2-0.2-0.4-0.2-0.6s0-0.4,0.1-0.6
		c0-0.2,0-0.4,0.1-0.6s0.3-0.3,0.4-0.5c0.1-0.2,0-0.4,0.1-0.6s0.1-0.4,0.2-0.6s0.5-0.1,0.6-0.3c0.1-0.1,0.2-0.4,0.3-0.5
		s0.4-0.1,0.6-0.2s0.3-0.3,0.4-0.4c0.2-0.1,0.3-0.2,0.5-0.3c0.2-0.1,0.3-0.3,0.5-0.3s0.4,0.2,0.6,0.2c0.2,0,0.4-0.1,0.6-0.1
		s0.4-0.2,0.6-0.2c0.2,0,0.4,0.2,0.6,0.2s0.4,0.1,0.6,0.2s0.3,0.3,0.5,0.4c0.2,0.1,0.4,0.1,0.5,0.2s0.5,0,0.7,0.1
		c0.1,0.1,0.3,0.3,0.4,0.5c0.1,0.1,0.2,0.3,0.4,0.5c0.1,0.2,0,0.4,0.1,0.6c0.1,0.2,0.1,0.4,0.2,0.6c0.1,0.2,0.4,0.3,0.4,0.5
		c0.1,0.2,0.1,0.4,0.2,0.6C174.1,144.9,174.1,145.2,174,145.3L174,145.3z"/>
</g>
<g class="st0">
	<path class="st1" d="M488.8,136.3c0,0.2,0,0.4-0.1,0.6c0,0.2-0.4,0.3-0.5,0.5c-0.1,0.2-0.2,0.3-0.3,0.5s0,0.5-0.1,0.6
		c-0.1,0.1-0.4,0.2-0.5,0.3c-0.1,0.1-0.4,0.2-0.5,0.2c-0.2,0.1-0.3,0.2-0.5,0.2c-0.2,0.1-0.3,0.2-0.5,0.3c-0.2,0-0.4,0.1-0.6,0.1
		s-0.4-0.1-0.6-0.1c-0.2,0-0.4-0.1-0.6-0.2s-0.4-0.1-0.5-0.2c-0.2-0.1-0.4-0.1-0.5-0.3s-0.2-0.4-0.3-0.5c-0.1-0.1-0.2-0.3-0.3-0.5
		c-0.1-0.2-0.2-0.3-0.3-0.5c-0.1-0.2,0-0.4,0-0.6c0-0.2-0.1-0.4-0.1-0.6s0-0.4,0-0.6s0.2-0.3,0.2-0.5c0.1-0.2-0.1-0.5,0-0.6
		c0.1-0.2,0.1-0.4,0.3-0.6c0.1-0.1,0.3-0.3,0.5-0.4s0.4-0.1,0.6-0.2c0.2-0.1,0.4-0.1,0.5-0.2s0.4-0.2,0.6-0.2s0.4,0.2,0.6,0.2
		s0.4-0.1,0.6,0c0.2,0,0.4,0.1,0.5,0.1c0.2,0.1,0.4,0,0.6,0.1c0.2,0.1,0.3,0.2,0.5,0.4s0.3,0.2,0.5,0.4c0.1,0.1,0.1,0.4,0.2,0.6
		s0.4,0.3,0.4,0.4c0.1,0.2,0.2,0.4,0.3,0.6S488.7,136.1,488.8,136.3L488.8,136.3z"/>
</g>
<g class="st0">
	<path class="st1" d="M645.8,340.6c0,0.2,0.3,0.4,0.3,0.6c0,0.2-0.2,0.4-0.2,0.6c-0.1,0.2-0.2,0.4-0.3,0.5c-0.1,0.2-0.1,0.4-0.2,0.6
		c-0.1,0.1-0.3,0.3-0.5,0.4c-0.2,0.1-0.5,0-0.7,0.1c-0.2,0.1-0.3,0.1-0.5,0.2c-0.2,0.1-0.3,0.4-0.5,0.4c-0.2,0-0.4-0.1-0.6-0.1
		s-0.4-0.1-0.6-0.1c-0.2,0-0.4-0.1-0.5-0.2s-0.4,0-0.6-0.1c-0.2-0.1-0.4-0.1-0.5-0.3c-0.2-0.1-0.2-0.3-0.4-0.5
		c-0.1-0.1-0.2-0.3-0.3-0.5s-0.2-0.3-0.3-0.5c-0.1-0.2-0.2-0.4-0.2-0.6c0-0.2,0.1-0.4,0.1-0.6s0.1-0.4,0.1-0.6
		c0-0.2,0.1-0.4,0.1-0.6c0.1-0.2,0.2-0.3,0.3-0.5s0.2-0.3,0.3-0.5c0.1-0.1,0.2-0.3,0.3-0.5c0.2-0.1,0.3-0.1,0.5-0.2
		c0.2-0.1,0.2-0.4,0.4-0.5c0.2-0.1,0.4-0.2,0.6-0.3c0.2,0,0.4,0,0.6,0s0.4,0.2,0.6,0.2c0.2,0,0.4,0.1,0.6,0.2
		c0.2,0.1,0.4,0.1,0.5,0.2c0.2,0.1,0.2,0.4,0.3,0.5c0.2,0.1,0.3,0.2,0.5,0.3s0.2,0.3,0.3,0.5c0.1,0.2,0.3,0.3,0.4,0.5
		c0.1,0.2,0.1,0.4,0.1,0.6C646,340.2,645.8,340.4,645.8,340.6L645.8,340.6z"/>
</g>
<g class="st0">
	<path class="st1" d="M30.7,338.4c0,0.2,0.2,0.4,0.2,0.6c0,0.2-0.1,0.4-0.1,0.6c-0.1,0.2-0.3,0.3-0.4,0.5s-0.3,0.3-0.4,0.4
		s0,0.5-0.2,0.6s-0.4,0.2-0.5,0.3s-0.4,0.1-0.6,0.2c-0.2,0.1-0.4,0.3-0.5,0.3c-0.2,0-0.4,0-0.6,0s-0.4-0.3-0.6-0.4
		c-0.2,0-0.4-0.1-0.5-0.2s-0.5,0.1-0.6,0c-0.2-0.1-0.3-0.3-0.4-0.4c-0.1-0.1-0.2-0.3-0.3-0.5c-0.1-0.1-0.2-0.3-0.3-0.5
		s-0.3-0.3-0.4-0.5c-0.1-0.2-0.2-0.4-0.2-0.6c0-0.2,0-0.4,0-0.6s0-0.4,0.1-0.6c0-0.2,0-0.4,0.1-0.6c0.1-0.2,0.1-0.4,0.2-0.6
		c0.1-0.2,0.3-0.2,0.5-0.4c0.1-0.1,0.3-0.2,0.4-0.4s0.3-0.2,0.5-0.4c0.2-0.1,0.4-0.1,0.6-0.1c0.2-0.1,0.3-0.1,0.5-0.2
		c0.2,0,0.4-0.1,0.6-0.1s0.4,0.1,0.6,0.1c0.2,0,0.5-0.2,0.6-0.1c0.2,0.1,0.4,0.1,0.6,0.2s0.3,0.3,0.5,0.4c0.1,0.1,0.2,0.4,0.3,0.5
		s0.2,0.3,0.3,0.5c0.1,0.2,0.2,0.3,0.3,0.5c0.1,0.2-0.1,0.4-0.1,0.6C30.6,338,30.7,338.2,30.7,338.4L30.7,338.4z"/>
</g>
<g class="st5">
	<path class="st1" d="M660.2,9c0,0.2,0,0.4,0,0.6c0,0.2-0.1,0.4-0.1,0.6c0,0.2,0,0.4-0.1,0.6c-0.1,0.2-0.3,0.3-0.4,0.4
		c-0.1,0.2,0,0.5-0.1,0.6c-0.1,0.2-0.2,0.3-0.4,0.5s-0.4,0.1-0.6,0.3s-0.3,0.2-0.5,0.3c-0.2,0.1-0.2,0.5-0.3,0.6
		c-0.2,0.1-0.4,0.1-0.6,0.2c-0.2,0.1-0.4,0.1-0.6,0.1S656,14,655.8,14c-0.2,0-0.4,0-0.6,0s-0.4-0.3-0.6-0.4c-0.2,0-0.4-0.1-0.6-0.1
		s-0.5,0.1-0.6,0.1c-0.2-0.1-0.3-0.2-0.5-0.3c-0.2-0.1-0.3-0.3-0.5-0.4c-0.2-0.1-0.3-0.2-0.5-0.4c-0.2-0.1-0.4-0.2-0.5-0.3
		c-0.1-0.1-0.3-0.3-0.4-0.4c-0.1-0.2-0.2-0.4-0.2-0.6c-0.1-0.2-0.1-0.4-0.2-0.6s-0.2-0.4-0.2-0.6c0-0.2-0.2-0.4-0.2-0.6
		s0.1-0.4,0.1-0.6s0.1-0.4,0.1-0.6c0-0.2,0-0.4,0.1-0.6c0-0.2,0.2-0.3,0.3-0.5s0.1-0.4,0.2-0.5c0.1-0.2,0.1-0.4,0.2-0.5
		s0.3-0.2,0.4-0.4s0.1-0.5,0.2-0.6c0.2-0.1,0.2-0.3,0.4-0.5c0.2-0.1,0.4-0.2,0.5-0.3c0.2-0.1,0.4-0.1,0.6-0.1
		c0.2-0.1,0.4-0.1,0.6-0.1c0.2-0.1,0.4-0.1,0.6-0.2c0.2,0,0.4,0.2,0.6,0.2s0.4-0.1,0.6,0c0.2,0,0.4,0.1,0.6,0.1s0.4,0,0.6,0
		c0.2,0.1,0.4,0.2,0.5,0.3c0.2,0.1,0.4,0.2,0.5,0.3s0.2,0.4,0.3,0.5s0.4,0.1,0.5,0.3s0.4,0.2,0.5,0.4c0.1,0.2,0,0.5,0.1,0.7
		c0.1,0.2,0.3,0.3,0.4,0.5s-0.1,0.4-0.1,0.6c0,0.2,0.2,0.4,0.2,0.6C660,8.6,660.2,8.8,660.2,9L660.2,9z"/>
</g>
</svg>
