<?xml version="1.0" encoding="UTF-8"?>
<svg id="santa_body" data-name="santa body" xmlns="http://www.w3.org/2000/svg" viewBox="0 0 116.69 119.9">
  <defs>
    <style>
      .cls-1 {
        fill: #fff;
      }

      .cls-2 {
        fill: #8a6539;
      }

      .cls-3 {
        fill: #fffde9;
      }

      .cls-4 {
        fill: #f04e37;
      }

      .cls-5 {
        fill: #f26649;
      }

      .cls-6 {
        fill: #e6e6e6;
      }

      .cls-7 {
        fill: #73542d;
      }

      .cls-8 {
        fill: #fd0;
      }

      .cls-9 {
        fill: #f7941d;
      }
    </style>
  </defs>
  <g>
    <g>
      <g>
        <path class="cls-4" d="M55.88,95.55c-.09,.27,.14,.34,.05,.61s-.3,.2-.39,.46c-.09,.27,.08,.32-.01,.59-.09,.27-.04,.28-.13,.55s-.04,.28-.13,.55-.4,.16-.49,.43c-.09,.27,.16,.35,.07,.62-.09,.27-.14,.25-.23,.52-.09,.27,.04,.31-.05,.58-.09,.27-.38,.17-.47,.44-.09,.27,.08,.33,0,.6-.09,.27-.05,.28-.14,.55s-.1,.27-.19,.54c-.09,.27-.18,.24-.27,.51-.09,.27,0,.3-.08,.57-.09,.27-.27,.21-.36,.48-.09,.27-.12,.26-.21,.53s.07,.32-.02,.59c-.09,.27-.26,.21-.35,.48-.09,.27,.14,.35,.05,.62s-.04,.32-.27,.48c-.23,.17-.26,.02-.54,.02s-.28-.16-.57-.16-.29,.16-.57,.16-.28-.12-.57-.12-.29,.29-.57,.29-.28-.28-.57-.28-.29,.32-.57,.32-.28-.36-.57-.36-.29,.34-.58,.34-.28-.33-.57-.33-.29,.05-.57,.05-.29,.19-.57,.18c-.29,0-.28-.26-.57-.26s-.29,.18-.58,.18-.29-.24-.57-.24-.42,.44-.64,.25-.14-.33-.18-.61,.08-.3,.03-.58c-.04-.28,0-.29-.06-.57s.13-.31,.08-.59c-.04-.28-.43-.22-.47-.5s.06-.3,0-.58c-.04-.28,.28-.33,.23-.62-.04-.28-.06-.28-.11-.56-.04-.28-.26-.25-.3-.53s-.02-.29-.06-.57c-.04-.28,.09-.3,.04-.58l-.08-.56c-.04-.28-.06-.28-.11-.56-.04-.28-.11-.27-.16-.55s-.31-.24-.36-.52c-.04-.28,.36-.35,.31-.63-.04-.28-.45-.22-.5-.5-.04-.28,0-.29-.04-.57-.05-.28,.18-.32,.14-.6-.05-.28,.07-.3,.03-.59-.05-.28-.36-.23-.4-.52-.05-.28-.1-.27-.15-.56-.05-.28-.03-.29-.07-.57-.05-.28,.25-.33,.21-.61s-.39-.23-.43-.51c-.05-.28,.09-.31,.04-.59s-.14-.27-.18-.55c-.05-.29,.12-.31,.07-.6-.05-.29-.16-.27-.21-.55"/>
        <path class="cls-7" d="M42.6,106.2c-.02,.29,.05,.29,.04,.58-.02,.29-.29,.28-.3,.56-.02,.29,0,.29-.03,.58-.02,.29,.15,.3,.13,.59s.12,.3,.1,.58c-.02,.29-.24,.28-.26,.57-.02,.29,.02,.29,0,.58-.02,.29,.18,.3,.16,.59s-.36,.27-.37,.56c0,.02,.22-.08,.2-.09-.07-.04-.34,.06-.6-.05-.14-.07-.24-.31-.44-.39-.16-.07-.33-.16-.52-.23-.17-.06-.36-.08-.55-.14-.17-.06-.39,0-.57-.05-.17-.05-.39,.04-.57,0s-.28-.45-.47-.49c-.18-.04-.43,.31-.62,.28-.18-.03-.32-.42-.51-.44-.18-.02-.4,.28-.59,.27-.19,0-.38-.22-.57-.21-.19,0-.37,.19-.56,.21-.19,.02-.36,.11-.55,.14s-.37,.04-.55,.09c-.19,.05-.33,.2-.5,.26-.18,.06-.5-.23-.67-.16-.18,.08-.33,.22-.5,.31s-.31,.24-.47,.35-.33,.21-.47,.33c-.15,.12-.13,.42-.26,.55-.13,.13-.42,.13-.54,.27-.12,.15-.28,.27-.39,.43-.11,.16-.02,.44-.11,.6-.09,.17-.07,.37-.15,.55-.08,.17-.24,.3-.31,.48-.06,.18-.23,.32-.28,.51-.05,.18,.03,.39,0,.58s-.17,.36-.19,.55,0,.38,0,.57,.24,.36,.26,.56c0,.19-.4,.42-.37,.61,.03,.19,.36,.33,.4,.52h.07c.06,.27,.14,.55,.43,.57s.28,.13,.57,.15c.29,.02,.3-.24,.59-.23,.29,.02,.29-.03,.58-.02,.29,.02,.28,.22,.56,.24,.29,.02,.28,.1,.57,.12,.29,.02,.29-.03,.58-.02,.29,.02,.3-.26,.59-.25,.29,.02,.28,.04,.57,.06s.28,.22,.56,.23c.29,.02,.3-.15,.58-.14,.29,.02,.29-.09,.58-.07,.29,.02,.29,.05,.57,.07,.29,.02,.28,.08,.57,.1s.28,.2,.56,.22c.29,.02,.28,.06,.57,.08,.28,.02,.29-.15,.58-.13,.29,.02,.28,.19,.56,.21,.29,.02,.3-.18,.58-.16,.29,.02,.29-.02,.58,0s.27,.28,.56,.3,.29-.06,.58-.04,.3-.24,.59-.22,.28,.07,.57,.08c.29,.02,.28,.19,.57,.21s.29-.11,.58-.1c.29,.02,.28,.19,.57,.21s.31-.33,.6-.31,.28,.23,.56,.25c.29,.02,.29,.04,.57,.06,.29,.02,.29-.03,.58,0s.28,.15,.57,.16c.29,.02,.3-.24,.59-.22,.29,.02,.27,.32,.56,.34,.29,.02,.3-.19,.59-.17,.19,0,.38,.05,.56,0s.35-.14,.51-.24,.16-.34,.28-.49c.12-.14,.25-.23,.33-.4,.07-.17,.33-.3,.35-.49,.02-.28-.13-.3-.11-.58s.25-.26,.27-.55c.02-.28-.33-.31-.31-.59,.02-.28,.09-.28,.11-.56,.02-.28,.05-.28,.07-.56s-.03-.29,0-.57c.02-.28,.33-.26,.36-.54,.02-.28-.18-.3-.16-.58s-.06-.29-.04-.57c.02-.28,.21-.27,.23-.55,.02-.28,.12-.28,.15-.56,.02-.28-.38-.32-.35-.6,.02-.28,.06-.28,.08-.57,.02-.28,.14-.28,.17-.56,.02-.28,.11-.28,.13-.56s.19-.27,.21-.55-.22-.3-.2-.59c.02-.29,.04-.28,.06-.57,.02-.29,.17-.27,.2-.56,.02-.29-.14-.3-.12-.59s.28-.27,.31-.55c0-.02-.23-.13-.25-.12-.28,0-.29-.13-.57-.13h-.57c-.29,0-.28,.39-.57,.39s-.29-.17-.58-.17-.29-.11-.57-.11-.29-.07-.57-.07h-.57c-.29,0-.29,.08-.58,.09-.29,0-.29,.19-.57,.19s-.29,.11-.57,.11-.29-.05-.58-.05-.29-.15-.58-.14c-.29,0-.29,.04-.57,.04s-.29,.15-.57,.15-.29-.26-.58-.26-.29,.04-.58,.04-.29-.17-.58-.16c-.29,0-.29,.36-.58,.36-.02,0,.04-.15,.04-.14l-.03-.02Z"/>
        <path class="cls-1" d="M40.38,105.76c0,.3,.24,.29,.24,.59s-.41,.3-.41,.6,.09,.3,.09,.59c0,.2,.34,.34,.41,.52,.07,.18-.09,.52,.04,.67s.38,.21,.55,.31c.17,.1,.36,.18,.56,.24,.19,.05,.39-.12,.6-.13,.29,0,.3,.28,.59,.28s.29,.09,.59,.08c.3,0,.29-.35,.59-.35s.3,.31,.59,.31,.29-.04,.59-.04,.29-.28,.59-.29c.3,0,.3,.17,.59,.17s.3,.06,.59,.06,.29-.13,.59-.14c.3,0,.3-.06,.59-.06s.3-.09,.59-.09,.3-.03,.59-.03,.3,.12,.59,.12,.3,.28,.59,.28,.3,0,.59-.02c.3,0,.3-.31,.59-.31s.3-.02,.6-.02c.19,0,.35-.02,.52-.07,.19-.05,.42,.06,.58-.03,.17-.1,.21-.34,.34-.47,.13-.14,.38-.19,.46-.36s.15-.37,.17-.56c.03-.3-.2-.32-.17-.61,.03-.3,.13-.29,.16-.58,.03-.3,.08-.29,.11-.59,.02-.22-.09-.4-.15-.6-.06-.2-.24-.29-.37-.46-.13-.16-.02-.61-.2-.72-.17-.11-.44-.18-.64-.24-.2-.05-.45,.15-.67,.15-.28,0-.28-.13-.56-.12-.28,0-.28,.13-.56,.13s-.29-.28-.57-.28-.28,.17-.57,.17-.28-.04-.57-.03c-.28,0-.28,.23-.56,.23s-.28,0-.57,0c-.28,0-.29-.18-.57-.18s-.28,.25-.57,.25-.29-.39-.57-.38c-.28,0-.28,.25-.57,.25s-.29-.19-.57-.18c-.28,0-.28,.11-.57,.11s-.28-.17-.57-.17-.28,.2-.57,.2-.28,.23-.57,.24c-.29,0-.29-.24-.57-.24s-.29,.21-.57,.21c-.21,0-.4-.13-.58-.08-.2,.05-.28,.28-.45,.38-.17,.11-.3,.19-.42,.33-.13,.15-.55,.14-.62,.32-.07,.18,.03,.45,.04,.65h0Z"/>
      </g>
      <path class="cls-6" d="M40.47,107.54c0,.2-.16,.47-.09,.65s.26,.36,.39,.51,.4,.14,.58,.25c.17,.1,.31,.27,.5,.33,.19,.05,.4,.21,.6,.21,.29,0,.29,0,.59,0s.29-.2,.59-.21c.3,0,.3,.05,.59,.05s.29-.18,.59-.18,.3,.32,.59,.32,.29-.2,.59-.21c.3,0,.3,.08,.59,.08s.29-.25,.59-.26c.3,0,.3,.41,.59,.41s.3-.08,.59-.08,.3,.03,.59,.03,.29-.2,.59-.21c.29,0,.29-.16,.59-.16s.3,.31,.59,.31,.29-.31,.59-.31,.3,.28,.6,.28,.3-.18,.59-.18c.19,0,.42,.19,.59,.14,.19-.05,.3-.3,.46-.39,.17-.1,.37-.14,.5-.27,.13-.14,.39-.23,.47-.4s.09-.42,.1-.61c.01-.13,.04-.29-.08-.34-.27-.12-.32,.13-.62,.13h-.59c-.3,0-.29-.25-.59-.25s-.29,.11-.59,.11-.29,.26-.59,.26-.29,.02-.58,.02-.29-.39-.58-.39-.29,.14-.58,.14h-.59c-.3,0-.29,.27-.59,.27h-.59c-.3,0-.29-.27-.58-.27s-.29,.12-.59,.12h-.59c-.3,0-.29-.05-.59-.05s-.29,.04-.59,.04-.29-.06-.59-.06-.29,.11-.59,.11-.29-.32-.59-.32-.29,.02-.59,.02-.29,.35-.59,.35-.3-.04-.59-.04-.3,.08-.59,.08-.28-.11-.57-.06c-.09,.02,0-.04,0,.05h.06Z"/>
    </g>
    <g>
      <g>
        <path class="cls-4" d="M56.78,95.66c.09,.27,.35,.18,.44,.45,.09,.27,.13,.25,.21,.52,.09,.27,.04,.28,.13,.55s-.13,.34-.04,.61,.19,.23,.28,.5,.12,.26,.21,.53,.02,.29,.11,.56c.09,.27,.04,.29,.13,.55,.09,.27,.42,.16,.51,.43,.09,.27-.02,.31,.07,.57,.09,.27,.15,.25,.24,.52s.06,.28,.15,.55c.09,.27-.05,.32,.04,.59,.09,.27,.2,.23,.29,.5,.09,.27-.2,.37-.11,.64s.16,.25,.25,.52,.26,.21,.35,.48c.09,.27,.08,.28,.17,.55s-.13,.34-.04,.61,.44,.16,.53,.43c.09,.27-.28,.52-.05,.68,.23,.17,.34-.26,.63-.26s.29,.08,.57,.07c.28,0,.28-.09,.57-.09s.29,.17,.57,.17,.28,.03,.57,.02c.29,0,.28-.2,.57-.2s.29,.25,.57,.24c.29,0,.28-.31,.57-.31s.29,.34,.58,.34,.28-.11,.57-.12c.29,0,.28-.07,.57-.07s.28,0,.57-.02c.29,0,.29,0,.57,0h.57c.29,0,.29,.07,.58,.07s.22,0,.44-.19-.04-.16,0-.44,.05-.28,.1-.56c.04-.28,.32-.24,.37-.52,.04-.28,.06-.28,.1-.56s.03-.28,.07-.57c.04-.28-.19-.32-.15-.6s.05-.28,.1-.56c.04-.28,.23-.25,.28-.53,.04-.28,.11-.27,.16-.55,.04-.28-.07-.3-.03-.58s.24-.25,.28-.53-.08-.3-.03-.58c.04-.28,.11-.27,.16-.55,.04-.28-.24-.33-.2-.61,.05-.28,.11-.27,.16-.56,.04-.28,.2-.26,.25-.54,.04-.28-.11-.31-.07-.59s.04-.28,.08-.57c.05-.28,.34-.24,.38-.52s-.16-.32-.12-.6-.12-.31-.07-.59,.1-.28,.14-.56c.05-.28,.13-.27,.17-.55,.05-.28,.2-.26,.25-.54,.04-.28-.09-.31-.05-.59,.05-.28-.05-.3,0-.58s.26-.25,.31-.53c.05-.29-.18-.32-.13-.61s.11-.28,.16-.56"/>
        <path class="cls-7" d="M70.45,106.2c.02,.29-.19,.3-.17,.59,.02,.29,.26,.28,.28,.57,.02,.29,.05,.29,.06,.58,.02,.29-.04,.29-.02,.58,.02,.29-.07,.29-.05,.58,.02,.29,.1,.29,.11,.58,.02,.29,.1,.29,.12,.58,.02,.29-.08,.3-.06,.59,.02,.29-.06,.3-.04,.59,0,.02,0-.13,.01-.15,.07-.04,.29-.05,.55-.17,.14-.07,.28-.24,.47-.33,.16-.07,.44,.14,.63,.07,.17-.06,.29-.26,.48-.32,.17-.06,.34-.16,.52-.21,.17-.05,.41,.11,.6,.07,.18-.04,.33-.22,.52-.26,.18-.04,.34-.25,.53-.28,.18-.03,.41,.25,.6,.23,.18-.02,.36-.1,.55-.11,.19,0,.38,.08,.57,.08s.38,0,.56,.03c.19,.02,.35,.15,.54,.19,.19,.03,.44-.26,.63-.21,.19,.05,.41,0,.59,.07,.18,.06,.24,.44,.41,.52,.18,.08,.31,.21,.47,.31,.17,.09,.3,.21,.45,.32,.16,.11,.55-.09,.69,.03,.15,.12,.05,.51,.18,.65,.13,.13,.46,.1,.58,.24,.12,.15,.3,.27,.41,.42,.11,.16,.11,.39,.2,.56s.3,.28,.38,.46c.08,.17-.16,.47-.1,.65,.06,.18,.23,.32,.27,.51,.05,.18,.18,.35,.21,.54,.03,.19-.01,.39,0,.58,.02,.19-.19,.38-.19,.57s.34,.39,.32,.58c-.01,.19-.06,.38-.09,.57s-.1,.37-.14,.56l-.19-.04c-.06,.28-.18,.59-.47,.6-.29,.02-.28,.12-.57,.13-.29,.02-.29-.1-.58-.08s-.28,.07-.57,.08c-.29,.02-.29-.11-.58-.09s-.28,.17-.57,.19-.3-.19-.59-.18c-.29,.02-.29-.13-.58-.12-.29,.02-.26,.43-.55,.45s-.3-.32-.59-.31c-.29,.02-.28,.16-.57,.17-.29,.02-.29,.03-.57,.04-.29,.02-.29-.03-.58,0-.29,.02-.29-.07-.58-.05-.19,.01-.38,.02-.57,.03-.29,.02-.29-.06-.58-.05-.28,.02-.27,.3-.55,.32-.29,.02-.3-.29-.59-.28-.29,.02-.27,.23-.56,.24-.29,.02-.28,.13-.57,.14-.29,.02-.3-.12-.58-.1-.29,.02-.28,.07-.57,.08-.29,.02-.28,.13-.57,.15-.29,.02-.3-.25-.59-.23-.29,.02-.27,.27-.56,.28-.29,.02-.3-.26-.59-.24-.29,.02-.28,.13-.57,.14-.29,.02-.3-.13-.59-.11-.29,.02-.28,.23-.56,.25-.29,.02-.29-.05-.58-.04-.29,.02-.3-.13-.58-.11-.29,.02-.28,.19-.57,.2-.29,.02-.29-.02-.58,0s-.29,.06-.58,.08-.29-.05-.58-.03c-.19,0-.39,.1-.57,.05s-.25-.33-.4-.43c-.16-.1-.24-.2-.36-.35-.12-.14-.16-.26-.23-.44-.07-.17-.11-.28-.12-.47-.02-.28-.42-.25-.45-.53-.02-.28,0-.28-.03-.57-.02-.28,.34-.31,.32-.59s-.24-.26-.26-.55c-.02-.28-.17-.27-.2-.55-.02-.28,.11-.29,.09-.58-.02-.28-.1-.28-.12-.56-.02-.28,.26-.31,.23-.59-.02-.28-.34-.26-.37-.54-.02-.28-.07-.28-.09-.56s.02-.29,0-.57c-.02-.28,.14-.3,.12-.58s.04-.29,.02-.57c-.02-.28-.1-.28-.12-.56-.02-.28,.03-.29,0-.57-.02-.28-.07-.28-.1-.56-.02-.28-.21-.27-.23-.55-.02-.29,.18-.3,.16-.59s.02-.29,0-.57c-.02-.29-.18-.27-.2-.56s.18-.3,.16-.59c0-.02-.1-.02-.08-.02,.28,0,.29-.11,.57-.1,.29,0,.28,.08,.57,.09,.29,0,.29,.02,.57,.03,.29,0,.29,.05,.57,.05s.29-.23,.57-.23,.29,.15,.57,.15,.29,.23,.57,.23,.29,0,.58,0,.29-.35,.58-.35,.29,.03,.57,.03,.29,.05,.58,.05,.29,.19,.57,.19,.29,.06,.57,.06,.29-.34,.58-.34,.29,.09,.58,.09,.29,0,.58,0c.29,0,.29,.1,.58,.1s.29-.02,.58-.02c.02,0,.03,.03,.03,.04l.04-.04Z"/>
        <path class="cls-1" d="M72.62,105.76c0,.3,.01,.3,.01,.59s-.05,.3-.05,.59-.11,.3-.11,.59c0,.2,.12,.43,.04,.61-.07,.18-.3,.29-.43,.44-.13,.15-.35,.13-.53,.23-.17,.1-.21,.49-.4,.54-.19,.05-.42-.2-.62-.2-.29,0-.29,.23-.59,.23s-.3,.11-.59,.11-.29-.08-.59-.08-.29,0-.59,0c-.29,0-.29-.02-.59-.02s-.29-.12-.59-.13c-.3,0-.3,.06-.59,.06s-.29-.08-.59-.08-.29-.17-.59-.18c-.3,0-.3,.24-.59,.23-.3,0-.3,.05-.59,.05s-.29-.25-.59-.25-.29-.02-.59-.02-.3,.34-.6,.34-.3-.04-.59-.04h-.6c-.3,0-.3-.14-.59-.14-.19,0-.37-.05-.55-.09-.19-.05-.34-.15-.5-.24-.17-.1-.4-.11-.52-.24-.13-.14-.37-.25-.45-.42-.08-.17-.14-.42-.16-.61-.03-.3,.02-.3,0-.6-.03-.3-.05-.29-.08-.59s-.08-.29-.11-.59c-.02-.22,.07-.49,.13-.68,.06-.2,.16-.46,.29-.62,.13-.16,.38-.26,.56-.38,.17-.11,.46,.06,.67,0,.2-.05,.35-.4,.57-.4,.28,0,.28,.13,.56,.14,.28,0,.28-.15,.57-.15s.28,.26,.56,.26,.29-.18,.57-.18,.28-.03,.57-.02c.28,0,.28,.05,.57,.05s.28,.19,.57,.19,.28,.08,.57,.08,.29-.34,.57-.34,.28,.31,.57,.31,.29-.03,.57-.03,.28,.07,.57,.07,.29-.2,.57-.19c.28,0,.28,.06,.57,.07,.29,0,.29-.2,.57-.2s.28,.16,.57,.16,.29-.15,.57-.15,.29,.07,.57,.08c.21,0,.36,.25,.54,.3,.2,.05,.4,0,.57,.11s.31,.24,.43,.38c.13,.15,.39,.24,.46,.43,.07,.18,.05,.42,.05,.63h0Z"/>
      </g>
      <path class="cls-6" d="M58.52,107.49c-.12,.05,.08-.02,.09,.11,.02,.19-.01,.36,.07,.53s0,.48,.14,.62c.13,.13,.37,.2,.54,.29,.16,.09,.43-.08,.61-.03s.32,.07,.52,.08c.29,0,.29,.23,.58,.23s.3-.1,.59-.1,.29,.1,.59,.1,.3-.13,.59-.13,.29,.1,.59,.1,.3-.2,.59-.2,.29,.4,.59,.4,.3-.42,.59-.42,.3,0,.59,0,.3,.03,.59,.03,.29,.36,.59,.36,.3-.35,.59-.35,.29,.16,.59,.16,.3-.1,.59-.1h.59c.3,0,.3-.05,.6-.05s.3,.3,.59,.3c.21,0,.46,.05,.64,0,.2-.05,.25-.47,.41-.57,.17-.1,.55,.03,.68-.12s.03-.47,.11-.66c.07-.18,.33-.35,.34-.56,0-.09-.02-.33-.1-.36-.28-.09-.35,.16-.64,.16s-.29-.2-.59-.2-.29,.41-.59,.41-.29-.02-.59-.02-.29,.05-.59,.05-.29-.12-.58-.12-.29-.22-.58-.22-.29-.03-.58-.03-.29,.02-.59,.02-.29-.1-.59-.1-.29,.43-.59,.43-.29-.23-.58-.23-.29-.14-.59-.14h-.59c-.3,0-.29,.06-.59,.06s-.29,.2-.59,.2-.29,.07-.59,.07-.29,.06-.59,.06-.29-.18-.59-.18-.29-.1-.59-.1-.29,.04-.59,.04-.3,.13-.59,.13-.3-.2-.59-.2-.26,.11-.53,.23h.03Z"/>
    </g>
    <path class="cls-4" d="M101.3,67.23c0,.19,.02,.39,.01,.58,0,.19-.25,.38-.25,.58s.23,.39,.22,.59c0,.19-.03,.39-.03,.58s-.06,.39-.07,.58,.06,.39,.04,.59c-.01,.19,.02,.39,0,.58s-.06,.39-.08,.58c-.02,.19-.2,.37-.22,.56-.02,.19-.2,.37-.22,.56-.02,.19,.08,.4,.06,.59-.03,.19,.05,.4,.02,.59-.03,.19-.21,.36-.24,.55s-.2,.36-.23,.55c-.03,.19,.29,.45,.25,.64s-.18,.36-.21,.55c-.04,.19-.03,.39-.07,.58s0,.4-.05,.59-.44,.29-.49,.47c-.05,.19,.12,.43,.06,.62-.05,.19-.28,.32-.33,.51-.06,.19,.11,.44,.05,.62s-.22,.34-.28,.52c-.06,.18-.08,.38-.15,.56s-.06,.39-.13,.57c-.07,.18-.36,.27-.43,.45s-.06,.39-.14,.57c-.08,.18,.06,.45-.02,.63-.08,.18-.46,.21-.54,.38s-.07,.4-.16,.57c-.09,.17-.14,.36-.23,.53-.09,.17-.12,.38-.21,.54-.1,.17-.32,.26-.42,.42-.1,.17-.35,.23-.45,.4-.1,.16-.2,.33-.31,.49s-.01,.46-.12,.62c-.11,.16-.17,.36-.28,.51-.11,.16-.27,.29-.38,.44-.12,.15-.21,.33-.33,.48s-.46,.12-.58,.27c-.12,.15-.25,.29-.38,.43s-.21,.33-.34,.47-.27,.27-.41,.4c-.13,.14-.27,.27-.41,.4-.14,.13-.32,.22-.46,.35s-.14,.41-.29,.54c-.14,.13-.3,.24-.45,.36-.15,.12-.37,.16-.52,.28-.15,.12-.25,.3-.4,.42s-.18,.4-.33,.52c-.15,.11-.47,0-.63,.12-.16,.11-.16,.45-.32,.56-.16,.11-.35,.17-.51,.27s-.36,.16-.52,.26c-.16,.1-.35,.16-.52,.26-.17,.1-.4,.07-.57,.16s-.28,.28-.45,.37-.23,.39-.4,.48-.45-.03-.62,.06c-.17,.09-.31,.25-.48,.33-.17,.08-.38,.09-.56,.17-.17,.08-.42,0-.59,.08-.18,.08-.24,.42-.41,.5-.18,.07-.43-.03-.6,.04-.18,.07-.31,.27-.49,.34-.18,.07-.34,.19-.52,.26-.18,.07-.41,0-.59,.05-.18,.06-.41,0-.59,.05-.18,.06-.34,.18-.52,.24-.18,.06-.38,.06-.56,.12s-.27,.43-.46,.49c-.18,.05-.41-.03-.59,.02-.18,.05-.37,.09-.56,.14-.19,.05-.39,.02-.58,.07s-.33,.26-.52,.3c-.19,.04-.38,.07-.57,.11s-.43-.18-.62-.14-.3,.45-.49,.48c-.19,.04-.38,.05-.57,.09s-.42-.17-.61-.13c-.19,.03-.35,.25-.54,.28s-.37,.1-.56,.13c-.19,.03-.41-.16-.6-.13-.19,.03-.39-.02-.58,0-.19,.03-.38,.02-.57,.05s-.33,.46-.52,.48c-.19,.02-.41-.19-.6-.16-.19,.02-.4-.15-.59-.12-.19,.02-.35,.36-.54,.38s-.38,.09-.57,.11-.42-.3-.61-.28-.35,.44-.54,.45c-.19,.02-.42-.36-.61-.35-.19,.02-.37,.15-.56,.16-.19,0-.37,.29-.56,.3-.19,0-.4-.3-.6-.29-.19,0-.38,.02-.58,.03-.19,0-.38,.15-.57,.16-.19,0-.38,.22-.57,.23-.19,0-.39-.18-.59-.17-.19,0-.38,.1-.57,.11-.19,0-.39-.06-.58-.05-.19,0-.39-.15-.58-.15s-.38,.18-.58,.18-.39-.06-.58-.06-.39-.1-.58-.1-.39,.2-.58,.2-.39-.06-.59-.06-.39,.15-.58,.15-.39-.05-.58-.05-.39-.1-.58-.1-.38-.19-.58-.19-.39,.13-.58,.13-.39-.06-.58-.06-.39,.18-.59,.18-.38-.25-.57-.26c-.19,0-.4,.21-.59,.2-.19,0-.39,.02-.58,0-.19,0-.39,0-.58,0s-.37-.23-.57-.24c-.19,0-.4,.11-.59,.1-.19,0-.39-.03-.58-.04s-.36-.33-.56-.34c-.19-.02-.4,.2-.6,.19-.19-.02-.37-.2-.56-.21-.19-.02-.38-.08-.57-.1s-.42,.34-.62,.32c-.19-.02-.34-.44-.53-.46s-.42,.27-.61,.25-.36-.22-.55-.25-.4,.04-.59,.02c-.19-.03-.36-.21-.55-.23-.19-.03-.41,.14-.6,.11s-.38-.09-.57-.12-.4,.03-.59,0-.33-.33-.52-.37-.36-.16-.55-.2-.41,.09-.6,.05-.38-.09-.56-.13c-.19-.04-.36-.17-.54-.21-.19-.04-.43,.14-.62,.09s-.39-.02-.58-.07c-.19-.05-.31-.35-.5-.4-.19-.05-.39-.02-.58-.08-.19-.05-.4,0-.59-.05s-.4-.02-.58-.07c-.19-.06-.36-.14-.55-.2-.18-.06-.26-.44-.44-.51-.18-.06-.39-.04-.57-.11-.18-.06-.39-.04-.57-.11s-.36-.15-.54-.22-.31-.26-.49-.33-.46,.11-.64,.03c-.18-.07-.22-.45-.4-.53s-.44,.05-.62-.03-.43,0-.6-.09c-.17-.08-.29-.29-.46-.38-.17-.09-.29-.28-.46-.37s-.4-.07-.57-.16-.4-.08-.57-.17c-.17-.1-.15-.5-.32-.6s-.35-.17-.51-.27-.48,.04-.64-.07-.29-.26-.45-.37-.3-.24-.46-.35-.21-.36-.37-.47c-.15-.12-.25-.3-.4-.42s-.32-.21-.47-.33-.24-.3-.39-.42c-.15-.13-.42-.1-.56-.23-.14-.13-.18-.37-.32-.5s-.36-.18-.49-.31c-.14-.13-.18-.35-.32-.49-.13-.14-.41-.14-.54-.28s-.13-.4-.26-.54c-.13-.14-.45-.12-.58-.26-.12-.15-.07-.44-.19-.59s-.48-.11-.59-.27c-.12-.15-.12-.39-.23-.55-.11-.15-.3-.26-.41-.42s-.02-.45-.13-.61c-.1-.16-.39-.21-.49-.37-.1-.16,0-.44-.11-.61-.1-.16-.41-.21-.51-.37-.09-.17-.22-.32-.31-.49s.05-.46-.04-.63-.32-.27-.4-.45c-.08-.17-.23-.32-.31-.49s.05-.44-.02-.62c-.08-.18-.27-.3-.34-.48s0-.41-.06-.59c-.07-.18-.3-.3-.36-.48s-.23-.33-.29-.51-.13-.36-.19-.55c-.06-.18,.18-.46,.12-.64-.05-.18-.31-.31-.36-.5-.05-.18,.06-.41,0-.6-.05-.18-.03-.38-.07-.57s-.35-.31-.4-.5c-.04-.19-.11-.37-.15-.56s-.02-.39-.05-.58c-.04-.19-.14-.37-.18-.56-.03-.19,.36-.45,.33-.64s-.1-.37-.13-.56c-.03-.19-.34-.34-.36-.53s-.04-.38-.06-.58c-.02-.19-.07-.38-.09-.57s.13-.4,.12-.59c-.02-.19-.11-.37-.13-.57-.02-.19-.16-.38-.17-.57s.34-.41,.33-.6-.39-.36-.4-.56c0-.19,.09-.39,.09-.58s.24-.39,.24-.59-.38-.38-.38-.57,.02-.39,.02-.59-.05-.39-.05-.58,.3-.38,.3-.57-.17-.39-.16-.58c0-.19,.08-.38,.08-.57s-.03-.39-.02-.58c0-.19,.26-.37,.27-.56,0-.19-.21-.4-.2-.59,0-.19-.14-.4-.13-.59,0-.19,.34-.36,.36-.55s-.03-.39-.02-.58c.02-.19,.15-.37,.17-.56,.02-.19,.02-.38,.04-.57s-.09-.4-.06-.59c.02-.19,.13-.37,.15-.56,.03-.19,.2-.36,.23-.55s-.14-.41-.11-.6c.03-.19,.2-.36,.24-.55,.03-.19,.03-.38,.06-.57,.03-.19-.19-.42-.16-.61s.28-.34,.32-.53,.2-.35,.24-.54-.09-.41-.05-.6c.04-.19-.03-.4,0-.59,.04-.19,.34-.32,.38-.5,.04-.19-.04-.4,0-.59,.04-.19-.11-.42-.06-.61s.16-.36,.21-.54c.05-.19,.14-.36,.19-.55s0-.4,.05-.58c.05-.19,.07-.38,.13-.56,.05-.19,.16-.36,.21-.54s.04-.39,.09-.57,.17-.35,.22-.54c.06-.18,0-.4,.06-.59,.06-.18,.13-.36,.19-.55,.06-.18,.15-.36,.21-.54,.06-.18,.34-.29,.4-.47s-.11-.45-.05-.63,.39-.27,.45-.45c.07-.18-.13-.46-.06-.64s.18-.34,.25-.52,.33-.28,.4-.46,.05-.39,.12-.57,.28-.3,.36-.48c.07-.18-.11-.46-.03-.64,.07-.18,.08-.39,.15-.56,.08-.18,.18-.34,.25-.52,.08-.18,.31-.29,.39-.46,.08-.18,.19-.33,.27-.51s.11-.37,.19-.55c.08-.17,.36-.26,.44-.43,.08-.17,.1-.38,.18-.55,.08-.17,.02-.42,.11-.59s.35-.26,.43-.43c.09-.17-.08-.47,0-.64s.38-.24,.47-.41c.09-.17-.08-.48,0-.65,.09-.17,.22-.32,.31-.49s.22-.32,.31-.49,.33-.26,.43-.42c.1-.17,.19-.33,.29-.5,.1-.17,.33-.25,.43-.41,.1-.17-.03-.46,.07-.63,.1-.16,.29-.28,.39-.44s.03-.44,.13-.6c.1-.16,.3-.27,.41-.43,.1-.16,.46-.16,.57-.32,.11-.16,.16-.35,.27-.51s.04-.44,.15-.6c.11-.16,.15-.37,.26-.53,.11-.16,.37-.21,.48-.37s.31-.25,.42-.41c.11-.16,.13-.38,.24-.54,.12-.15,.36-.21,.48-.36s.25-.29,.37-.44,0-.49,.11-.64c.12-.15,.21-.33,.33-.48,.12-.15,.27-.27,.4-.42,.12-.15,.51-.08,.63-.22,.12-.15,.1-.42,.22-.57,.13-.15,.21-.32,.34-.47,.13-.14,.4-.16,.53-.3,.13-.14,.23-.31,.36-.45s.26-.28,.39-.42,.31-.23,.45-.37c.13-.14,.29-.25,.42-.39,.14-.14,.12-.42,.26-.56s.34-.2,.48-.33c.14-.13,.25-.3,.39-.43s.32-.22,.46-.35,.1-.46,.25-.59c.14-.13,.4-.13,.54-.26,.14-.13,.27-.28,.41-.41,.15-.13,.33-.21,.47-.33,.15-.12,.39-.13,.54-.25s.06-.53,.22-.65c.15-.12,.34-.19,.49-.31,.15-.12,.35-.18,.5-.29,.15-.12,.41-.09,.57-.2s.13-.47,.29-.58,.38-.13,.54-.24,.46-.01,.62-.12,.23-.35,.39-.46c.16-.1,.33-.2,.49-.31,.16-.1,.41-.07,.57-.17s.26-.31,.43-.41c.17-.1,.32-.21,.49-.3,.17-.09,.36-.14,.53-.23,.17-.09,.29-.27,.46-.36,.17-.09,.26-.35,.43-.43,.17-.09,.49,.12,.66,.03,.17-.08,.33-.19,.51-.27,.17-.08,.41-.03,.58-.11,.18-.08,.32-.21,.5-.28s.3-.28,.47-.35c.18-.07,.3-.3,.48-.37s.47,.15,.65,.09c.18-.07,.33-.21,.51-.27s.37-.1,.55-.16c.18-.06,.29-.35,.48-.4,.18-.06,.47,.24,.65,.19,.18-.05,.28-.44,.46-.49,.19-.05,.39-.03,.58-.07,.19-.05,.39,0,.58-.04s.35-.22,.53-.25c.19-.04,.39,0,.58-.04,.19-.03,.39,.02,.58,0,.19-.03,.4,.1,.59,.07,.19-.03,.33-.47,.52-.49,.19-.02,.39,0,.58,0,.19-.02,.39,.06,.58,.05,.19-.02,.38-.06,.57-.07s.39,.01,.58,0c.19,0,.39,.11,.58,.11s.38,.08,.57,.08,.39-.32,.58-.31c.19,0,.39-.03,.58-.03s.38,.15,.57,.17c.19,.01,.36,.28,.56,.3,.19,.02,.4-.13,.59-.11,.19,.02,.39-.06,.58-.04s.35,.3,.54,.33,.42-.23,.61-.19c.19,.03,.38,.05,.57,.08s.37,.12,.56,.16c.19,.04,.36,.15,.55,.19s.39,.02,.58,.07,.37,.09,.56,.14c.19,.05,.35,.19,.53,.25,.18,.05,.42-.07,.61-.02,.18,.06,.38,.07,.57,.13,.18,.06,.28,.37,.46,.43s.43-.07,.61,0,.29,.32,.47,.39,.46-.11,.64-.04,.27,.36,.45,.43,.43-.02,.6,.06c.18,.08,.34,.18,.52,.26,.17,.08,.24,.39,.41,.47,.17,.08,.34,.17,.52,.25,.17,.09,.41,.04,.58,.13s.25,.34,.42,.43c.17,.09,.49-.1,.66,0,.17,.09,.16,.5,.32,.59,.17,.1,.43,.03,.59,.13,.16,.1,.28,.28,.44,.38s.3,.24,.46,.35c.16,.1,.26,.3,.42,.41,.16,.11,.45,.01,.61,.12s.43,.06,.59,.17c.16,.11,.31,.23,.46,.34,.15,.11,.22,.35,.37,.47s.4,.11,.55,.23,.05,.56,.2,.68c.15,.12,.5,0,.65,.11,.15,.12,.09,.49,.24,.61s.56-.07,.71,.06c.15,.12,.02,.56,.17,.68,.14,.13,.4,.13,.54,.26,.14,.13,.29,.25,.43,.38s.32,.22,.46,.35,.31,.23,.45,.36,.22,.32,.36,.46c.14,.13,.41,.13,.55,.27,.13,.14,.03,.51,.16,.65,.13,.14,.43,.12,.56,.26s.13,.4,.26,.54c.13,.14,.39,.16,.52,.31,.13,.14,.26,.28,.39,.43,.13,.14,.27,.27,.4,.42,.13,.14,.26,.28,.39,.43,.12,.15,.25,.29,.38,.44,.12,.15,.14,.38,.27,.53,.12,.15,.28,.26,.4,.41s.29,.26,.41,.41,.04,.45,.16,.61c.12,.15,.44,.15,.55,.31,.11,.15,.16,.36,.27,.51,.11,.15,.03,.45,.15,.6,.11,.16,.35,.22,.46,.38,.11,.16,.13,.37,.24,.53,.11,.16,.39,.2,.5,.36s-.02,.47,.09,.63c.11,.16,.47,.15,.57,.31,.1,.16,.04,.43,.14,.59,.1,.16,.17,.34,.28,.51,.1,.16,.14,.36,.24,.53,.1,.16,.27,.29,.36,.45,.1,.16,.1,.38,.2,.55,.1,.17,.49,.16,.58,.33,.1,.17,.06,.41,.15,.58,.09,.17,.14,.36,.24,.53,.09,.17,.24,.31,.33,.48,.09,.17,.22,.32,.31,.49s.15,.35,.24,.52,.18,.34,.27,.51c.09,.17,.12,.37,.2,.54,.09,.17,.26,.3,.34,.47,.08,.17-.02,.43,.07,.61,.08,.17,.4,.24,.48,.41,.08,.17,0,.43,.07,.6,.08,.17,.28,.29,.36,.47s.07,.39,.14,.57c.08,.18,.22,.32,.3,.5s-.05,.44,.02,.62,.54,.19,.61,.37,.02,.41,.09,.59c.07,.18-.1,.45-.03,.63s.38,.27,.45,.45-.15,.47-.08,.65,.25,.32,.31,.5c.07,.18,.17,.35,.23,.53,.06,.18,.34,.29,.41,.47,.06,.18-.25,.49-.19,.67s.22,.33,.28,.51,.39,.28,.45,.46,.04,.39,.09,.58c.06,.18,0,.4,.06,.58s.21,.34,.27,.52c.05,.18-.19,.45-.14,.64s.26,.33,.31,.51c.05,.19,.07,.38,.12,.56,.05,.19,.36,.31,.41,.49,.05,.19-.14,.43-.1,.62s.27,.33,.32,.52c.04,.19-.09,.42-.05,.6,.04,.19,.12,.37,.16,.56,.04,.19,.04,.38,.08,.57s.24,.34,.28,.53-.05,.4-.01,.59c.04,.19,.03,.38,.07,.57,.03,.19,.28,.34,.31,.53s-.16,.42-.13,.61c.03,.19,.19,.36,.22,.55s-.01,.39,.01,.58c.03,.19,.21,.36,.23,.55,.03,.19,.09,.38,.11,.57,.02,.19,0,.39,.02,.58s-.02,.39,0,.58,.12,.38,.14,.57-.18,.4-.17,.6c.02,.19,.14,.37,.15,.57,.02,.19-.02,.39,0,.58,.01,.19,0,.39,.01,.58s.15,.38,.16,.57c0,.19,.07,.38,.07,.58v.58c0,.19-.35,.39-.35,.58s.43,.38,.43,.57-.11,.39-.11,.58l.07-.04Z"/>
  </g>
  <path class="cls-5" d="M8.05,87.7c-.2,0-.37-.34-.57-.37-.2-.02-.4,.06-.59,.02-.19-.05-.34-.18-.53-.25s-.48,.13-.66,.04c-.18-.09-.38-.17-.55-.27-.17-.11-.22-.38-.37-.51-.15-.12-.21-.34-.35-.48-.14-.14-.53-.06-.65-.22-.12-.15-.1-.43-.2-.6-.11-.17,0-.44-.09-.62s-.48-.22-.55-.4,.03-.43-.02-.62c-.05-.19-.31-.35-.34-.54-.03-.19-.06-.41-.07-.61,0-.2,.21-.4,.22-.6,.01-.19-.09-.39-.07-.58,.01-.19,.31-.36,.32-.56,.01-.19-.11-.39-.09-.58,.01-.19,.09-.38,.1-.57s.03-.38,.05-.57c.02-.19-.09-.39-.07-.58s.25-.36,.26-.55c.02-.19-.04-.39-.02-.58s-.18-.4-.16-.59,.08-.38,.1-.57,.05-.38,.07-.57,.18-.37,.2-.56,.02-.38,.04-.57-.08-.4-.06-.59-.06-.39-.04-.58c.02-.19,.18-.36,.21-.55,.03-.19,.29-.35,.32-.54,.03-.19-.14-.41-.11-.6,.03-.19-.16-.41-.13-.6s.36-.33,.39-.52c.03-.19,.03-.38,.06-.57,.03-.19-.1-.4-.07-.59s.2-.36,.23-.54c.03-.19,.08-.37,.12-.56,.03-.19,.18-.36,.21-.55,.03-.19-.02-.39,.02-.58,.03-.19,.14-.36,.18-.55s-.04-.4,0-.58c.04-.19-.08-.41-.04-.59,.04-.19,.11-.37,.14-.56,.04-.19-.08-.41-.04-.6,.04-.19,.41-.3,.45-.49,.04-.19-.08-.41-.04-.6s-.02-.4,.03-.58c.04-.19,.25-.34,.29-.52,.04-.19,.1-.37,.15-.56,.04-.19,.11-.37,.16-.55,.04-.19-.18-.44-.13-.62s.29-.32,.34-.51,.19-.35,.24-.53c.05-.19,.05-.38,.1-.57,.05-.19-.09-.42-.04-.61s.28-.32,.33-.51,.07-.38,.13-.56c.05-.18,.25-.33,.3-.51s.09-.37,.14-.56c.05-.18,.12-.36,.18-.55,.05-.18-.06-.42,0-.6,.05-.18-.08-.42-.03-.61,.05-.18,.4-.28,.46-.46s.17-.35,.22-.53c.06-.18-.2-.46-.14-.65,.06-.18,.23-.33,.28-.51,.06-.18-.04-.42,.02-.6,.06-.18,.26-.32,.32-.5s.18-.35,.24-.53,.17-.35,.23-.53,.06-.38,.12-.57c.06-.18,.2-.34,.27-.52,.06-.18,.22-.33,.29-.51,.06-.18,.16-.35,.23-.53s.08-.38,.15-.56-.11-.45-.04-.63,.24-.32,.31-.5,.21-.33,.28-.51c.07-.18-.11-.45-.04-.63s.5-.21,.57-.39,.03-.4,.1-.58,.12-.36,.2-.54c.07-.18-.13-.47-.06-.65s.41-.25,.48-.42c.07-.18-.09-.46-.02-.63,.08-.18,.19-.34,.27-.51,.08-.18,.2-.33,.28-.51s.28-.29,.36-.47c.08-.18-.04-.44,.03-.62,.08-.18,.47-.21,.55-.38s.13-.36,.21-.54c.08-.17,.11-.37,.19-.55,.08-.17,.26-.3,.34-.47s-.17-.5-.08-.68c.08-.17,.33-.27,.41-.44,.08-.17,.31-.28,.39-.45,.09-.17-.03-.44,.05-.62,.09-.17,.4-.23,.49-.4s-.09-.48,0-.65,.11-.38,.2-.54c.09-.17,.25-.3,.34-.47s.28-.29,.37-.45c.09-.17,.29-.28,.39-.45,.09-.17,.03-.42,.13-.59,.09-.17,.09-.39,.19-.56,.09-.17,.38-.23,.47-.39,.09-.17,.29-.27,.39-.44,.1-.17-.02-.46,.07-.62,.1-.17,.12-.38,.21-.54,.1-.17,.5-.15,.6-.32,.1-.16,.08-.4,.18-.56,.1-.16,.02-.44,.12-.6,.1-.16,.2-.33,.3-.49,.1-.16,.22-.32,.32-.48s.52-.13,.62-.29,.15-.36,.25-.52c.1-.16,0-.47,.09-.63,.11-.16,.43-.18,.54-.34,.11-.16-.06-.5,.05-.66s.35-.23,.45-.39c.11-.16,.39-.2,.5-.36s.26-.29,.37-.44c.11-.16,.11-.39,.22-.55s.18-.34,.3-.5c.11-.16,.34-.22,.46-.38,.11-.15,.2-.33,.32-.48s.11-.39,.23-.55c.12-.15,.26-.28,.38-.43,.12-.15,.38-.19,.5-.34,.12-.15-.02-.5,.1-.65s.16-.36,.28-.51,.34-.22,.46-.37,.42-.15,.54-.3c.12-.15-.03-.53,.1-.67,.12-.15,.41-.16,.53-.3,.13-.15,.14-.38,.27-.53,.13-.14,.29-.25,.42-.4,.13-.14,.18-.36,.31-.5s.31-.24,.43-.38c.13-.14,.24-.31,.37-.44,.13-.14,.54-.01,.67-.15,.13-.14-.05-.58,.09-.71,.13-.14,.39-.15,.53-.29,.13-.14,.22-.32,.36-.45,.14-.14,.35-.19,.48-.33,.14-.13,.2-.34,.34-.48,.14-.13,.48-.05,.62-.18s0-.56,.15-.69c.14-.13,.53,0,.67-.12,.14-.13,.26-.28,.41-.4,.14-.13,.35-.18,.5-.3,.14-.13,.08-.5,.22-.62,.15-.12,.24-.31,.39-.43,.15-.12,.4-.12,.55-.24,.15-.12,.32-.22,.47-.34,.15-.12,.27-.28,.42-.39,.15-.12,.47-.02,.62-.13,.15-.12,.14-.45,.3-.56,.15-.11,.34-.19,.49-.3,.16-.11,.42-.08,.57-.19,.16-.11,.24-.32,.4-.43s.3-.24,.46-.35,.23-.35,.39-.46c.16-.1,.36-.14,.53-.25,.16-.1,.33-.2,.49-.3,.16-.1,.25-.34,.41-.44,.16-.1,.42-.05,.58-.14,.17-.1,.27-.31,.43-.4,.17-.09,.48,.07,.65-.02,.17-.09,.34-.18,.51-.27s.35-.14,.52-.23c.17-.09,.18-.5,.35-.58s.44,.02,.61-.06c.17-.08,.28-.3,.46-.38,.17-.08,.33-.21,.5-.29,.18-.08,.43,.04,.61-.03s.43,.05,.61-.02,.31-.26,.49-.32c.18-.07,.25-.43,.43-.49,.18-.07,.45,.11,.63,.05s.33-.21,.51-.27,.35-.16,.53-.22,.34-.22,.52-.27,.37-.11,.55-.16,.4,.02,.59-.02c.18-.05,.44,.19,.62,.14,.19-.04,.31-.36,.49-.4,.19-.04,.36-.17,.54-.21,.19-.04,.42,.14,.6,.11,.19-.03,.33-.34,.52-.38,.19-.03,.44,.34,.63,.31,.19-.03,.34-.29,.53-.31s.37-.13,.56-.15c.19-.02,.39,.02,.58,0s.39,.04,.58,.02c.19,0,.39,.08,.58,.07,.19,0,.38,.09,.57,.09s.37-.3,.56-.31,.38,.29,.57,.29,.39-.39,.58-.39,.38,.18,.57,.19c.19,0,.37,.19,.56,.2,.19,0,.4-.3,.59-.28,.19,0,.35,.36,.55,.37,.19,.02,.41-.25,.6-.23,.19,.02,.36,.26,.55,.28s.37,.13,.56,.16c.19,.03,.37,.09,.56,.13,.19,.03,.43-.22,.61-.18,.19,.03,.41-.09,.6-.05,.19,.04,.29,.49,.48,.53,.19,.04,.43-.16,.61-.11,.19,.04,.34,.22,.52,.27,.19,.05,.45-.19,.63-.14s.33,.24,.52,.29c.18,.05,.3,.34,.48,.4s.48-.24,.66-.18,.34,.2,.52,.26c.18,.06,.26,.42,.44,.48,.18,.07,.42-.04,.6,.03s.36,.13,.54,.2,.4,.04,.58,.11,.38,.1,.55,.18c.17,.08,.24,.41,.41,.49,.17,.08,.42,0,.6,.08,.17,.08,.41,.04,.58,.13,.17,.08,.29,.28,.46,.37,.17,.09,.28,.29,.45,.38s.25,.33,.42,.42,.5-.11,.66-.01c.17,.09,.22,.39,.38,.48,.16,.1,.43,.02,.6,.12,.16,.1,.35,.16,.51,.26s.28,.28,.44,.38,.18,.42,.34,.53c.16,.1,.54-.13,.7-.02,.16,.11,.1,.53,.26,.64s.47,0,.63,.1c.16,.11,.33,.2,.48,.31s.15,.43,.31,.55c.15,.11,.52-.06,.68,.06,.15,.12,.22,.35,.37,.47s.25,.31,.4,.42c.15,.12,.25,.29,.4,.41s.36,.16,.51,.28c.15,.12,.23,.32,.38,.44,.15,.12,.31,.23,.45,.35,.14,.13,.28,.26,.43,.38,.14,.13,.47,.05,.61,.18s.18,.38,.32,.51c.14,.13,.1,.45,.24,.58,.14,.13,.43,.1,.57,.23,.14,.13,.37,.17,.51,.3,.14,.13,.12,.43,.25,.56,.14,.13,.43,.11,.56,.25s.2,.34,.33,.48c.13,.14,.37,.18,.5,.32s.1,.44,.23,.57c.13,.14,.42,.14,.55,.28,.13,.14,.17,.36,.3,.5,.13,.14,.19,.34,.32,.49,.13,.14,.12,.4,.25,.55,.13,.14,.31,.23,.44,.38,.12,.14,.36,.19,.49,.34,.12,.15,.08,.44,.2,.58,.12,.15,.29,.25,.41,.4s.46,.12,.58,.27c.12,.15,.21,.32,.33,.47s.27,.27,.39,.42,.05,.44,.17,.59c.12,.15,.43,.15,.54,.3,.12,.15,.26,.28,.37,.44,.11,.15-.09,.54,.02,.7,.11,.15,.32,.24,.43,.4,.11,.15,.42,.17,.53,.33,.11,.15,.16,.35,.27,.51,.11,.16,.11,.39,.22,.55s.36,.22,.46,.38c.11,.16,.1,.4,.21,.55,.11,.16,.32,.25,.43,.4,.11,.16,0,.46,.11,.62s.34,.23,.44,.39c.1,.16,.09,.4,.19,.56,.1,.16,.3,.26,.4,.42,.1,.16,.22,.31,.32,.47s.29,.27,.39,.44c.1,.16,.25,.3,.35,.46,.1,.16,.26,.29,.36,.45,.1,.16,.07,.4,.17,.57,.1,.16-.03,.46,.06,.63,.1,.17,.55,.12,.65,.29s.11,.38,.2,.55c.09,.17,.14,.36,.23,.53,.09,.17,.22,.31,.32,.48,.09,.17,.15,.35,.25,.52,.09,.17,.06,.4,.15,.57,.09,.17,.18,.34,.27,.51,.09,.17,.2,.33,.29,.5,.09,.17,.27,.29,.35,.46,.09,.17-.02,.44,.07,.61s.15,.35,.23,.53c.09,.17,.16,.35,.25,.52,.08,.17,.33,.26,.42,.43,.08,.17,.07,.39,.15,.56s.2,.33,.28,.5,.16,.35,.24,.52c.08,.17,.27,.3,.35,.47s.12,.37,.2,.54c.08,.17,.31,.28,.38,.46,.08,.17,.23,.32,.31,.49,.08,.17-.15,.48-.07,.66s.14,.36,.22,.53c.08,.18,.24,.31,.31,.49s.27,.3,.34,.48,.24,.32,.31,.49c.07,.18-.18,.49-.11,.67s.31,.29,.39,.46c.07,.18,.21,.33,.28,.51s-.15,.47-.08,.65,.5,.22,.57,.4,0,.41,.08,.59c.07,.18,.1,.37,.17,.55s.26,.31,.32,.49c.07,.18-.01,.41,.06,.59,.07,.18,.04,.39,.1,.57s.08,.38,.14,.56,.39,.27,.45,.45-.06,.42,0,.61c.06,.18,.15,.35,.21,.53s.06,.38,.12,.57c.06,.18,.36,.29,.42,.47s0,.4,.06,.58,.31,.31,.36,.49c.06,.18,0,.4,.07,.58,.06,.18,.16,.35,.21,.54,.06,.18-.22,.47-.16,.65s.34,.3,.4,.48c.05,.18-.03,.41,.02,.59,.05,.18,.28,.32,.34,.5,.05,.18,.22,.34,.27,.52s.04,.39,.09,.57,.04,.39,.09,.57c.05,.19,.04,.39,.09,.57,.05,.19-.11,.42-.06,.61s.12,.36,.17,.55,.42,.29,.47,.48-.12,.43-.08,.61c.05,.19,.05,.38,.09,.57s.02,.39,.07,.58c.04,.19,.05,.38,.09,.57s.41,.3,.46,.49c.04,.19,.1,.37,.14,.56,.04,.19,.03,.39,.07,.58,.04,.19-.04,.4,0,.59,.04,.19,.15,.36,.19,.55,.04,.19,.1,.37,.14,.56,.04,.19,.02,.39,.05,.58,.04,.19-.11,.41-.07,.6,.04,.19,.29,.34,.33,.52,.03,.19,.03,.38,.06,.57s-.11,.41-.08,.6,.4,.32,.43,.51c.03,.19-.26,.43-.23,.62s.27,.34,.3,.53-.03,.39,0,.58,.23,.35,.25,.54c.03,.19-.16,.41-.14,.6,.03,.19,.12,.37,.15,.56s-.09,.4-.06,.59,.05,.38,.07,.57,.39,.34,.41,.53,.08,.38,.11,.57c.02,.19-.31,.42-.29,.61s.02,.38,.04,.57c.02,.19,.47,.34,.49,.53s-.26,.41-.24,.6c.02,.19,.29,.36,.31,.55s-.03,.39-.02,.58-.22,.41-.21,.6c.02,.19,.31,.36,.33,.55s-.31,.41-.29,.6c0,.19,.03,.38,.04,.57s.22,.37,.24,.56c0,.19-.06,.39-.05,.58s.09,.38,.1,.57c0,.2,.21,.4,.2,.6,0,.2-.25,.38-.28,.57-.03,.2,.17,.45,.12,.64s-.18,.38-.25,.56c-.07,.19-.3,.31-.38,.48-.09,.18-.1,.4-.21,.57-.11,.17-.41,.19-.53,.34-.12,.16,.02,.55-.11,.69-.14,.14-.36,.22-.51,.34s-.46,.04-.62,.15c-.17,.11-.23,.39-.41,.48-.18,.09-.44-.02-.62,.04-.18,.07-.33,.23-.53,.28-.19,.04-.39,0-.59,.03-.19,.02-.38,.04-.58,.04-.29,0-.29,.06-.57,.06s-.29,.21-.57,.21-.29-.25-.57-.25-.29,.15-.57,.15-.29-.08-.57-.08-.29-.08-.57-.08-.29,.15-.57,.15-.29-.18-.57-.18-.29,.31-.57,.31-.29-.18-.58-.18-.29,.11-.58,.11-.29-.18-.58-.18-.29-.07-.58-.07-.29,.35-.58,.35-.29-.08-.58-.08-.29,.05-.58,.05-.29-.11-.58-.11-.29-.21-.58-.21-.29,.31-.58,.31-.29-.22-.58-.22-.29-.1-.58-.1-.29,.19-.58,.19-.29-.09-.58-.09-.29,0-.58,0-.29,.18-.58,.18-.29-.02-.58-.02-.29-.21-.58-.21-.29,.2-.58,.2-.29-.17-.58-.17-.29-.12-.58-.12-.29,.32-.58,.32-.29,.1-.57,.1-.29-.07-.57-.07-.29-.22-.57-.22h-.57c-.28,0-.29-.06-.57-.06s-.29,.21-.57,.21-.29-.11-.57-.11-.29,.09-.57,.09-.29-.25-.57-.25-.29,.32-.57,.32-.29-.06-.57-.06-.29-.21-.57-.21-.29-.03-.57-.03-.29,.11-.57,.11-.29,.21-.58,.21-.29-.15-.58-.15-.29-.09-.58-.09-.29,.19-.58,.19-.29-.29-.58-.29-.29,.16-.58,.16-.29,.15-.58,.15-.29,.06-.58,.06-.29,.03-.58,.03-.29-.18-.58-.18-.29-.04-.58-.04-.29,.14-.58,.14-.29,.02-.58,.02-.29-.31-.58-.31-.29-.05-.58-.05-.29,.15-.58,.15-.29-.03-.58-.03-.29,.04-.58,.04-.29,.02-.58,.02-.29,.08-.58,.08-.29-.26-.58-.26-.29,.15-.58,.15-.29,.22-.58,.22-.29-.34-.58-.34-.29-.04-.58-.04-.29,.06-.58,.06-.29-.07-.58-.07-.29,.16-.58,.16-.29,.2-.58,.2-.29-.3-.58-.3-.29,.26-.58,.26-.29-.26-.58-.26-.29,.1-.58,.1-.29,.08-.58,.08-.29-.21-.58-.21-.29,.05-.58,.05-.29,.06-.58,.06-.29,.3-.58,.3-.29-.39-.58-.39-.29,.34-.58,.34-.29-.12-.58-.12-.29,.18-.58,.18-.29-.12-.58-.12-.29-.03-.58-.03-.29-.11-.58-.11-.29,0-.58,0-.29,.1-.58,.1-.29,.15-.58,.15-.29-.02-.58-.02-.29-.29-.58-.29-.29,.27-.58,.27-.29-.06-.58-.06-.29-.29-.58-.29-.29,.33-.58,.33-.29-.1-.58-.1-.29-.13-.58-.13-.29,.14-.58,.14-.29,.04-.58,.04-.29-.16-.58-.16-.29,.3-.58,.3-.29-.03-.58-.03h-.58c-.29,0-.29-.27-.58-.27s-.29-.11-.58-.11h-.57c-.28,0-.29,.39-.57,.39s-.29-.04-.57-.04-.29-.32-.58-.32-.29,0-.58,0-.29,.02-.58,.02-.29,.02-.58,.02-.29,.37-.58,.37-.29-.3-.58-.3-.29,.15-.58,.15-.29-.13-.58-.13-.29,0-.58,0-.29-.16-.58-.16-.29,.03-.58,.03-.29,.32-.58,.32-.29-.14-.58-.14-.29-.13-.58-.13-.29,.09-.58,.09-.29-.04-.58-.04-.29,0-.58,0-.29,.16-.58,.16-.29-.09-.58-.09-.29,.12-.58,.12-.29-.1-.58-.1-.29-.07-.58-.07-.29,.17-.58,.17-.29-.17-.58-.17-.29,.03-.58,.03-.29-.07-.58-.07-.29,.12-.58,.12-.29,.04-.58,.04-.29,0-.58,0-.29-.14-.58-.14-.29,.3-.58,.3-.29-.28-.58-.28-.29-.13-.58-.13-.29,.38-.58,.38-.29-.3-.58-.3-.29-.02-.58-.02-.29-.04-.58-.04-.29,.34-.58,.34-.29-.04-.58-.04-.29,.03-.58,.03-.29-.12-.58-.12-.29,.08-.58,.08-.29-.2-.58-.2-.29,.23-.58,.23-.29-.09-.58-.09h-.58c-.29,0-.29-.11-.58-.11s-.29-.05-.58-.05h-.58c-.29,0-.29,.14-.58,.14s-.29-.18-.58-.18-.29,.14-.58,.14-.29-.15-.58-.15-.29,.13-.58,.13-.29-.13-.58-.13-.29,.15-.58,.15-.29,.19-.58,.19-.29-.2-.58-.2-.29,.12-.58,.12-.29,.12-.58,.12-.32-.41-.61-.36c-.3,.05-.27,.28-.56,.28l.13,.03Z"/>
  <g>
    <path class="cls-1" d="M59.43,42.11c0,.2,.13,.41,.09,.6-.04,.2-.17,.37-.25,.55-.08,.19-.23,.32-.34,.48-.11,.17-.15,.38-.29,.53-.14,.14-.36,.18-.52,.29-.17,.11-.27,.32-.46,.39-.18,.08-.38,.15-.58,.18-.19,.04-.4-.04-.6-.04s-.41,.07-.6,.03c-.2-.04-.43-.01-.61-.09-.19-.08-.27-.35-.44-.46-.17-.11-.27-.27-.41-.41s-.55-.08-.66-.24c-.11-.17,.02-.48-.06-.67-.08-.18-.14-.36-.18-.56-.04-.19-.31-.38-.31-.59s.33-.38,.37-.58c.04-.2,.08-.38,.16-.56,.08-.19-.1-.52,.01-.69,.11-.17,.35-.28,.49-.42s.34-.24,.51-.35c.17-.11,.35-.22,.54-.29,.18-.08,.38-.19,.57-.23s.42,.17,.62,.17,.45-.31,.64-.27c.2,.04,.43,.12,.61,.2,.19,.08,.22,.47,.38,.58,.17,.11,.26,.26,.4,.41,.14,.14,.55,.07,.66,.24s.26,.36,.34,.54c.08,.18-.13,.47-.09,.67,.04,.19,0,.38,0,.59h0Z"/>
    <path class="cls-1" d="M59.68,52.86c0,.2-.25,.39-.29,.58-.04,.2,.02,.42-.05,.6-.08,.19-.16,.38-.27,.54-.11,.17-.17,.4-.31,.55s-.43,.13-.59,.24c-.17,.11-.38,.1-.56,.18s-.31,.3-.51,.34c-.19,.04-.4-.01-.6-.01s-.42,.1-.61,.07c-.2-.04-.33-.28-.51-.36-.19-.08-.43-.03-.6-.14s-.19-.38-.33-.52-.35-.21-.46-.37c-.11-.17-.13-.37-.21-.55s-.29-.32-.33-.52c-.04-.19-.1-.41-.1-.61s.3-.37,.34-.56c.04-.2-.23-.49-.15-.67,.08-.19,.39-.26,.5-.42,.11-.17,.15-.39,.29-.53s.22-.39,.39-.5,.5,.09,.69,.01c.18-.08,.31-.31,.51-.34,.19-.04,.4-.23,.6-.23s.4,.23,.59,.26c.2,.04,.45-.05,.63,.03,.19,.08,.24,.41,.41,.52,.17,.11,.26,.27,.4,.41,.14,.14,.22,.28,.33,.45s.2,.3,.28,.48,.39,.29,.43,.48,.11,.41,.11,.61l-.02-.02Z"/>
  </g>
  <path class="cls-7" d="M6.85,58.52c.17,.04,.37,.06,.57,.11,.18,.04,.36,.12,.55,.17,.18,.04,.4-.06,.6-.02,.18,.04,.38,.05,.57,.1,.18,.04,.33,.24,.52,.28,.18,.04,.44-.24,.63-.2,.18,.04,.3,.37,.49,.41,.18,.04,.41-.12,.6-.08,.18,.04,.35,.16,.54,.2,.18,.04,.34,.21,.53,.25,.18,.04,.37,.08,.56,.12,.18,.04,.35,.17,.54,.21,.18,.04,.37,.09,.56,.13,.18,.04,.45-.32,.64-.28,.18,.04,.37,.1,.56,.14,.19,.04,.34,.23,.53,.27,.19,.04,.41-.09,.6-.06,.19,.04,.32,.33,.51,.36,.19,.04,.42-.18,.61-.15,.19,.04,.37,.1,.56,.13,.19,.04,.3,.44,.49,.47,.19,.03,.38,.05,.57,.09,.19,.03,.37,.08,.56,.12,.19,.03,.42-.18,.61-.15,.19,.03,.35,.19,.54,.22,.19,.03,.43-.23,.62-.2,.19,.03,.36,.16,.55,.19s.38,.06,.57,.09,.38,.01,.57,.04,.36,.15,.55,.18,.38,.05,.57,.08,.35,.25,.54,.28c.19,.03,.42-.23,.61-.2,.19,.03,.35,.21,.54,.24,.19,.03,.35,.23,.54,.26,.19,.03,.41-.18,.61-.16,.19,.03,.34,.34,.53,.37,.19,.03,.43-.32,.62-.29s.35,.28,.54,.31c.19,.03,.4-.13,.6-.1,.19,.03,.34,.35,.53,.38s.41-.14,.6-.12c.19,.03,.4-.09,.59-.06s.32,.48,.51,.5c.19,.03,.42-.23,.61-.2,.19,.02,.36,.23,.55,.26,.19,.02,.4-.15,.6-.12,.19,.02,.36,.18,.55,.21,.19,.02,.36,.16,.55,.18s.39-.05,.58-.02c.19,.02,.39-.01,.58,0,.19,.02,.4-.14,.59-.12s.37,.17,.56,.19c.19,.02,.36,.21,.55,.23,.19,.02,.38,.04,.57,.06s.39-.09,.58-.07c.19,.02,.39-.07,.58-.05,.19,.02,.36,.25,.55,.27s.39-.1,.59-.08c.19,.02,.37,.11,.56,.12,.19,.02,.39-.03,.58-.01,.19,.02,.4-.13,.59-.11s.35,.38,.54,.4c.19,.02,.38,.09,.57,.11,.19,.02,.42-.37,.61-.35,.19,.02,.37,.12,.57,.14,.19,.02,.37,.13,.57,.15,.19,.01,.39-.09,.58-.07,.19,.01,.38,.05,.57,.07,.19,.01,.36,.27,.56,.29,.19,.01,.4-.17,.59-.16,.19,.01,.38,0,.58,0,.19,.01,.39-.02,.58-.01,.19,.01,.36,.31,.56,.33,.19,.01,.39-.08,.58-.07s.39-.08,.58-.07,.39-.11,.58-.1,.37,.24,.56,.25c.19,0,.39-.03,.58-.02,.19,0,.39-.1,.58-.09,.19,0,.38,0,.58,.01,.19,0,.38,.04,.57,.05,.19,0,.38,.14,.57,.15,.19,0,.39-.17,.58-.16,.19,0,.37,.29,.57,.3,.19,0,.39-.21,.58-.2,.19,0,.38-.06,.58-.05,.19,0,.38,.2,.57,.2s.38-.05,.58-.04c.19,0,.38,.08,.57,.08s.38,.1,.57,.11c.19,0,.39-.18,.58-.18s.38-.02,.58-.01c.19,0,.38,.31,.57,.31s.39-.4,.58-.4,.38,.1,.57,.1,.38,.23,.58,.24c.19,0,.38-.16,.58-.16s.38-.04,.58-.04,.38-.15,.57-.15,.39,.18,.58,.18,.39,.25,.58,.25,.38-.15,.57-.15,.38-.11,.57-.11,.39,.2,.58,.19c.19,0,.38-.4,.57-.4s.39,.25,.58,.24c.19,0,.38-.25,.57-.26,.19,0,.39,.27,.59,.26,.19,0,.38-.18,.57-.19,.19,0,.38-.02,.58-.03,.19,0,.39,.14,.58,.13,.19,0,.38-.18,.57-.18s.4,.25,.59,.24c.19,0,.37-.25,.57-.26,.19-.01,.38-.1,.57-.11s.39,.08,.58,.07,.38-.09,.57-.1,.4,.21,.59,.2c.19-.01,.37-.2,.57-.21,.19-.01,.38-.12,.57-.14,.19-.01,.39,.1,.59,.09,.19-.01,.39,.04,.58,.02,.19-.02,.38-.07,.57-.09s.4,.12,.59,.11c.19-.02,.38-.06,.57-.08,.19-.02,.38-.04,.58-.06,.19-.02,.35-.43,.54-.45s.43,.4,.62,.38c.19-.02,.35-.37,.54-.39s.4,.14,.59,.12c.19-.02,.37-.14,.57-.16,.19-.02,.36-.2,.56-.23,.19-.02,.38-.04,.57-.06s.38-.07,.57-.1c.19-.02,.38-.04,.57-.06s.38-.03,.58-.06c.19-.02,.4,.09,.59,.07s.41,.18,.6,.15c.19-.03,.35-.28,.54-.31s.37-.14,.56-.17c.19-.03,.37-.13,.56-.16,.19-.03,.44,.36,.64,.33s.34-.35,.53-.38,.4,.06,.59,.03c.19-.03,.41,.1,.6,.07,.19-.03,.34-.29,.53-.33,.19-.03,.35-.23,.54-.26s.43,.2,.62,.17,.34-.28,.53-.31,.39,0,.58-.04,.38-.07,.57-.1c.19-.04,.36-.18,.55-.22s.42,.13,.61,.1,.38-.09,.57-.12c.19-.04,.42,.1,.6,.06,.19-.04,.31-.39,.5-.43s.45,.24,.63,.2c.19-.04,.33-.28,.52-.33s.37-.1,.56-.14c.19-.04,.38-.07,.57-.11s.41,.04,.59,0c.19-.04,.34-.24,.53-.28s.4,.02,.59-.02c.19-.05,.36-.17,.54-.22,.19-.05,.41,.05,.6,0,.19-.05,.32-.32,.5-.37s.39-.04,.57-.09c.19-.05,.43,.11,.62,.06s.38-.09,.56-.14,.27-.48,.45-.53,.36-.14,.55-.19,.39-.04,.57-.1c.19-.05,.45,.18,.64,.12,.19-.05,.36-.15,.54-.2,.18-.06,.33-.25,.51-.31s.36-.13,.55-.19,.35-.18,.53-.24,.41,.02,.6-.04c.18-.06,.36-.14,.55-.2s.38,.08,.57,.09c.2,0,.46-.29,.64-.21,.18,.07,.42,.19,.56,.32s-.04,.53,.05,.7,.5,.23,.53,.43c.06,.29-.31,.37-.24,.66,.07,.29,.36,.22,.43,.51,.07,.29,.1,.28,.17,.57,.07,.29-.04,.31,.03,.6,.07,.29,.12,.28,.18,.57,.03,.21,0,.44-.03,.64-.04,.2-.29,.32-.39,.49-.11,.17-.05,.51-.21,.64-.16,.12-.46,0-.66,.07-.17,.05-.34,.16-.54,.22-.17,.05-.34,.16-.54,.22-.18,.05-.38,.05-.57,.1-.18,.05-.31,.31-.5,.36-.18,.05-.44-.17-.63-.12-.18,.05-.39,0-.58,.05-.18,.05-.34,.21-.53,.26-.18,.05-.34,.19-.53,.24-.18,.05-.38,.03-.57,.08-.18,.05-.41-.09-.6-.05-.18,.04-.32,.28-.51,.32-.18,.04-.4-.04-.59,0-.18,.04-.29,.42-.48,.46-.18,.04-.45-.28-.64-.24-.18,.04-.36,.12-.55,.16-.18,.04-.3,.43-.48,.47-.18,.04-.39-.02-.58,.02-.19,.04-.41-.11-.6-.07-.19,.04-.31,.39-.5,.43s-.41-.07-.59-.04c-.19,.04-.4-.04-.59,0-.19,.04-.39,0-.58,.05-.19,.04-.33,.28-.52,.32-.19,.04-.4-.04-.59,0-.19,.04-.37,.1-.56,.13-.19,.04-.37,.08-.56,.11-.19,.03-.35,.21-.54,.24s-.37,.09-.56,.12c-.19,.03-.44-.31-.63-.27-.19,.03-.36,.15-.55,.18s-.36,.15-.55,.18-.34,.29-.53,.32c-.19,.03-.4-.07-.59-.04-.19,.03-.38,.06-.57,.09s-.37,.11-.56,.14c-.19,.03-.4-.07-.59-.04-.19,.03-.36,.17-.55,.2s-.38,.03-.57,.06-.37,.11-.56,.14c-.19,.03-.42-.26-.62-.23-.19,.03-.34,.35-.53,.38s-.4-.09-.59-.07c-.19,.03-.39-.04-.58-.02-.19,.03-.35,.24-.55,.27-.19,.02-.4-.13-.6-.11-.19,.02-.38,.06-.57,.09-.19,.02-.35,.26-.55,.28-.19,.02-.4-.07-.59-.05-.19,.02-.36,.26-.55,.28s-.39-.08-.58-.06-.39-.07-.58-.04c-.19,.02-.37,.12-.56,.14-.19,.02-.41-.22-.6-.2-.19,.02-.35,.33-.54,.34-.19,.02-.4-.19-.59-.17-.19,.02-.38,0-.58,0-.19,.02-.37,.18-.56,.19-.19,.02-.37,.16-.56,.18-.19,.02-.39-.11-.58-.09s-.38,0-.57,.02-.36,.27-.55,.29c-.19,.02-.39-.02-.58,0s-.39-.08-.58-.06c-.19,0-.39-.07-.58-.06-.19,0-.36,.32-.55,.34-.19,0-.41-.31-.6-.29-.19,0-.37,.24-.56,.26-.19,0-.38,.07-.57,.08s-.39-.16-.59-.15c-.19,0-.38,.04-.57,.05-.19,0-.39-.03-.58-.02s-.37,.24-.56,.25c-.19,0-.4-.27-.59-.26-.19,0-.37,.21-.57,.22-.19,0-.39-.1-.58-.09-.19,0-.38,.04-.57,.05-.19,0-.38,.05-.57,.05s-.38,.08-.57,.09c-.19,0-.39-.12-.58-.11-.19,0-.37,.3-.57,.3s-.39-.31-.59-.3c-.19,0-.38,.32-.57,.33-.19,0-.39-.09-.58-.08-.19,0-.39-.14-.58-.13-.19,0-.38,.24-.57,.24s-.39-.32-.58-.32-.38,.07-.58,.07-.38,.23-.58,.23-.39-.25-.58-.25-.38,.05-.58,.05-.38,.05-.58,.05-.38,.02-.58,0c-.19,0-.39,.2-.58,.2s-.39,.03-.58,.03-.38-.33-.57-.33-.39,.24-.58,.24-.38-.25-.57-.25-.39,.12-.58,.12-.39,.17-.58,.17-.38-.15-.57-.16c-.19,0-.38-.13-.57-.13h-.58c-.19,0-.39,.08-.58,.08s-.39,.15-.58,.15-.38-.06-.57-.07c-.19,0-.37-.35-.56-.36-.19,0-.4,.4-.59,.39-.19,0-.37-.24-.57-.25-.19,0-.39,.19-.59,.18-.19,0-.36-.42-.56-.43-.19,0-.39,.08-.58,.07s-.4,.17-.59,.16c-.19,0-.37-.17-.57-.18-.19,0-.38-.04-.57-.05-.19,0-.37-.18-.57-.19-.19,0-.38-.04-.57-.05-.19,0-.39,.09-.58,.07-.19,0-.38-.04-.58-.05-.19,0-.4,.21-.6,.2-.19-.02-.38-.06-.57-.08s-.36-.34-.55-.35c-.19-.02-.39,.03-.58,.02-.19-.02-.41,.28-.6,.26s-.38-.06-.57-.08-.39,.02-.58,0c-.19-.02-.36-.23-.56-.25-.19-.02-.36-.23-.56-.25-.19-.02-.4,.16-.6,.14-.19-.02-.36-.27-.55-.3-.19-.02-.42,.31-.61,.29-.19-.02-.39,.03-.58,0-.19-.02-.38-.06-.57-.08s-.38-.1-.57-.12c-.19-.02-.35-.34-.54-.37-.19-.02-.42,.25-.61,.23-.19-.02-.38-.05-.57-.08-.19-.02-.39-.02-.58-.04-.19-.03-.38-.06-.57-.08-.19-.03-.38-.11-.57-.13-.19-.03-.39,0-.58-.03-.19-.03-.38-.07-.57-.09-.19-.03-.38-.09-.57-.11-.19-.03-.33-.4-.52-.43s-.41,.15-.61,.12c-.19-.03-.37-.11-.56-.14-.19-.03-.41,.14-.6,.11s-.39,0-.58-.03c-.19-.03-.32-.43-.51-.46-.19-.03-.44,.3-.63,.27-.19-.03-.33-.37-.52-.4s-.43,.23-.62,.19c-.19-.03-.37-.14-.56-.17-.19-.03-.36-.19-.55-.23-.19-.03-.41,.1-.6,.06-.19-.03-.33-.35-.52-.38-.19-.04-.43,.21-.62,.18-.19-.04-.36-.2-.55-.24-.19-.04-.34-.29-.53-.32-.19-.04-.41,.09-.6,.05s-.34-.27-.53-.31-.46,.34-.65,.3c-.19-.04-.36-.15-.55-.19-.19-.04-.38-.08-.57-.12s-.36-.19-.54-.23c-.19-.04-.39-.03-.58-.07-.19-.04-.35-.21-.54-.25-.19-.04-.34-.23-.53-.28-.19-.04-.45,.23-.64,.18-.19-.04-.34-.26-.53-.31-.19-.04-.36-.18-.54-.22-.19-.04-.38-.09-.57-.13s-.43,.13-.62,.09c-.19-.05-.34-.25-.53-.3s-.37-.12-.56-.17c-.19-.05-.37-.13-.56-.17-.19-.05-.43,.12-.62,.07s-.39-.05-.58-.1c-.19-.05-.31-.34-.5-.39s-.36-.17-.55-.21c-.19-.05-.47,.27-.66,.22-.19-.05-.29-.44-.47-.49-.19-.05-.41,.01-.59-.04-.19-.05-.42,.05-.61,0s-.29-.41-.48-.46c-.19-.05-.41,.01-.6-.04-.2-.06-.39-.08-.55-.2-.16-.12-.3-.27-.41-.44-.11-.17-.4-.31-.45-.51-.04-.19,.31-.41,.34-.61,.06-.27-.15-.32-.08-.59s-.02-.29,.05-.57c.07-.27,.39-.19,.46-.47s-.33-.37-.27-.64c.03-.19,.14-.4,.22-.57s.25-.35,.38-.48c.13-.13,.48,.04,.65-.04s.27-.3,.46-.32c.18-.02,.33,.17,.51,.22l-.04-.02Z"/>
  <path class="cls-9" d="M97.79,23.21c-.18,0-.31-.15-.47-.23-.17-.07-.36-.07-.48-.2s-.44-.19-.51-.36c-.07-.18,.12-.46,.05-.62-.08-.18-.41-.22-.49-.38-.09-.17,.03-.44-.06-.6-.1-.17-.25-.29-.35-.44-.11-.16-.15-.36-.26-.5-.12-.15-.34-.21-.46-.34-.13-.14-.34-.17-.48-.29-.15-.13-.09-.5-.23-.61-.16-.11-.43-.02-.59-.1-.17-.09-.27-.32-.44-.38-.18-.07-.35-.2-.53-.23-.19-.04-.42,.24-.6,.23-.2-.02-.37-.04-.54-.03-.21,0-.41-.21-.57-.18-.26,.04-.48,.06-.56,.08-.18,.05-.34,.36-.52,.34-.19-.02-.27-.38-.43-.46s-.41-.03-.54-.17c-.12-.14-.05-.36-.11-.54s-.21-.32-.19-.49c.02-.18,.12-.33,.2-.49,.09-.16,.3-.15,.44-.27,.14-.11,.21-.23,.39-.28,.17-.05,.3-.32,.5-.36,.18-.04,.39,.05,.59,.02,.18-.03,.38,.02,.58,0,.19-.02,.38,.04,.57,.04s.37-.02,.57-.01c.19,0,.38-.07,.57-.06s.4-.18,.6-.15c.19,.02,.36,.2,.55,.24s.35,.15,.54,.2c.18,.05,.38,.05,.56,.11s.44-.04,.61,.03c.17,.08,.38,.13,.55,.22,.17,.09,.25,.34,.41,.45s.4,.13,.55,.26c.14,.12,.22,.34,.35,.49,.13,.14,.28,.27,.4,.42,.11,.15,.22,.32,.32,.49,.1,.16,.02,.42,.11,.6,.08,.17,.13,.35,.2,.53,.07,.17,.04,.37,.1,.56,.05,.18,.36,.29,.4,.49,.04,.18-.12,.4-.09,.6,.03,.19,.26,.35,.28,.55,.02,.18-.03,.37-.04,.54-.02,.18-.06,.36-.12,.52-.06,.17-.27,.21-.4,.34-.12,.12-.18,.26-.36,.32-.19,.07-.36,.13-.55,.12l-.02-.02Z"/>
  <path class="cls-3" d="M95.85,22.21c-.16,.23-.16,.13-.37,.43-.09,.13-.26,.25-.38,.43-.09,.15,0,.43-.1,.61-.09,.15-.48,.14-.58,.31-.09,.16-.11,.37-.21,.54-.09,.16,.05,.45-.04,.62-.09,.16-.34,.24-.42,.42-.08,.17-.11,.36-.2,.54-.08,.17-.18,.33-.26,.51-.08,.17-.32,.27-.39,.45-.08,.17,.13,.46,.06,.64-.07,.17-.27,.3-.34,.48s0,.39-.07,.57c-.06,.18-.44,.25-.5,.43s.19,.45,.13,.64c-.05,.18-.41,.28-.45,.47-.05,.18,.21,.44,.17,.63-.04,.19-.02,.38-.06,.56-.03,.19-.45,.31-.48,.5-.03,.19,.08,.4,.06,.59-.02,.19-.13,.38-.14,.57v.58c0,.19-.03,.39-.02,.58s.19,.37,.21,.56c.02,.19-.14,.41-.1,.6,.04,.19,.27,.34,.32,.52s.12,.36,.18,.54,.14,.36,.19,.54c.05,.19,.06,.38,.09,.56,.03,.19,.23,.37,.24,.55,.01,.19-.38,.38-.39,.57,0,.19,.18,.39,.15,.58s.13,.44,.08,.62c-.06,.18-.36,.28-.44,.45s.02,.45-.08,.61-.39,.2-.51,.34c-.12,.15-.18,.36-.32,.49s-.34,.2-.49,.31c-.16,.11-.35,.16-.51,.25-.17,.09-.24,.41-.42,.48s-.43-.03-.61,.02c-.19,.04-.39,0-.57,.01-.19,.02-.39,.21-.57,.19-.19-.01-.42,0-.6-.05-.19-.05-.2-.52-.37-.61-.17-.09-.43,0-.57-.13s-.29-.25-.39-.42c-.09-.15,0-.39-.06-.58-.05-.17-.17-.32-.19-.52-.02-.2,.05-.42,.01-.6-.04-.2-.13-.39-.19-.57-.07-.19-.22-.35-.32-.51-.1-.17-.23-.33-.35-.47-.13-.15-.44-.07-.59-.18-.15-.12-.13-.48-.3-.57-.17-.09-.38-.1-.56-.17s-.39-.01-.58-.06c-.18-.05-.37-.07-.56-.1-.19-.03-.36-.12-.56-.14-.19-.02-.39,.14-.58,.12-.19-.01-.37-.08-.56-.08s-.37-.32-.56-.32-.39,.09-.58,.09-.38-.07-.57-.07-.39,.19-.58,.18c-.19,0-.38-.21-.57-.22-.19,0-.38-.05-.57-.07-.19-.01-.37-.05-.56-.09-.19-.03-.45,.22-.64,.17s-.25-.46-.44-.53c-.18-.07-.36-.11-.53-.19-.18-.08-.34-.16-.5-.26-.17-.1-.31-.22-.46-.33-.16-.11-.48,0-.63-.12-.15-.13-.27-.3-.4-.44-.14-.14-.22-.33-.33-.48-.12-.16-.07-.4-.15-.57-.09-.18-.5-.24-.53-.42-.04-.19-.06-.44-.04-.63,.02-.19,.18-.39,.27-.57,.08-.16,.19-.35,.33-.5,.12-.13,.46-.02,.63-.15,.15-.1,.21-.34,.39-.43,.16-.08,.34-.14,.53-.22,.17-.07,.3-.28,.5-.34,.18-.06,.47,.14,.65,.05,.17-.08,.22-.41,.38-.52,.16-.1,.29-.24,.44-.36s.22-.31,.37-.44c.14-.13,.31-.21,.45-.35,.13-.14,.3-.24,.43-.38s.45-.12,.57-.27c.12-.15-.01-.5,.11-.66,.12-.15,.45-.14,.57-.29,.11-.15,.18-.35,.29-.51,.11-.15,.35-.21,.47-.37,.11-.15,0-.46,.12-.62,.11-.16,.22-.31,.33-.47s.13-.38,.24-.54,.29-.26,.41-.42c.11-.16,.15-.37,.27-.52,.11-.16,.5-.11,.62-.26,.11-.15,.14-.37,.26-.53,.12-.15,.27-.28,.39-.43s.22-.31,.34-.46c.12-.15,.15-.38,.27-.53,.12-.15,.39-.18,.51-.32,.13-.15,.12-.41,.25-.56,.13-.14,.42-.13,.56-.27s.02-.52,.16-.66c.14-.13,.55,.02,.69-.11s.26-.28,.41-.4,.08-.52,.23-.64,.43-.07,.59-.18c.16-.11,.4-.09,.57-.19,.16-.1,.24-.34,.41-.44,.17-.09,.33-.21,.5-.29,.17-.09,.37-.11,.55-.18,.18-.08,.35-.16,.53-.22,.18-.07,.36-.14,.54-.2s.33-.26,.52-.31c.19-.04,.37-.14,.56-.18,.19-.03,.4,.05,.6,.02,.19-.02,.38-.07,.58-.09,.19-.01,.39,.15,.59,.15s.38-.07,.58-.06c.19,0,.37,.14,.57,.16,.19,.02,.41-.17,.6-.14,.19,.03,.42,0,.6,.06,.19,.05,.28,.38,.45,.46s.39,.08,.55,.19,.37,.18,.5,.31c.14,.14,.19,.35,.3,.51,.1,.15,0,.4,.08,.57,.07,.16,.51,.21,.55,.4,.04,.17-.1,.4-.1,.6,0,.18-.22,.33-.24,.53-.03,.17,.34,.45,.28,.64-.05,.17-.37,.26-.46,.43-.08,.16-.07,.38-.17,.55h.03Z"/>
  <g>
    <path class="cls-1" d="M2.89,78.76c.18,.04,.36,.08,.56,.13,.18,.04,.45-.26,.64-.21,.18,.04,.3,.37,.49,.41,.18,.04,.35,.15,.55,.19,.18,.04,.44-.22,.63-.17,.18,.04,.36,.12,.55,.16,.18,.04,.38,.04,.57,.08,.18,.04,.38,.04,.57,.08,.18,.04,.33,.28,.52,.32,.18,.04,.38,.02,.57,.06,.18,.04,.34,.23,.53,.27,.18,.04,.41-.1,.6-.06,.18,.04,.35,.19,.54,.22,.18,.04,.36,.12,.55,.16,.18,.04,.39-.03,.58,0,.19,.04,.37,.08,.56,.11,.19,.04,.36,.14,.55,.18,.19,.04,.36,.13,.55,.16,.19,.04,.42-.16,.61-.13,.19,.04,.33,.32,.52,.36,.19,.03,.39,0,.57,.05,.19,.03,.35,.18,.54,.22,.19,.03,.44-.29,.63-.25,.19,.03,.35,.22,.54,.25,.19,.03,.35,.22,.54,.25,.19,.03,.42-.2,.61-.17,.19,.03,.35,.2,.54,.24,.19,.03,.35,.21,.54,.24,.19,.03,.41-.12,.6-.08,.19,.03,.36,.18,.55,.21,.19,.03,.38,.05,.57,.08s.37,.11,.56,.14c.19,.03,.36,.17,.55,.2s.42-.2,.61-.17c.19,.03,.38,.06,.57,.09s.36,.19,.55,.21c.19,.03,.38,.05,.57,.08s.37,.09,.56,.12c.19,.03,.39,0,.58,.04,.19,.03,.36,.21,.55,.23,.19,.03,.44-.37,.63-.35,.19,.03,.37,.11,.56,.13,.19,.03,.34,.35,.53,.38s.41-.17,.6-.14,.38,.02,.57,.05,.38,.04,.57,.06c.19,.03,.37,.15,.56,.18,.19,.02,.4-.13,.59-.11s.36,.19,.55,.21,.38,.05,.57,.08c.19,.02,.39,0,.58,.02,.19,.02,.34,.36,.53,.38s.41-.22,.6-.19c.19,.02,.37,.12,.56,.15,.19,.02,.36,.25,.55,.27s.41-.27,.6-.25,.38,.02,.57,.04c.19,.02,.37,.1,.56,.12,.19,.02,.39,0,.58,0,.19,.02,.35,.34,.54,.36,.19,.02,.4-.12,.59-.1,.19,.02,.38,.07,.57,.09,.19,.02,.4-.11,.59-.09s.36,.27,.55,.29c.19,.02,.4-.12,.59-.1,.19,.02,.37,.18,.56,.2,.19,.02,.38,.06,.57,.08s.4-.2,.59-.18,.39-.04,.58-.03c.19,.02,.35,.38,.54,.4,.19,.02,.41-.27,.6-.25s.38,.09,.57,.1c.19,0,.38,0,.58,.02,.19,0,.37,.16,.56,.17s.38,.05,.57,.07c.19,0,.39-.04,.58-.03s.37,.17,.57,.18c.19,0,.4-.29,.59-.27,.19,0,.36,.33,.56,.34,.19,0,.39-.13,.58-.12,.19,0,.37,.22,.56,.23,.19,0,.39-.08,.58-.07s.4-.27,.59-.26c.19,0,.38,.1,.57,.11,.19,0,.38,.16,.57,.17,.19,0,.38,.13,.57,.14,.19,0,.39-.22,.59-.22s.37,.28,.57,.29c.19,0,.38,0,.58,.02,.19,0,.39-.12,.58-.12s.39-.27,.59-.26c.19,0,.38,.08,.57,.08s.38,.07,.57,.08c.19,0,.39-.06,.58-.06s.38,.18,.57,.18h.58c.19,0,.38,.02,.58,.03,.19,0,.38,.14,.57,.15h.58c.19,0,.39-.17,.58-.17s.38-.07,.58-.06c.19,0,.38,.29,.57,.29s.38-.11,.58-.1c.19,0,.38-.03,.58-.03s.38-.19,.58-.19,.38,.11,.58,.1c.19,0,.38-.16,.58-.16s.38,.11,.58,.11,.39,.23,.58,.22c.19,0,.38-.17,.57-.17s.38,.03,.58,.02c.19,0,.39,.06,.58,.06s.38-.17,.57-.17,.38-.09,.57-.09,.38-.03,.58-.03,.39,.2,.58,.19c.19,0,.38-.08,.58-.09h.58c.19,0,.38-.19,.57-.2,.19,0,.39,.15,.58,.14,.19,0,.39,.09,.58,.08,.19,0,.39,0,.58,0,.19,0,.38-.13,.57-.14,.19,0,.38-.05,.58-.06,.19,0,.4,.2,.59,.19,.19,0,.39,.04,.58,.03s.38-.09,.57-.1c.19,0,.39-.02,.58-.04,.19,0,.38-.14,.57-.15s.38-.12,.57-.13c.19,0,.37-.18,.57-.19,.19,0,.41,.28,.6,.26,.19,0,.37-.2,.56-.21,.19-.02,.39,.07,.59,.06,.19-.02,.4,.13,.59,.11,.19-.02,.37-.25,.56-.27,.19-.02,.38-.03,.58-.05,.19-.02,.38-.05,.57-.07s.39,.06,.59,.04c.19-.02,.36-.26,.55-.28s.4,.09,.59,.07c.19-.02,.36-.23,.56-.25,.19-.02,.38-.04,.57-.07,.19-.02,.39,0,.58-.02s.42,.24,.61,.22,.37-.2,.56-.22c.19-.02,.4,.11,.59,.08,.19-.02,.39,0,.58-.04,.19-.02,.38-.08,.57-.1,.19-.03,.39,.02,.58,0s.37-.12,.57-.15c.19-.03,.38-.07,.57-.1s.38-.04,.58-.07c.19-.03,.33-.42,.52-.45s.42,.2,.61,.18c.19-.03,.41,.12,.6,.09,.19-.03,.37-.15,.56-.19,.19-.03,.36-.21,.55-.24s.42,.17,.61,.13,.32-.44,.51-.47,.45,.31,.64,.28,.33-.34,.52-.37c.19-.03,.43,.18,.62,.15,.19-.04,.36-.16,.55-.2s.33-.33,.52-.37,.41,.07,.6,.03c.19-.04,.37-.11,.56-.15,.19-.04,.36-.18,.55-.22,.19-.04,.37-.11,.56-.15s.43,.19,.62,.15c.19-.04,.39-.04,.58-.08s.33-.29,.52-.33c.19-.04,.38-.07,.57-.11s.37-.13,.56-.17c.19-.04,.44,.2,.63,.16,.19-.04,.34-.24,.53-.28s.35-.2,.54-.25,.37-.11,.56-.16c.19-.05,.35-.19,.54-.24s.46,.24,.65,.19,.39-.04,.58-.08c.19-.05,.31-.35,.49-.4s.35-.18,.54-.23,.36-.16,.54-.21c.19-.05,.42,.07,.61,.02s.42,.05,.6,0c.19-.05,.38-.09,.56-.14,.19-.05,.37-.11,.56-.17,.19-.05,.34-.22,.52-.28,.19-.06,.4,0,.59-.06,.18-.06,.29-.39,.47-.44,.18-.06,.4-.02,.58-.08,.18-.06,.36-.13,.55-.19,.2-.07,.43-.18,.63-.17,.21,0,.33,.38,.52,.46s.54-.12,.7,.02c.15,.14,.29,.35,.39,.54,.1,.18,.28,.39,.32,.6,.04,.29-.34,.35-.3,.65,.04,.29,.18,.27,.23,.57,.04,.29,.21,.27,.25,.56s-.13,.32-.08,.61c.04,.3-.1,.32-.06,.61,.04,.3,.33,.25,.37,.55s.15,.28,.19,.58c.04,.3-.17,.33-.13,.63,.03,.22,.08,.44,.04,.64-.04,.21-.19,.39-.3,.56-.11,.18-.24,.35-.41,.47-.17,.13-.41,.02-.63,.08-.17,.05-.25,.46-.45,.51-.17,.05-.39-.02-.59,.03-.18,.05-.32,.27-.51,.32-.18,.05-.45-.23-.65-.18-.18,.05-.34,.2-.53,.25-.18,.05-.32,.26-.51,.31-.18,.05-.36,.12-.55,.17-.18,.05-.46-.28-.65-.23-.18,.05-.36,.11-.55,.15-.18,.04-.3,.39-.48,.43s-.44-.21-.63-.16c-.18,.04-.35,.16-.54,.21-.18,.04-.38,.06-.56,.1-.18,.04-.37,.08-.56,.12-.18,.04-.31,.34-.5,.39-.18,.04-.36,.13-.55,.17-.18,.04-.37,.07-.56,.12-.18,.04-.4-.07-.59-.03-.18,.04-.38,.05-.57,.09s-.33,.3-.52,.34c-.19,.04-.4-.04-.59,0-.19,.04-.41-.12-.6-.09-.19,.04-.38,.04-.57,.08-.19,.04-.34,.22-.53,.26s-.33,.28-.52,.31c-.19,.04-.39,0-.58,.04-.19,.03-.39,0-.57,.05-.19,.03-.4-.08-.59-.05-.19,.03-.38,.02-.57,.05s-.37,.07-.56,.1c-.19,.03-.36,.13-.55,.17-.19,.03-.38,.02-.57,.05s-.38,.02-.57,.05-.35,.24-.54,.27-.39,0-.58,.03-.39-.03-.58,0-.34,.27-.53,.3-.37,.09-.56,.11c-.19,.03-.37,.1-.56,.13-.19,.03-.38,.03-.57,.06s-.43-.29-.62-.26-.32,.45-.51,.48-.41-.18-.6-.15c-.19,.03-.35,.29-.54,.31-.19,.03-.43-.34-.62-.32-.19,.03-.35,.26-.54,.28s-.38,.02-.57,.05c-.19,.02-.36,.23-.55,.26-.19,.02-.42-.24-.61-.22s-.36,.21-.55,.24c-.19,.02-.41-.18-.6-.16-.19,.02-.36,.19-.55,.21s-.37,.15-.56,.17c-.19,.02-.4-.09-.59-.07-.19,.02-.37,.14-.56,.16-.19,.02-.38,.06-.57,.08s-.38,.05-.57,.07-.39-.03-.58,0-.4-.13-.59-.11c-.19,.02-.36,.22-.55,.24s-.4-.17-.59-.16c-.19,.02-.37,.15-.56,.17-.19,.02-.37,.2-.56,.21-.19,.02-.38,.09-.57,.1-.19,.02-.41-.28-.6-.26-.19,.02-.37,.13-.56,.15-.19,.02-.39-.05-.58-.03-.19,0-.38,.07-.57,.09-.19,0-.37,.2-.56,.21-.19,0-.4-.27-.59-.26-.19,0-.36,.4-.55,.42-.19,0-.4-.23-.59-.22-.19,0-.37,.23-.56,.24-.19,0-.39-.07-.58-.06-.19,0-.38,.08-.57,.09s-.39-.16-.58-.14c-.19,0-.37,.16-.57,.17-.19,0-.38,.06-.57,.07-.19,0-.39-.19-.58-.18-.19,0-.38,.02-.57,.03-.19,0-.38,.18-.57,.19-.19,0-.38,.14-.57,.14s-.38-.04-.58-.03c-.19,0-.39-.21-.58-.2-.19,0-.38,.14-.57,.15-.19,0-.38,.18-.57,.19-.19,0-.38,.02-.58,.02s-.39-.38-.58-.38-.38,.23-.57,.24c-.19,0-.38,.1-.57,.1s-.39-.17-.58-.16c-.19,0-.38,.23-.57,.24-.19,0-.39-.28-.58-.28s-.38-.02-.58-.02-.38-.07-.58-.07-.38,.02-.58,.02-.38,.13-.58,.13h-.58c-.19,0-.38,.13-.58,.13s-.38-.08-.58-.08-.38-.07-.58-.07-.38,.12-.58,.12-.38-.11-.57-.11-.38-.03-.58-.04h-.58c-.19,0-.39,.19-.58,.19s-.39,.03-.58,.02c-.19,0-.39,.04-.58,.03-.19,0-.38-.03-.57-.03s-.38-.17-.57-.18c-.19,0-.39,.11-.58,.1-.19,0-.38-.16-.57-.16s-.39,.18-.58,.17c-.19,0-.38-.2-.57-.21-.19,0-.38-.14-.57-.15-.19,0-.4,.3-.59,.29-.19,0-.38-.02-.57-.03-.19,0-.38,0-.58,0-.19,0-.37-.23-.56-.24-.19,0-.38-.08-.57-.1-.19,0-.39,.14-.58,.12-.19,0-.37-.31-.56-.32-.19,0-.39,.12-.58,.11-.19,0-.4,.22-.59,.21s-.35-.45-.55-.47c-.19,0-.39,.1-.58,.08-.19,0-.39,.02-.58,0-.19,0-.4,.15-.59,.13-.19,0-.36-.32-.55-.33-.19-.02-.4,.16-.59,.14s-.36-.24-.56-.26c-.19-.02-.41,.24-.6,.22s-.39,.04-.58,.02c-.19-.02-.37-.14-.56-.16-.19-.02-.37-.14-.56-.15-.19-.02-.37-.19-.56-.21-.19-.02-.41,.25-.6,.23s-.37-.17-.56-.19c-.19-.02-.41,.19-.6,.16-.19-.02-.36-.23-.55-.26-.19-.02-.38-.07-.57-.09-.19-.02-.37-.15-.56-.17-.19-.02-.4,.1-.59,.07-.19-.02-.39,0-.58-.02-.19-.02-.4,.09-.59,.06-.19-.02-.35-.28-.55-.3-.19-.02-.39-.02-.58-.04-.19-.02-.41,.13-.6,.11s-.37-.14-.56-.16c-.19-.03-.39-.02-.58-.05-.19-.03-.34-.34-.53-.37s-.4,.1-.59,.08c-.19-.03-.41,.15-.6,.12s-.36-.19-.55-.22-.35-.24-.55-.26c-.19-.03-.38-.04-.57-.07-.19-.03-.42,.23-.61,.2-.19-.03-.33-.37-.52-.4s-.38-.03-.57-.06-.36-.16-.55-.19-.42,.19-.61,.16c-.19-.03-.38-.05-.57-.08s-.4,.07-.59,.03c-.19-.03-.37-.14-.56-.17-.19-.03-.37-.1-.56-.13-.19-.03-.35-.23-.54-.27-.19-.03-.39,0-.58-.05-.19-.03-.35-.22-.54-.25-.19-.04-.4,.07-.59,.03-.19-.04-.41,.11-.6,.08-.19-.04-.37-.1-.56-.13-.19-.04-.33-.33-.52-.36-.19-.04-.42,.14-.61,.1-.19-.04-.37-.1-.56-.14-.19-.04-.4,.05-.59,0-.19-.04-.36-.16-.55-.2s-.39-.02-.58-.06c-.19-.04-.37-.1-.56-.14-.19-.04-.31-.4-.5-.44-.19-.04-.38-.07-.57-.11s-.43,.16-.62,.11c-.19-.04-.35-.22-.53-.27-.19-.04-.42,.09-.6,.05-.19-.04-.34-.26-.53-.3-.19-.04-.38-.06-.57-.1-.19-.04-.42,.1-.61,.05-.19-.04-.34-.22-.53-.27s-.41,.06-.6,0-.33-.3-.51-.35c-.19-.05-.38-.09-.56-.14-.19-.05-.38-.08-.57-.13s-.34-.24-.53-.29c-.19-.05-.4,0-.58-.06-.19-.05-.41,.03-.6,0-.19-.05-.33-.25-.52-.3s-.36-.14-.55-.19c-.19-.05-.4-.03-.58-.08-.19-.05-.44,.13-.63,.08-.19-.05-.31-.35-.5-.4-.21-.06-.36-.17-.53-.3-.18-.13-.49-.13-.61-.31s-.3-.4-.35-.61c-.05-.21,.24-.45,.27-.67,.04-.28,.05-.28,.09-.56s-.03-.29,0-.58c.04-.28,.22-.26,.26-.54s-.02-.29,.02-.58c.04-.28-.06-.3-.02-.58,.04-.28-.17-.32-.13-.6s.11-.27,.15-.56c.03-.2,.05-.45,.14-.62,.09-.18,.29-.33,.43-.47s.45,0,.63-.1c.18-.08,.31-.12,.51-.14,.19-.02,.33,0,.53,.05l-.06,.08Z"/>
    <path class="cls-6" d="M.22,83.68c-.11,.13-.18,.15-.21,.32-.03,.22,0,.49,.05,.7,.05,.21,.16,.45,.28,.63,.12,.18,.47,.14,.64,.27,.17,.12,.3,.25,.51,.31,.19,.05,.39,.03,.58,.08s.36,.15,.54,.2c.19,.05,.35,.18,.54,.22,.19,.05,.34,.21,.53,.26,.19,.05,.38,.08,.56,.13,.19,.05,.4,0,.58,.06,.19,.05,.37,.12,.55,.17,.19,.05,.33,.25,.52,.3s.39,.04,.57,.09c.19,.05,.35,.2,.53,.25,.19,.05,.4,0,.59,.03,.19,.05,.37,.1,.56,.15,.19,.04,.39,.04,.57,.08,.19,.04,.41-.04,.59,0,.19,.04,.34,.25,.52,.29,.19,.04,.44-.21,.63-.16,.19,.04,.35,.18,.54,.22,.19,.04,.31,.36,.5,.4s.4-.03,.59,0,.37,.13,.55,.17c.19,.04,.37,.11,.56,.15,.19,.04,.4-.02,.59,.02,.19,.04,.43-.15,.61-.11,.19,.04,.3,.44,.49,.48,.19,.04,.45-.26,.64-.23,.19,.04,.38,.07,.57,.11s.35,.23,.54,.27c.19,.04,.42-.12,.6-.08,.19,.04,.32,.39,.51,.43s.37,.14,.56,.17c.19,.04,.42-.14,.61-.1,.19,.04,.38,.04,.57,.08,.19,.03,.36,.18,.55,.22,.19,.03,.38,.05,.57,.08s.41-.12,.6-.08c.19,.03,.36,.17,.55,.2s.37,.1,.56,.14c.19,.03,.36,.19,.55,.22s.42-.19,.61-.15c.19,.03,.33,.37,.52,.4s.39,0,.58,.04c.19,.03,.41-.14,.6-.11s.36,.22,.55,.25,.42-.19,.61-.16c.19,.03,.37,.1,.56,.13,.19,.03,.39,0,.58,.02,.19,.03,.37,.13,.56,.16,.19,.03,.39-.04,.58,0,.19,.03,.33,.44,.52,.47s.42-.2,.61-.18c.19,.03,.39,0,.58,0,.19,.03,.37,.16,.56,.19,.19,.02,.36,.25,.55,.28,.19,.02,.38,.09,.57,.11s.41-.2,.6-.18,.37,.17,.56,.19c.19,.02,.41-.16,.6-.14s.37,.17,.56,.2c.19,.02,.4-.11,.59-.08,.19,.02,.38,.08,.57,.1s.37,.19,.56,.21c.19,.02,.41-.21,.6-.19s.38,.08,.57,.1,.37,.17,.56,.19c.19,.02,.4-.11,.59-.09s.38,.05,.57,.07,.37,.15,.56,.17c.19,.02,.38,.02,.58,.03,.19,.02,.37,.24,.56,.25,.19,.02,.38,.11,.57,.12,.19,.02,.39-.11,.59-.09,.19,.02,.39-.12,.59-.1,.19,0,.39,0,.58,0,.19,0,.37,.19,.56,.2,.19,0,.38,.02,.58,.03,.19,0,.38,.15,.57,.16,.19,0,.39-.06,.58-.05s.39,0,.58,0c.19,0,.38,.02,.58,.03,.19,0,.39-.04,.58-.03s.39-.15,.58-.14,.37,.38,.56,.39c.19,0,.39-.17,.59-.16,.19,0,.39-.06,.58-.05,.19,0,.39-.09,.58-.08,.19,0,.38,.13,.57,.14,.19,0,.37,.27,.57,.27s.4-.3,.59-.3,.38,.14,.57,.14,.38,.16,.57,.16,.39-.31,.59-.31,.38,.35,.57,.35,.39-.16,.58-.15c.19,0,.38,.16,.57,.16s.38,.04,.58,.04,.39-.23,.58-.23,.38,.17,.57,.17,.39-.27,.58-.27,.39,.1,.58,.1,.39,.22,.58,.22,.39-.03,.58-.03,.39,.13,.58,.13,.39-.4,.58-.4,.39,.14,.58,.14,.39-.09,.58-.09,.39,.25,.58,.25,.38-.26,.58-.26,.39,.29,.58,.29,.39-.03,.58-.03,.39,.05,.58,.05,.38-.27,.57-.28c.19,0,.39,.06,.58,.05,.19,0,.38-.09,.58-.1,.19,0,.39,.23,.59,.23s.38-.22,.57-.23c.19,0,.39,.07,.58,.07s.38-.05,.58-.06c.19,0,.38-.04,.58-.05,.19,0,.38-.18,.57-.19,.19,0,.39,.07,.58,.06,.19,0,.39,.11,.58,.1,.19,0,.38-.11,.57-.12,.19,0,.4,.24,.59,.23,.19,0,.36-.45,.55-.46,.19,0,.4,.26,.59,.24,.19,0,.38-.11,.57-.12s.37-.2,.56-.21c.19,0,.4,.17,.59,.16,.19,0,.37-.18,.57-.19,.19,0,.4,.26,.6,.24,.19,0,.37-.21,.56-.23,.19,0,.4,.16,.59,.14,.19,0,.37-.24,.56-.25,.19-.02,.39,.02,.58,0s.39,.02,.58,0,.39,.05,.58,.03,.36-.3,.55-.31c.19-.02,.41,.27,.6,.25,.19-.02,.37-.18,.56-.2,.19-.02,.4,.14,.59,.13,.19-.02,.36-.24,.55-.26,.19-.02,.4,.11,.59,.09,.19-.02,.39,.03,.58,0,.19-.02,.38-.08,.57-.1s.38-.11,.57-.13,.39,0,.58-.02,.35-.3,.54-.32,.4,.08,.59,.05c.19-.02,.38-.04,.57-.06s.4,.14,.59,.12c.19-.02,.36-.19,.55-.21s.37-.12,.56-.15c.19-.02,.41,.18,.6,.15,.19-.03,.33-.45,.52-.48,.19-.03,.38-.04,.57-.06,.19-.03,.39,0,.57-.03,.19-.03,.4,.12,.59,.09,.19-.03,.35-.23,.54-.26s.38-.07,.57-.09c.19-.03,.43,.27,.62,.24s.39-.02,.57-.05c.19-.03,.38-.05,.57-.08s.36-.19,.55-.22,.38-.05,.57-.08,.34-.32,.52-.35c.19-.03,.43,.26,.62,.23s.32-.4,.51-.43,.41,.15,.6,.12c.19-.03,.36-.16,.55-.19s.37-.11,.55-.15c.19-.03,.36-.18,.54-.21,.19-.03,.45,.35,.64,.31,.19-.03,.36-.16,.55-.2s.38-.06,.56-.1c.19-.04,.38-.07,.57-.11s.38-.06,.57-.1c.19-.04,.32-.39,.5-.43,.19-.04,.43,.17,.61,.13,.19-.04,.39-.03,.57-.07,.19-.04,.34-.24,.53-.28s.4,.02,.58-.02c.19-.04,.33-.27,.52-.31,.19-.04,.45,.28,.64,.24s.35-.19,.54-.23,.38-.06,.56-.1c.19-.04,.39,0,.57-.05,.19-.04,.3-.4,.48-.44,.19-.04,.44,.19,.62,.15,.19-.04,.28-.47,.46-.51,.19-.05,.37-.1,.55-.14,.19-.05,.43,.16,.61,.11,.19-.05,.32-.3,.5-.34,.19-.05,.4,0,.58-.04,.19-.05,.42,.1,.6,.05,.19-.05,.37-.13,.54-.17,.19-.05,.4,0,.57-.05,.19-.05,.35-.19,.53-.24,.19-.05,.35-.19,.52-.24,.19-.05,.4-.03,.56-.08,.21-.06,.46-.14,.62-.27,.17-.13,.37-.31,.49-.49,.11-.18,.21-.43,.26-.64,.04-.2,0-.46-.04-.68-.02-.12-.19,.02-.28-.06-.18,.04-.26-.27-.45-.23-.18,.04-.3,.39-.48,.43s-.36,.11-.55,.15c-.18,.04-.37,.09-.56,.13-.18,.04-.35,.16-.54,.2-.18,.04-.43-.17-.61-.13-.18,.04-.32,.29-.51,.33-.18,.04-.42-.15-.61-.11-.18,.04-.36,.13-.55,.17-.18,.04-.36,.11-.55,.15-.18,.04-.4-.04-.58,0-.19,.04-.38,0-.57,.05-.19,.04-.38,.02-.57,.06-.19,.04-.34,.23-.53,.27-.19,.04-.38,.04-.57,.08-.19,.04-.37,.08-.56,.12-.19,.04-.4-.05-.59,0-.19,.04-.36,.12-.55,.16-.19,.04-.36,.12-.55,.16-.19,.03-.35,.22-.54,.25s-.36,.14-.55,.18c-.19,.03-.41-.11-.6-.08-.19,.03-.36,.14-.55,.18-.19,.03-.41-.15-.6-.12-.19,.03-.31,.47-.5,.5s-.43-.25-.62-.22-.35,.19-.54,.22-.41-.13-.6-.1c-.19,.03-.34,.28-.53,.31s-.4-.1-.59-.07c-.19,.03-.33,.36-.52,.39-.19,.03-.39,0-.58,.02-.19,.03-.41-.13-.6-.1-.19,.03-.38,.07-.57,.1s-.38,.03-.57,.06-.37,.09-.56,.12c-.19,.03-.39-.06-.58-.03s-.35,.28-.54,.31-.37,.14-.56,.16c-.19,.03-.42-.27-.61-.24s-.35,.3-.54,.33c-.19,.02-.42-.23-.61-.21-.19,.02-.34,.33-.53,.36-.19,.02-.42-.28-.61-.26s-.33,.47-.52,.5c-.19,.02-.42-.27-.61-.25s-.34,.36-.53,.38-.39-.02-.58,0-.39-.06-.58-.04-.37,.11-.56,.13c-.19,.02-.41-.22-.6-.2-.19,.02-.36,.23-.55,.25s-.37,.13-.56,.15c-.19,.02-.38,.03-.57,.05s-.38,.02-.57,.04c-.19,.02-.38,.05-.57,.07s-.37,.12-.56,.14c-.19,.02-.4-.14-.59-.12-.19,.02-.37,.14-.56,.15-.19,.02-.4-.25-.6-.23-.19,.02-.36,.24-.55,.25-.19,.02-.38,0-.57,.02s-.36,.23-.55,.25-.41-.33-.6-.31c-.19,0-.37,.14-.56,.15-.19,0-.39-.11-.58-.1s-.36,.24-.56,.26c-.19,0-.4-.22-.59-.21-.19,0-.37,.26-.56,.27-.19,0-.39-.08-.58-.07s-.39-.04-.58-.03-.37,.17-.56,.18c-.19,0-.39-.19-.59-.18-.19,0-.37,.28-.56,.29-.19,0-.37,.18-.56,.19-.19,0-.38,.04-.57,.05-.19,0-.39-.12-.58-.11-.19,0-.39-.08-.58-.07-.19,0-.38,.04-.57,.05-.19,0-.38,.13-.57,.14-.19,0-.39-.28-.59-.27-.19,0-.38-.02-.58,0-.19,0-.37,.28-.56,.29-.19,0-.39-.12-.58-.11-.19,0-.38-.03-.58-.02h-.57c-.19,0-.37,.31-.57,.31s-.39-.18-.58-.18-.38,.21-.57,.21-.39-.19-.58-.18c-.19,0-.39-.18-.58-.17-.19,0-.38,.29-.57,.29s-.38,.15-.57,.15-.39-.34-.58-.34-.38-.06-.58-.06-.38,.39-.57,.4c-.19,0-.39-.29-.58-.29s-.38,.29-.57,.29-.38-.32-.58-.32-.38,.33-.58,.33-.38-.28-.58-.28-.39,.27-.58,.27-.38-.41-.57-.42c-.19,0-.39,.23-.58,.23s-.39,.16-.58,.15c-.19,0-.38-.35-.57-.35s-.39,.14-.58,.13c-.19,0-.39,.07-.58,.07s-.38-.23-.57-.23-.39,.15-.58,.14c-.19,0-.38-.07-.57-.08-.19,0-.38,0-.57,0-.19,0-.38-.11-.57-.11s-.39,.28-.58,.27c-.19,0-.38-.14-.57-.15-.19,0-.39,.2-.58,.2s-.37-.4-.56-.4-.38,.04-.58,.03c-.19,0-.39,.13-.58,.13s-.38-.14-.57-.15c-.19,0-.38-.07-.57-.08-.19,0-.38-.04-.57-.05-.19,0-.39,.08-.58,.07s-.38-.03-.57-.04-.39,.17-.59,.16c-.19,0-.36-.35-.56-.36-.19,0-.39,.09-.58,.08-.19,0-.39,.09-.58,.08-.19,0-.39,.03-.58,.02-.19,0-.39,.1-.58,.08-.19,0-.38-.04-.57-.05-.19,0-.38-.06-.57-.08-.19,0-.36-.39-.55-.41-.19,0-.41,.35-.6,.34-.19-.02-.36-.28-.56-.29-.19-.02-.39,.04-.58,.02-.19-.02-.39,.06-.58,.04-.19-.02-.36-.31-.55-.33s-.41,.32-.61,.3c-.19-.02-.38-.03-.58-.05-.19-.02-.37-.16-.56-.18-.19-.02-.38-.09-.57-.11s-.38-.09-.57-.11-.39,.08-.59,.06c-.19-.02-.39,.05-.58,.03-.19-.02-.38-.09-.57-.11s-.37-.14-.56-.16c-.19-.02-.4,.16-.6,.14-.19-.02-.37-.17-.56-.19-.19-.02-.36-.28-.55-.3s-.38-.05-.57-.08c-.19-.02-.41,.19-.6,.16-.19-.02-.36-.21-.55-.24-.19-.02-.38-.08-.57-.1s-.43,.31-.62,.28c-.19-.02-.35-.29-.54-.32-.19-.02-.38-.04-.57-.07-.19-.03-.39,0-.58,0-.19-.03-.37-.15-.56-.17-.19-.03-.4,.05-.59,.03-.19-.03-.36-.2-.55-.23s-.4,.11-.59,.08-.38-.09-.57-.12-.41,.13-.6,.1-.36-.21-.55-.24-.36-.21-.55-.24-.4,.1-.59,.07-.37-.1-.56-.13c-.19-.03-.39,0-.58-.04-.19-.03-.41,.09-.6,.06s-.37-.12-.56-.15c-.19-.03-.32-.4-.51-.43s-.41,.14-.6,.11-.35-.21-.54-.24c-.19-.03-.44,.25-.63,.22-.19-.03-.34-.28-.53-.32-.19-.03-.35-.24-.54-.28-.19-.03-.43,.2-.62,.16-.19-.03-.35-.22-.54-.25-.19-.04-.43,.22-.62,.18-.19-.04-.31-.43-.5-.46-.19-.04-.41,.11-.6,.08-.19-.04-.33-.33-.52-.37s-.4,.05-.59,0c-.19-.04-.44,.23-.63,.19-.19-.04-.29-.49-.48-.53-.19-.04-.46,.32-.65,.28-.19-.04-.33-.3-.52-.34s-.39,0-.58-.04-.4,.04-.59,0-.33-.29-.52-.33c-.19-.04-.38-.08-.57-.12s-.37-.11-.56-.15c-.19-.04-.38-.07-.57-.11s-.42,.1-.61,.06c-.19-.04-.37-.11-.56-.15-.19-.04-.31-.39-.49-.44-.19-.04-.44,.2-.63,.15-.19-.04-.38-.07-.57-.12-.19-.04-.36-.15-.55-.2-.19-.05-.38-.08-.57-.13s-.36-.16-.55-.2-.39-.08-.58-.13h-.04Z"/>
  </g>
  <path class="cls-8" d="M61.38,72.62c-.29,0-.29,.06-.57,.06h-.57c-.28,0-.29-.27-.58-.27s-.29,.38-.57,.38-.29-.34-.57-.34-.29,.11-.57,.11-.29,.11-.58,.11-.29-.04-.58-.04-.29-.23-.58-.23-.29,.11-.58,.11h-.58c-.29,0-.29,.21-.58,.21s-.29-.23-.57-.23-.29,.28-.58,.28-.29-.3-.58-.3-.29,.35-.58,.35-.29-.24-.58-.24c-.19,0-.35-.1-.53-.13-.18-.04-.44,.14-.61,.07-.17-.07-.41-.1-.56-.2-.15-.1-.02-.56-.16-.69s-.35-.16-.45-.32c-.1-.15-.04-.37-.11-.54s-.3-.27-.34-.45c-.04-.18-.19-.36-.19-.55,0-.28,.23-.28,.23-.56s-.07-.28-.07-.56,.13-.28,.13-.56v-.56c0-.28-.18-.28-.18-.56s-.21-.28-.21-.56v-.56c0-.19,.4-.34,.43-.52,.04-.18,.06-.34,.13-.51,.07-.17-.14-.5-.04-.65s.29-.29,.42-.42,.26-.31,.42-.42c.15-.1,.46,.07,.64,0,.17-.07,.29-.32,.47-.36s.38,.24,.57,.24h.57c.28,0,.29-.07,.57-.07s.29-.31,.58-.31,.29,.03,.57,.03,.29,.3,.57,.3,.29,.08,.57,.08,.29-.07,.58-.07,.29-.14,.58-.14,.29,.1,.58,.1,.29-.31,.58-.31,.29,.06,.58,.06,.29,.32,.58,.32,.29-.39,.57-.39,.29,.14,.58,.14,.29,.08,.58,.08,.29,.04,.58,.04,.29-.15,.58-.15c.19,0,.37,.16,.55,.19,.18,.04,.44-.11,.61-.04s.28,.31,.43,.41c.15,.1,.18,.34,.31,.47,.13,.13,.49,.08,.6,.23,.1,.15,.15,.37,.23,.54,.07,.17-.09,.41-.06,.6,.04,.18,.29,.34,.29,.53,0,.28-.18,.28-.18,.56s.08,.28,.08,.56-.06,.28-.06,.56,.23,.28,.23,.56-.22,.28-.22,.56-.08,.28-.08,.56,.1,.28,.1,.56c0,.19,.11,.4,.07,.58-.04,.18-.42,.25-.49,.42s.12,.47,.01,.62c-.1,.15-.19,.35-.33,.48-.13,.13-.37,.16-.52,.26-.15,.1-.26,.34-.43,.41s-.41,0-.59,.02c-.18,.04-.37,.04-.56,.04l.02,.02Zm-9.79-7.08c-.18,0-.26,.14-.26,.32v.56c0,.28-.27,.28-.27,.56s.38,.28,.38,.56-.34,.28-.34,.56,.11,.28,.11,.56,.11,.28,.11,.56-.04,.28-.04,.56c0,.18,.13,.53,.31,.53,.29,0,.29-.11,.57-.11h.57c.28,0,.29-.21,.58-.21s.29,.23,.57,.23,.29-.28,.57-.28,.29,.3,.57,.3,.29-.35,.58-.35,.29,.24,.58,.24,.29,.08,.58,.08,.29-.25,.58-.25,.29-.09,.58-.09,.29,.44,.58,.44,.29-.15,.57-.15,.29,.16,.58,.16,.29-.19,.58-.19,.29-.13,.58-.13,.29,.23,.58,.23c.18,0,.38-.27,.38-.45,0-.28,.13-.28,.13-.56v-.56c0-.28-.18-.28-.18-.56s-.21-.28-.21-.56v-.56c0-.28,.38-.28,.38-.56s-.03-.28-.03-.56c0-.18-.31-.14-.49-.14-.29,0-.29-.06-.57-.06s-.29,.06-.57,.06-.29-.3-.58-.3-.29,.21-.57,.21-.29-.29-.57-.29h-.57c-.28,0-.29,.07-.58,.07s-.29,.31-.58,.31-.29-.03-.58-.03-.29-.3-.58-.3-.29-.08-.58-.08-.29,.07-.58,.07-.29,.14-.57,.14-.29-.1-.58-.1-.29,.31-.58,.31-.29-.06-.58-.06-.29-.15-.58-.15l.02,.02Z"/>
  <path class="cls-5" d="M104.86,32.89c.25,.15,.28-.06,.59,.15,.14,.09,.37,.09,.55,.22,.14,.1,.2,.36,.37,.49,.15,.11,.28,.25,.45,.37,.15,.11,.39,.11,.55,.24,.15,.11,.16,.42,.31,.54,.15,.12,.33,.19,.49,.32,.15,.12,.43,.09,.58,.21,.14,.12,.23,.32,.38,.45,.14,.13,.12,.44,.26,.57s.54-.02,.68,.12c.14,.13,0,.54,.15,.68,.14,.13,.46,.08,.6,.22,.13,.14,.32,.22,.45,.36,.13,.14,.25,.3,.38,.44s.33,.22,.46,.37c.13,.14,.02,.49,.15,.64,.12,.15,.23,.31,.35,.46,.12,.15,.51,.09,.63,.24,.12,.15,.23,.32,.34,.47,.11,.16,0,.47,.11,.63,.11,.16,.22,.31,.33,.48,.11,.16,.36,.23,.46,.4,.1,.16,.1,.39,.19,.56,.1,.17,.19,.34,.28,.51,.09,.17,.38,.24,.47,.41,.09,.17,.18,.35,.26,.53s-.06,.45,0,.62c.07,.18,.27,.31,.33,.49s.23,.34,.28,.52c.06,.19-.11,.43-.06,.61,.05,.19,.03,.38,.06,.57,.04,.19,.36,.33,.38,.52,.03,.19-.1,.4-.08,.59,0,.19,.08,.39,.09,.57,0,.19-.15,.38-.16,.57,0,.19-.22,.36-.24,.55s.12,.4,.09,.58c-.04,.19,.08,.41,.03,.6-.05,.19-.38,.28-.44,.46s.11,.45,.04,.63c-.08,.18-.42,.22-.51,.38-.09,.17,.05,.47-.05,.62-.1,.16-.27,.28-.38,.43-.12,.15-.38,.17-.51,.31-.13,.14-.06,.47-.2,.6s-.37,.16-.52,.28c-.15,.12-.3,.23-.45,.34-.16,.11-.38,.09-.55,.18-.17,.09-.21,.41-.39,.49-.17,.08-.32,.26-.5,.32s-.45-.17-.64-.12c-.18,.05-.31,.36-.5,.4-.19,.03-.42-.27-.61-.26-.19,.01-.37,.13-.56,.13s-.38-.01-.57-.04c-.19-.02-.38-.03-.57-.07-.18-.04-.38-.05-.57-.11-.18-.06-.43,.03-.61-.04s-.32-.24-.5-.32c-.17-.08-.19-.44-.36-.54-.16-.09-.36-.13-.52-.23-.16-.1-.42-.06-.58-.17-.15-.11-.36-.17-.51-.29s-.3-.24-.45-.38c-.14-.13-.33-.22-.46-.36-.13-.13,.03-.56-.1-.71-.13-.14-.28-.26-.4-.4s-.4-.16-.52-.31c-.12-.15-.28-.27-.4-.43-.11-.15-.06-.43-.17-.59-.11-.16-.39-.2-.49-.37-.1-.16-.15-.36-.25-.53-.1-.16-.17-.34-.26-.51-.09-.17-.32-.27-.41-.44-.09-.17,.06-.46-.02-.63-.08-.17-.28-.29-.36-.47s-.27-.31-.34-.49,.01-.42-.05-.6c-.07-.18-.09-.37-.15-.56-.06-.18-.07-.38-.12-.56-.06-.18,.02-.4-.04-.59-.05-.18-.32-.31-.37-.5s-.26-.33-.31-.52c-.04-.19,.12-.42,.08-.61s.07-.4,.04-.6c-.03-.19-.32-.34-.35-.53s-.19-.36-.21-.55c-.03-.19-.04-.39-.06-.58s.02-.39,0-.59c-.02-.19,.33-.41,.32-.61-.01-.19-.47-.36-.48-.55,0-.19,.15-.4,.14-.59,0-.19,.26-.39,.26-.58s-.4-.39-.39-.59"/>
  <g>
    <path class="cls-6" d="M102.55,33.03c.13-.13,.38-.17,.5-.31s.13-.39,.23-.53c.11-.15-.01-.44,.08-.6,.09-.16,.45-.18,.52-.35,.08-.17,.22-.33,.28-.5,.06-.18-.14-.42-.1-.6s0-.36,.02-.54,.33-.4,.34-.58c-.13-.15-.53-.03-.7-.12-.17-.09-.23-.49-.42-.51-.19-.03-.42,.06-.61,.1-.18,.04-.39-.02-.56,.09-.28,.06-.24,.29-.52,.31s-.27,.14-.55,.16c-.28,.02-.3-.26-.59-.24-.28,.02-.27,.19-.55,.21-.28,.02-.27,.12-.56,.14-.28,.02-.29-.11-.57-.09q-.28,.02-.57,.04c-.28,.02-.29-.06-.57-.04s-.29-.05-.57-.03-.22,.17-.46,.32c-.25,.15-.12,.17-.29,.42-.16,.25-.11,.28-.27,.53-.16,.25-.34,.13-.5,.38s-.33,.13-.49,.38c-.16,.25,.08,.4-.08,.65s-.15,.25-.31,.5c-.16,.25-.07,.31-.24,.56-.16,.25-.41,.09-.57,.34-.13,.2,.02,.51-.06,.72-.08,.22-.11,.32-.14,.54,.13,.12,.02,.38,.18,.5,.15,.11,.32,.21,.49,.31,.16,.1,.42,.02,.59,.1s.26,.36,.45,.42c.18,.06,.37,.11,.56,.15,.18,.04,.41-.17,.6-.15,.18,.02,.36-.06,.55-.06,.18,0,.39,.25,.59,.22,.18-.03,.35-.16,.55-.2,.18-.04,.42,.06,.6,0,.17-.06,.36-.14,.54-.22,.17-.07,.2-.45,.37-.54,.16-.09,.35-.13,.51-.23,.16-.1,.47,.03,.63-.09,.15-.11,.34-.19,.49-.31,.15-.11,.14-.42,.29-.55,.14-.12,.39-.13,.54-.26,.14-.13,.23-.31,.37-.45h-.02Z"/>
    <path class="cls-1" d="M106.39,32.22c-.18-.25,0-.38-.18-.63s-.4-.09-.58-.33c-.18-.25-.09-.31-.27-.56s0-.39-.17-.64c-.18-.25-.15-.27-.34-.52-.18-.25-.44-.06-.62-.31-.02-.03,.01-.15-.01-.18,0,.18-.07,.36-.09,.55-.02,.18-.07,.35-.11,.53s.03,.38-.03,.56c-.06,.17-.14,.33-.22,.5-.07,.17-.05,.39-.14,.55s-.09,.39-.2,.55c-.1,.15-.42,.15-.54,.29s-.32,.19-.46,.32c-.14,.14-.04,.52-.18,.64-.14,.13-.46,.07-.6,.19-.15,.13-.38,.13-.53,.25-.16,.12-.26,.29-.41,.4-.16,.11-.14,.5-.3,.59-.17,.1-.42,.06-.59,.14-.17,.09-.41,.03-.58,.11-.18,.08-.3,.27-.48,.34-.19,.07-.36,.15-.54,.19-.19,.05-.4-.04-.59-.02-.19,.03-.37,.13-.56,.14-.2,0-.4,.1-.58,.08-.19-.02-.38-.15-.56-.19-.19-.04-.42,.04-.6-.02s-.37-.15-.54-.23c-.18-.08-.17-.5-.32-.59-.17-.1-.49,.04-.63-.07-.16-.12-.28-.36-.41-.48-.03,.2,.21,.43,.22,.63s-.32,.44-.27,.63c.05,.19,.18,.37,.26,.55s.06,.45,.18,.61c.16,.22,.28,.13,.44,.35s.23,.17,.38,.4c.16,.22,.1,.26,.26,.49,.16,.22,.14,.24,.3,.46s.17,.22,.33,.44c.13,.18,.41,.16,.59,.26,.18,.1,.34,.12,.56,.15,.2,.03,.41,.38,.62,.35,.2-.02,.37-.22,.56-.25,.2-.03,.35-.27,.54-.3,.2-.03,.4,.01,.59-.03,.2-.04,.42,.06,.61,.02,.19-.05,.36-.19,.54-.25,.19-.06,.4-.04,.58-.1,.19-.07,.3-.32,.47-.39,.18-.08,.45,.05,.63-.03,.18-.09,.22-.43,.39-.52,.18-.1,.38-.12,.54-.22,.17-.11,.45-.04,.6-.15,.16-.12,.28-.29,.43-.41,.16-.13,.24-.33,.38-.45,.15-.13,.43-.13,.56-.26,.14-.14,.14-.41,.27-.55,.14-.15,.22-.33,.34-.48,.13-.16,.3-.27,.41-.42,.13-.16,.19-.35,.3-.5,.12-.17,.51-.12,.62-.26s-.16-.48-.1-.64c.06-.16,.11-.27,.11-.44s.07-.32,.02-.48-.2-.24-.3-.38v.02Z"/>
  </g>
  <g>
    <path class="cls-2" d="M102.65,28.86c0,.2,.03,.4,.02,.59,0,.2-.33,.37-.35,.56-.02,.2,.31,.44,.28,.62-.03,.2-.29,.34-.34,.53-.05,.19-.11,.38-.18,.55-.07,.18-.21,.32-.3,.49-.09,.17-.25,.29-.36,.44-.11,.16-.1,.41-.23,.55-.13,.14-.38,.14-.53,.26s-.2,.37-.36,.47-.27,.34-.44,.42c-.17,.08-.45-.06-.63,0s-.3,.34-.49,.39c-.18,.05-.42-.07-.61-.04s-.4-.15-.6-.13c-.19,.02-.36,.32-.55,.33-.21,0-.41-.06-.58-.08-.2-.03-.36-.17-.52-.24-.18-.07-.28-.22-.43-.34-.14-.11-.26-.23-.38-.38-.12-.14-.49-.1-.6-.26-.1-.15-.22-.31-.33-.47-.1-.15,.08-.49-.03-.65-.1-.15-.12-.38-.23-.54-.1-.15-.53-.08-.65-.24-.11-.15-.17-.33-.3-.48-.12-.14-.33-.19-.47-.33-.13-.13-.16-.36-.3-.49-.14-.12-.11-.45-.26-.58-.14-.12-.34-.18-.5-.3-.15-.11-.27-.29-.43-.4-.16-.1-.44,0-.61-.1-.16-.09-.35-.13-.53-.22-.16-.09-.37-.09-.55-.17-.17-.08-.31-.21-.49-.29-.17-.07-.34-.21-.49-.34-.14-.12-.3-.26-.42-.42-.11-.15-.25-.31-.34-.49-.08-.17-.18-.36-.24-.54s.23-.45,.19-.64c-.04-.18-.23-.34-.24-.53-.02-.19,.13-.37,.13-.57s.01-.36,.04-.55c.02-.19,.07-.35,.11-.54,.04-.18-.14-.43-.08-.61s.21-.33,.29-.5,.17-.34,.27-.5,.03-.45,.15-.61c.11-.15,.39-.17,.53-.31,.13-.13,.3-.24,.44-.36s.3-.22,.46-.33c.15-.11,.3-.23,.47-.33,.16-.09,.33-.18,.51-.27,.17-.08,.27-.34,.45-.41,.17-.07,.47,.2,.66,.14,.18-.06,.31-.26,.5-.31,.18-.04,.38-.03,.57-.07,.18-.04,.34-.25,.53-.28,.18-.03,.38-.01,.58-.03,.19-.02,.39,.13,.58,.12,.19-.01,.37-.16,.57-.17,.19,0,.38,.03,.58,.03s.35,.25,.54,.29,.34,.11,.53,.18c.18,.07,.49-.14,.66-.04,.17,.09,.36,.19,.52,.3,.16,.11,.23,.35,.38,.48,.15,.12,.18,.37,.32,.51,.14,.13,.33,.21,.47,.35,.13,.14,.46,.12,.58,.28,.12,.15,0,.49,.13,.65,.12,.16,.13,.38,.24,.54s.45,.17,.55,.34c.1,.17,.24,.31,.34,.48,.1,.17,.05,.42,.14,.59s.35,.27,.43,.45-.03,.44,.05,.62,.4,.27,.47,.45,.04,.41,.1,.59c.06,.19,.15,.37,.2,.56,.05,.19-.16,.45-.12,.63,.04,.19,.03,.39,.07,.58,.03,.2,.32,.35,.35,.54,.02,.2,.1,.39,.11,.59h0Z"/>
    <path class="cls-2" d="M102.42,27.94c-.08,.2-.28,.33-.37,.51-.1,.19-.04,.47-.16,.63-.12,.18-.48,.15-.61,.3-.14,.16-.33,.21-.48,.33-.17,.13-.16,.51-.34,.59-.19,.09-.43,.06-.62,.1-.2,.04-.41,.11-.61,.09-.2-.02-.37-.17-.57-.25-.17-.07-.49,.01-.63-.13-.12-.13-.24-.34-.33-.51-.08-.16-.1-.38-.16-.57-.06-.17,.21-.43,.17-.62-.04-.18-.41-.3-.43-.49-.02-.18-.07-.38-.07-.57,0-.18,.12-.38,.13-.57,0-.19,.22-.35,.24-.54s.02-.36,.06-.55c.04-.18,.05-.37,.1-.54,.05-.18,.04-.38,.11-.55,.08-.2,.23-.35,.32-.52,.11-.19,.06-.47,.19-.62,.14-.16,.24-.4,.39-.52,.16-.13,.46-.09,.64-.18,.19-.09,.42,0,.62-.04,.2-.05,.37-.07,.57-.07s.39-.05,.59,0c.2,.04,.33,.22,.52,.3,.17,.07,.41-.02,.54,.12,.12,.13,.26,.27,.35,.45,.08,.16,.18,.33,.23,.52,.05,.17-.04,.38-.01,.57,.02,.18,.3,.36,.3,.55,0,.18-.03,.39-.05,.58-.01,.18-.31,.34-.34,.53-.03,.18,.09,.4,.04,.58-.04,.18-.34,.29-.4,.47-.06,.18,.14,.45,.06,.62h.01Z"/>
  </g>
</svg>