<?xml version="1.0" encoding="UTF-8"?>
<svg id="Layer_1" data-name="Layer 1" xmlns="http://www.w3.org/2000/svg" viewBox="0 0 680.08 115">
  <defs>
    <style>
      .cls-1 {
        fill: #fff;
      }
    </style>
  </defs>
  <path class="cls-1" d="M680.08,114.9V18.43c-.1-.3-.19-.66-.3-.7-.19-.07-.42,.27-.62,.2-.19-.07-.37,.57-.57,.5-.19-.07-.41,.13-.61,.06-.19-.07-.39-.1-.59-.17-.19-.07-.4-.06-.6-.13-.19-.07-.37-.33-.57-.4-.19-.07-.41,.2-.61,.13-.19-.07-.33-.89-.53-.97-.19-.07-.39-.06-.59-.13-.19-.07-.48,1.13-.68,1.06-.19-.07-.33-.92-.53-.99-.19-.07-.41,.15-.61,.07-.19-.07-.34-.88-.53-.95s-.38-.23-.58-.3c-.19-.07-.39-.09-.59-.16-.19-.07-.42,.32-.62,.25-.19-.07-.36-.49-.56-.56-.19-.07-.44,.58-.64,.51-.19-.07-.34,.12-.53,.05s-.45,.69-.65,.62c-.19-.07-.36-.5-.56-.57-.19-.07-.39-.14-.59-.21-.19-.07-.38-.33-.57-.4s-.45,.68-.65,.61c-.19-.07-.35-.76-.54-.83-.19-.07-.35-.75-.55-.82s-.46,.83-.66,.76c-.2-.07-.38-.25-.58-.32s-.36-.55-.56-.62-.39-.13-.59-.2-.42,.32-.62,.25-.38-.31-.58-.38-.38-.31-.58-.38-.4,0-.6-.08c-.2-.07-.36-.61-.56-.68s-.4-.02-.6-.09c-.2-.07-.46,.81-.66,.74-.2-.07-.35-.8-.54-.87-.2-.07-.34-.92-.54-.99-.2-.07-.44,.49-.63,.42-.2-.07-.41,.12-.61,.05s-.35-.74-.55-.81-.46,.86-.66,.8c-.2-.07-.32-.17-.52-.24-.2-.07-.45,.63-.64,.56-.2-.07-.38-.3-.58-.37s-.41,.16-.61,.09-.31-1.4-.5-1.47c-.2-.07-.47,1.04-.67,.97s-.39-.13-.59-.2-.34-.85-.54-.92c-.2-.07-.44,.47-.63,.4-.2-.07-.36-.62-.56-.69s-.43,.32-.62,.26c-.2-.07-.44,.52-.64,.45-.2-.07-.37-.49-.57-.55-.2-.07-.37-.47-.57-.54s-.33-1.07-.53-1.14-.44,.49-.64,.43c-.2-.07-.4-.1-.6-.17-.2-.07-.4-.09-.6-.16-.2-.07-.41,.08-.61,.01-.2-.07-.36-.64-.56-.7-.2-.07-.42,.26-.62,.19s-.34-.98-.54-1.05c-.2-.07-.45,.65-.65,.59-.2-.07-.44,.48-.64,.41s-.34-.97-.54-1.04c-.2-.07-.42,.16-.61,.1-.2-.07-.4-.08-.59-.15-.2-.07-.43,.45-.63,.38s-.32-1.22-.52-1.29-.37-.54-.56-.61c-.2-.07-.41,.11-.61,.05-.2-.07-.49,1.3-.69,1.23-.2-.07-.34-.93-.54-1-.2-.07-.43,.39-.63,.32s-.37-.53-.56-.59-.39-.07-.58-.14c-.19-.06-.41,.21-.6,.15s-.39-.16-.58-.22-.34-.84-.54-.9c-.19-.06-.4,.08-.6,.03-.2-.06-.4,.1-.6,.04-.2-.06-.4,1.02-.6,.97-.2-.05-.34-1-.54-1.05-.2-.05-.45,1.03-.65,.98s-.37-.56-.56-.61c-.2-.05-.38-.26-.58-.31s-.42,.51-.62,.47c-.2-.05-.4,0-.59-.05-.2-.05-.38-.44-.58-.48s-.38-.34-.58-.38-.36-.85-.56-.89-.43,.82-.63,.78-.39-.23-.58-.27c-.2-.04-.39-.22-.59-.26s-.39-.11-.59-.15-.42,.61-.62,.57c-.2-.04-.37-.85-.56-.89-.2-.03-.4,.07-.6,.04-.2-.03-.39-.18-.59-.21s-.39-.25-.59-.28-.42,.63-.62,.6-.4,.06-.6,.03c-.2-.03-.39-.22-.59-.25s-.39-.29-.59-.32-.4,.21-.6,.18c-.2-.03-.4,.03-.6,0-.2-.02-.37-1.04-.57-1.06s-.4-.13-.59-.16c-.2-.02-.42,.78-.62,.76s-.39-.4-.59-.42c-.2-.02-.41,.53-.61,.51s-.4,.27-.6,.25c-.2-.02-.38-.81-.58-.83s-.41,.5-.6,.48c-.2-.02-.39-.35-.59-.37s-.39-.2-.59-.22-.4,.49-.6,.47c-.2-.02-.38-1.08-.58-1.09s-.41,.65-.61,.64c-.2-.01-.39-.25-.59-.27-.2-.01-.39-.33-.59-.34s-.41,1.42-.61,1.41-.38-1.5-.58-1.51-.4,.18-.6,.17c-.2,0-.4,.56-.6,.55-.2,0-.39-.52-.59-.53-.2,0-.4,.31-.6,.3-.2,0-.39-.84-.59-.85-.2,0-.4,.52-.6,.51-.2,0-.4-.39-.59-.4-.2,0-.4,.12-.6,.12s-.4,.79-.6,.79-.39-.65-.59-.65-.4,1.98-.6,1.98-.4-.4-.6-.4-.4,.72-.6,.72-.4-2.41-.6-2.41-.4,.22-.6,.22-.4,.2-.6,.2-.4,.74-.6,.74-.4,.13-.6,.13-.4-.04-.6-.03c-.2,0-.4-.04-.6-.03-.2,0-.4,.25-.6,.25s-.4-.41-.6-.41-.39,1.05-.59,1.05-.4-.01-.6,0c-.2,0-.4-1.3-.6-1.29-.2,0-.39,.77-.59,.78-.2,0-.4,.5-.59,.51-.2,0-.4-.7-.6-.69-.2,0-.4,.4-.59,.41-.2,0-.4,.36-.59,.36-.2,0-.41-1.26-.61-1.26s-.39,.93-.59,.94c-.2,0-.39,.5-.59,.51-.2,0-.4,.08-.6,.09-.2,0-.41,.04-.61,.05-.2,0-.4-.34-.6-.33-.2,.01-.39,1.05-.59,1.06s-.4-.55-.6-.54c-.2,.01-.4,.27-.59,.28-.2,.01-.41-.76-.61-.75s-.38,1.51-.58,1.53c-.2,.01-.41-1.02-.61-1.01-.2,.01-.39,.77-.59,.78s-.41-.77-.61-.75c-.2,.01-.4-.04-.6-.02-.2,.01-.4,.12-.6,.13-.2,.01-.38,.97-.58,.99-.2,.01-.41-.65-.61-.64-.2,.02-.41-.5-.61-.48s-.39,.57-.59,.58c-.2,.02-.4,.07-.6,.09-.2,.02-.4,.03-.6,.05-.2,.02-.4-.13-.6-.11-.2,.02-.41-.66-.61-.65-.2,.02-.38,1.22-.58,1.24s-.42-.89-.61-.87c-.2,.02-.4,1.01-.6,1.02-.2,.02-.38,.83-.58,.85-.2,.02-.4-.1-.6-.08-.2,.02-.4-.12-.6-.1-.2,.02-.38,.85-.58,.87s-.42-1.08-.62-1.06-.37,1.16-.57,1.18-.42-.96-.62-.94-.4-.11-.6-.09c-.2,.02-.39,.24-.59,.26-.2,.02-.38,.72-.58,.75-.2,.02-.42-.93-.62-.91s-.4,0-.6,.03c-.2,.02-.4-.16-.6-.13-.2,.02-.38,.69-.58,.71s-.4,.03-.6,.05c-.2,.02-.4,.11-.6,.13-.2,.02-.38,.71-.58,.74-.2,.02-.42-1.01-.62-.99-.2,.02-.38,.65-.58,.67-.2,.02-.41-.42-.61-.4-.2,.03-.38,.8-.58,.83s-.41-.58-.61-.56c-.2,.03-.4,.12-.59,.15-.2,.03-.38,.69-.58,.71-.2,.03-.41-.57-.61-.55-.2,.03-.37,1.13-.57,1.15-.2,.03-.42-.61-.61-.58-.2,.03-.39,.32-.59,.35s-.4-.16-.6-.13c-.2,.03-.4-.22-.6-.19-.2,.03-.41-.51-.61-.48s-.4-.06-.6-.03-.36,1.46-.55,1.49c-.2,.03-.43-.97-.63-.94s-.37,.87-.57,.9-.42-.81-.62-.79c-.2,.03-.39,.23-.59,.26s-.41-.32-.61-.29-.36,1.37-.56,1.4-.43-1.15-.63-1.12-.4,.07-.59,.1c-.2,.03-.37,.77-.57,.8s-.4-.07-.6-.04c-.2,.03-.38,.47-.58,.5s-.41-.42-.61-.39-.37,.8-.57,.83-.45-1.67-.65-1.64-.36,1.29-.55,1.32c-.2,.03-.41-.27-.61-.24s-.37,.88-.57,.91-.4-.17-.6-.13c-.2,.03-.44-1.17-.63-1.14-.2,.03-.37,.89-.57,.93-.2,.03-.42-.78-.62-.75s-.39,.22-.59,.26c-.2,.03-.37,.72-.57,.76-.2,.03-.41-.48-.61-.44-.2,.03-.38,.6-.57,.63-.2,.03-.39,.09-.59,.12s-.4-.13-.6-.09c-.2,.03-.41-.35-.61-.32s-.36,.97-.56,1.01c-.2,.03-.41-.32-.61-.29s-.39,.22-.59,.25c-.2,.04-.41-.46-.61-.42-.2,.04-.4,.08-.59,.12-.2,.04-.36,.97-.56,1-.2,.04-.4,.02-.59,.06-.2,.04-.4,.03-.59,.07-.2,.04-.39,.17-.59,.2-.2,.04-.4,.04-.59,.08-.2,.04-.43-.86-.63-.83-.2,.04-.4-.1-.6-.06-.2,.04-.36,.92-.56,.95-.2,.04-.41-.27-.61-.23-.2,.04-.41-.21-.6-.17-.2,.04-.36,.98-.56,1.02-.2,.04-.41-.23-.6-.2-.2,.04-.41-.41-.61-.37s-.37,.64-.57,.67c-.2,.04-.41-.19-.6-.15-.2,.04-.38,.4-.58,.44s-.43-.7-.62-.67c-.2,.04-.38,.38-.58,.42s-.4-.08-.6-.04c-.2,.04-.35,1.15-.55,1.19s-.41-.28-.61-.25c-.2,.04-.38,.47-.58,.51s-.45-1.28-.65-1.24-.34,1.39-.54,1.43c-.2,.04-.43-.79-.63-.75s-.39,.21-.59,.25-.41-.35-.61-.31-.4-.09-.6-.05c-.2,.04-.37,.58-.57,.62s-.37,.73-.56,.77c-.2,.04-.42-.48-.61-.44-.2,.04-.39,.29-.58,.33-.2,.04-.43-.83-.63-.79-.2,.04-.36,.93-.56,.97s-.42-.46-.61-.42c-.2,.04-.34,1.45-.53,1.49-.2,.04-.44-1.12-.64-1.08s-.37,.71-.56,.75c-.2,.04-.43-.71-.62-.67-.2,.04-.4,.02-.59,.06-.2,.04-.38,.39-.58,.43-.2,.04-.41-.2-.6-.16-.2,.04-.38,.38-.58,.42-.2,.04-.39,.12-.59,.16-.2,.04-.39,.16-.59,.2-.2,.04-.39,.26-.58,.3-.2,.04-.41-.2-.6-.15-.2,.04-.39,.14-.59,.18-.2,.04-.37,.74-.56,.78-.2,.04-.45-1.2-.65-1.16-.2,.04-.36,.79-.56,.83-.2,.04-.4,0-.59,.04-.2,.04-.4-.04-.6,0s-.4,.01-.59,.05c-.2,.04-.38,.33-.58,.37-.2,.04-.38,.41-.58,.45-.2,.04-.38,.37-.58,.42-.2,.04-.44-.9-.63-.86-.2,.04-.4-.06-.6-.02s-.39,.3-.58,.34c-.2,.04-.34,1.27-.54,1.32-.2,.04-.42-.47-.61-.43-.2,.04-.41-.18-.6-.14-.2,.04-.39,.26-.58,.31-.2,.04-.4-.07-.6-.03s-.41-.26-.61-.22c-.2,.04-.39,.22-.58,.26-.2,.04-.42-.51-.62-.46-.2,.04-.36,.93-.55,.97-.2,.04-.41-.4-.61-.35-.2,.04-.39,.12-.59,.16-.2,.04-.38,.33-.58,.37-.2,.04-.4-.1-.6-.06s-.38,.46-.57,.5c-.2,.04-.42-.43-.61-.39-.2,.04-.38,.49-.57,.53-.2,.04-.41-.23-.6-.18-.2,.04-.38,.42-.58,.46-.2,.04-.4-.16-.6-.12s-.36,.83-.56,.88c-.2,.04-.4-.09-.6-.05s-.43-.66-.62-.61c-.2,.04-.33,1.45-.53,1.49-.2,.04-.43-.85-.63-.81s-.38,.48-.57,.52c-.2,.04-.41-.32-.61-.27-.2,.04-.37,.66-.56,.7-.2,.04-.4,.03-.59,.07-.2,.04-.39,.14-.59,.18-.2,.04-.45-1.27-.65-1.23-.2,.04-.36,.88-.56,.92s-.4-.14-.6-.1-.39,.06-.59,.1c-.2,.04-.39,.15-.59,.19-.2,.04-.39,.2-.58,.24-.2,.04-.4-.16-.6-.12s-.37,.66-.56,.7c-.2,.04-.41-.25-.6-.21-.2,.04-.37,.67-.56,.71-.2,.04-.4-.12-.6-.08s-.39,.13-.59,.17c-.2,.04-.42-.58-.62-.54-.2,.04-.38,.39-.58,.43-.2,.04-.39,.17-.58,.21-.2,.04-.41-.35-.61-.31-.2,.04-.36,.98-.55,1.02-.2,.04-.41-.44-.61-.4-.2,.04-.4-.23-.6-.19s-.38,.49-.57,.53c-.2,.04-.37,.62-.57,.66s-.43-.73-.62-.7c-.2,.04-.42-.68-.62-.64-.2,.04-.35,1.09-.55,1.13-.2,.04-.39,.23-.59,.27-.2,.04-.39,.11-.59,.15-.2,.04-.39,.16-.59,.2-.2,.04-.4,.03-.59,.07-.2,.04-.39,.08-.59,.12-.2,.04-.42-.61-.62-.58-.2,.04-.41-.26-.6-.22-.2,.04-.38,.55-.57,.58-.2,.04-.42-.53-.61-.49-.2,.04-.36,1.01-.56,1.05-.2,.04-.41-.32-.6-.28-.2,.03-.41-.35-.61-.32-.2,.03-.36,1.16-.55,1.19-.2,.03-.41-.38-.61-.35-.2,.03-.43-.89-.63-.86-.2,.03-.37,1.11-.56,1.14-.2,.03-.42-.69-.62-.66-.2,.03-.38,.8-.57,.83-.2,.03-.39,.13-.59,.16-.2,.03-.42-1.01-.62-.99-.2,.03-.38,.86-.57,.89-.2,.02-.39,.4-.59,.42-.2,.02-.41-.84-.61-.82-.2,.02-.39,.22-.59,.24-.2,.02-.4-.26-.6-.24-.2,.02-.37,1.6-.56,1.62-.2,.02-.41-.85-.6-.83-.2,.01-.4-.59-.6-.58s-.39,.56-.58,.58c-.2,.01-.39,.79-.58,.8-.2,0-.4-.05-.59-.04-.2,0-.41-1.57-.6-1.57-.2,0-.39,.95-.58,.96-.2,0-.4-.63-.59-.63-.2,0-.39,.63-.59,.63s-.39,.7-.59,.7-.39-1.11-.59-1.12c-.2,0-.4,.55-.59,.55-.2,0-.4,.31-.59,.3-.2,0-.38-1.38-.58-1.39-.2,0-.4,.86-.6,.85-.2,0-.39,.12-.59,.11-.2-.01-.38-1.01-.57-1.03-.2-.01-.4,.88-.6,.86-.2-.02-.38-.75-.57-.77-.2-.02-.4,.34-.59,.32-.2-.02-.4,.43-.6,.41s-.4,.18-.59,.16c-.2-.02-.37-.96-.57-.98-.2-.02-.38-.34-.58-.37-.2-.03-.42,1.09-.62,1.06-.2-.03-.37-.8-.57-.83s-.42,.71-.61,.68c-.2-.03-.38-.34-.58-.38-.2-.03-.41,.28-.6,.25-.2-.04-.37-.67-.57-.71-.2-.04-.42,.61-.61,.57-.2-.04-.35-1.14-.54-1.18-.2-.04-.4,.12-.6,.08s-.4,.14-.6,.1-.41,.26-.6,.21c-.2-.05-.35-.94-.55-.99-.2-.05-.4,.07-.59,.03-.2-.05-.39-.12-.58-.17-.2-.05-.41,.24-.6,.19-.2-.05-.4,.06-.6,0s-.37-.46-.57-.52-.38-.31-.57-.36c-.2-.06-.42,.38-.61,.32-.2-.06-.41,.23-.61,.17-.2-.06-.38-.28-.58-.34-.2-.06-.41,.11-.6,.05-.2-.06-.38-.34-.57-.4-.2-.06-.36-.6-.56-.66s-.43,.51-.63,.45-.31-1.26-.51-1.33c-.2-.07-.39-.14-.59-.2-.2-.07-.46,.9-.66,.83s-.35-.68-.55-.75c-.2-.07-.43,.35-.62,.28-.2-.07-.4,.01-.6-.06s-.39-.13-.59-.2c-.2-.07-.32-1.17-.51-1.24-.2-.07-.38-.24-.58-.32-.2-.07-.42,.31-.62,.23-.19-.07-.41,.16-.61,.09-.19-.07-.37-.35-.57-.42-.19-.07-.42,.28-.62,.2-.19-.07-.44,.53-.64,.46-.19-.07-.36-.5-.56-.57-.19-.07-.35-.67-.55-.74-.19-.07-.36-.58-.55-.66-.19-.07-.41,.09-.6,.02s-.37-.46-.56-.53-.44,.56-.64,.48c-.19-.07-.34-.79-.54-.87-.2-.07-.43,.35-.62,.28-.2-.07-.42,.25-.62,.17-.2-.07-.35-.66-.55-.73-.2-.07-.39-.21-.58-.28-.2-.07-.39-.2-.58-.28-.2-.07-.4,.03-.6-.04s-.36-.58-.56-.65-.45,.63-.65,.56c-.2-.07-.35-.76-.54-.83-.2-.07-.43,.35-.63,.28s-.4,0-.6-.07-.4-.06-.6-.14c-.19-.07-.35-.67-.55-.74-.19-.07-.33-.92-.53-.99-.19-.07-.46,.88-.66,.81-.19-.07-.41,.17-.61,.1-.19-.07-.35-.64-.55-.71-.2-.07-.41,.11-.6,.04-.2-.07-.4,.03-.6-.03-.2-.07-.39-.14-.59-.21-.2-.07-.34-.83-.54-.89-.2-.07-.4-.04-.59-.11-.2-.07-.39-.19-.58-.26-.2-.07-.42,.36-.62,.29-.2-.07-.39-.17-.59-.24-.2-.06-.43,.4-.62,.34-.2-.06-.32-1.17-.52-1.23-.2-.06-.42,.35-.62,.29-.2-.06-.37-.41-.57-.47s-.44,.56-.63,.5c-.2-.06-.36-.68-.55-.74-.2-.06-.38-.32-.58-.38-.2-.06-.37-.47-.57-.53s-.42,.24-.61,.18c-.2-.06-.37-.5-.57-.56s-.45,.77-.64,.71c-.2-.06-.39-.19-.59-.25-.2-.06-.38-.37-.58-.43-.2-.06-.4-.07-.59-.13-.2-.06-.41,.14-.61,.08-.2-.06-.34-1.13-.53-1.19-.2-.06-.43,.47-.63,.41-.2-.05-.43,.58-.63,.53s-.39-.12-.59-.17c-.2-.05-.36-.71-.56-.76-.2-.05-.4-.01-.6-.06s-.4-.02-.6-.07c-.2-.05-.42,.36-.62,.31-.2-.05-.38-.48-.57-.53-.2-.05-.41,.23-.61,.18-.2-.05-.35-.93-.55-.98-.2-.05-.45,.94-.65,.89-.2-.05-.35-1.02-.55-1.07-.2-.05-.37-.67-.57-.72s-.42,.34-.62,.29c-.2-.05-.41,.11-.6,.06-.2-.05-.4-.05-.6-.1-.2-.05-.43,.71-.63,.66s-.34-1.25-.54-1.3-.4,.04-.6,0-.42,.51-.62,.47c-.2-.04-.38-.39-.58-.43-.2-.04-.38-.38-.58-.43-.2-.04-.43,.63-.63,.59s-.41,.33-.61,.29c-.2-.04-.33-1.55-.53-1.59s-.43,.75-.63,.71-.42,.56-.62,.51c-.2-.04-.36-.85-.56-.89s-.4-.06-.59-.1c-.2-.04-.4-.07-.59-.11-.2-.04-.39-.17-.59-.21-.2-.04-.41,.18-.6,.15-.2-.04-.38-.47-.58-.51-.2-.04-.38-.58-.58-.61-.2-.04-.42,.47-.61,.43-.2-.04-.42,.65-.62,.62-.2-.04-.39-.27-.59-.31-.2-.04-.4,.04-.6,0-.2-.03-.39-.11-.59-.15-.2-.03-.37-.91-.57-.94s-.38-.67-.57-.7c-.2-.03-.43,.97-.63,.94s-.38-.5-.58-.53c-.2-.03-.42,.71-.62,.68-.2-.03-.39-.15-.59-.18-.2-.03-.37-.97-.57-1s-.41,.37-.61,.34c-.2-.03-.38-.44-.58-.47-.2-.03-.42,.88-.62,.85-.2-.03-.38-.49-.58-.52-.2-.03-.4,0-.6-.04-.2-.03-.39-.26-.59-.29-.2-.03-.42,.69-.62,.67-.2-.03-.39-.15-.59-.18-.2-.03-.39-.42-.59-.45-.2-.03-.38-.57-.58-.6-.2-.03-.42,.88-.62,.86-.2-.03-.37-1.1-.57-1.12-.2-.03-.41,.48-.61,.46-.2-.03-.4-.06-.6-.08-.2-.03-.4,.12-.6,.09-.2-.02-.38-.57-.58-.59-.2-.02-.4,.16-.6,.13-.2-.02-.4-.1-.59-.12-.2-.02-.42,.74-.61,.72-.2-.02-.38-.83-.58-.85-.2-.02-.42,.77-.61,.74-.2-.02-.38-.63-.58-.65-.2-.02-.39-.16-.59-.18-.2-.02-.39-.41-.59-.43-.2-.02-.42,1.1-.62,1.08-.2-.02-.4,.06-.6,.04s-.4-.1-.6-.12-.37-1.44-.57-1.46-.41,.68-.61,.66c-.2-.02-.39-.64-.59-.66-.2-.02-.4,.32-.6,.3-.2-.02-.4,.2-.6,.19-.2-.02-.38-.87-.58-.88-.2-.02-.41,.72-.61,.71-.2-.02-.41,.63-.61,.61-.2-.02-.39-.24-.59-.26-.2-.02-.4-.06-.6-.07-.2-.02-.39-.39-.59-.4-.2-.02-.39-.22-.59-.24-.2-.02-.39-.29-.59-.3-.2-.02-.41,.58-.61,.57-.2-.02-.4-.02-.6-.03s-.4,.29-.6,.28-.39-.58-.59-.59c-.2-.01-.4,.09-.6,.07-.2-.01-.4,.47-.6,.46s-.39-.42-.59-.43c-.2-.01-.4-.22-.59-.24-.2-.01-.4-.21-.6-.22s-.4,.22-.6,.21-.39-.72-.59-.74c-.2-.01-.41,.68-.61,.67-.2-.01-.39-.94-.59-.95-.2-.01-.4,.02-.6,.01-.2-.01-.4,.08-.6,.07-.2-.01-.4,.55-.6,.54-.2-.01-.4,.37-.6,.36s-.4-.51-.6-.52c-.2,0-.4-.48-.6-.49-.2,0-.41,.58-.61,.57-.2,0-.41,.49-.61,.48-.2,0-.39-1.48-.59-1.49-.2,0-.41,.78-.61,.78s-.4,.12-.6,.11c-.2,0-.4-.11-.6-.11s-.4,.56-.6,.55c-.2,0-.4-.07-.6-.07s-.4,.47-.6,.46c-.2,0-.39-1.16-.59-1.16s-.4,.69-.6,.69-.4-.64-.6-.65c-.2,0-.4,.23-.6,.23s-.4,.68-.6,.68-.4-.82-.6-.82-.4,.11-.6,.11-.4-.29-.6-.29-.4,1.26-.6,1.26-.4-.76-.6-.76-.4,.1-.6,.1-.4,.49-.6,.49-.4-1.3-.6-1.3-.4,.49-.6,.49-.4-.07-.6-.06c-.2,0-.4-.14-.6-.14s-.4,.2-.6,.2-.4-.88-.6-.88-.39,1.51-.59,1.52c-.2,0-.4-1.15-.6-1.14-.2,0-.39,.62-.59,.62s-.4-.09-.6-.09-.4,.2-.6,.21c-.2,0-.4,.39-.59,.39-.2,0-.4-.62-.6-.61h-.6c-.2,0-.39,.56-.59,.57-.2,0-.39,.52-.59,.53-.2,0-.41-.91-.6-.9-.2,0-.39,.62-.59,.63-.2,0-.41-.97-.61-.95-.2,.01-.4-.25-.6-.24s-.38,1.13-.58,1.14c-.2,.01-.4-.4-.6-.39-.2,.01-.4,.09-.59,.11-.2,.01-.39,.59-.59,.6-.2,.01-.39,.29-.59,.3-.2,.01-.4-.32-.6-.3-.2,.01-.4-.15-.6-.13-.2,.01-.4-.48-.6-.47s-.4-.12-.6-.1-.38,1.3-.58,1.31c-.2,.02-.4-.46-.6-.45-.2,.02-.41-.77-.61-.75-.2,.02-.39,.23-.59,.24-.2,.02-.39,.28-.59,.29-.2,.02-.41-.57-.61-.55-.2,.02-.38,1.19-.57,1.21-.2,.02-.42-1.2-.62-1.18-.2,.02-.38,.71-.58,.73-.2,.02-.39,.22-.59,.24-.2,.02-.4,.08-.59,.1-.2,.02-.4-.25-.6-.23s-.4-.08-.6-.06-.4,0-.6,.02-.38,.96-.57,.99c-.2,.02-.39,.16-.59,.18-.2,.02-.41-.47-.61-.45-.2,.02-.39,.23-.59,.25-.2,.02-.42-.81-.61-.78-.2,.02-.38,.72-.58,.74-.2,.02-.41-.42-.61-.4-.2,.02-.38,.51-.58,.54-.2,.03-.39,.14-.59,.17-.2,.03-.4-.01-.6,.02s-.41-.53-.61-.5c-.2,.03-.38,.81-.57,.84-.2,.03-.42-.82-.62-.8-.2,.03-.37,1.11-.56,1.14-.2,.03-.42-.82-.62-.79-.2,.03-.39,.34-.59,.37-.2,.03-.4-.14-.6-.11-.2,.03-.38,.44-.58,.47-.2,.03-.42-.59-.61-.56-.2,.03-.39,.17-.59,.2-.2,.03-.39,.23-.59,.26-.2,.03-.41-.37-.61-.34-.2,.03-.38,.48-.58,.51-.2,.03-.37,.98-.56,1.01-.2,.03-.43-1-.63-.97s-.39,.2-.59,.24c-.2,.03-.37,.76-.57,.79s-.4-.15-.6-.12-.41-.39-.61-.35c-.2,.03-.39,.15-.59,.19-.2,.03-.42-.56-.61-.53-.2,.03-.38,.4-.58,.43-.2,.04-.38,.36-.58,.39-.2,.04-.41-.4-.61-.37-.2,.04-.38,.47-.58,.5-.2,.04-.37,.64-.57,.67-.2,.04-.38,.49-.58,.52-.2,.04-.45-1.4-.65-1.36-.2,.04-.38,.54-.57,.57-.2,.04-.4-.11-.6-.07-.2,.04-.39,.27-.58,.31-.2,.04-.38,.38-.58,.41-.2,.04-.42-.46-.61-.42-.2,.04-.37,.6-.57,.64s-.4-.13-.6-.09-.4-.08-.6-.04c-.2,.04-.36,.85-.56,.89-.2,.04-.42-.48-.61-.44-.2,.04-.4-.03-.6,0-.2,.04-.38,.37-.58,.41s-.39,.17-.59,.21c-.2,.04-.43-.67-.62-.62-.2,.04-.37,.62-.57,.66-.2,.04-.41-.27-.61-.23-.2,.04-.39,.17-.59,.21-.2,.04-.36,.79-.56,.83-.2,.04-.43-.66-.62-.62-.2,.04-.37,.61-.57,.66-.2,.04-.41-.33-.61-.28-.2,.04-.39,.15-.59,.2-.2,.04-.38,.42-.57,.46-.2,.04-.39,.27-.58,.31-.2,.04-.41-.32-.61-.27-.2,.04-.4,0-.59,.04-.2,.05-.35,1.04-.55,1.08-.2,.05-.45-1.07-.64-1.02-.2,.05-.39,.15-.59,.2-.2,.05-.41-.23-.61-.18-.2,.05-.37,.64-.57,.68-.2,.05-.38,.38-.58,.42-.2,.05-.42-.43-.62-.38s-.34,1.32-.53,1.37c-.2,.05-.45-.98-.64-.93-.2,.05-.39,.19-.59,.23-.2,.05-.38,.33-.58,.38-.2,.05-.41-.14-.6-.1-.2,.05-.42-.49-.62-.44s-.35,1.02-.55,1.07c-.2,.05-.41-.22-.61-.17s-.41-.23-.61-.18c-.2,.05-.38,.34-.58,.39-.2,.05-.37,.51-.57,.56-.2,.05-.4,0-.6,.05-.2,.05-.41-.17-.6-.12-.2,.05-.4-.08-.6-.03-.2,.05-.38,.47-.57,.52-.2,.05-.41-.28-.61-.23s-.37,.52-.57,.57c-.2,.05-.44-.86-.64-.81s-.37,.67-.56,.72c-.2,.05-.39,.2-.59,.25s-.39,.09-.59,.14c-.2,.05-.43-.54-.62-.49-.2,.05-.35,.9-.55,.95-.2,.05-.4,.04-.59,.09-.2,.05-.41-.26-.61-.21-.2,.05-.37,.52-.57,.57-.2,.05-.42-.36-.61-.31-.2,.05-.38,.35-.58,.4s-.4,.05-.59,.1c-.2,.05-.38,.33-.58,.38-.2,.05-.38,.41-.57,.46-.2,.05-.38,.3-.58,.35-.2,.05-.41-.17-.6-.12-.2,.05-.41-.3-.61-.25s-.42-.33-.61-.28c-.2,.05-.37,.56-.57,.61-.2,.05-.38,.27-.58,.32-.2,.05-.38,.39-.57,.44-.2,.05-.36,.66-.56,.71s-.42-.34-.61-.29c-.2,.05-.42-.43-.62-.38s-.36,.72-.56,.77-.4-.12-.6-.07c-.2,.05-.41-.23-.61-.18-.2,.05-.37,.54-.57,.59-.2,.05-.4-.03-.6,.02-.2,.05-.4,0-.59,.05-.2,.05-.41-.26-.61-.21-.2,.05-.4,0-.59,.05-.2,.05-.36,.81-.55,.86-.2,.05-.44-.81-.64-.77s-.34,1.17-.54,1.22-.45-1.12-.65-1.07-.39,.22-.58,.27c-.2,.05-.4-.02-.6,.03-.2,.05-.39,.17-.59,.22s-.36,.83-.55,.88c-.2,.05-.41-.28-.61-.24-.2,.05-.38,.34-.58,.38-.2,.05-.45-1.07-.65-1.02-.2,.05-.35,1-.55,1.05s-.42-.55-.62-.5-.37,.59-.57,.64c-.2,.05-.38,.37-.58,.41-.2,.05-.4,.05-.59,.1-.2,.05-.37,.68-.56,.73-.2,.05-.38,.37-.58,.42-.2,.05-.44-.8-.63-.76-.2,.05-.37,.69-.56,.73-.2,.04-.4-.12-.6-.08-.2,.04-.42-.48-.62-.43-.2,.04-.39,.27-.58,.32-.2,.04-.41-.27-.61-.23-.2,.04-.4,.06-.59,.11-.2,.04-.41-.19-.6-.14-.2,.04-.37,.59-.57,.63-.2,.04-.42-.39-.61-.35-.2,.04-.36,.81-.56,.85s-.41-.17-.6-.13c-.2,.04-.39,.1-.59,.14s-.38,.38-.58,.42-.41-.27-.61-.23c-.2,.04-.38,.44-.58,.48s-.41-.39-.61-.35-.39,.16-.59,.2-.39,.18-.59,.22-.4-.12-.6-.08c-.2,.04-.4-.02-.6,.02-.2,.04-.38,.59-.57,.62-.2,.04-.37,.83-.56,.87-.2,.04-.4-.09-.6-.05-.2,.04-.39,.25-.59,.29s-.42-.67-.62-.64c-.2,.04-.39,.25-.59,.29s-.4-.02-.6,.02c-.2,.03-.41-.26-.61-.22-.2,.03-.37,.68-.57,.72-.2,.03-.41-.44-.61-.4-.2,.03-.4-.06-.6-.03-.2,.03-.38,.67-.57,.7-.2,.03-.43-.86-.62-.83-.2,.03-.37,.8-.57,.83-.2,.03-.41-.44-.61-.41s-.38,.63-.58,.66-.42-.76-.62-.73-.38,.71-.58,.74-.4-.14-.6-.11c-.2,.03-.41-.33-.61-.3s-.38,.6-.58,.63-.41-.4-.61-.38c-.2,.03-.41-.35-.61-.33-.2,.03-.37,.9-.57,.92-.2,.03-.4-.05-.6-.03-.2,.02-.4-.14-.6-.12-.2,.02-.41-.38-.61-.36-.2,.02-.37,1.13-.57,1.16-.2,.02-.41-.47-.61-.44-.2,.02-.39,.23-.59,.25s-.4,.1-.59,.12c-.2,.02-.41-.34-.6-.32-.2,.02-.4-.32-.6-.3-.2,.02-.4,.09-.59,.11-.2,.02-.39,.64-.58,.66-.2,.02-.41-.41-.6-.39-.2,.02-.39,.3-.59,.32-.2,.02-.4,.03-.6,.05-.2,.02-.4-.04-.6-.02-.2,.02-.39,.76-.58,.77-.2,.02-.4-.4-.6-.39-.2,.01-.41-.61-.6-.59-.2,.01-.39,.45-.59,.46-.2,.01-.39,.32-.59,.33-.2,.01-.39,.21-.59,.22s-.41-1.05-.61-1.04c-.2,.01-.4-.1-.6-.09-.2,.01-.39,1.04-.59,1.04s-.39,.51-.59,.51-.41-1-.6-.99c-.2,0-.4-.19-.6-.19s-.39,.76-.59,.76-.4,.08-.6,.08-.4,.02-.6,.02-.4,.47-.59,.47c-.2,0-.4-.61-.6-.61s-.4,.36-.6,.37c-.2,0-.4,.22-.6,.23-.2,0-.4-.57-.6-.56-.2,0-.4-.89-.6-.89s-.4,1.17-.6,1.17-.4-.59-.6-.59-.4,.41-.6,.4c-.2,0-.4-.37-.6-.37s-.4,.12-.6,.12-.39-.82-.59-.82-.4,.87-.6,.87-.4-.24-.6-.24-.4,.09-.6,.08c-.2,0-.4,.51-.6,.51s-.39-.93-.59-.94c-.2,0-.4,.79-.6,.79s-.4,.17-.6,.16c-.2,0-.4,.38-.6,.37-.2-.01-.39-.98-.59-.99-.2-.01-.4-.02-.6-.03-.2-.01-.4,.39-.6,.37-.2-.01-.4-.22-.59-.24-.2-.01-.4-.09-.6-.1-.2-.01-.4-.03-.6-.04-.2-.01-.4-.1-.6-.11-.2-.02-.4-.09-.6-.11-.2-.02-.39-.28-.59-.29-.2-.02-.41,.53-.61,.51s-.38-.97-.58-.99-.39-.25-.59-.26c-.2-.02-.43,1.46-.63,1.44-.2-.02-.38-.66-.58-.68s-.41,.43-.61,.41-.4,.11-.6,.09c-.2-.02-.39-.23-.59-.26-.2-.02-.37-1.36-.56-1.39-.2-.02-.43,1.16-.63,1.13-.2-.03-.38-.86-.58-.89-.2-.03-.39-.22-.59-.25s-.42,.61-.61,.58c-.2-.03-.4,0-.6-.03-.2-.03-.37-.97-.57-.99-.2-.03-.41,.29-.61,.26s-.42,.72-.62,.69-.38-.7-.58-.73-.38-.48-.58-.51-.41,.26-.61,.22c-.2-.03-.42,.62-.62,.58-.2-.03-.39-.23-.59-.26s-.39-.16-.59-.2-.41,.35-.61,.32c-.2-.04-.39-.32-.59-.36-.2-.04-.38-.46-.58-.49-.2-.04-.38-.4-.58-.44-.2-.04-.41,.28-.61,.24s-.42,.37-.61,.33c-.2-.04-.42,.35-.61,.31-.2-.04-.37-.74-.57-.78s-.4-.08-.6-.12-.41,.12-.6,.08c-.2-.04-.34-1.29-.54-1.34-.2-.04-.44,.93-.64,.89-.2-.05-.4,0-.6-.05s-.38-.44-.58-.49c-.2-.05-.41,.27-.61,.22s-.41,.11-.61,.06-.39-.31-.58-.36c-.2-.05-.4-.13-.6-.18s-.41,.04-.61,0c-.2-.05-.41,.04-.61-.01-.2-.05-.38-.44-.58-.49-.2-.05-.42,.44-.62,.4-.2-.05-.34-1.29-.54-1.34-.2-.05-.39-.21-.59-.26-.2-.05-.45,.91-.64,.87-.2-.05-.38-.42-.58-.47-.2-.04-.4-.16-.59-.2-.2-.04-.37-.67-.57-.72-.2-.04-.42,.52-.62,.47-.2-.04-.37-.79-.57-.83-.2-.04-.41,.24-.61,.19-.2-.04-.43,.62-.63,.58s-.4,.04-.6,0-.39-.27-.59-.31-.4-.04-.6-.08c-.2-.04-.37-.77-.57-.81s-.4-.1-.6-.14-.41,.24-.61,.2c-.2-.04-.4-.13-.59-.17-.2-.04-.38-.55-.58-.58-.2-.04-.44,1.05-.64,1.01-.2-.04-.36-1.1-.56-1.14s-.42,.68-.62,.64c-.2-.04-.39-.25-.59-.28-.2-.04-.4,0-.6-.03s-.37-.8-.57-.84c-.2-.03-.45,1.36-.64,1.33-.2-.03-.37-.94-.57-.97s-.42,.71-.62,.68c-.2-.03-.37-.86-.57-.89-.2-.03-.39-.26-.59-.29s-.4-.07-.6-.1-.41,.36-.61,.33-.38-.62-.58-.65c-.2-.03-.4,.13-.6,.1s-.42,.84-.62,.81c-.2-.03-.39-.13-.59-.16s-.4-.03-.6-.06-.39-.25-.59-.27c-.2-.03-.38-.66-.58-.68-.2-.03-.41,.23-.6,.2-.2-.03-.4-.04-.6-.07s-.41,.51-.61,.49c-.2-.03-.39-.45-.58-.48-.2-.03-.4,.17-.6,.15-.2-.03-.39-.37-.59-.4-.2-.02-.37-1.1-.57-1.13-.2-.02-.41,.68-.61,.66s-.4-.04-.6-.06-.39-.13-.59-.15-.39-.24-.59-.26c-.2-.02-.4-.06-.59-.08-.2-.02-.39-.27-.59-.29-.2-.02-.41,.54-.61,.52-.2-.02-.41,.41-.6,.39-.2-.02-.39-.17-.59-.19s-.4,.34-.6,.32-.39-.4-.59-.42c-.2-.02-.4,.09-.6,.07s-.38-.96-.58-.98c-.2-.02-.4,.26-.6,.24-.2-.02-.4,.13-.6,.12-.2-.02-.4,.17-.6,.15-.2-.02-.4-.12-.59-.14-.2-.02-.39-.22-.59-.23-.2-.02-.4-.15-.59-.17-.2-.01-.41,.97-.61,.96s-.39-.35-.59-.36c-.2-.01-.39-.4-.59-.42-.2-.01-.4,.47-.6,.46s-.39-.71-.59-.72-.39-.85-.59-.86c-.2-.01-.41,.99-.61,.97-.2-.01-.4,.18-.6,.17-.2-.01-.39-.26-.59-.27-.2-.01-.4-.12-.59-.13-.2-.01-.4-.1-.59-.11-.2,0-.4,.13-.6,.12-.2,0-.4,.1-.6,.09-.2,0-.4,0-.59-.02-.2,0-.4-.21-.59-.22-.2,0-.4-.21-.59-.21-.2,0-.4,.56-.6,.55-.2,0-.39-.62-.59-.63-.2,0-.4,.17-.6,.16-.2,0-.39-.37-.59-.37s-.4-.09-.59-.1c-.2,0-.4,.91-.6,.91s-.39-.88-.59-.88-.4,.35-.6,.35-.39-.58-.59-.59c-.2,0-.4,1.41-.6,1.41s-.39-.76-.59-.76-.4,.66-.59,.66c-.2,0-.39-.5-.59-.5s-.4-.81-.59-.81c-.2,0-.4,.97-.6,.97s-.4-.57-.6-.57-.4,.36-.6,.36-.4,.25-.6,.25-.4-1.27-.6-1.27-.4,1.04-.59,1.04c-.2,0-.4-.94-.6-.94s-.4,.74-.59,.75c-.2,0-.4,.53-.59,.53-.2,0-.4-.4-.6-.4s-.4-.55-.6-.55-.39,1.04-.59,1.04-.4-.27-.6-.26c-.2,0-.4,.2-.59,.2-.2,0-.39,.31-.59,.32-.2,0-.4-1.32-.6-1.31-.2,0-.39,1.11-.59,1.12-.2,0-.41-1.25-.6-1.24-.2,0-.39,1-.59,1.01-.2,0-.4-.13-.6-.13s-.39,.59-.59,.6c-.2,0-.4-.62-.6-.61-.2,0-.39,.42-.59,.42s-.4-.09-.59-.08c-.2,0-.4-.04-.59-.03-.2,0-.4-.78-.6-.77-.2,.01-.39,.49-.59,.5s-.39,.49-.59,.5-.4-.13-.6-.12c-.2,.01-.4-.18-.6-.16-.2,.01-.39,.37-.59,.38s-.4-.47-.6-.45c-.2,.01-.38,1.09-.58,1.1s-.41-.92-.61-.9c-.2,.01-.4-.22-.6-.21-.2,.01-.39,.69-.58,.7-.2,.01-.41-.72-.6-.7-.2,.02-.38,.85-.58,.86-.2,.02-.4-.1-.59-.08-.2,.02-.39,.1-.59,.12s-.4-.02-.59,0c-.2,.02-.39,.28-.59,.3s-.41-.64-.6-.62c-.2,.02-.4-.44-.6-.43-.2,.02-.37,1.5-.56,1.52-.2,.02-.41-.93-.61-.91s-.38,.72-.58,.74-.4-.41-.6-.39-.4-.36-.6-.34-.4-.07-.59-.05c-.2,.02-.39,.08-.59,.1-.2,.02-.38,.61-.58,.63-.2,.02-.41-.51-.6-.49-.2,.02-.39,.14-.59,.16s-.39,.31-.58,.33c-.2,.02-.39,.25-.59,.28-.2,.02-.41-.57-.61-.55-.2,.02-.39,.48-.58,.51-.2,.02-.38,.55-.58,.57-.2,.03-.39,.26-.59,.29s-.41-.62-.61-.6c-.2,.03-.39,.11-.59,.14-.2,.03-.39,.42-.58,.44-.2,.03-.41-.3-.6-.28-.2,.03-.41-.37-.6-.34-.2,.03-.4,.04-.59,.06-.2,.03-.4-.1-.6-.07s-.39,.3-.59,.33-.39,.39-.58,.42c-.2,.03-.39,.35-.58,.38-.2,.03-.4-.19-.6-.16-.2,.03-.41-.27-.6-.24-.2,.03-.37,.75-.57,.78s-.38,.39-.58,.42-.45-1.58-.65-1.55-.38,.59-.57,.63c-.2,.03-.36,1-.56,1.04-.2,.03-.42-.62-.61-.59-.2,.03-.41-.37-.61-.33-.2,.03-.38,.59-.57,.63-.2,.04-.41-.3-.6-.26-.2,.04-.38,.5-.58,.54s-.39,.19-.59,.22c-.2,.04-.4,.05-.59,.08-.2,.04-.41-.2-.6-.17-.2,.04-.38,.41-.58,.45s-.38,.32-.58,.36c-.2,.04-.42-.65-.62-.61s-.37,.61-.57,.65c-.2,.04-.43-.69-.62-.66-.2,.04-.39,.21-.58,.25-.2,.04-.36,.78-.56,.83-.2,.04-.42-.53-.62-.49-.2,.04-.39,.11-.59,.15-.2,.04-.41-.34-.61-.3-.2,.04-.36,.82-.56,.86-.2,.04-.37,.54-.57,.58-.03,0-.06-.01-.09-.03V115H680.08v-.1Z"/>
</svg>