<?xml version="1.0" encoding="UTF-8"?>
<svg id="Layer_1" data-name="Layer 1" xmlns="http://www.w3.org/2000/svg" viewBox="0 0 50.93 51.32">
  <defs>
    <style>
      .cls-1 {
        opacity: .5;
      }

      .cls-2 {
        fill: #f2674a;
      }

      .cls-3 {
        fill: #609e44;
      }
    </style>
  </defs>
  <g>
    <path class="cls-3" d="M46.87,16.93c-.24-.07-.26-.13-.47-.2-.24-.08-.56,.1-.77,.01-.24-.09-.25-.65-.44-.75-.23-.11-.64,.14-.82,.02-.22-.14-.28-.46-.42-.62-.18-.19-.25-.39-.32-.59-.08-.22-.33-.45-.3-.69,.03-.21,.5-.29,.62-.52,.09-.19-.21-.63-.06-.84,.12-.18,.28-.38,.43-.57,.14-.17,.32-.34,.48-.52,.15-.17,.37-.29,.53-.47,.15-.17,.51-.15,.68-.32,.16-.16,.2-.44,.37-.61,.16-.16,.18-.47,.35-.64,.16-.16,.57-.09,.74-.26,.16-.16,.29-.37,.45-.54s.21-.45,.38-.62c.16-.17,.52-.43,.69-.6-.25,.06-.69,.04-.92,.09-.25,.05-.47,.16-.7,.2-.26,.04-.47,.33-.7,.34-.26,.02-.52-.07-.75-.08-.27-.01-.44-.35-.66-.4-.26-.07-.58,.15-.77,.02-.2-.14-.27-.41-.4-.62-.12-.19,0-.45-.06-.7-.05-.22-.3-.4-.31-.66,0-.22,.11-.45,.12-.71,0-.23-.2-.49-.16-.74,.03-.23,.08-.47,.12-.72,.04-.23,.11-.47,.16-.72,.05-.23,.27-.43,.33-.67,.06-.23,.13-.46,.19-.7,.06-.23,.09-.47,.16-.72,.06-.23,.08-.56,.15-.81-.17,.18-.23,.58-.39,.75-.17,.18-.62,.09-.79,.26-.18,.18-.33,.37-.49,.54-.18,.18-.29,.42-.46,.58-.19,.17-.24,.48-.42,.64-.19,.17-.51,.17-.69,.32-.2,.16-.34,.39-.53,.52-.22,.15-.33,.47-.53,.58-.24,.13-.66-.27-.88-.2-.25,.08-.41,.28-.64,.27-.25,0-.57,.21-.79,.1-.21-.1-.12-.61-.31-.8-.16-.16-.68-.04-.83-.26-.12-.19,.17-.63,.05-.87-.1-.2-.57-.25-.67-.49-.09-.21-.22-.43-.31-.68-.08-.22,.02-.47-.06-.71-.06,.23-.22,.38-.28,.6-.06,.23,.18,.54,.12,.76-.06,.23-.42,.38-.47,.6-.06,.23,.17,.54,.11,.76-.06,.23-.38,.39-.44,.61-.06,.23-.17,.45-.23,.67-.07,.23,.04,.51-.03,.72-.07,.23-.41,.37-.48,.59-.08,.24-.21,.43-.29,.64-.09,.24-.05,.49-.14,.69-.11,.23-.16,.45-.28,.63-.14,.21-.15,.54-.31,.67-.19,.15-.47,.22-.7,.26-.21,.04-.4-.26-.65-.32-.2-.05-.53,.21-.77,.1-.19-.09-.28-.41-.49-.55-.18-.12-.46-.13-.65-.28-.18-.13-.35-.29-.54-.46-.17-.14-.16-.14-.35-.31,.08,.24,.09,.25,.17,.48,.08,.24-.13,.57-.06,.8,.08,.24,.57,.36,.63,.58,.07,.25-.16,.57-.1,.8,.06,.25,0,.51,.05,.74,.04,.25,.2,.47,.22,.71,.02,.25,.33,.51,.32,.75,0,.25-.25,.49-.3,.73s-.15,.47-.24,.7c-.08,.22-.14,.47-.27,.69-.11,.21-.41,.3-.56,.51-.14,.19-.38,.3-.54,.49-.15,.18-.26,.39-.44,.58-.16,.17-.21,.46-.39,.64-.17,.17-.47,.2-.66,.38-.18,.16-.24,.5-.43,.67,.25,.02,.52,.04,.75,.09,.24,.06,.51,.04,.73,.13,.23,.09,.39,.33,.59,.45,.2,.13,.22,.46,.39,.62,.17,.17,.64,.07,.78,.27,.14,.19,.21,.46,.31,.68,.1,.21,.27,.43,.34,.66,.07,.22,.02,.5,.06,.74,.04,.23-.14,.49-.13,.74,0,.23,.12,.47,.11,.72,0,.23,.17,.5,.14,.74-.03,.23-.24,.45-.29,.69-.04,.23-.06,.47-.12,.71-.06,.23-.4,.38-.47,.61-.07,.23,0,.49-.09,.72-.08,.22-.17,.44-.27,.67-.09,.22-.16,.45-.26,.67-.1,.22,.11,.58,0,.8-.1,.21-.46,.31-.57,.53-.11,.21-.14,.47-.26,.68,.12-.21,.37-.34,.49-.54,.13-.21,.03-.56,.16-.75,.13-.21,.35-.35,.49-.55,.14-.2,.07-.56,.22-.75,.15-.2,.53-.21,.68-.39,.16-.19,.12-.55,.28-.73,.17-.18,.32-.39,.49-.55,.18-.17,.68,0,.85-.15,.19-.16,.17-.56,.35-.7,.2-.15,.31-.44,.5-.57,.21-.14,.45-.24,.66-.35,.22-.12,.62,.17,.84,.08,.23-.09,.36-.46,.58-.52,.24-.06,.53,.27,.77,.25s.47-.43,.71-.41,.54-.05,.77,.02c.23,.06,.37,.42,.59,.53,.21,.1,.49,.13,.68,.28,.19,.14,.29,.4,.46,.58,.16,.17,.39,.53,.54,.73,.05-.25,.31-.64,.36-.88,.05-.25-.29-.58-.23-.81,.06-.25,.1-.5,.16-.73,.07-.25,.07-.52,.15-.74,.09-.25,.47-.37,.57-.58,.1-.24-.05-.6,.07-.81,.13-.22,.61-.19,.76-.38,.16-.2,.24-.42,.42-.59,.18-.16,.43-.2,.63-.34,.2-.13,.35-.31,.58-.42,.21-.1,.29-.53,.53-.63,.22-.08,.56,.12,.8,.04,.22-.07,.4-.35,.65-.41,.23-.06,.56,.24,.8,.18,.23-.05,.45-.18,.7-.24,.23-.05,.24-.28,.49-.33h0Z"/>
    <path class="cls-3" d="M31.37,45.9c.16-.19,.22-.18,.37-.35,.16-.19,.46-.23,.61-.39,.18-.18,.23-.45,.4-.59,.19-.17,.48-.15,.66-.27,.22-.15,.37-.24,.56-.31,.24-.1,.36-.12,.58-.11,.23,0,.42-.1,.63,.03,.18,.11,.32,.26,.5,.45,.14,.16,.2,.38,.34,.6,.12,.18,.49,.22,.61,.44,.11,.19,.24,.39,.35,.61,.1,.2-.06,.53,.05,.75,.1,.2,.45,.3,.55,.52,.09,.21,.08,.47,.18,.69,.09,.21,.35,.35,.44,.57,.09,.21-.06,.53,.04,.75,.09,.21,.47,.3,.57,.52,.09,.21,.21,.42,.31,.64,.09,.21-.03,.65,.07,.87,.04-.25,.2-.58,.24-.81,.05-.25,.15-.47,.21-.7,.06-.25-.15-.56-.08-.78,.08-.25,.41-.38,.5-.59,.11-.24,.19-.44,.33-.62,.16-.21,.29-.36,.49-.48,.2-.13,.32-.58,.57-.62,.22-.04,.53,.09,.79,.13,.22,.04,.48,.09,.73,.18,.21,.08,.29,.5,.53,.62,.21,.1,.52,0,.75,.13,.2,.11,.43,.22,.64,.35,.2,.13,.35,.33,.56,.48,.19,.13,.55,.05,.76,.2,.19,.14,.31,.4,.51,.55,.19,.14,.2,.53,.4,.69,.19,.15,.38-.02,.57,.14-.11-.23-.33-.18-.42-.4-.1-.23,.19-.63,.1-.85-.1-.23-.56-.31-.65-.53-.1-.24,.1-.58,0-.8-.09-.24,0-.53-.07-.75-.08-.24-.49-.37-.56-.59-.07-.25-.18-.48-.23-.71-.06-.26,.25-.55,.23-.78-.03-.27-.36-.5-.34-.72,.02-.27,.09-.54,.18-.75,.1-.23,.19-.55,.37-.72,.17-.15,.48-.22,.73-.32,.21-.09,.5,.02,.76-.03,.22-.04,.45-.09,.71-.11,.23-.02,.47,.09,.72,.09,.23,0,.49-.37,.74-.36,.23,0,.71,.37,.96,.39-.19-.15-.52-.54-.7-.68-.19-.15-.64,.05-.82-.09-.19-.15-.3-.39-.49-.52-.19-.15-.17-.57-.35-.7-.19-.15-.42-.23-.6-.37-.19-.15-.56-.06-.74-.2-.19-.15-.29-.41-.47-.55-.19-.15-.43-.23-.6-.37-.19-.16-.19-.51-.35-.66-.18-.17-.33-.34-.48-.5-.17-.19-.46-.24-.58-.42-.14-.21-.46-.37-.52-.57-.07-.23-.09-.58-.04-.81,.04-.21,.31-.42,.46-.63,.12-.17,.2-.46,.39-.63,.16-.14,.43-.21,.64-.35,.18-.12,.32-.35,.54-.47,.19-.11,.54,.02,.76-.09,.2-.1,.37-.25,.59-.36-.26,0-.5,.2-.74,.19-.26-.02-.49-.25-.73-.27-.26-.02-.48-.2-.72-.22-.26-.03-.55,.29-.78,.26-.26-.04-.52-.03-.76-.09-.25-.06-.44-.37-.66-.44-.24-.08-.48-.15-.7-.25-.23-.11-.32-.42-.52-.56-.2-.14-.44-.2-.62-.37-.17-.16-.46-.23-.62-.43-.15-.18-.06-.54-.2-.75-.13-.2-.23-.4-.35-.63-.11-.21-.56-.26-.66-.5-.1-.21,.13-.58,.04-.82-.09-.22-.12-.47-.21-.71-.08-.22-.4-.28-.49-.52-.12,.22-.15,.4-.28,.59-.14,.2-.42,.29-.59,.46-.17,.18-.35,.32-.55,.46s-.3,.47-.52,.57-.5,.12-.73,.18c-.23,.05-.5-.12-.75-.11-.23,.01-.46,.02-.71-.01-.23-.02-.52,.2-.76,.15-.23-.05-.4-.35-.64-.43-.22-.08-.54,.05-.77-.05-.21-.1-.39-.31-.61-.43-.21-.11-.41-.25-.62-.38-.2-.13-.26-.46-.46-.61-.19-.14-.61,0-.8-.15-.18-.15-.22-.48-.4-.65-.18-.16-.26-.42-.43-.59-.17-.16-.48-.19-.65-.37-.16-.17-.22-.45-.38-.63-.16-.18-.59-.13-.75-.32-.15-.18-.26-.42-.41-.61,.15,.19,.65,.12,.79,.31,.15,.2,.25,.43,.39,.62,.14,.2,.28,.41,.41,.61,.13,.21-.15,.66-.03,.87,.12,.21,.5,.27,.61,.48,.12,.22,.4,.35,.5,.57,.11,.22,.21,.45,.3,.67,.09,.23-.08,.56,0,.78,.08,.23,.23,.44,.29,.66,.07,.24,.26,.45,.31,.68,.05,.24-.21,.53-.19,.76,.02,.25,.16,.48,.16,.71,0,.25-.29,.45-.32,.68-.03,.24,0,.46-.06,.69-.07,.24,.14,.57,.04,.78-.11,.22-.41,.32-.56,.51s-.38,.27-.56,.43c-.18,.15-.17,.57-.38,.7-.2,.12-.43,.27-.66,.36-.22,.09-.62-.03-.86,.03,.22,.14,.4,.46,.6,.59,.21,.14,.38,.32,.58,.46,.21,.15,.71-.11,.9,.04,.2,.16,.19,.57,.37,.73,.19,.17,.48,.23,.65,.4,.18,.19,.45,.3,.6,.49,.16,.2-.11,.66,0,.87,.12,.22,.22,.4,.3,.63s.34,.39,.39,.63c.05,.23,.15,.47,.16,.72,.02,.23-.09,.48-.09,.74,0,.24-.2,.46-.22,.72-.02,.23,0,.47-.04,.73-.03,.23,.19,.51,.15,.76-.04,.24-.26,.45-.3,.7-.04,.24,.15,.32,.1,.57v-.02Z"/>
    <path class="cls-3" d="M12.23,35.05c.08-.23,.02-.3,.09-.51,.08-.24,.35-.41,.41-.62,.07-.24,0-.51,.04-.72,.05-.25,.07-.49,.08-.7,.02-.26,.06-.51,.03-.72-.04-.26-.04-.57-.17-.75-.13-.19-.36-.44-.58-.56-.19-.1-.54,.14-.79,.09-.21-.04-.42-.14-.68-.15-.22-.01-.45-.06-.7-.06-.22,0-.45,.15-.69,.17-.22,.02-.49-.3-.73-.27-.22,.02-.45,.17-.69,.2-.23,.03-.43,.25-.67,.28-.23,.03-.48-.11-.72-.08-.23,.03-.48-.13-.72-.1-.23,.03-.45,.16-.68,.19s-.41,.49-.65,.52c-.23,.03-.73-.14-.97-.11,.2-.16,.69-.31,.87-.47,.19-.17,.35-.37,.52-.53,.18-.18,.49-.25,.64-.42,.17-.2,.27-.47,.4-.65,.15-.22-.05-.6,.04-.81,.1-.24,.56-.4,.57-.63,0-.24-.35-.45-.45-.69-.08-.21-.31-.3-.48-.5-.14-.17,0-.64-.21-.81-.17-.14-.43-.24-.65-.38-.19-.12-.48-.12-.7-.25-.2-.11-.29-.48-.52-.59-.21-.1-.44-.2-.68-.3-.21-.1-.44-.2-.67-.3-.22-.09-.55,.06-.78-.04-.22-.09-.35-.43-.59-.52-.22-.09-.51,.05-.75-.04,.25-.03,.5,.2,.73,.17,.25-.03,.47-.27,.71-.3,.25-.03,.46-.29,.69-.33,.25-.04,.47-.16,.71-.2,.25-.04,.53,.13,.76,.09,.25-.05,.45-.26,.67-.32,.25-.07,.47-.13,.69-.21,.25-.08,.57,.07,.77-.02,.24-.11,.39-.34,.57-.47,.22-.16,.46-.25,.59-.43,.15-.2,.2-.45,.25-.69,.05-.22-.05-.45-.09-.71-.03-.22,.14-.51,.05-.76-.08-.21-.22-.43-.34-.66-.1-.2-.47-.28-.6-.5-.12-.2-.12-.48-.27-.69-.13-.2-.31-.48-.46-.69,.22,.09,.6,.05,.82,.13,.22,.09,.4,.27,.62,.36s.4,.28,.61,.37c.22,.09,.47,.11,.68,.19,.22,.09,.47,.1,.68,.19,.23,.09,.4,.29,.61,.37,.23,.09,.38,.36,.59,.44,.23,.09,.59-.23,.8-.15,.23,.08,.37,.44,.58,.5,.24,.07,.48,.12,.69,.16,.25,.05,.5-.1,.71-.09,.26,.01,.44-.05,.65-.1,.24-.06,.59,.13,.76-.03,.16-.15,.17-.45,.28-.69,.08-.19-.05-.45,0-.7,.04-.21,.14-.41,.16-.66,0-.21,.26-.44,.25-.69,0-.22,.13-.47,.11-.72,0-.22-.25-.36-.27-.61,.14,.21,.31,.3,.45,.49,.15,.21,.05,.58,.19,.77,.15,.21,.52,.24,.67,.43,.16,.21,.22,.47,.38,.65,.17,.2,.52,.21,.68,.38,.18,.19,.26,.44,.43,.6,.19,.17,.32,.4,.52,.53,.21,.14,.54,.01,.76,.12,.22,.1,.34,.44,.57,.51,.23,.07,.48,.02,.73,.06,.23,.03,.46,.25,.72,.26,.23,0,.47-.37,.73-.38,.23-.01,.49,.23,.75,.2,.23-.03,.47-.08,.73-.12,.23-.04,.45-.23,.7-.28,.23-.04,.53,.06,.78,.01-.13,.21-.22,.46-.32,.67-.1,.23,0,.5-.05,.72-.06,.24-.6,.4-.62,.63-.02,.24,.32,.5,.35,.73,.03,.24,.2,.42,.27,.66,.07,.22,.07,.46,.18,.68,.11,.21,0,.58,.14,.77s.67,.05,.84,.23c.16,.17,.07,.61,.26,.77,.18,.15,.55,.06,.75,.2,.19,.13,.42,.19,.64,.32,.2,.12,.21,.62,.43,.73,.21,.1,.55-.05,.77,.05,.22,.09,.48,.06,.71,.14,.22,.08,.38,.35,.61,.42,.22,.07,.51-.05,.74,.01,.23,.06,.41,.33,.65,.39,.23,.05,.45,.18,.69,.23,.23,.05,.49,0,.73,.03,.24,.04,.51-.18,.75-.15-.24-.03-.51,.09-.74,.07-.24-.02-.48-.18-.72-.19-.25-.02-.51,.49-.75,.48-.25,0-.48-.33-.72-.33s-.5-.11-.74-.09c-.25,.01-.47,.35-.7,.37-.25,.02-.51-.13-.74-.1-.24,.04-.45,.23-.68,.28-.24,.05-.56-.23-.79-.17-.24,.07-.37,.47-.59,.55-.23,.09-.48,.1-.69,.2-.22,.11-.51,.09-.71,.21-.21,.13-.48,.2-.66,.35-.19,.15-.42,.31-.58,.48-.17,.18-.17,.51-.3,.71-.13,.2-.14,.47-.23,.69-.09,.22-.06,.46-.11,.69-.04,.23-.45,.44-.45,.69,0,.23,.33,.46,.37,.7,.04,.23-.15,.27-.08,.5-.23-.11-.34,.1-.55,0-.23-.11-.41-.32-.63-.41-.24-.1-.47-.18-.69-.27-.24-.09-.49-.12-.71-.19-.25-.08-.44-.33-.67-.39-.25-.06-.51-.1-.74-.13-.25-.03-.51,.02-.75,.03-.25,0-.44,.35-.68,.4-.24,.05-.49-.06-.73,.03-.22,.08-.55-.05-.77,.07-.21,.11-.47,.17-.69,.31-.2,.12-.24,.51-.45,.66-.19,.14-.53,.1-.73,.26-.19,.15-.3,.4-.5,.56-.18,.15-.47,.2-.66,.37-.18,.16-.15,.29-.34,.46l.06-.03Z"/>
  </g>
  <g>
    <g>
      <path class="cls-2" d="M35.89,30.14c-.21,.13-.38,.28-.6,.36-.23,.08-.48-.06-.71-.03-.24,.04-.43,.12-.66,.1-.24-.01-.43-.07-.66-.13-.23-.06-.51,.07-.72-.03s-.38-.28-.57-.42-.38-.27-.54-.44c-.16-.17-.37-.31-.5-.52-.13-.21-.11-.48-.19-.69-.08-.23-.1-.45-.14-.68-.04-.24-.12-.45-.11-.69s0-.48,.05-.71c.06-.23-.09-.56,0-.78,.1-.21,.38-.36,.52-.56,.14-.19,.29-.4,.47-.56,.17-.16,.37-.32,.58-.45,.21-.13,.47-.17,.69-.25,.23-.08,.5,.09,.73,.06,.24-.04,.44-.09,.68-.08,.24,.01,.47-.08,.7-.02s.41,.21,.63,.31c.21,.1,.48,.1,.68,.24,.19,.14,.5,.18,.66,.36,.16,.17,.24,.44,.37,.65,.13,.21,.16,.47,.24,.69,.08,.23,.02,.48,.06,.71,.04,.24-.1,.45-.11,.69s0,.44-.06,.67,0,.47-.11,.69c-.1,.21-.16,.45-.3,.64-.14,.19-.45,.2-.63,.36-.17,.16-.27,.37-.47,.5h.01Z"/>
      <g class="cls-1">
        <path class="cls-2" d="M37.81,27.01c-.06,.21-.35,.56-.45,.75-.1,.19-.12,.43-.26,.6-.13,.17-.14,.5-.31,.64-.16,.14-.47,.13-.66,.25-.21,.13-.43,.22-.65,.3-.23,.08-.5-.12-.73-.08-.24,.04-.45,.53-.69,.52s-.42-.48-.65-.53c-.23-.06-.49,.04-.71-.06-.21-.1-.36-.3-.55-.44-.19-.14-.33-.3-.49-.48-.16-.17-.35-.3-.48-.51-.12-.2-.35-.34-.43-.55-.08-.21-.19-.44-.22-.66-.04-.22,.07-.44,.08-.66-.08,.24,0,.48-.02,.73s-.24,.51-.21,.76-.06,.57,.03,.82c.08,.24,.36,.43,.5,.65,.13,.21,.21,.47,.37,.64,.16,.18,.44,.25,.63,.39s.48,.1,.69,.2c.22,.1,.37,.35,.6,.41,.23,.06,.47,.17,.7,.18,.24,.01,.51,.11,.75,.07,.23-.04,.36-.51,.58-.59s.44-.09,.65-.22c.21-.13,.49-.16,.66-.32,.18-.17,.26-.41,.41-.61,.14-.2,.37-.35,.47-.57s-.02-.51,.03-.75,.36-.64,.36-.88h0Z"/>
      </g>
    </g>
    <g>
      <path class="cls-2" d="M31.45,32.07c-.16,.19-.25,.48-.43,.63-.19,.16-.47,.22-.69,.33-.22,.12-.53-.04-.76,.03s-.4,.42-.64,.44-.5,.04-.75,.02c-.24-.02-.44-.29-.67-.36s-.39-.24-.61-.35c-.21-.11-.41-.18-.6-.34s-.3-.33-.46-.52c-.16-.19-.69-.12-.81-.33-.12-.22,.1-.59,.02-.82-.07-.23-.09-.46-.12-.7s-.26-.48-.24-.72c.02-.24,.31-.43,.38-.67,.07-.23,.02-.5,.13-.72,.11-.21,.27-.39,.43-.59,.16-.19,.43-.23,.61-.39,.19-.16,.27-.43,.48-.54,.22-.12,.35-.47,.58-.54,.23-.07,.53,.02,.78,0,.24-.03,.47,.33,.71,.35s.47-.09,.71-.03c.23,.07,.44,.13,.66,.24,.21,.11,.42,.21,.61,.37s.49,.21,.64,.39c.16,.19,0,.58,.11,.79,.12,.22,.5,.3,.57,.53,.07,.23,0,.5,0,.74s.34,.5,.31,.74c-.02,.24-.13,.51-.2,.74-.07,.23-.55,.29-.66,.51-.11,.21,.03,.57-.12,.77h.02Z"/>
      <g class="cls-1">
        <path class="cls-2" d="M31.98,28.71c0,.22,.29,.26,.26,.49-.03,.22-.15,.46-.22,.68-.07,.21-.47,.29-.57,.49-.1,.19-.28,.3-.43,.48-.16,.19-.21,.42-.4,.58-.19,.16-.18,.62-.39,.74-.22,.12-.52,.11-.76,.18-.23,.07-.5,.05-.75,.08s-.51,.23-.76,.21c-.24-.02-.41-.49-.65-.56-.23-.07-.55,.1-.77,0-.21-.11-.37-.33-.57-.49-.18-.15-.35-.31-.5-.48-.15-.18-.33-.34-.44-.54-.12-.2-.23-.52-.31-.73,0,.26,0,.63,.06,.89,.07,.25,.1,.56,.22,.79,.12,.23,.41,.38,.58,.59,.16,.2,.28,.48,.49,.65,.19,.16,.47,.22,.68,.33,.22,.11,.42,.34,.65,.41,.24,.07,.53-.07,.77-.05s.52,.27,.76,.24,.43-.41,.66-.48c.23-.07,.46-.14,.67-.26,.21-.12,.27-.41,.46-.57,.18-.15,.66-.02,.81-.22,.16-.2,.09-.56,.2-.78,.12-.23,.06-.48,.13-.72s.12-.44,.13-.69c.02-.25-.02-.46-.05-.7-.03-.25,.1-.31,.02-.54h.02Z"/>
      </g>
    </g>
    <g>
      <path class="cls-2" d="M25.67,27.41c-.21-.1-.43-.24-.62-.37-.19-.13-.37-.33-.53-.49-.17-.16-.23-.44-.37-.62-.14-.19-.09-.48-.2-.68s-.34-.35-.41-.56c-.07-.22,.16-.49,.12-.72-.04-.23-.35-.41-.35-.64s0-.46,.04-.69c.03-.22,.15-.43,.22-.66,.07-.22,.3-.35,.41-.56,.1-.21,.06-.48,.19-.67s.4-.24,.56-.41c.16-.16,.09-.59,.28-.73s.56,.03,.77-.07c.2-.11,.4-.15,.62-.22s.35-.46,.58-.49c.23-.04,.48,.05,.71,.04,.23,0,.46,0,.69,.03,.22,.03,.4,.27,.62,.34s.39,.18,.6,.29c.21,.1,.56-.04,.74,.09,.19,.13,.18,.49,.34,.65,.17,.16,.39,.25,.53,.43,.14,.19,.17,.42,.28,.62s.25,.37,.33,.59c.07,.22,.42,.38,.46,.61,.04,.23-.04,.49-.04,.72s-.37,.42-.4,.65c-.03,.22,.08,.46,0,.68-.07,.22,.16,.57,.06,.78-.1,.21-.36,.36-.5,.54-.13,.19-.45,.23-.61,.39s-.42,.18-.6,.32c-.19,.14-.24,.44-.45,.55-.2,.11-.49-.02-.7,.05-.22,.07-.4,.15-.63,.18-.23,.04-.42,.4-.65,.4s-.43-.35-.66-.38c-.22-.03-.41-.1-.63-.17s-.6,.26-.81,.16v.02Z"/>
      <g class="cls-1">
        <path class="cls-2" d="M29.88,27.12c-.26,.07-.37,.29-.63,.31-.26,.02-.53-.43-.8-.46-.26-.03-.53,.08-.79,0-.25-.07-.41-.34-.65-.46-.21-.1-.43-.14-.61-.27-.19-.13-.25-.37-.41-.53s-.5-.15-.63-.33c-.14-.19-.45-.28-.56-.48-.11-.2,.21-.58,.14-.8s-.26-.38-.3-.61c-.04-.23-.24-.44-.25-.67,0-.23-.16-.5-.13-.73,.03-.22,.26-.44,.33-.66s.34-.36,.44-.56c.12-.25,.08-.6,.24-.82,.17-.22,.58-.2,.78-.38,.2-.18,.56-.51,.79-.65-.24,.06-.81,0-1.03,.11-.22,.1-.21,.61-.42,.75-.2,.14-.7-.09-.88,.08-.18,.17,.04,.68-.11,.89-.14,.2-.66,.16-.77,.39-.1,.21,.24,.59,.17,.8-.07,.22-.58,.33-.61,.56s.34,.49,.34,.71-.37,.5-.34,.72c.04,.23,.03,.51,.1,.72,.07,.22,.44,.34,.54,.54,.11,.2,.17,.44,.3,.63,.14,.18,.28,.37,.45,.54,.16,.16,.33,.33,.52,.47,.18,.13,.33,.39,.54,.49,.22,.11,.58-.06,.81,.01,.24,.07,.5-.1,.74-.07,.25,.03,.47,.46,.71,.45,.25-.01,.51-.1,.75-.15s.38-.4,.61-.49,.39,.07,.6-.06h.02Z"/>
      </g>
    </g>
  </g>
</svg>