<?xml version="1.0" encoding="UTF-8"?>
<svg id="Layer_1" data-name="Layer 1" xmlns="http://www.w3.org/2000/svg" viewBox="0 0 73.6 51.57">
  <defs>
    <style>
      .cls-1 {
        fill: #fff;
      }

      .cls-2 {
        fill: #f2674a;
      }

      .cls-3 {
        fill: #e6e6e5;
      }
    </style>
  </defs>
  <g>
    <path class="cls-1" d="M17.21,.07c-.22-.19-.06,.03-.4,.18-.15,.07-.39,0-.59,.09-.16,.08-.29,.24-.48,.33-.16,.08-.38,.06-.56,.16-.16,.08-.36,.12-.54,.21-.16,.09-.26,.31-.43,.4-.16,.09-.22,.38-.39,.47-.16,.09-.47-.07-.64,.03-.16,.09-.17,.45-.33,.55-.16,.1-.33,.18-.49,.28s-.41,.06-.57,.16-.28,.27-.44,.37-.49-.05-.65,.05c-.16,.11-.16,.44-.32,.55s-.36,.14-.52,.26c-.15,.11-.41,.09-.56,.2s-.07,.54-.23,.65c-.15,.11-.4,.1-.55,.22-.15,.12-.41,.1-.56,.22-.15,.12-.21,.35-.35,.47-.15,.12-.24,.3-.39,.43-.14,.13-.42,.1-.56,.23-.14,.13-.24,.31-.38,.44-.14,.13-.25,.3-.38,.43-.14,.13-.16,.38-.3,.51-.13,.14-.3,.24-.43,.38s-.38,.17-.51,.31c-.13,.14-.22,.32-.34,.47s-.17,.36-.29,.51c-.12,.15-.35,.21-.46,.36-.12,.15-.14,.37-.25,.53-.11,.15-.17,.35-.27,.51-.11,.16-.39,.2-.49,.36-.1,.16-.1,.39-.19,.56-.1,.16-.1,.38-.2,.55-.09,.17-.35,.25-.43,.42-.09,.17,.07,.46-.02,.63-.08,.17-.17,.34-.24,.51-.08,.18-.26,.3-.33,.48-.07,.18-.32,.29-.39,.47-.06,.18,.05,.42,0,.6s-.14,.36-.19,.54-.11,.37-.15,.55c-.04,.19,.07,.4,.04,.59s-.34,.34-.37,.53c-.02,.19,.29,.41,.28,.6,0,.19-.17,.37-.17,.56s-.15,.38-.15,.57-.06,.39-.05,.58c0,.19,0,.39,.02,.58s.39,.34,.42,.53-.21,.42-.18,.61,.12,.37,.16,.56c.04,.18,.09,.37,.14,.56,.05,.18,.06,.38,.12,.57,.06,.18,.22,.33,.29,.51,.06,.18,.11,.36,.18,.55,.07,.18,.04,.4,.11,.57s.14,.36,.22,.53,.15,.35,.23,.53c.08,.17,.38,.23,.47,.4s-.06,.47,.04,.64c.09,.16,.4,.21,.5,.37s.03,.43,.13,.59c.1,.16,.37,.22,.47,.38,.11,.16,.04,.44,.15,.6,.11,.16,.45,.15,.57,.3,.11,.15,.29,.25,.41,.41,.12,.15,.16,.35,.28,.51,.12,.15,.04,.46,.17,.61,.12,.15,.35,.21,.48,.35,.12,.14,.32,.2,.47,.34,.13,.13,.15,.39,.3,.52,.14,.12,.39,.12,.54,.24,.15,.11,.15,.43,.31,.54,.15,.11,.49-.04,.65,.07s.16,.44,.33,.55c.16,.1,.43,.02,.6,.12,.16,.1,.34,.17,.51,.27,.16,.1,.2,.41,.37,.5,.16,.09,.36,.14,.53,.23,.17,.09,.31,.23,.48,.32s.41,.05,.58,.14c.17,.09,.26,.33,.43,.42,.17,.09,.41,.05,.58,.13,.17,.09,.34,.19,.51,.27,.17,.08,.37,.12,.54,.21,.17,.08,.28,.31,.45,.4,.17,.08,.32,.22,.5,.3s.42,0,.6,.09c.18,.08,.37,.13,.54,.21,.18,.08,.36,.14,.54,.22s.35,.17,.52,.25c.18,.08,.42,0,.6,.07,.18,.08,.31,.26,.48,.33,.18,.08,.32,.24,.49,.31,.18,.08,.45-.07,.62,0,.18,.08,.25,.41,.42,.48,.18,.08,.36,.14,.54,.21,.18,.08,.36,.14,.53,.21,.19,.08,.43-.01,.6,.06,.19,.08,.29,.32,.45,.39,.19,.08,.46-.06,.62,.01,.18,.08,.19,.52,.36,.6,.17,.09,.5-.12,.67-.03,.17,.09,.29,.28,.46,.37,.17,.1,.31,.24,.47,.34s.33,.2,.49,.31c.16,.11,.35,.18,.5,.29,.16,.11,.22,.35,.37,.47s.26,.29,.41,.41,.4,.12,.55,.25,.43,.1,.57,.23c.14,.13,.1,.46,.24,.6s.31,.24,.44,.37c.14,.14,.24,.31,.37,.44,.13,.14,.39,.17,.52,.31s.35,.21,.47,.36c.13,.15,0,.51,.12,.66,.13,.15,.4,.18,.52,.32,.12,.15,.31,.26,.42,.41,.12,.16-.05,.53,.06,.68,.12,.16,.55,.08,.66,.23,.12,.16,.05,.45,.16,.6,.12,.16,.23,.32,.34,.47,.12,.16,.41,.19,.51,.34,.12,.17,.22,.33,.32,.47,.13,.17,.14,.4,.25,.53,.14,.18,.38,.19,.49,.29,.14,.12,.2,.3,.35,.41,.15,.1,.19,.4,.35,.48,.16,.08,.42-.04,.59,.03,.17,.06,.3,.26,.48,.31,.18,.04,.38-.03,.56,0,.18,.02,.36-.01,.54-.02,.18,0,.36,.06,.55,.03,.18-.02,.4,.11,.58,.07s.28-.34,.45-.41c.18-.07,.47,.12,.65,.04,.17-.08,.16-.52,.34-.61,.17-.09,.41-.05,.58-.15,.16-.1,.31-.23,.47-.34,.16-.1,.48,.03,.64-.08,.16-.11,.12-.5,.28-.62,.16-.11,.31-.23,.47-.34,.16-.11,.48,0,.64-.11,.15-.11,.23-.34,.39-.46,.15-.11,.29-.26,.45-.37,.16-.11,.25-.32,.41-.43s.41-.09,.57-.2c.16-.11,.25-.32,.41-.44,.16-.11,.4-.1,.56-.21,.16-.11,.22-.37,.38-.48,.16-.11,.44-.03,.61-.14,.16-.11,.17-.45,.34-.56,.16-.1,.48,.04,.64-.06,.16-.1,.23-.36,.4-.46s.48,.06,.65-.04c.17-.09,.19-.46,.36-.55,.17-.09,.31-.24,.49-.33,.17-.09,.39-.09,.57-.18,.17-.08,.45,.04,.63-.05,.18-.08,.28-.32,.46-.4s.39-.07,.57-.14,.32-.24,.5-.31,.37-.13,.55-.19c.18-.07,.35-.17,.54-.23,.18-.06,.39-.06,.58-.12,.18-.06,.32-.29,.51-.35,.19-.05,.38-.1,.57-.15s.45,.18,.64,.14c.19-.05,.41,.03,.6,0,.19-.04,.33-.3,.52-.34,.19-.04,.35-.22,.53-.27,.19-.04,.46,.24,.64,.19,.19-.05,.28-.47,.46-.52,.19-.05,.45,.19,.64,.14s.31-.32,.49-.38c.19-.05,.43,.08,.61,.02,.19-.06,.39-.04,.58-.1s.33-.23,.52-.29c.18-.06,.42,.03,.6-.03s.31-.29,.49-.35c.18-.07,.31-.27,.49-.33,.18-.07,.46,.1,.63,.03,.18-.07,.26-.38,.43-.46,.18-.08,.34-.19,.51-.27,.18-.08,.43,.02,.61-.06,.18-.08,.27-.33,.44-.42,.17-.09,.43,0,.6-.09s.4-.08,.56-.17c.17-.09,.18-.46,.35-.56s.33-.19,.49-.29c.16-.1,.27-.28,.43-.39s.45-.02,.61-.13,.28-.26,.44-.38c.16-.12,.28-.26,.43-.38,.15-.12,.19-.36,.34-.49,.15-.12,.3-.23,.44-.36s.43-.1,.56-.23c.14-.13,.37-.18,.5-.31,.13-.14,.22-.33,.35-.47s.34-.22,.46-.37,.27-.28,.39-.43,.06-.44,.17-.6c.11-.16,.28-.27,.38-.43,.11-.16,0-.45,.1-.62,.1-.16,.31-.26,.4-.42,.09-.17,.06-.4,.15-.57,.09-.17,.41-.22,.49-.4,.08-.17,.23-.32,.31-.5,.07-.18-.16-.47-.09-.65,.07-.18,.52-.23,.58-.41,.06-.18-.21-.47-.16-.65,.05-.18,0-.39,.05-.57,.04-.19,.48-.28,.52-.47,.04-.19-.15-.42-.12-.61s-.11-.4-.09-.59c.02-.19,.37-.34,.39-.53s.1-.38,.11-.57-.2-.39-.2-.59,.22-.38,.22-.57-.18-.38-.18-.57,.05-.39,.04-.58-.28-.36-.3-.55c-.02-.19,.22-.4,.19-.59-.02-.19-.03-.38-.05-.57-.03-.19-.24-.35-.27-.54s.08-.4,.04-.59c-.04-.19,.02-.4-.02-.58-.04-.19-.31-.32-.35-.51s-.14-.36-.18-.54c-.05-.18,.14-.43,.09-.62-.05-.18-.15-.36-.2-.54-.05-.18-.04-.39-.1-.57s-.42-.26-.48-.44c-.06-.18-.08-.37-.15-.55-.06-.18-.16-.34-.23-.52s0-.41-.07-.58c-.07-.18-.26-.31-.33-.48-.07-.18,.17-.49,.1-.66-.08-.18-.39-.25-.47-.42s.09-.46,0-.63c-.08-.17-.23-.32-.31-.49-.08-.17-.11-.37-.2-.54-.08-.17-.29-.28-.38-.45-.09-.17-.09-.38-.18-.55-.09-.17-.47-.18-.56-.35s.12-.5,.03-.67c-.09-.17-.16-.35-.25-.52-.09-.17-.44-.19-.53-.36-.1-.16-.15-.36-.25-.52s-.05-.42-.15-.58c-.1-.16-.42-.19-.52-.35s-.28-.27-.39-.43c-.1-.16-.22-.31-.32-.47-.11-.16-.02-.44-.13-.6s-.07-.42-.18-.57c-.11-.16-.34-.23-.45-.39s-.07-.42-.18-.58c-.11-.16-.5-.11-.61-.27-.11-.15-.16-.47-.28-.62-.26,.11-.07,.28-.1,.65-.01,.16,.29,.38,.27,.6-.01,.17-.06,.36-.08,.57-.02,.18-.18,.35-.2,.55-.02,.18,.03,.38,0,.58-.03,.18,0,.38-.02,.58-.03,.18-.36,.32-.4,.52-.03,.18,.03,.39,0,.58-.03,.18,.13,.41,.09,.6-.04,.18-.34,.31-.39,.5-.04,.18-.18,.34-.23,.53-.04,.18,.06,.4,0,.59-.05,.18-.08,.37-.13,.56-.05,.18,.11,.43,.05,.62-.05,.18-.1,.37-.16,.56-.06,.18-.33,.29-.4,.48-.06,.18,.09,.44,.02,.62s-.24,.32-.31,.5-.29,.29-.37,.47-.15,.35-.23,.53c-.08,.17-.18,.34-.27,.51-.08,.17-.09,.38-.18,.55-.09,.17-.15,.35-.25,.52-.09,.17-.25,.3-.35,.46s-.13,.37-.23,.53c-.11,.16-.4,.19-.51,.35s-.17,.35-.29,.5-.23,.3-.35,.45c-.12,.15-.08,.44-.21,.58s-.47,.09-.6,.23c-.13,.14-.13,.42-.27,.55-.14,.13-.37,.16-.52,.28-.15,.12-.32,.2-.48,.32-.15,.12-.23,.32-.39,.43-.16,.11-.35,.16-.51,.27-.16,.1-.17,.47-.34,.56s-.39,.1-.57,.18c-.17,.08-.32,.25-.5,.32s-.41,.04-.59,.1c-.18,.07-.45-.13-.63-.07s-.36,.12-.54,.17c-.18,.06-.27,.44-.45,.49-.19,.05-.38,.08-.56,.13-.19,.05-.38,.06-.57,.1s-.39,0-.58,.03c-.19,.04-.38,.02-.57,.05-.19,.03-.35,.24-.54,.26-.19,.03-.41-.2-.6-.18-.19,.02-.37,.09-.56,.11-.19,.01-.37,.29-.56,.3-.19,0-.4-.39-.59-.39s-.38,.15-.57,.14c-.19,0-.39,.18-.58,.17-.19,0-.36-.38-.55-.4-.19-.02-.4,.21-.59,.19-.19-.02-.41,.14-.6,.11-.19-.03-.36-.2-.54-.23-.19-.04-.32-.34-.5-.39-.19-.04-.39,0-.57-.05-.19-.05-.34-.19-.52-.25s-.47,.19-.65,.13c-.18-.07-.26-.39-.43-.47-.18-.08-.4-.04-.57-.12-.17-.09-.43-.02-.59-.12-.17-.1-.15-.49-.31-.6-.16-.11-.49,.04-.64-.08-.16-.12-.11-.48-.24-.6-.15-.13-.51-.03-.63-.16-.13-.14-.27-.3-.38-.44-.13-.18-.16-.38-.31-.46-.18-.1-.36-.34-.56-.33-.18,.01-.32,.33-.52,.42-.17,.07-.35,.11-.53,.22-.16,.09-.33,.18-.5,.29-.15,.11-.26,.29-.43,.41-.15,.11-.46,.02-.62,.15-.15,.12-.26,.3-.42,.42-.15,.12-.2,.38-.35,.5-.15,.11-.27,.3-.43,.41s-.3,.25-.47,.37c-.16,.11-.39,.13-.55,.23-.16,.1-.44,.02-.61,.12-.17,.1-.25,.34-.43,.44-.17,.09-.46-.05-.64,.03s-.24,.42-.42,.49-.34,.22-.53,.28c-.18,.06-.37,.15-.57,.2-.19,.05-.46-.24-.65-.21-.19,.04-.35,.27-.55,.29-.19,.02-.4-.08-.6-.07-.19,0-.38-.08-.58-.08s-.38,0-.58-.02c-.19-.02-.43,.27-.63,.24-.19-.03-.32-.44-.5-.48-.19-.04-.39,0-.58-.04s-.42,.11-.61,.07-.41,.04-.6,0c-.19-.05-.34-.25-.52-.3-.19-.05-.33-.24-.52-.3-.19-.06-.41,0-.59-.05-.19-.06-.31-.28-.49-.34-.18-.07-.43,.04-.61-.03s-.25-.4-.42-.48c-.18-.08-.49,.13-.66,.04-.18-.09-.36-.17-.53-.26-.17-.09-.2-.43-.37-.53s-.39-.11-.55-.22-.27-.28-.43-.39c-.16-.12-.3-.24-.45-.36-.15-.13-.29-.25-.43-.38s-.26-.28-.4-.41c-.14-.14-.34-.21-.46-.36-.13-.15-.23-.31-.34-.47-.12-.16-.12-.38-.23-.54-.11-.16-.43-.19-.53-.35-.1-.17-.11-.38-.2-.55s-.36-.27-.43-.45,.16-.48,.1-.66-.16-.35-.21-.54c-.05-.19-.13-.36-.18-.55-.04-.19-.33-.33-.36-.52s.21-.43,.19-.62-.22-.37-.23-.56c-.02-.19,.16-.4,.15-.59,0-.19-.2-.38-.2-.57v-.58c0-.19,.31-.37,.33-.56,0-.19-.25-.41-.23-.6s.13-.37,.15-.57c.02-.19,.12-.37,.15-.56,.03-.19,.13-.37,.17-.56,.03-.19,.16-.36,.2-.55s-.26-.45-.22-.64c.04-.19,.12-.37,.17-.56,.05-.19,.32-.32,.37-.5,.05-.19-.1-.43-.04-.61,.05-.19,.23-.33,.29-.52,.06-.18-.08-.43-.02-.62,.06-.18,.42-.27,.48-.45s.13-.36,.19-.54c.07-.18-.06-.43,0-.62,.07-.18,.36-.28,.43-.46s-.16-.48-.08-.66c.07-.18,.3-.3,.37-.48s-.08-.45,0-.63c.07-.18,.46-.23,.54-.4,.08-.18-.07-.29,0-.46v.02Z"/>
    <path class="cls-3" d="M64.78,2.86c-.26,.12,.22,.36,.2,.73-.01,.16-.25,.34-.26,.56-.02,.17-.16,.35-.19,.56-.02,.18,.17,.39,.14,.59-.02,.18-.09,.37-.12,.57-.03,.18,.11,.35,.08,.55,.09,.17,.08,.34,.17,.51s.27,.29,.36,.46c.09,.17,.04,.42,.13,.59,.09,.17,.06,.4,.14,.57,.09,.17,.47,.2,.55,.37s.09,.38,.17,.56c.08,.17,.11,.37,.19,.55s-.08,.46,0,.63c.08,.18,.18,.34,.26,.52,.07,.18,.38,.26,.45,.44s.24,.32,.3,.5c.07,.18-.08,.44-.01,.62s.08,.38,.15,.56c.06,.18,.29,.31,.35,.49s.17,.35,.23,.53c.06,.18-.12,.44-.06,.62,.05,.19,.39,.29,.44,.48s.07,.38,.12,.57-.17,.44-.13,.62c.04,.19,.43,.3,.47,.49,.04,.19-.13,.42-.1,.61,.04,.19-.14,.41-.11,.6s.13,.37,.16,.56c.03,.19,.02,.38,.04,.57,.02,.19,.26,.36,.28,.55s-.13,.39-.11,.59c.01,.19,.04,.38,.04,.57s.06,.38,.06,.57,.25,.39,.24,.58c0,.19-.29,.37-.3,.57-.01,.19,.19,.4,.17,.59-.02,.19-.21,.37-.23,.56-.02,.19,.19,.42,.16,.61s-.1,.38-.13,.57c-.04,.19-.08,.38-.12,.57s-.33,.31-.38,.5-.14,.35-.2,.54c-.06,.18,.19,.47,.12,.65-.06,.18-.39,.27-.46,.45s0,.41-.08,.59c-.08,.18-.26,.3-.34,.48-.08,.17,.05,.46-.04,.63-.09,.17-.31,.27-.41,.44-.1,.16-.3,.26-.41,.43-.1,.16,.02,.47-.09,.63-.11,.16-.56,.07-.67,.22s-.05,.44-.17,.59c-.12,.15-.22,.32-.35,.46-.12,.14-.24,.3-.37,.45-.13,.14-.29,.25-.43,.39-.13,.13-.19,.35-.33,.48-.14,.13-.38,.16-.52,.28-.14,.13-.24,.31-.39,.43s-.35,.18-.5,.3-.19,.38-.35,.5c-.15,.11-.39,.12-.55,.23s-.23,.35-.39,.46c-.16,.1-.44,.03-.6,.13-.16,.1-.29,.26-.45,.36-.16,.1-.48-.06-.64,.03-.17,.09-.19,.44-.36,.53s-.31,.25-.48,.33c-.17,.09-.31,.24-.49,.32-.17,.08-.52-.2-.69-.12-.17,.08-.27,.33-.44,.4-.17,.08-.33,.19-.51,.26-.17,.07-.31,.25-.49,.33-.18,.07-.37,.1-.55,.17s-.35,.17-.53,.23c-.18,.06-.34,.2-.52,.26-.18,.06-.49-.26-.68-.2-.18,.06-.24,.5-.43,.56-.18,.06-.36,.13-.55,.19-.18,.05-.49-.3-.67-.25s-.31,.31-.5,.36c-.18,.05-.36,.16-.54,.21-.18,.05-.43-.14-.62-.1-.19,.05-.38,.05-.57,.09-.19,.04-.35,.18-.54,.23s-.33,.32-.52,.36c-.19,.04-.39,0-.57,.05-.19,.04-.41-.07-.6-.02-.19,.05-.4,.02-.58,.07-.19,.05-.32,.27-.5,.33-.18,.06-.33,.24-.51,.3-.18,.06-.46-.15-.64-.09-.18,.06-.36,.14-.54,.21s-.35,.15-.53,.22-.28,.32-.46,.39-.28,.3-.46,.38c-.18,.08-.33,.2-.5,.28s-.36,.12-.54,.2c-.17,.09-.45-.03-.61,.06-.17,.09-.41,.05-.58,.14s-.15,.53-.31,.62c-.17,.09-.52-.14-.69-.04-.17,.1-.3,.25-.46,.35-.16,.1-.29,.26-.45,.36-.16,.1-.33,.19-.49,.29-.16,.1-.37,.14-.53,.24-.16,.11-.33,.19-.49,.3-.16,.11-.34,.19-.49,.29-.16,.11-.1,.53-.25,.64-.16,.11-.3,.23-.46,.35-.16,.11-.48-.01-.64,.1-.16,.11-.35,.17-.5,.28-.16,.11-.17,.42-.32,.53-.16,.11-.42,.07-.58,.17-.16,.11-.21,.37-.36,.48-.16,.11-.2,.38-.36,.49s-.54-.12-.7-.01c-.16,.11-.23,.34-.39,.44-.16,.1-.29,.26-.45,.36-.17,.1-.28,.29-.44,.38-.17,.09-.48,.03-.64,.11,.17,.22,.28,.52,.41,.63,.14,.12,.31,.23,.46,.34,.15,.1,.45-.04,.61,.05,.16,.08,.28,.23,.46,.3,.17,.06,.35,.09,.53,.13s.33,.27,.51,.29c.18,.02,.38-.26,.56-.27,.18,0,.36,.09,.54,.07s.38,.05,.56,0c.18-.04,.28-.3,.45-.37,.18-.07,.5,.19,.68,.1,.17-.08,.27-.32,.45-.41,.17-.09,.22-.37,.39-.48,.16-.1,.49,.07,.66-.04,.16-.1,.34-.19,.5-.3s.19-.39,.36-.51c.16-.11,.23-.33,.39-.45,.16-.11,.55,.11,.71,0,.15-.11,.29-.26,.45-.37,.15-.11,.22-.35,.38-.47,.16-.11,.3-.24,.46-.36,.16-.11,.3-.24,.46-.35,.16-.11,.29-.26,.45-.37,.16-.11,.38-.13,.55-.24,.16-.11,.26-.31,.42-.41,.16-.11,.27-.3,.43-.41s.42-.06,.59-.17c.16-.1,.36-.16,.52-.26,.16-.1,.23-.37,.4-.47s.32-.22,.49-.32c.17-.09,.5,.11,.68,.02,.17-.09,.2-.45,.38-.54,.17-.09,.5,.13,.67,.05,.17-.08,.25-.36,.43-.45,.18-.08,.29-.3,.47-.38,.18-.08,.46,.08,.64,0,.18-.07,.32-.24,.5-.31s.43,.04,.61-.03,.33-.23,.51-.29,.37-.1,.56-.16c.18-.06,.32-.27,.51-.33,.19-.05,.4-.03,.59-.08,.19-.05,.34-.26,.53-.31,.19-.05,.45,.22,.65,.18,.19-.04,.37-.14,.55-.19,.19-.04,.33-.28,.52-.32,.19-.04,.42,.07,.6,.03,.19-.05,.37-.13,.55-.17,.19-.05,.39-.05,.57-.1,.19-.05,.37-.11,.56-.17,.19-.05,.35-.18,.53-.24,.19-.06,.34-.22,.52-.28,.19-.06,.42,.05,.61,0,.18-.06,.32-.25,.5-.32,.18-.06,.31-.26,.49-.33s.39-.06,.57-.13,.41-.02,.58-.09c.18-.07,.42,0,.6-.07,.18-.08,.21-.48,.38-.56,.18-.08,.33-.2,.5-.29,.18-.08,.54,.23,.71,.14,.17-.09,.25-.37,.41-.46,.17-.09,.45,0,.61-.08,.17-.09,.23-.38,.4-.47,.17-.1,.23-.35,.39-.45,.16-.1,.45,0,.61-.11s.39-.11,.55-.22,.19-.4,.34-.52c.16-.12,.47-.03,.62-.14,.15-.12,.28-.28,.42-.4,.15-.12,.2-.36,.34-.49s.19-.36,.32-.49c.14-.13,.44-.1,.58-.23,.14-.14,.04-.49,.17-.63s.52-.05,.65-.2c.12-.15,.18-.35,.3-.5s.02-.46,.14-.62c.11-.16,.28-.27,.39-.42,.11-.16,.29-.27,.39-.43s.25-.3,.35-.46c.09-.17,.02-.42,.11-.59,.09-.17,.15-.35,.23-.52s.15-.34,.23-.52c.07-.18,.13-.36,.19-.53,.07-.18,.24-.32,.3-.5,.06-.18,.03-.39,.08-.57s.35-.3,.39-.49c.04-.19-.08-.41-.04-.6,.04-.19,.08-.37,.11-.56,.03-.19-.02-.39,0-.58s.2-.36,.22-.55c.02-.19-.09-.39-.08-.58,.01-.19,.12-.38,.13-.57,0-.19-.08-.38-.08-.57s-.14-.38-.15-.57c0-.19-.02-.38-.03-.57s.27-.4,.26-.59c-.02-.19,.04-.39,.01-.58-.02-.19-.19-.36-.22-.55s-.22-.35-.25-.54,0-.38-.04-.57,.09-.41,.05-.6c-.04-.19-.32-.32-.36-.5s.17-.43,.12-.62c-.05-.18-.2-.34-.25-.53-.05-.18-.11-.36-.17-.55-.05-.18-.17-.35-.22-.53-.06-.18,.12-.44,.06-.62-.06-.18-.4-.27-.46-.45s-.04-.39-.1-.57c-.07-.18-.29-.3-.36-.47-.07-.18-.09-.37-.16-.55-.07-.18-.19-.33-.27-.51-.08-.18,.1-.46,.02-.63-.08-.17-.09-.38-.18-.55-.08-.17-.19-.33-.27-.51-.08-.17-.12-.37-.2-.54-.08-.17-.45-.2-.54-.37-.09-.17-.06-.4-.15-.57-.09-.17-.12-.37-.22-.54-.09-.17-.34-.25-.43-.42-.09-.17,.09-.49,0-.66s-.31-.27-.4-.43c-.1-.16-.46-.17-.56-.34-.1-.16-.08-.4-.18-.56s-.16-.35-.26-.51-.3-.26-.4-.42,.09-.52-.01-.68c-.11-.16-.39-.2-.5-.36s-.29-.26-.4-.42-.24-.3-.35-.46,.01-.48-.1-.63c-.11-.16-.28-.27-.39-.43s-.37-.39-.49-.54v-.04Z"/>
  </g>
  <g>
    <g>
      <g>
        <path class="cls-1" d="M29.33,25.9c-.2,0-.38-.2-.57-.21-.2-.01-.4,.16-.59,.14-.2-.02-.36-.3-.54-.32-.19-.03-.44,.27-.62,.23-.19-.03-.34-.3-.52-.34-.19-.04-.41,.04-.59,0-.19-.05-.32-.29-.5-.34-.19-.06-.39-.04-.57-.11s-.42-.01-.59-.09c-.18-.08-.26-.36-.43-.44-.18-.09-.41-.04-.58-.13-.17-.09-.42-.06-.59-.16-.17-.1-.33-.22-.49-.33s-.27-.3-.42-.42c-.15-.12-.12-.46-.26-.59-.15-.13-.36-.17-.49-.3-.14-.14-.39-.16-.52-.3s-.38-.19-.5-.34c-.13-.15-.09-.43-.21-.58-.12-.16-.11-.4-.21-.55-.11-.16-.23-.31-.33-.47-.1-.17-.36-.24-.45-.41-.1-.17-.05-.41-.13-.58-.09-.18-.42-.24-.49-.41-.08-.18,.12-.48,.06-.65-.07-.19-.26-.32-.32-.49-.08-.23-.09-.56,.06-.69,.15-.13,.58-.27,.79-.15,.16,.08,.29,.21,.48,.28,.17,.06,.31,.25,.51,.3,.18,.04,.37,.08,.57,.1,.18,.02,.37,.27,.58,.27,.19,0,.4-.04,.6-.05,.19,0,.39-.02,.59-.05,.18-.03,.3-.47,.49-.52,.18-.04,.36-.09,.55-.15,.18-.05,.45,.17,.64,.1,.18-.06,.41-.02,.59-.1,.18-.07,.21-.48,.4-.56,.17-.08,.45,.05,.63-.04,.17-.08,.22-.41,.4-.5,.17-.09,.54,.17,.71,.07s.28-.28,.46-.36,.36-.11,.55-.17c.18-.06,.35-.15,.54-.2s.38,0,.58-.04c.19-.03,.35-.36,.55-.37,.19,0,.4-.1,.6-.1s.4,.1,.59,.12c.19,.02,.4,.03,.59,.07,.19,.03,.37,.18,.55,.24,.19,.05,.43-.02,.61,.05s.3,.31,.47,.4c.18,.09,.24,.35,.4,.46,.17,.1,.33,.18,.48,.3s.31,.21,.45,.34c.14,.14,.48,.1,.6,.26,.12,.15,.06,.43,.16,.6,.1,.17,.18,.33,.26,.52,.08,.18,.24,.32,.3,.51,.06,.18,.25,.35,.29,.55,.04,.19-.15,.42-.13,.6,.02,.19-.16,.38-.16,.57s.16,.38,.14,.57c-.02,.19,.19,.43,.16,.61-.04,.19-.36,.31-.42,.49s.08,.45,0,.62c-.08,.17-.32,.28-.42,.44s-.25,.29-.36,.44-.04,.47-.17,.61-.39,.16-.54,.29c-.14,.12-.38,.13-.53,.24s-.36,.12-.52,.21c-.16,.09-.3,.21-.48,.29-.17,.08-.28,.31-.46,.37-.18,.06-.36,.15-.54,.19s-.38,.04-.57,.07-.37,.21-.56,.22c-.19,0-.39-.12-.58-.12h-.03Z"/>
        <path class="cls-3" d="M35.23,19.73c-.02-.2,.16-.42,.12-.61-.04-.2,0-.42-.07-.6-.06-.19-.28-.52-.36-.69-.11,.16-.29,.48-.41,.63s-.24,.3-.37,.44c-.13,.14-.07,.47-.21,.61-.14,.13-.42,.12-.57,.24-.15,.13-.43,.07-.58,.19s-.29,.24-.45,.34c-.16,.11-.18,.44-.34,.53-.17,.1-.34,.18-.51,.27-.17,.09-.36,.15-.54,.23s-.34,.21-.52,.28-.46-.2-.65-.15c-.19,.05-.28,.47-.47,.51s-.44-.32-.63-.29c-.2,.02-.38,.13-.57,.15-.2,.02-.37,.29-.57,.3s-.4,.07-.59,.08c-.2,0-.4-.24-.59-.25-.2,0-.38-.12-.58-.13-.2,0-.41,.23-.6,.22-.2-.02-.41,.05-.6,.03-.2-.03-.34-.4-.53-.43-.2-.03-.4,.03-.59-.01s-.42,.06-.6,.01c-.19-.05-.33-.26-.52-.32s-.43,.04-.61-.02c-.19-.07-.28-.37-.45-.44-.18-.07-.53,.22-.7,.14-.18-.08-.23-.42-.41-.51-.17-.09-.39-.11-.55-.2-.17-.1-.3-.27-.46-.37-.17-.11-.31-.12-.47-.23,.09,.16,.31,.17,.41,.33,.09,.16,0,.43,.11,.59,.1,.15,.15,.35,.26,.51,.11,.15,.29,.25,.41,.4,.12,.14,.3,.24,.42,.38s.16,.36,.29,.5c.13,.13,.16,.38,.3,.51,.14,.13,.54-.05,.69,.07,.14,.12,.19,.35,.35,.46,.15,.11,.27,.26,.43,.37,.15,.1,.3,.23,.46,.33,.16,.09,.37,.11,.54,.2,.16,.09,.23,.39,.4,.47s.44-.07,.62,0c.17,.07,.26,.38,.44,.45,.17,.06,.39,.02,.58,.08,.18,.05,.38,.06,.56,.11s.39-.02,.58,.03c.18,.04,.35,.19,.53,.23,.18,.03,.41-.18,.6-.15,.19,.03,.37,.08,.56,.09,.19,0,.38,.17,.58,.16,.19,0,.37-.19,.56-.22,.19-.02,.44,.26,.63,.22,.19-.04,.37-.16,.56-.22,.19-.05,.38-.12,.56-.18,.18-.07,.23-.46,.41-.54s.37-.1,.54-.19c.17-.09,.52,.12,.68,.02,.16-.1,.33-.23,.48-.35,.16-.12,.19-.39,.34-.52,.15-.13,.24-.31,.37-.45,.13-.14,.42-.16,.54-.31,.12-.15-.08-.52,.02-.68,.1-.17,.31-.26,.39-.43,.08-.18,.21-.33,.27-.51s.27-.34,.3-.53c.03-.19,.08-.4,.09-.6,0-.19-.31-.38-.33-.57h.02Z"/>
      </g>
      <g>
        <path class="cls-1" d="M43.29,25.79c.2,0,.39,.06,.58,.05,.2-.01,.39-.06,.58-.08,.2-.02,.41,.09,.59,.07,.19-.03,.36-.21,.55-.24s.39-.05,.57-.09c.19-.04,.39-.04,.58-.09,.19-.05,.33-.27,.51-.33,.19-.06,.33-.21,.51-.28s.46,.11,.63,.04c.18-.08,.27-.33,.45-.42s.44,0,.6-.09c.17-.09,.29-.28,.45-.38,.17-.1,.31-.24,.46-.34,.16-.11,.29-.25,.44-.37s.36-.17,.5-.29c.15-.13,.46-.08,.6-.21,.14-.14,.26-.3,.39-.44s.17-.38,.29-.52c.13-.15,.15-.38,.26-.53,.12-.16,.3-.26,.41-.41,.11-.16,.15-.37,.25-.53,.1-.17,.42-.21,.51-.37,.1-.17,.1-.4,.18-.56,.09-.18,.19-.35,.26-.52,.08-.18,.05-.41,.12-.58,.07-.19,.21-.34,.27-.51,.08-.23-.04-.5-.19-.64-.15-.13-.48-.28-.7-.17-.16,.08-.32,.16-.51,.23-.17,.06-.27,.41-.47,.46-.18,.04-.42-.18-.62-.15-.18,.02-.37,.11-.57,.12-.19,0-.39,.22-.6,.2-.19,0-.39-.05-.59-.08-.18-.03-.39-.06-.59-.1-.18-.04-.31-.34-.5-.4-.18-.05-.33-.21-.52-.27-.18-.06-.39-.03-.58-.11-.18-.07-.29-.28-.48-.36-.17-.08-.45,.07-.63-.02-.17-.08-.35-.18-.52-.27s-.28-.29-.45-.39-.39-.1-.57-.18-.34-.2-.53-.26c-.18-.06-.42,.09-.61,.04s-.33-.32-.52-.35c-.19-.03-.4,.12-.6,.1-.19,0-.38-.2-.58-.2s-.41-.09-.6-.07c-.19,.02-.38,.15-.58,.18-.19,.03-.39,.09-.57,.14-.19,.05-.39,.09-.57,.16s-.42,.05-.59,.14c-.18,.09-.29,.31-.45,.41-.17,.1-.22,.35-.37,.48-.15,.12-.46,.06-.6,.2s-.18,.36-.3,.52c-.12,.15-.22,.32-.32,.49-.1,.17-.11,.37-.19,.55s-.43,.26-.49,.45c-.06,.18,.05,.42,.01,.62-.04,.19,.15,.4,.13,.59-.02,.19-.16,.37-.16,.56s-.05,.39-.04,.57c.02,.19,.2,.35,.24,.54s.12,.35,.18,.53-.17,.47-.09,.65c.08,.17,.37,.24,.47,.41,.1,.16,.12,.37,.24,.53,.11,.15,.25,.29,.38,.43s.19,.36,.34,.48c.14,.12,.25,.32,.41,.43,.15,.11,.35,.19,.52,.28,.16,.09,.39,.1,.56,.17,.17,.08,.33,.24,.51,.3,.18,.06,.37,.13,.56,.18,.18,.04,.44-.33,.63-.3,.19,.03,.35,.16,.55,.17,.19,0,.37,.07,.57,.07v-.04Z"/>
        <path class="cls-3" d="M37.46,19.73c.02-.2-.29-.44-.25-.63,.04-.2,.34-.32,.4-.5,.06-.19,.05-.22,.13-.4,.11,.16,.36,0,.48,.15s-.06,.56,.07,.7,.56,0,.7,.13,0,.58,.14,.7c.15,.13,.54-.05,.69,.07s.09,.54,.25,.65,.49-.05,.65,.05c.17,.1,.35,.14,.52,.23,.17,.09,.28,.3,.46,.38,.18,.08,.4,.01,.59,.08,.18,.06,.37,.08,.55,.13,.19,.05,.37,.05,.56,.09,.19,.04,.36,.1,.55,.12,.2,.02,.36,.35,.55,.37,.2,.02,.41-.16,.6-.15,.2,.01,.39-.03,.58-.03,.2,0,.39,.05,.58,.05,.2,0,.39,.01,.58,0,.2,0,.4,.12,.59,.1,.2-.02,.39-.1,.58-.13,.2-.03,.4,0,.59-.04,.2-.03,.37-.14,.56-.18,.19-.04,.34-.25,.53-.3s.36-.15,.54-.2c.19-.06,.45,.12,.63,.05,.19-.07,.43,0,.61-.07s.34-.21,.52-.29,.26-.37,.43-.45c.17-.09,.36-.15,.53-.25s.43-.04,.6-.14c.17-.11,.27-.31,.42-.42-.09,.16-.27,.27-.37,.44-.09,.16-.28,.25-.39,.41-.1,.15-.04,.41-.16,.57-.11,.15-.38,.17-.5,.32-.12,.14-.17,.33-.3,.47-.12,.14-.05,.47-.18,.6s-.38,.15-.52,.28-.26,.26-.41,.38c-.14,.12-.26,.27-.42,.38-.15,.11-.23,.33-.39,.44-.15,.1-.45-.01-.62,.09-.16,.09-.18,.45-.35,.54-.16,.09-.43-.01-.6,.07s-.32,.19-.5,.27c-.17,.07-.35,.12-.54,.19-.17,.06-.42-.09-.6-.03-.18,.05-.25,.5-.44,.55-.18,.05-.41-.09-.6-.05-.18,.04-.34,.23-.53,.26-.18,.03-.43-.35-.62-.33-.19,.03-.35,.29-.55,.3-.19,0-.38-.07-.58-.08-.19,0-.38-.06-.57-.09-.19-.02-.41,.12-.6,.08-.19-.04-.34-.25-.52-.31-.19-.05-.46,.15-.64,.09-.18-.07-.2-.53-.38-.61s-.38-.07-.55-.16c-.17-.09-.39-.08-.56-.19-.16-.1-.28-.27-.43-.39-.16-.12-.32-.21-.46-.34-.15-.13-.24-.3-.37-.44-.13-.14-.18-.33-.3-.49-.12-.15-.54-.1-.64-.26-.1-.17,.16-.52,.08-.7s-.42-.24-.48-.43c-.06-.18-.2-.37-.23-.56-.03-.19,.21-.41,.2-.61,0-.19,.1-.36,.12-.56v.03Z"/>
      </g>
    </g>
    <path class="cls-2" d="M42.13,16c0,.2,.07,.37,.04,.56-.03,.19-.08,.36-.13,.55-.05,.19,.08,.43,0,.61s-.14,.38-.23,.54c-.1,.17-.23,.32-.35,.48-.12,.15-.31,.25-.45,.39-.13,.14-.2,.36-.35,.48s-.44,.06-.6,.17c-.16,.11-.19,.43-.36,.52s-.49-.12-.67-.04-.29,.3-.47,.36-.39,.01-.58,.06c-.19,.05-.37,.01-.57,.04-.19,.03-.35,.22-.55,.23-.19,.02-.38,.28-.58,.28s-.38-.33-.57-.34c-.19-.02-.41,.17-.6,.14-.19-.03-.4-.04-.58-.09-.19-.05-.36-.18-.54-.25-.19-.06-.36-.16-.54-.23-.18-.08-.27-.32-.43-.42-.17-.1-.37-.13-.52-.24-.16-.11-.29-.24-.44-.37-.15-.13-.47-.07-.6-.21s.02-.53-.09-.68c-.12-.16-.23-.28-.33-.45-.1-.17-.53-.17-.6-.35-.08-.18,.06-.44,.01-.63-.05-.19-.15-.36-.18-.56-.03-.19-.17-.39-.17-.58s.21-.39,.23-.58c.03-.19,.04-.39,.09-.57,.05-.19,.13-.37,.2-.54,.08-.18,.27-.29,.36-.46,.1-.17-.07-.52,.04-.67,.12-.15,.32-.26,.46-.4,.13-.14,.27-.3,.42-.42s.27-.31,.43-.42c.16-.11,.44-.05,.61-.14s.42,0,.6-.07c.18-.08,.2-.53,.39-.6,.18-.06,.46,.18,.65,.13s.38,0,.57-.04c.19-.03,.34-.44,.53-.46s.4,.35,.6,.35,.38-.04,.57-.02,.41-.15,.6-.12c.19,.03,.39,.07,.58,.11,.19,.05,.41,.03,.59,.09,.18,.06,.39,.13,.56,.21,.18,.08,.27,.35,.43,.45,.17,.1,.39,.12,.55,.23s.24,.32,.39,.45,.45,.1,.59,.24c.13,.14,.28,.3,.39,.46,.12,.16,.26,.32,.35,.49,.1,.17,.12,.4,.2,.57,.08,.18,.18,.37,.23,.55,.05,.19-.27,.45-.24,.64s.03,.36,.03,.55l.03,.02Z"/>
  </g>
</svg>