<?xml version="1.0" encoding="UTF-8"?>
<svg xmlns="http://www.w3.org/2000/svg" viewBox="0 0 219.41 120.5">
  <defs>
    <style>
      .cls-1 {
        fill: #fff;
      }

      .cls-2 {
        isolation: isolate;
      }

      .cls-3 {
        fill: #f26649;
      }

      .cls-4 {
        fill: #e6e6e6;
      }

      .cls-5 {
        mix-blend-mode: multiply;
        opacity: .5;
      }

      .cls-6 {
        fill: #5f9e45;
      }
    </style>
  </defs>
  <g class="cls-2">
    <g id="Layer_1" data-name="Layer 1">
      <g>
        <path class="cls-4" d="M44.89,102.95c.2,.3-.09,.38,.12,.78,.09,.18,.17,.41,.28,.66,.09,.2,.29,.38,.38,.63,.08,.22,.19,.44,.27,.68,.07,.22,.06,.48,.12,.72,.05,.23,.15,.46,.19,.71,.04,.23-.23,.51-.2,.76,.02,.24,.06,.46,.07,.71,0,.24,.42,.48,.42,.72,0,.24,.02,.5,0,.74-.03,.24-.26,.46-.3,.7-.04,.23-.14,.46-.2,.7-.06,.23-.27,.41-.35,.65-.08,.23,.05,.53-.04,.76-.09,.22-.24,.42-.35,.64-.11,.21,.02,.57-.11,.78-.12,.2-.26,.43-.4,.63-.13,.2-.54,.21-.7,.4-.15,.19-.4,.28-.57,.47-.16,.18,0,.66-.17,.84-.17,.17-.71-.04-.89,.13-.17,.16,.01,.73-.18,.9-.18,.15-.58,.06-.77,.21-.19,.15-.4,.26-.6,.41-.19,.14-.22,.53-.42,.67-.2,.13-.5,.13-.71,.26-.2,.13-.5,.11-.71,.23-.21,.12-.45,.18-.67,.3-.21,.12-.34,.38-.56,.49,.09,.35,.27-.2,.73-.17,.2,.01,.42,.4,.7,.41,.22,.01,.47-.22,.73-.22,.23,0,.46-.09,.72-.09,.23,0,.47,.14,.72,.14,.23,0,.48,.18,.73,.17,.23,0,.46-.36,.7-.37,.23-.01,.49,.2,.73,.18,.24-.02,.48,0,.72-.02,.24-.02,.44-.32,.69-.35,.24-.03,.51,.25,.75,.22,.24-.03,.49,.02,.73-.02,.24-.04,.43-.32,.67-.36,.23-.05,.46-.13,.7-.18,.23-.05,.5,.02,.73-.04,.23-.06,.48-.06,.72-.12,.23-.06,.43-.25,.66-.32,.23-.07,.44-.2,.67-.28,.23-.08,.46-.13,.69-.22,.22-.09,.57,.1,.79,0,.22-.09,.4-.29,.62-.39,.22-.1,.33-.43,.54-.54,.21-.11,.53-.03,.74-.15,.21-.12,.22-.56,.42-.69,.2-.13,.56-.03,.75-.17,.2-.14,.19-.54,.38-.68,.19-.15,.37-.28,.56-.44,.18-.16,.6-.05,.77-.22,.17-.17,.34-.35,.5-.52,.16-.18,.46-.24,.62-.43,.15-.18,.31-.38,.46-.58,.14-.19,.25-.43,.39-.63,.13-.2,.08-.52,.2-.73,.12-.21,.09-.49,.2-.71,.11-.21,.33-.37,.43-.59,.1-.22,.06-.49,.15-.71,.09-.22,.2-.43,.28-.66,.07-.23,.19-.44,.26-.67,.06-.23,.43-.39,.48-.63,.05-.23-.28-.55-.24-.79,.04-.23,.06-.47,.1-.71,.03-.24,.44-.43,.46-.67,.02-.24-.18-.5-.16-.74,.02-.24,.31-.47,.32-.72,0-.24-.53-.49-.53-.74"/>
        <path class="cls-1" d="M58.65,9.15c.24,0,.49,.07,.73,.07,.24,0,.48-.29,.73-.3,.24,0,.49,.34,.73,.34s.49-.29,.73-.29c.24,0,.48,.44,.72,.44,.24,0,.49-.3,.74-.29,.24,0,.47,.4,.71,.41,.24,0,.49-.1,.73-.09,.24,.01,.48,.12,.72,.14,.24,.01,.51-.32,.75-.3,.24,.02,.47,.17,.72,.19,.24,.02,.49-.07,.74-.05,.24,.02,.46,.25,.7,.28,.24,.02,.49-.02,.73,0,.24,.03,.52-.22,.76-.19,.24,.03,.46,.27,.7,.3,.24,.03,.51-.16,.75-.13,.24,.03,.44,.36,.68,.4,.24,.04,.46,.19,.7,.23,.24,.04,.5-.06,.74-.01,.24,.04,.48,.1,.71,.14,.24,.04,.46,.15,.7,.2,.24,.05,.53-.15,.76-.1,.24,.05,.4,.46,.63,.51,.24,.05,.51-.05,.74,0,.24,.05,.49,.04,.72,.1,.23,.06,.47,.1,.71,.16,.23,.06,.43,.24,.66,.3,.23,.06,.49,0,.72,.06,.23,.05,.46,.13,.69,.18,.23,.05,.49-.03,.73,.02,.23,.05,.44,.22,.68,.27,.23,.05,.45,.17,.69,.21,.23,.04,.5-.08,.73-.03,.23,.04,.42,.36,.66,.4s.55-.38,.78-.34,.44,.29,.67,.32c.24,.04,.45,.23,.68,.26,.24,.03,.48,0,.72,.03,.24,.03,.47,.12,.7,.14,.24,.03,.48,.03,.71,.06,.24,.03,.5-.18,.74-.16,.24,.02,.45,.34,.68,.36s.5-.28,.74-.26c.24,.02,.45,.31,.69,.33,.24,.02,.49-.21,.73-.19,.24,.02,.47,.12,.71,.14s.48-.13,.72-.12,.46,.3,.7,.31c.24,0,.48,.09,.71,.09,.24,0,.48-.29,.72-.28,.24,0,.48-.04,.71-.03,.24,0,.48,.47,.71,.47s.48-.19,.72-.19c.24,0,.48,.17,.72,.17,.24,0,.47-.3,.71-.31,.24,0,.49,.26,.73,.25,.24,0,.48,.02,.72,0s.47-.15,.71-.16c.24-.01,.46-.32,.7-.33,.24-.02,.5,.3,.74,.28s.46-.2,.7-.22c.24-.02,.48,.04,.72,.02s.46-.2,.7-.22c.24-.02,.46-.16,.7-.18,.24-.03,.47-.08,.71-.11,.24-.03,.52,.31,.76,.27,.24-.03,.48,0,.72-.04,.24-.03,.42-.43,.66-.46,.24-.03,.49,.02,.72-.02s.43-.3,.67-.34c.24-.04,.49,.06,.73,.02,.23-.04,.53,.27,.77,.22,.23-.04,.39-.5,.63-.54,.23-.05,.52,.15,.75,.1,.23-.05,.43-.28,.66-.33,.23-.05,.54,.22,.77,.17,.23-.05,.36-.56,.59-.61,.23-.05,.52,.12,.75,.06,.23-.06,.51,.09,.75,.03,.23-.06,.49-.04,.72-.1,.23-.06,.32-.65,.55-.71s.53,.14,.76,.07c.23-.06,.5,.02,.73-.05,.23-.07,.38-.39,.61-.46,.23-.07,.53,.12,.76,.05,.23-.07,.47-.09,.7-.16,.23-.07,.35-.48,.57-.55,.23-.07,.42-.25,.64-.33,.23-.08,.45-.15,.68-.23,.23-.08,.52,.05,.75-.03,.22-.08,.44-.19,.66-.27,.22-.08,.39-.31,.61-.4,.23-.09,.6,.22,.83,.13,.23-.08,.37-.39,.6-.47,.23-.08,.39-.36,.62-.44,.23-.08,.46-.17,.69-.25,.23-.08,.51,0,.75-.07,.23-.07,.45-.19,.68-.26,.23-.07,.45-.17,.69-.24,.23-.07,.45-.18,.69-.25,.23-.07,.55,.15,.78,.08,.23-.07,.5,0,.74-.05,.23-.06,.46-.14,.7-.2,.23-.06,.35-.59,.58-.65,.23-.06,.54,.16,.78,.1,.24-.06,.51,.04,.74-.02,.24-.05,.41-.39,.65-.44,.24-.05,.54,.21,.78,.16,.24-.05,.43-.3,.67-.35,.24-.05,.43-.33,.67-.37,.24-.05,.56,.36,.8,.32,.24-.04,.44-.27,.68-.31,.24-.04,.51,.11,.75,.08,.24-.04,.47-.13,.71-.16,.24-.04,.48-.03,.72-.06,.24-.03,.45-.24,.69-.28,.24-.03,.48-.06,.72-.09,.24-.03,.49,.02,.73,0,.24-.03,.46-.26,.7-.29,.24-.03,.48-.09,.72-.11,.24-.02,.48-.14,.72-.16,.24-.02,.48-.09,.72-.11,.24-.02,.49,.06,.73,.04,.24-.02,.5,.21,.74,.2,.24-.01,.49,.05,.73,.04,.24-.01,.47-.46,.71-.47,.24,0,.49-.01,.73-.02,.24,0,.49,.01,.73,0,.24,0,.49,.5,.74,.49,.24,0,.48-.11,.73-.11,.24,0,.49-.26,.73-.25,.24,0,.49-.01,.73,0,.24,0,.49-.05,.73-.04,.24,0,.49-.03,.73-.03,.24,0,.48,.07,.72,.08,.24,0,.48,.08,.72,.09,.24,.01,.47,.3,.71,.32,.24,.01,.48-.02,.72,0,.24,.02,.48,.05,.72,.07,.24,.02,.48,.02,.72,.04,.24,.02,.48,.06,.72,.08,.24,.02,.5-.14,.74-.12,.24,.03,.5-.14,.74-.11,.24,.03,.42,.51,.66,.54,.24,.03,.53-.34,.77-.3,.24,.03,.47,.1,.71,.13,.24,.03,.42,.47,.65,.51,.24,.04,.52-.21,.76-.17,.24,.04,.48,.03,.72,.07,.24,.04,.44,.28,.68,.32,.24,.04,.51-.12,.75-.07,.24,.05,.5-.05,.74,0,.24,.05,.38,.55,.61,.6,.24,.05,.46,.13,.7,.18,.24,.05,.49,0,.73,.06,.23,.05,.53-.14,.76-.08,.23,.06,.46,.15,.69,.21,.23,.06,.48,.06,.72,.12,.23,.06,.46,.14,.69,.21,.23,.06,.45,.17,.69,.23,.23,.07,.46,.15,.69,.22,.23,.07,.39,.38,.62,.45,.23,.07,.48,.07,.71,.14,.23,.07,.46,.14,.69,.21,.23,.07,.46,.15,.68,.23,.23,.08,.4,.31,.63,.39,.23,.08,.53-.06,.76,.02,.23,.08,.52-.01,.74,.07,.23,.08,.34,.46,.57,.55,.23,.09,.47,.1,.7,.19,.22,.09,.55-.09,.78,0,.22,.09,.47,.14,.69,.23,.22,.09,.32,.48,.54,.58,.22,.09,.39,.32,.61,.41,.22,.1,.51,.04,.73,.14,.22,.1,.46,.14,.68,.24,.22,.1,.38,.32,.6,.42,.22,.1,.47,.13,.69,.23,.22,.11,.5,.07,.72,.18,.22,.11,.5,.09,.71,.2,.21,.11,.19,.68,.4,.79,.21,.11,.64-.17,.85-.06,.21,.11,.45,.19,.66,.3,.21,.12,.21,.62,.42,.74,.21,.12,.61-.1,.82,.02,.21,.12,.38,.31,.59,.43,.21,.12,.21,.59,.41,.71,.21,.13,.54,.03,.75,.16,.2,.13,.47,.17,.67,.3,.2,.13,.42,.24,.62,.37,.2,.13,.39,.28,.59,.41,.2,.13,.49,.14,.69,.27,.2,.14,.36,.33,.56,.47,.2,.14,.21,.53,.41,.67,.2,.14,.4,.27,.59,.41,.19,.14,.36,.33,.55,.47,.19,.14,.52,.12,.71,.26,.19,.15,.5,.15,.69,.3,.19,.15,.18,.55,.37,.7,.19,.15,.49,.16,.67,.31,.19,.15,.33,.36,.51,.52,.18,.15,.25,.44,.44,.6,.18,.16,.26,.43,.45,.58,.18,.16,.65,0,.83,.15,.18,.16,.13,.58,.3,.74,.18,.16,.52,.14,.7,.31,.18,.17,.44,.24,.61,.4,.17,.17,.38,.3,.55,.47,.17,.17,.1,.59,.26,.76,.17,.17,.4,.28,.57,.45,.17,.17,.45,.24,.61,.42,.17,.18,.38,.31,.54,.48,.16,.18,.38,.31,.54,.49,.16,.18-.04,.68,.12,.86,.16,.18,.26,.41,.41,.59,.16,.18,.68,.05,.84,.24,.15,.18-.07,.68,.08,.87,.15,.19,.7,.06,.84,.25,.15,.19-.02,.63,.12,.82,.15,.19,.51,.21,.66,.41,.15,.19,.4,.3,.54,.5,.14,.19,.07,.55,.21,.74,.14,.2,.54,.21,.68,.41,.14,.2,.15,.49,.28,.68,.14,.2-.07,.62,.06,.82,.13,.2,.51,.24,.64,.44,.13,.2,.23,.43,.35,.63,.13,.2,.24,.42,.36,.62,.12,.21,.4,.32,.53,.53,.12,.21,.23,.42,.35,.63,.12,.21,.12,.49,.24,.7,.12,.21,.43,.31,.55,.52,.11,.21-.17,.63-.06,.85,.11,.21,.23,.42,.34,.63,.11,.22,.31,.38,.41,.6,.1,.22,.06,.5,.17,.72,.1,.22,.41,.34,.51,.56,.1,.22-.04,.54,.06,.76,.1,.22,.24,.41,.34,.64,.09,.22,.45,.33,.54,.56,.09,.22,.14,.46,.23,.69,.09,.22,.06,.49,.15,.71,.08,.23,.43,.36,.51,.58,.08,.23,.17,.45,.25,.68,.08,.23-.28,.6-.2,.83,.07,.23,.12,.46,.19,.69,.07,.23,.64,.31,.7,.54,.07,.23-.21,.56-.14,.79,.06,.23,.09,.47,.15,.71,.06,.23,.35,.41,.41,.64,.06,.23,.14,.46,.19,.7,.05,.23,.01,.49,.06,.73,.05,.24-.14,.52-.09,.75,.05,.24,.04,.48,.08,.72,.04,.24,.19,.45,.23,.69,.04,.24,.27,.44,.3,.68,.04,.24-.19,.51-.16,.75,.03,.24,.5,.42,.52,.66,.03,.24-.22,.51-.19,.75,.03,.24-.06,.49-.04,.73,.02,.24,.47,.44,.49,.68,.02,.24-.48,.51-.46,.75,.01,.24,.06,.48,.07,.72,.01,.24,.32,.47,.32,.71,0,.24-.12,.48-.12,.72,0,.24-.16,.48-.16,.72,0,.24,.14,.48,.14,.72,0,.24-.07,.48-.08,.72,0,.24-.07,.47-.08,.71,0,.24,.33,.49,.31,.73-.01,.24-.14,.47-.15,.71-.02,.24,.06,.49,.04,.72-.02,.24-.22,.46-.24,.7-.02,.24,.09,.49,.07,.73-.03,.24-.02,.48-.05,.72-.03,.24-.45,.42-.48,.66-.03,.24,.04,.49,0,.72-.04,.24-.17,.45-.21,.69-.04,.24,.11,.5,.06,.74-.04,.24,.14,.52,.09,.75-.05,.23-.49,.39-.54,.62-.05,.23,.04,.5-.01,.73-.05,.23,.14,.53,.08,.76-.06,.23-.03,.49-.09,.72-.06,.23-.38,.39-.45,.62-.06,.23-.2,.44-.26,.67-.07,.23-.05,.48-.12,.71s-.37,.38-.45,.61c-.07,.23,.3,.6,.22,.83-.08,.23-.38,.38-.46,.6s0,.51-.08,.74c-.08,.22-.46,.34-.55,.56-.09,.22,.09,.55,0,.77-.09,.22-.44,.33-.54,.55-.09,.22-.27,.4-.36,.62-.1,.22-.21,.43-.31,.64-.1,.22,.16,.6,.06,.82-.1,.22-.34,.37-.44,.58-.1,.22-.12,.47-.23,.69-.11,.21-.4,.33-.51,.54-.11,.21-.16,.45-.27,.67-.11,.21,.03,.56-.08,.77-.12,.21-.68,.16-.8,.37-.12,.21-.14,.47-.27,.67-.12,.21-.34,.35-.47,.55-.12,.2-.2,.44-.32,.64-.13,.2-.27,.39-.4,.59-.13,.2,.05,.6-.08,.8-.13,.2-.33,.36-.46,.56-.13,.2-.37,.33-.5,.52-.14,.2-.23,.42-.37,.62-.14,.19-.31,.36-.45,.56-.14,.19-.14,.49-.28,.69-.14,.19-.48,.23-.63,.42-.15,.19-.21,.44-.36,.63-.15,.19-.52,.19-.67,.38-.15,.18-.16,.48-.31,.67-.15,.18-.07,.57-.23,.75-.16,.18-.46,.23-.62,.41-.16,.18-.21,.46-.37,.63-.16,.18-.63,.07-.79,.24-.16,.18-.03,.62-.19,.8-.16,.17-.43,.25-.6,.42-.17,.17-.23,.45-.4,.62-.17,.17-.63,.04-.8,.21-.17,.17-.2,.48-.37,.64-.17,.17-.14,.55-.31,.71-.17,.16-.58,.08-.75,.24-.18,.16-.32,.36-.5,.52-.18,.16-.18,.52-.36,.67-.18,.16-.69-.07-.87,.09-.18,.16-.12,.6-.3,.75-.18,.15-.27,.42-.46,.57-.18,.15-.53,.11-.71,.26-.19,.15-.53,.1-.72,.25-.19,.15-.34,.33-.53,.48-.19,.15-.28,.41-.48,.56-.19,.14-.28,.42-.48,.56-.19,.14-.38,.3-.57,.43-.19,.14-.35,.33-.55,.47-.2,.14-.44,.21-.64,.34-.2,.13-.34,.36-.53,.49-.2,.13-.39,.28-.59,.41-.2,.13-.61-.07-.82,.06-.2,.13-.39,.28-.59,.4-.2,.13-.44,.2-.64,.33-.2,.12-.45,.17-.66,.29-.21,.12-.34,.36-.55,.48-.21,.12-.39,.27-.6,.39-.21,.12-.31,.42-.52,.53-.21,.12-.49,.1-.7,.21-.21,.11-.52,.03-.74,.14-.21,.11-.22,.61-.43,.72-.21,.11-.6-.14-.82-.03-.21,.11-.39,.28-.61,.39-.21,.1-.43,.2-.65,.31-.22,.1-.29,.51-.51,.61-.22,.1-.61-.2-.83-.1-.22,.1-.34,.4-.56,.5-.22,.1-.46,.14-.68,.23-.22,.09-.47,.11-.69,.2-.22,.09-.31,.51-.53,.6-.22,.09-.43,.22-.65,.31-.22,.09-.63-.31-.86-.22-.22,.08-.37,.36-.6,.44-.22,.08-.38,.37-.6,.45-.22,.08-.5,.02-.73,.1-.23,.08-.49,.04-.72,.11-.23,.08-.45,.17-.67,.25-.23,.07-.43,.24-.65,.31-.23,.07-.45,.15-.68,.22-.23,.07-.43,.22-.66,.29-.23,.07-.51-.05-.74,.01-.23,.07-.49,.01-.72,.07-.23,.06-.48,.05-.71,.11-.23,.06-.42,.27-.65,.33-.23,.06-.42,.29-.65,.34-.23,.06-.45,.2-.68,.25-.23,.05-.49,.02-.72,.07-.23,.05-.44,.22-.68,.27-.23,.05-.5-.04-.73,0-.23,.05-.45,.2-.68,.24-.23,.05-.54-.28-.77-.23-.24,.04-.45,.19-.68,.24-.24,.04-.45,.21-.69,.25-.24,.04-.48,0-.72,.04-.24,.04-.42,.43-.66,.47-.24,.03-.49-.06-.73-.02-.24,.03-.48,.04-.72,.07-.24,.03-.47,.09-.71,.12-.24,.03-.5-.17-.74-.14-.24,.03-.48-.02-.72,0-.24,.02-.49-.07-.72-.04-.24,.02-.46,.21-.7,.23-.24,.02-.48,.01-.72,.03-.24,.02-.46,.24-.7,.26-.24,.02-.5-.36-.74-.34-.24,.01-.48,.03-.71,.04-.24,.01-.46,.58-.7,.59-.24,0-.49-.26-.73-.25-.24,0-.48-.07-.72-.07s-.48,.23-.72,.23c-.24,0-.48-.26-.72-.26s-.49,.32-.73,.31c-.24,0-.48-.2-.73-.21-.24,0-.48-.19-.72-.2-.24,0-.49,.09-.73,.09-.24,0-.48-.04-.73-.06-.24-.01-.48-.1-.72-.12-.24-.01-.51,.33-.75,.32-.24-.02-.47-.29-.71-.31-.24-.02-.51,.26-.75,.24-.24-.02-.44-.5-.68-.52-.24-.02-.49,.07-.73,.05-.24-.02-.5,.11-.74,.08-.24-.03-.48-.06-.72-.09-.24-.03-.5,.12-.74,.09-.24-.03-.43-.47-.67-.5-.24-.03-.5,.09-.74,.06-.24-.04-.49,0-.73-.05-.24-.04-.45-.27-.69-.31-.24-.04-.49,0-.73-.04-.24-.04-.49,0-.73-.04-.24-.04-.49-.02-.73-.07-.24-.05-.43-.31-.67-.36-.24-.05-.47-.1-.71-.15-.24-.05-.54,.18-.77,.13-.24-.05-.39-.46-.63-.52-.24-.06-.46-.15-.69-.21-.24-.06-.59,.34-.82,.28-.23-.06-.41-.37-.64-.43-.23-.06-.46-.16-.69-.23-.23-.06-.52,.07-.75,0-.23-.07-.48-.1-.71-.17-.23-.07-.47-.11-.7-.18-.23-.07-.38-.39-.61-.47-.23-.07-.48-.09-.71-.17-.23-.08-.53,.05-.76-.03-.23-.08-.36-.44-.59-.52-.23-.08-.42-.26-.65-.34s-.51,0-.74-.09c-.23-.08-.45-.16-.68-.25-.22-.09-.47-.11-.7-.19-.23-.08-.4-.3-.63-.39s-.48-.09-.71-.17c-.23-.08-.46-.14-.69-.22-.23-.08-.5-.02-.73-.09-.23-.08-.34-.53-.57-.6-.23-.07-.56,.19-.8,.12-.23-.07-.43-.24-.66-.31s-.47-.12-.7-.19-.45-.19-.68-.26c-.23-.06-.45-.18-.68-.24-.23-.06-.49-.03-.72-.08-.23-.06-.47-.12-.7-.17-.23-.06-.45-.21-.68-.26-.23-.05-.45-.21-.68-.26-.24-.05-.54,.21-.77,.16-.24-.05-.4-.44-.64-.48-.24-.05-.5,.06-.74,.02-.24-.04-.46-.17-.7-.21-.24-.04-.54,.28-.77,.24-.24-.04-.43-.32-.67-.36s-.48-.04-.72-.07-.48-.02-.72-.06c-.24-.03-.45-.28-.69-.31-.24-.03-.47-.1-.71-.13s-.52,.32-.76,.29c-.24-.03-.49,.03-.73,0-.24-.02-.46-.19-.7-.21-.24-.02-.48-.01-.72-.03-.24-.02-.47-.19-.71-.2-.24-.02-.49,.05-.73,.03s-.49,.15-.73,.14c-.24-.01-.47-.21-.71-.23-.24-.01-.48-.16-.72-.17-.24,0-.48,.08-.73,.08-.24,0-.48-.23-.72-.23-.24,0-.48-.12-.72-.12s-.49,.48-.73,.47c-.24,0-.48-.22-.72-.22-.24,0-.48,.06-.72,.06-.24,0-.49-.21-.73-.2-.24,0-.48,.21-.72,.21-.24,0-.49-.13-.73-.12s-.48,.13-.72,.14c-.24,.01-.48-.04-.73-.03-.24,.01-.46,.32-.7,.34-.24,.02-.48-.04-.72-.02s-.47,.16-.71,.18-.52-.47-.76-.44c-.24,.02-.44,.45-.68,.48-.24,.02-.5-.15-.74-.13-.24,.03-.51-.18-.75-.15-.24,.03-.48,.07-.72,.1-.24,.03-.46,.23-.7,.27-.24,.03-.44,.31-.68,.34-.24,.03-.48,0-.72,.04-.24,.04-.53-.25-.76-.21-.24,.04-.4,.56-.63,.6-.24,.04-.49-.04-.73,0-.24,.04-.47,.1-.71,.15-.24,.04-.46,.18-.69,.22-.24,.05-.48,.07-.71,.11-.24,.05-.5-.05-.74,0-.24,.05-.47,.09-.71,.14-.24,.05-.45,.18-.69,.24-.23,.05-.48,.04-.72,.1-.23,.06-.49,0-.73,.05-.23,.05-.43,.28-.66,.33-.23,.05-.54-.24-.78-.19-.23,.05-.39,.49-.63,.54-.24,.05-.51-.12-.75-.08-.24,.04-.46,.17-.69,.21-.24,.04-.49-.05-.73,0-.24,.04-.46,.14-.7,.17-.24,.04-.46,.15-.7,.18-.24,.03-.5-.13-.74-.1-.24,.03-.44,.33-.68,.36-.24,.03-.47,.14-.71,.17-.24,.03-.47,.09-.71,.12-.24,.02-.5-.19-.74-.17-.24,.02-.48,.06-.72,.08-.24,.02-.49-.15-.73-.14-.24,.02-.45,.42-.69,.44-.24,.01-.51-.43-.75-.42-.24,.01-.46,.47-.7,.48-.24,0-.49-.31-.73-.31-.24,0-.48-.18-.73-.18-.24,0-.48,.05-.72,.05-.24,0-.48,.35-.72,.35s-.48-.31-.72-.32c-.24,0-.48-.06-.72-.07-.24,0-.49,.48-.74,.47-.24,0-.48-.09-.72-.1-.24,0-.49,.02-.73,0-.24-.01-.46-.4-.7-.42-.24-.01-.51,.41-.75,.39-.24-.02-.45-.4-.69-.42-.24-.02-.47-.19-.71-.21-.24-.02-.5,.15-.74,.13-.24-.02-.47-.16-.71-.18-.24-.03-.5,.11-.74,.08-.24-.03-.51,.14-.74,.11-.24-.03-.47-.14-.71-.18-.24-.03-.42-.44-.66-.47-.24-.04-.47-.07-.71-.11-.24-.04-.49,.03-.73-.01-.24-.04-.46-.14-.7-.18-.24-.04-.51,.11-.75,.06-.24-.05-.51,.07-.74,.02-.24-.05-.47-.1-.71-.15-.24-.05-.42-.33-.66-.38-.24-.05-.42-.33-.65-.38-.23-.06-.53,.14-.76,.08-.23-.06-.53,.13-.77,.07-.23-.06-.36-.51-.6-.57-.23-.06-.52,.07-.75,0-.23-.07-.41-.33-.64-.4-.23-.07-.55,.15-.78,.08-.23-.07-.45-.19-.68-.26-.23-.07-.41-.3-.64-.37-.23-.08-.55,.12-.78,.04-.23-.08-.29-.63-.52-.71-.23-.08-.5-.03-.72-.12-.23-.08-.5-.05-.72-.14-.23-.09-.48-.09-.71-.18-.22-.09-.46-.14-.69-.23-.22-.09-.46-.16-.68-.25-.22-.09-.42-.25-.64-.35-.22-.1-.45-.18-.67-.28-.22-.1-.29-.52-.51-.62-.22-.1-.45-.18-.67-.28-.22-.1-.49-.1-.7-.2-.22-.11-.36-.35-.58-.46-.22-.11-.58,.08-.8-.03-.21-.11-.27-.52-.48-.63-.21-.11-.55,0-.76-.12-.21-.12-.35-.36-.56-.47-.21-.12-.41-.25-.62-.37-.21-.12-.63,.12-.84,0-.21-.12-.26-.51-.47-.63-.21-.13-.34-.37-.54-.49-.2-.13-.64,.1-.84-.03-.2-.13-.25-.5-.45-.63-.2-.13-.3-.42-.5-.55-.2-.14-.56-.03-.76-.17-.2-.14-.33-.37-.53-.51-.2-.14-.27-.45-.46-.6-.19-.14-.51-.12-.7-.26-.19-.14-.44-.21-.63-.36-.19-.15-.45-.21-.64-.36-.19-.15-.11-.63-.3-.78-.19-.15-.67,.05-.85-.1-.19-.15-.35-.34-.53-.49-.18-.16-.35-.34-.53-.5-.18-.16-.16-.55-.34-.71-.18-.16-.54-.12-.72-.28-.18-.16-.3-.38-.48-.55-.18-.17-.48-.2-.65-.36-.17-.17-.29-.39-.47-.56-.17-.17-.28-.41-.45-.58-.17-.17-.22-.46-.39-.63-.17-.17-.42-.27-.58-.44-.16-.18-.33-.35-.49-.53-.16-.18-.32-.36-.48-.54-.16-.18-.21-.46-.36-.64-.16-.18-.59-.13-.74-.32-.15-.18,.03-.65-.12-.84-.15-.19-.57-.16-.72-.35-.15-.19,.01-.62-.13-.81-.15-.19-.38-.31-.52-.51-.14-.19-.38-.32-.52-.51-.14-.2-.08-.53-.22-.73-.14-.2-.34-.34-.48-.54-.14-.2-.48-.25-.62-.46-.13-.2-.12-.49-.25-.7-.13-.2-.5-.25-.63-.46-.13-.2,.13-.64,0-.85-.12-.21-.64-.18-.77-.39-.12-.21-.09-.5-.21-.71-.12-.21-.17-.46-.28-.67-.11-.21-.17-.45-.28-.67-.11-.21-.36-.35-.47-.57s.03-.55-.08-.77-.54-.27-.64-.49c-.1-.22-.02-.52-.12-.74s-.38-.36-.47-.58c-.09-.22-.21-.44-.3-.66-.09-.22,.14-.57,.05-.8-.09-.22-.55-.3-.64-.53s.05-.53-.03-.76c-.08-.23,.02-.52-.05-.74s-.46-.36-.53-.58-.08-.48-.15-.71c-.07-.23-.15-.46-.22-.69-.07-.23-.23-.44-.3-.67-.06-.23-.1-.47-.16-.71-.06-.23,.29-.56,.23-.8-.05-.23-.15-.46-.2-.69-.05-.23-.19-.45-.24-.69-.05-.24-.27-.44-.31-.67-.04-.24,0-.49-.03-.73-.04-.24-.08-.47-.11-.71-.04-.24,.07-.49,.04-.73-.03-.24-.38-.44-.41-.68-.03-.24,.17-.5,.14-.74-.02-.24-.35-.45-.37-.69-.02-.24-.05-.48-.06-.72-.02-.24,.42-.51,.41-.75-.01-.24-.27-.47-.28-.71,0-.24,0-.48,0-.72,0-.24-.26-.48-.26-.72,0-.24,.07-.48,.07-.73,0-.24,.47-.47,.48-.71,0-.24-.02-.48,0-.72,.01-.24-.28-.49-.26-.73,.01-.24,.06-.48,.08-.72,.02-.24-.11-.49-.09-.73,.02-.24,.51-.43,.54-.67,.03-.24-.15-.5-.12-.74,.03-.24,.02-.48,.05-.72,.03-.24-.1-.5-.06-.74,.04-.24,.11-.47,.15-.7,.04-.24,0-.49,.04-.73,.05-.24,.45-.4,.5-.63,.05-.23,.18-.45,.23-.68,.05-.23,.12-.46,.18-.69,.06-.23-.13-.53-.07-.76,.06-.23-.07-.52,0-.75,.06-.23,.06-.48,.13-.71,.07-.23,.21-.44,.29-.67,.07-.23,.2-.44,.27-.67,.08-.23,.44-.36,.52-.58s-.05-.53,.03-.75c.08-.22,.23-.42,.32-.65,.09-.22,.34-.38,.43-.6,.09-.22-.24-.62-.14-.84,.09-.22,.62-.26,.71-.48,.1-.22-.21-.62-.11-.84,.1-.22,.65-.22,.76-.44,.1-.22,.08-.49,.19-.7,.11-.21,.24-.41,.35-.63,.11-.21,.17-.45,.28-.66,.11-.21-.1-.6,.02-.81,.12-.21,.33-.37,.45-.57,.12-.21,.59-.21,.71-.42,.12-.21,.15-.46,.28-.67,.12-.2,.29-.38,.42-.58,.13-.2-.11-.64,.02-.84,.13-.2,.62-.16,.75-.36,.13-.2,0-.58,.13-.78,.14-.2,.41-.3,.55-.49,.14-.19,.27-.4,.41-.59,.14-.19,.25-.41,.39-.6,.14-.19,.34-.34,.49-.53,.15-.19,.29-.38,.44-.56,.15-.19,.36-.32,.51-.51,.15-.18,.38-.31,.53-.49,.15-.18,.06-.58,.21-.76,.16-.18,.52-.18,.68-.36,.16-.18,.42-.26,.58-.44,.16-.18,.32-.35,.49-.52,.16-.17,.19-.47,.36-.64,.17-.17,.31-.36,.48-.53,.17-.17,.21-.46,.38-.63,.17-.17,.39-.29,.56-.46,.17-.17,.46-.21,.63-.37,.17-.16,.27-.41,.45-.58,.18-.16,.38-.29,.56-.45,.18-.16,.45-.21,.63-.37,.18-.16,.22-.48,.4-.63,.18-.15,.52-.12,.71-.27,.18-.15,.2-.52,.38-.67,.19-.15,.58-.04,.77-.19,.19-.15,.23-.48,.42-.63,.19-.15,.39-.28,.58-.43,.19-.14,.24-.48,.44-.62,.19-.14,.61,.03,.81-.11,.2-.14,.18-.58,.37-.72,.2-.14,.65,.11,.85-.03,.2-.13,.22-.53,.42-.66,.2-.13,.41-.24,.61-.37,.2-.13,.36-.33,.56-.46,.2-.13,.35-.35,.55-.47,.2-.12,.67,.19,.88,.07,.21-.12,.3-.44,.5-.56,.21-.12,.34-.38,.55-.49,.21-.12,.51-.06,.72-.18,.21-.11,.38-.3,.59-.42,.21-.11,.45-.17,.66-.28,.21-.11,.48-.11,.69-.22,.21-.11,.43-.21,.64-.32,.21-.11,.39-.28,.61-.38,.22-.1,.32-.44,.54-.54,.22-.1,.63,.23,.85,.13,.22-.1,.42-.23,.64-.32,.22-.1,.33-.45,.55-.54,.22-.09,.41-.26,.63-.35,.22-.09,.5-.05,.72-.14,.22-.09,.36-.39,.59-.48,.22-.09,.45-.18,.67-.26,.22-.08,.62,.3,.84,.22,.23-.08,.28-.63,.51-.71,.23-.08,.5-.04,.72-.11,.23-.08,.43-.24,.66-.31,.23-.07,.57,.22,.8,.15,.23-.07,.36-.44,.59-.51,.23-.07,.46-.12,.7-.19,.23-.07,.48-.07,.71-.14,.23-.06,.42-.29,.65-.35,.23-.06,.48-.06,.71-.12,.23-.06,.5,0,.73-.05,.23-.06,.45-.19,.68-.25,.23-.05,.51,.09,.75,.04,.23-.05,.49,0,.72-.05,.23-.05,.49,0,.72-.05,.23-.05,.41-.4,.65-.45,.24-.04,.52,.2,.76,.16,.24-.04,.44-.29,.67-.33,.24-.04,.43-.36,.67-.4,.24-.04,.51,.14,.75,.11,.24-.03,.47-.07,.71-.1,.24-.03,.49,.02,.72,0,.24-.03,.45-.25,.69-.28,.24-.03,.49,.04,.73,.02,.24-.02,.48,0,.72-.02,.24-.02,.46-.31,.7-.33,.24-.02,.51,.37,.75,.36,.24-.02,.48-.06,.72-.07,.24-.01,.48,.09,.72,.08,.24-.01,.46-.38,.7-.39,.24,0,.48,.02,.72,0Z"/>
        <path class="cls-4" d="M219.07,58.55c-.01-.24-.19-.47-.2-.71-.01-.24,.33-.51,.31-.75-.02-.24-.08-.48-.1-.72-.02-.24,.11-.5,.09-.74-.03-.24-.05-.48-.08-.72-.03-.24-.32-.45-.35-.68-.03-.24-.07-.48-.11-.71-.04-.24-.04-.48-.08-.72-.04-.24-.36-.42-.41-.66-.04-.24,.36-.56,.31-.79-.05-.24-.14-.47-.19-.7-.05-.24-.36-.41-.41-.65-.05-.23-.08-.48-.13-.71-.06-.23-.04-.48-.1-.72-.06-.23-.33-.41-.39-.64-.06-.23,.03-.51-.03-.74-.07-.23,.02-.51-.05-.74-.07-.23-.03-.5-.1-.73-.07-.23-.33-.4-.41-.63-.08-.23-.21-.44-.29-.66-.08-.23-.09-.48-.17-.71s-.17-.45-.26-.68c-.09-.22-.01-.51-.1-.74-.09-.22-.22-.43-.31-.66-.09-.22-.38-.36-.47-.58-.1-.22-.3-.39-.4-.61s.03-.55-.07-.76-.48-.3-.58-.52c-.11-.22-.21-.43-.32-.64-.11-.21-.26-.41-.37-.62-.11-.21-.14-.47-.25-.68-.11-.21-.16-.46-.28-.67-.12-.21-.23-.42-.35-.63-.12-.21-.04-.54-.16-.74-.12-.21-.5-.26-.63-.47-.12-.21-.32-.36-.45-.57-.13-.2-.21-.43-.34-.63-.13-.2,.04-.6-.1-.8-.13-.2-.27-.4-.41-.6-.14-.2-.54-.21-.68-.41-.14-.2-.31-.37-.45-.56-.14-.2-.27-.4-.41-.59-.14-.19-.26-.4-.41-.59-.15-.19-.29-.38-.44-.57-.15-.19-.3-.38-.45-.56-.15-.19-.21-.45-.36-.63-.15-.19-.36-.32-.52-.51-.15-.18-.08-.22-.23-.4,.14,.2-.03,.28,.11,.48,.13,.2,.6,.18,.73,.38,.13,.2,.01,.56,.14,.77,.13,.2,.51,.24,.64,.45,.13,.2,.06,.53,.18,.74,.12,.21,.27,.4,.39,.6,.12,.21,.13,.48,.25,.69,.12,.21,.28,.39,.39,.6,.12,.21,.25,.41,.36,.62,.11,.21,.33,.37,.44,.58,.11,.21-.06,.57,.04,.78,.11,.21,.65,.22,.75,.43,.1,.22-.08,.57,.02,.79s.29,.39,.39,.61c.1,.22-.01,.53,.08,.75,.1,.22,.33,.38,.42,.6,.09,.22,.44,.34,.53,.56,.09,.22-.12,.56-.03,.78,.09,.22,.19,.44,.27,.66,.08,.22,.4,.37,.48,.59s.05,.49,.13,.72c.08,.23,0,.5,.08,.73,.07,.23,.27,.42,.34,.65,.07,.23-.09,.52-.02,.75,.07,.23,.42,.38,.48,.61,.06,.23-.03,.5,.03,.74,.06,.23,.09,.47,.15,.7,.06,.23,.33,.42,.38,.65,.05,.23,.1,.47,.15,.71,.05,.23-.26,.54-.21,.78,.05,.23,.49,.39,.54,.63,.04,.24-.25,.53-.21,.77,.04,.24,.39,.42,.43,.66,.04,.24,.08,.47,.11,.71,.03,.24-.17,.51-.14,.74,.03,.24,.14,.47,.16,.7,.03,.24,.27,.46,.3,.69,.02,.24-.02,.49,0,.72,.02,.24-.26,.5-.24,.74,.01,.24,.05,.48,.06,.72,.01,.24,.09,.48,.1,.71,0,.24-.03,.48-.02,.72,0,.24-.17,.48-.17,.72,0,.24,.41,.48,.4,.72,0,.24,.03,.48,.03,.72,0,.24-.03,.48-.04,.72,0,.24-.22,.47-.24,.71-.01,.24-.09,.47-.11,.71-.02,.24,.11,.49,.09,.73-.02,.24-.06,.48-.09,.71-.02,.24-.31,.45-.34,.69-.03,.24,.2,.5,.17,.74-.03,.24-.22,.45-.26,.69-.03,.24,.04,.49,0,.73-.04,.24-.05,.48-.09,.71-.04,.24-.19,.45-.23,.69-.04,.24,.05,.5,0,.73-.05,.23,.13,.52,.08,.75-.05,.23-.31,.42-.37,.66-.05,.23,.02,.5-.04,.73-.06,.23-.5,.37-.57,.6-.06,.23,.23,.56,.17,.79-.06,.23-.33,.4-.4,.63-.07,.23-.06,.48-.13,.71-.07,.23-.15,.45-.23,.68-.07,.23-.31,.4-.38,.63-.08,.23-.25,.42-.33,.64-.08,.23-.04,.49-.12,.72-.08,.22-.15,.45-.24,.68s-.13,.46-.22,.68c-.09,.22,0,.52-.09,.74-.09,.22-.08,.49-.18,.71-.1,.22-.36,.36-.46,.58-.1,.22-.04,.51-.14,.73s-.2,.44-.3,.65c-.1,.22-.65,.21-.76,.43-.11,.21-.22,.42-.33,.63-.11,.21,.03,.56-.08,.77-.11,.21-.41,.32-.53,.53-.12,.21-.12,.48-.23,.69-.12,.21-.13,.48-.25,.68-.12,.21-.23,.42-.35,.63-.12,.2-.56,.22-.68,.42-.13,.2,.18,.68,.05,.88-.13,.2-.69,.12-.82,.32-.13,.2-.15,.47-.28,.67-.13,.2-.17,.46-.31,.66-.14,.2-.3,.37-.44,.57-.14,.19-.29,.38-.43,.57-.14,.19-.32,.36-.46,.55-.14,.19-.34,.34-.49,.53-.15,.19-.31,.36-.46,.55-.15,.19,.01,.63-.14,.81-.15,.18-.46,.24-.61,.42-.15,.18-.44,.25-.6,.43-.16,.18-.12,.53-.28,.71-.16,.18-.3,.38-.46,.55-.16,.18-.48,.21-.65,.38-.16,.18-.46,.22-.63,.39-.16,.17-.35,.32-.51,.5-.17,.17-.08,.59-.25,.76-.17,.17-.3,.38-.47,.54-.17,.17-.6,.07-.77,.23-.17,.17-.06,.63-.24,.79-.17,.16-.31,.37-.49,.53-.18,.16-.67-.03-.85,.13-.18,.16-.15,.54-.33,.7-.18,.16-.36,.31-.54,.47-.18,.16-.48,.17-.66,.33-.18,.15-.12,.6-.31,.75-.18,.15-.53,.11-.71,.26-.19,.15-.48,.16-.67,.31-.19,.15-.16,.58-.35,.72-.19,.15-.57,.04-.76,.18-.19,.14-.31,.38-.5,.52-.19,.14-.25,.47-.45,.61-.19,.14-.46,.18-.66,.31-.2,.14-.3,.41-.5,.54-.2,.13-.45,.2-.65,.33-.2,.13-.52,.08-.72,.21-.2,.13-.46,.17-.66,.3-.2,.13-.4,.26-.6,.39-.2,.13-.4,.26-.6,.39-.2,.12-.44,.2-.64,.32-.21,.12-.3,.43-.51,.55-.21,.12-.36,.34-.57,.45-.21,.12-.39,.29-.59,.41-.21,.12-.66-.21-.87-.1-.21,.11-.23,.58-.44,.7-.21,.11-.57-.06-.78,.04-.21,.11-.42,.23-.63,.34-.21,.11-.34,.4-.55,.5-.21,.1-.51,.05-.72,.15-.22,.1-.38,.32-.59,.42-.22,.1-.49,.06-.71,.16-.22,.1-.29,.53-.51,.63-.22,.1-.62-.22-.84-.13-.22,.09-.41,.26-.63,.35-.22,.09-.29,.56-.51,.65-.22,.09-.64-.31-.86-.22-.22,.09-.24,.7-.47,.79-.22,.08-.59-.21-.81-.13-.22,.08-.47,.1-.7,.18-.22,.08-.35,.43-.58,.51-.23,.08-.43,.23-.65,.31-.23,.08-.49,.06-.71,.13-.23,.07-.43,.24-.66,.31-.23,.07-.55-.15-.78-.08-.23,.07-.47,.1-.7,.17-.23,.07-.37,.44-.6,.5-.23,.07-.55-.18-.78-.12-.23,.06-.42,.27-.65,.33-.23,.06-.43,.25-.66,.31-.23,.06-.43,.27-.66,.33-.23,.06-.5-.04-.74,.01-.23,.05-.43,.26-.67,.31-.23,.05-.48,.04-.72,.09-.23,.05-.47,.12-.7,.16-.23,.05-.52-.19-.76-.14-.23,.05-.49,0-.72,.04-.23,.04-.44,.27-.67,.31-.24,.04-.49-.05-.73-.02-.24,.04-.46,.17-.69,.21-.24,.04-.44,.29-.68,.32-.24,.03-.47,.11-.71,.14-.24,.03-.5-.12-.74-.09-.24,.03-.46,.19-.7,.22-.24,.03-.49-.02-.72,0-.24,.03-.47,.15-.7,.17-.24,.02-.49-.06-.73-.04-.24,.02-.5-.28-.74-.26-.24,.02-.48,.04-.71,.06-.24,.02-.47,.11-.71,.13-.24,.02-.48,.02-.72,.04-.24,.01-.47,.2-.71,.21-.24,.01-.48-.1-.72-.09-.24,0-.48-.11-.72-.11-.24,0-.47,.41-.71,.42s-.48-.19-.72-.19c-.24,0-.48,.23-.72,.23s-.49,.07-.73,.07c-.24,0-.48-.46-.72-.47-.24,0-.48-.1-.72-.1-.24,0-.49,.13-.73,.12-.24,0-.49,.05-.73,.04-.24-.01-.49,.1-.73,.09-.24-.01-.48-.03-.73-.04-.24-.02-.49,.04-.73,.02-.24-.02-.49,0-.73-.01-.24-.02-.47-.19-.71-.21-.24-.02-.47-.16-.71-.19-.24-.02-.49,.05-.73,.03-.24-.03-.45-.3-.69-.32-.24-.03-.48-.03-.72-.06-.24-.03-.53,.34-.77,.31-.24-.03-.47-.18-.71-.21-.24-.04-.49-.04-.73-.08-.24-.04-.43-.36-.67-.4-.24-.04-.47-.15-.7-.19-.24-.04-.49,.01-.73-.03-.24-.04-.54,.21-.77,.17-.24-.05-.43-.31-.67-.36-.24-.05-.46-.17-.7-.22-.24-.05-.51,.06-.75,0-.24-.05-.44-.27-.67-.32-.24-.06-.52,.07-.75,.01-.24-.06-.48-.09-.71-.15-.23-.06-.4-.37-.64-.43-.23-.06-.45-.18-.69-.24-.23-.06-.54,.14-.77,.07-.23-.07-.39-.4-.62-.47-.23-.07-.54,.12-.77,.05-.23-.07-.52,.02-.75-.05-.23-.07-.32-.58-.55-.65-.23-.08-.52,.03-.75-.05-.23-.08-.42-.27-.65-.35-.23-.08-.4-.31-.63-.4s-.49-.06-.72-.14c-.23-.08-.51-.02-.73-.11-.22-.09-.54,.07-.76-.02-.23-.08-.31-.55-.53-.64-.23-.08-.42-.26-.65-.34-.23-.08-.52,.03-.75-.05-.23-.08-.56,.16-.79,.08-.23-.07-.38-.4-.61-.47-.23-.07-.4-.34-.63-.41-.23-.07-.57,.23-.8,.16s-.35-.51-.59-.58c-.23-.07-.5,.01-.74-.05-.23-.06-.42-.31-.65-.37-.23-.06-.49-.06-.72-.11-.23-.06-.5,0-.73-.06-.23-.06-.5,.03-.74-.03-.23-.05-.45-.2-.68-.25-.24-.05-.43-.27-.67-.32-.24-.05-.51,.09-.75,.04-.24-.05-.44-.26-.68-.31-.24-.04-.55,.32-.78,.27-.24-.04-.43-.31-.67-.35-.24-.04-.44-.27-.68-.31-.24-.04-.5,.1-.74,.07-.24-.04-.51,.18-.75,.14-.24-.03-.47-.11-.71-.14s-.46-.18-.7-.21-.46-.18-.7-.21c-.24-.03-.51,.22-.75,.19-.24-.02-.45-.32-.69-.34-.24-.02-.48-.06-.72-.08-.24-.02-.46-.26-.7-.28-.24-.02-.5,.23-.74,.21-.24-.02-.49,.18-.73,.16s-.48,0-.72-.01c-.24-.01-.46-.52-.7-.53-.24,0-.49,.32-.73,.31-.24,0-.48-.09-.72-.09-.24,0-.48,.18-.72,.18-.24,0-.48-.18-.72-.18-.24,0-.48-.15-.72-.15-.24,0-.48,.26-.72,.26-.24,0-.49-.32-.73-.31-.24,0-.47,.4-.71,.41-.24,0-.48,0-.72,.02-.24,0-.49-.12-.73-.11-.24,.01-.5-.25-.74-.23-.24,.01-.46,.36-.7,.38-.24,.02-.49-.16-.73-.14-.24,.02-.49-.06-.73-.04-.24,.02-.46,.27-.7,.29-.24,.02-.51-.28-.75-.26-.24,.02-.45,.3-.69,.33-.24,.03-.49-.02-.73,0-.24,.03-.49-.02-.73,.01-.24,.03-.47,.15-.71,.18-.24,.03-.5-.1-.74-.07-.24,.03-.44,.34-.68,.38-.24,.04-.45,.25-.68,.29-.24,.04-.54-.34-.78-.3-.24,.04-.4,.51-.64,.55-.24,.04-.53-.25-.77-.21-.24,.04-.5-.04-.74,0-.24,.05-.38,.54-.62,.59-.24,.05-.46,.17-.69,.22-.24,.05-.54-.22-.78-.17s-.39,.45-.63,.5-.51-.08-.75-.02c-.23,.06-.43,.28-.66,.33-.23,.05-.54-.2-.77-.15-.23,.05-.51-.09-.74-.05-.23,.05-.38,.56-.61,.61-.24,.05-.53-.23-.77-.19-.24,.04-.49-.03-.73,.01-.24,.04-.42,.41-.65,.45-.24,.04-.5-.08-.74-.05-.24,.04-.46,.16-.7,.19-.24,.03-.48,.05-.72,.08-.24,.03-.51-.22-.75-.19-.24,.03-.46,.19-.7,.21-.24,.03-.47,.14-.71,.16-.24,.02-.49-.14-.73-.12-.24,.02-.45,.4-.69,.42-.24,.02-.5-.18-.74-.16-.24,.02-.49-.15-.73-.14-.24,.01-.47,.1-.71,.11-.24,.01-.46,.47-.7,.48-.24,0-.48-.02-.72-.01-.24,0-.49-.38-.73-.37-.24,0-.48,.09-.72,.09-.24,0-.48-.03-.72-.03s-.48-.13-.72-.13c-.24,0-.49,.39-.73,.39-.24,0-.47-.39-.71-.4-.24,0-.48-.02-.72-.03-.24,0-.5,.35-.74,.34-.24-.01-.49,.07-.73,.06-.24-.01-.48-.05-.72-.06-.24-.02-.47-.18-.71-.2-.24-.02-.49,.13-.73,.11-.24-.02-.48-.01-.72-.04-.24-.02-.45-.3-.69-.33-.24-.03-.45-.3-.69-.32-.24-.03-.49,.06-.73,.03-.24-.03-.53,.31-.77,.28-.24-.03-.46-.17-.7-.2-.24-.04-.48-.02-.72-.06-.24-.04-.49-.03-.72-.07-.24-.04-.45-.24-.68-.28-.24-.04-.4-.47-.63-.52-.24-.05-.52,.15-.75,.1-.24-.05-.5,.03-.73-.02-.23-.05-.5,.02-.73-.03-.23-.05-.46-.15-.69-.21-.23-.06-.47-.1-.71-.15-.23-.06-.38-.45-.61-.51-.23-.06-.53,.12-.76,.06-.23-.06-.47-.11-.7-.17-.23-.07-.45-.16-.68-.23-.23-.07-.38-.39-.61-.46-.23-.07-.48-.06-.71-.13-.23-.07-.49-.04-.72-.12-.23-.08-.52,.04-.75-.03-.23-.08-.42-.27-.64-.35-.23-.08-.41-.28-.64-.36-.23-.08-.47-.13-.69-.21-.22-.09-.33-.48-.55-.57-.22-.09-.64,.3-.86,.21-.22-.09-.33-.46-.55-.55-.22-.09-.43-.21-.65-.31-.22-.1-.41-.25-.63-.35-.22-.1-.39-.29-.61-.39-.22-.1-.63,.22-.85,.11-.22-.1-.44-.19-.66-.3-.22-.11-.44-.19-.66-.3-.21-.11-.27-.53-.48-.64-.21-.11-.5-.07-.72-.18-.21-.11-.44-.19-.66-.3-.21-.11-.45-.18-.66-.3-.21-.12-.41-.26-.61-.38-.21-.12-.46-.16-.67-.28-.21-.12-.33-.38-.54-.51-.21-.12-.25-.51-.45-.63-.2-.13-.41-.25-.61-.38-.2-.13-.62,.07-.82-.06-.2-.13-.31-.4-.51-.54-.2-.13-.56-.04-.75-.17-.2-.14-.14-.64-.33-.78-.2-.14-.61,.02-.8-.12-.19-.14-.26-.46-.45-.6-.19-.14-.28-.43-.47-.57-.19-.15-.47-.18-.66-.32-.19-.15-.38-.3-.56-.45-.19-.15-.5-.14-.69-.3-.18-.15-.45-.21-.63-.37-.18-.15-.04-.69-.22-.85-.18-.16-.51-.14-.69-.3-.18-.16-.26-.43-.43-.59-.18-.16-.58-.08-.75-.24-.17-.16-.22-.46-.4-.63-.17-.17-.25-.43-.42-.59-.17-.17-.6-.08-.77-.25-.17-.17-.08-.59-.24-.77-.17-.17-.49-.2-.65-.37-.16-.17-.09-.57-.25-.74-.16-.18-.35-.33-.51-.5-.16-.18-.62-.43-.78-.61,.14,.2,.37,.64,.51,.83,.14,.2,.29,.38,.43,.58,.14,.19,.48,.24,.62,.44,.14,.19,.14,.5,.29,.69,.15,.19,.21,.45,.35,.64,.15,.19,.2,.46,.36,.64,.15,.19,.53,.19,.68,.37,.15,.18,.16,.5,.31,.68,.16,.18,.48,.22,.64,.4,.16,.18,.41,.27,.57,.45,.16,.18,.11,.55,.27,.73,.16,.18,.24,.43,.41,.61,.17,.17,.7-.01,.87,.16,.17,.17-.02,.7,.15,.87,.17,.17,.45,.23,.63,.39,.17,.17,.46,.22,.63,.38,.18,.16,.24,.45,.42,.61,.18,.16,.55,.11,.73,.27,.18,.16,.25,.44,.43,.6,.18,.16,.36,.32,.54,.48,.18,.16,.35,.33,.53,.48,.19,.15,.31,.39,.49,.54,.19,.15,.31,.38,.5,.53,.19,.15,.38,.3,.57,.45,.19,.15,.53,.1,.72,.24,.19,.14,.28,.44,.47,.58,.19,.14,.63-.05,.82,.09,.2,.14,.19,.57,.39,.7,.2,.14,.56,.03,.76,.16,.2,.13,.28,.44,.49,.57,.2,.13,.49,.13,.69,.26,.2,.13,.33,.37,.54,.5,.2,.13,.5,.11,.7,.23,.2,.12,.25,.52,.46,.64,.21,.12,.45,.18,.66,.3,.21,.12,.34,.38,.55,.5,.21,.12,.56-.02,.77,.1,.21,.11,.36,.34,.57,.46,.21,.11,.52,.04,.73,.16,.21,.11,.39,.29,.61,.39,.21,.11,.3,.47,.52,.58,.22,.11,.53,.02,.74,.12,.22,.1,.46,.14,.68,.24,.22,.1,.33,.44,.55,.53,.22,.1,.6-.17,.82-.08,.22,.1,.32,.47,.54,.56,.22,.09,.4,.3,.62,.39,.22,.09,.62-.26,.85-.17,.22,.09,.43,.21,.66,.29,.22,.09,.29,.6,.51,.68,.23,.08,.58-.2,.81-.11,.23,.08,.45,.16,.68,.24,.23,.08,.43,.24,.65,.31,.23,.08,.48,.07,.71,.14,.23,.07,.49,.04,.72,.11,.23,.07,.45,.16,.68,.23,.23,.07,.47,.11,.7,.17,.23,.07,.41,.3,.64,.37,.23,.06,.5,0,.73,.06,.23,.06,.46,.12,.7,.18,.23,.06,.48,.04,.72,.09,.23,.06,.34,.65,.58,.7,.23,.05,.55-.23,.78-.18,.23,.05,.5-.04,.73,.01,.24,.05,.48,.05,.71,.09,.24,.05,.47,.09,.71,.13,.24,.04,.45,.18,.69,.22,.24,.04,.47,.07,.71,.11,.24,.04,.41,.45,.65,.49,.24,.04,.49-.04,.73,0,.24,.03,.5-.11,.74-.08,.24,.03,.47,.11,.71,.14,.24,.03,.47,.1,.71,.13,.24,.03,.45,.29,.69,.31,.24,.02,.52-.43,.76-.41,.24,.02,.44,.45,.68,.47,.24,.02,.49-.08,.73-.07,.24,.02,.49-.11,.73-.1,.24,.01,.49-.13,.73-.12,.24,.01,.46,.38,.7,.39,.24,0,.49-.16,.73-.15,.24,0,.48,.32,.72,.32,.24,0,.48-.05,.73-.05,.24,0,.48-.29,.73-.29s.48,.14,.72,.14c.24,0,.48-.24,.72-.24,.24,0,.49,.5,.73,.49,.24,0,.47-.43,.71-.44,.24,0,.49,.11,.73,.1,.24-.01,.48-.12,.71-.13,.24-.01,.5,.21,.74,.19,.24-.02,.47-.15,.71-.17,.24-.02,.45-.34,.69-.36,.24-.02,.53,.47,.77,.45,.24-.02,.45-.29,.69-.31,.24-.03,.49,.07,.73,.04,.24-.03,.5,.08,.74,.05,.24-.03,.48-.09,.71-.12,.24-.03,.43-.37,.67-.41,.24-.04,.45-.23,.69-.27,.24-.04,.48-.02,.72-.06,.24-.04,.47-.09,.7-.14,.24-.04,.49,0,.72-.04,.24-.05,.54,.22,.77,.17,.23-.05,.4-.42,.64-.47,.23-.05,.45-.18,.68-.23s.56,.3,.79,.24c.23-.06,.42-.33,.65-.38,.23-.05,.42-.33,.65-.38s.48-.05,.72-.1c.24-.05,.55,.28,.79,.23,.24-.05,.39-.51,.63-.55,.24-.05,.51,.12,.75,.08,.24-.04,.42-.41,.65-.45,.24-.04,.55,.37,.79,.33,.24-.04,.42-.44,.65-.48,.24-.04,.48-.06,.72-.1s.52,.22,.76,.18c.24-.03,.46-.16,.7-.19,.24-.03,.45-.28,.69-.31,.24-.03,.53,.4,.77,.37s.45-.25,.69-.28c.24-.03,.45-.36,.69-.39,.24-.02,.49,.07,.73,.04,.24-.02,.51,.32,.75,.3,.24-.02,.47-.12,.71-.14,.24-.02,.46-.26,.7-.28,.24-.02,.49,.15,.73,.14,.24-.01,.49,.12,.73,.11,.24-.01,.46-.45,.7-.46s.49,.19,.73,.18c.24,0,.48-.03,.72-.03,.24,0,.48-.12,.72-.13s.48-.03,.72-.03c.24,0,.48,.17,.72,.17,.24,0,.48,.03,.72,.03,.24,0,.48,.14,.72,.15s.48-.12,.72-.11c.24,0,.49-.18,.73-.17s.49-.06,.73-.05c.24,.01,.47,.24,.71,.26,.24,.01,.47,.2,.71,.22,.24,.02,.51-.41,.75-.39,.24,.02,.47,.21,.71,.23,.24,.02,.48,.04,.72,.07,.24,.02,.46,.23,.7,.25,.24,.02,.51-.22,.75-.2,.24,.03,.44,.41,.68,.44,.24,.03,.49-.06,.73-.03,.24,.03,.49-.01,.73,.02,.24,.03,.51-.15,.75-.11,.24,.04,.47,.13,.71,.17,.24,.04,.41,.47,.65,.51,.24,.04,.51-.12,.75-.08,.24,.04,.51-.1,.75-.06,.24,.05,.42,.38,.65,.42,.24,.05,.55-.26,.78-.21,.24,.05,.41,.4,.64,.46,.24,.05,.43,.29,.66,.34,.23,.05,.48,.05,.72,.11,.23,.06,.45,.18,.68,.24,.23,.06,.5-.03,.73,.04,.23,.06,.45,.19,.68,.25,.23,.06,.57-.24,.8-.18,.23,.07,.41,.33,.64,.4s.46,.16,.69,.23c.23,.07,.48,.09,.71,.16s.44,.2,.67,.27c.23,.08,.48,.07,.71,.15,.23,.08,.44,.2,.67,.28,.23,.08,.54-.09,.77,0s.39,.34,.62,.42c.23,.08,.36,.4,.59,.48,.23,.09,.41,.28,.64,.37,.23,.08,.64-.33,.87-.25,.23,.08,.43,.23,.66,.31,.23,.08,.45,.18,.68,.26,.23,.08,.42,.26,.65,.33,.23,.08,.45,.17,.68,.24,.23,.07,.38,.4,.61,.47,.23,.07,.55-.14,.78-.08,.23,.07,.46,.15,.69,.22,.23,.07,.48,.07,.72,.13,.23,.06,.48,.07,.71,.14,.23,.06,.39,.41,.63,.47,.23,.06,.5,.01,.73,.07,.23,.06,.53-.14,.77-.08,.24,.06,.45,.19,.69,.24,.24,.05,.45,.22,.68,.27,.24,.05,.48,.05,.72,.1,.24,.05,.43,.29,.67,.34,.24,.05,.49,.01,.73,.05,.24,.04,.51-.13,.75-.09,.24,.04,.43,.37,.67,.41,.24,.04,.51-.15,.75-.12,.24,.04,.44,.33,.68,.37,.24,.04,.48,.1,.72,.14,.24,.03,.51-.14,.75-.1,.24,.03,.45,.28,.69,.31,.24,.03,.52-.25,.76-.22,.24,.03,.47,.17,.71,.19,.24,.02,.49-.02,.73,0,.24,.02,.45,.42,.69,.44,.24,.02,.48,.04,.73,.06,.24,.02,.5-.18,.74-.16,.24,.02,.49-.1,.73-.09,.24,.01,.47,.33,.71,.34,.24,.01,.5-.41,.74-.4,.24,0,.47,.35,.72,.36,.24,0,.48,.09,.73,.1s.49,.04,.73,.05c.24,0,.49-.49,.73-.49s.48,.36,.72,.36c.24,0,.47-.31,.71-.31,.24,0,.48-.08,.71-.08,.24,0,.48,.15,.72,.14,.24,0,.49,.3,.73,.29,.24-.01,.46-.43,.7-.44,.24-.01,.48,.06,.72,.04,.24-.02,.5,.34,.74,.32,.24-.02,.45-.38,.69-.4,.24-.02,.47-.07,.71-.09,.24-.02,.46-.17,.7-.19,.24-.02,.49,.1,.73,.08,.24-.03,.49,.03,.72,0,.24-.03,.45-.22,.69-.25,.24-.03,.49,.08,.73,.05,.24-.03,.49,.06,.73,.03,.24-.03,.45-.21,.69-.25,.24-.04,.5,.11,.74,.07,.24-.04,.46-.15,.7-.2,.24-.04,.47-.1,.7-.14,.24-.04,.46-.15,.69-.2,.24-.05,.51,.11,.75,.06,.23-.05,.46-.13,.7-.18,.23-.05,.47-.09,.7-.15,.23-.05,.41-.37,.64-.43,.23-.05,.48-.07,.71-.12,.23-.06,.41-.32,.64-.38,.23-.06,.5,.03,.73-.04,.23-.06,.52,.09,.75,.03,.23-.06,.37-.45,.6-.51,.23-.07,.44-.19,.67-.25,.23-.07,.45-.14,.68-.21,.23-.07,.53,.11,.76,.04,.23-.07,.43-.24,.65-.31,.23-.07,.54,.12,.77,.04,.23-.08,.39-.33,.62-.41,.23-.08,.39-.33,.61-.41,.23-.08,.52,.02,.74-.06,.22-.08,.49-.05,.72-.14,.22-.09,.39-.32,.61-.41,.22-.09,.4-.3,.62-.39,.22-.09,.62,.25,.84,.16,.22-.09,.32-.48,.54-.58,.22-.09,.52-.01,.74-.11,.22-.1,.39-.3,.61-.4,.22-.1,.35-.39,.57-.49,.22-.1,.49-.08,.71-.18,.22-.1,.57,.08,.79-.02,.22-.1,.41-.25,.63-.36,.21-.11,.38-.32,.59-.43,.21-.11,.43-.22,.64-.33,.21-.11,.32-.42,.53-.54,.21-.11,.44-.19,.65-.3,.21-.12,.37-.31,.58-.43,.21-.12,.38-.3,.59-.42,.21-.12,.58,.04,.78-.08,.21-.12,.48-.13,.69-.25,.2-.12,.21-.57,.42-.69,.2-.13,.38-.29,.59-.41,.2-.13,.39-.28,.59-.41,.2-.13,.65,.12,.85-.02,.2-.13,.19-.58,.39-.71,.2-.14,.55-.05,.74-.19,.2-.14,.25-.47,.45-.61,.19-.14,.31-.38,.51-.52,.19-.14,.67,.1,.86-.04,.19-.14,.12-.64,.31-.78,.19-.15,.58-.04,.77-.18,.19-.15,.17-.56,.35-.71,.19-.15,.5-.14,.69-.29,.19-.15,.39-.28,.57-.43,.18-.15,.41-.26,.59-.42,.18-.16,.29-.4,.47-.56,.18-.16,.29-.4,.46-.56,.18-.16,.62-.03,.8-.19,.18-.16,.11-.59,.28-.75,.17-.16,.43-.24,.6-.41,.17-.17,.22-.46,.39-.63,.17-.17,.45-.23,.62-.4,.17-.17,.16-.51,.33-.68,.17-.17,.63-.06,.79-.24,.16-.17,.26-.42,.42-.59,.16-.18,.37-.31,.53-.49,.16-.18,.09-.56,.24-.74,.16-.18,.58-.13,.74-.31,.16-.18,.21-.45,.37-.63,.15-.18,.14-.5,.29-.69,.15-.19,.32-.35,.47-.54,.15-.19,.56-.17,.7-.36,.15-.19,.25-.41,.39-.6,.14-.19,.14-.49,.28-.68,.14-.19,.36-.33,.5-.52,.14-.19,.18-.46,.32-.65,.14-.2,.47-.26,.6-.46,.13-.2-.05-.61,.08-.81,.13-.2,.52-.23,.65-.43,.13-.2,.25-.41,.38-.61,.13-.2-.05-.59,.07-.8,.12-.2,.35-.35,.47-.55,.12-.21,.57-.22,.69-.43,.12-.21,.18-.45,.29-.66,.12-.21,.15-.46,.27-.67,.11-.21,.04-.52,.16-.73,.11-.21,.11-.48,.21-.69,.11-.21,.5-.29,.6-.5,.1-.22,.36-.36,.47-.57,.1-.22,.02-.52,.11-.74,.1-.22,.09-.48,.18-.7,.1-.22,.03-.5,.12-.73,.09-.22,.4-.35,.49-.57,.09-.22,.04-.5,.12-.72,.09-.22,.4-.36,.48-.58,.08-.22,.1-.47,.18-.7,.08-.23,.35-.38,.43-.61,.08-.23-.31-.6-.23-.83,.07-.23,.54-.33,.61-.56,.07-.23,.12-.46,.19-.69,.07-.23-.02-.5,.05-.73,.06-.23,.09-.47,.15-.7,.06-.23,.07-.47,.13-.7,.06-.23,.08-.47,.14-.7,.05-.23,.22-.44,.27-.67,.05-.23-.06-.5-.01-.73,.05-.23,.06-.47,.1-.71,.04-.23,.08-.47,.12-.7,.04-.24,.21-.45,.24-.68,.04-.24,.43-.42,.46-.66,.03-.24-.14-.5-.11-.74,.03-.24,.16-.46,.19-.7,.03-.24-.27-.51-.25-.75,.02-.24,.15-.46,.17-.7,.02-.24-.12-.49-.1-.72,.02-.24,.51-.45,.52-.69,.01-.24-.3-.49-.29-.73,0-.24,.33-.47,.33-.71,0-.24-.13-.48-.12-.72,0-.24-.12-.48-.12-.72,0-.24-.1-.48-.1-.72,0-.24-.07-.47-.08-.71s.1-.48,.09-.72Z"/>
      </g>
      <g>
        <g>
          <path class="cls-6" d="M208.5,16.97c-.24-.07-.26-.13-.47-.2-.24-.08-.56,.1-.77,.01-.24-.09-.25-.65-.44-.75-.23-.11-.64,.14-.82,.02-.22-.14-.28-.46-.42-.62-.18-.19-.25-.39-.32-.59-.08-.22-.33-.45-.3-.69,.03-.21,.5-.29,.62-.52,.09-.19-.21-.63-.06-.84,.12-.18,.28-.38,.43-.57,.14-.17,.32-.34,.48-.52,.15-.17,.37-.29,.53-.47,.15-.17,.51-.15,.68-.32,.16-.16,.2-.44,.37-.61,.16-.16,.18-.47,.35-.64,.16-.16,.57-.09,.74-.26,.16-.16,.29-.37,.45-.54,.16-.17,.21-.45,.38-.62,.16-.17,.52-.43,.69-.6-.25,.06-.69,.04-.92,.09-.25,.05-.47,.16-.7,.2-.26,.04-.47,.33-.7,.34-.26,.02-.52-.07-.75-.08-.27-.01-.44-.35-.66-.4-.26-.07-.58,.15-.77,.02-.2-.14-.27-.41-.4-.62-.12-.19,0-.45-.06-.7-.05-.22-.3-.4-.31-.66-.01-.22,.11-.45,.12-.71,.01-.23-.2-.49-.16-.74,.03-.23,.08-.47,.12-.72,.04-.23,.11-.47,.16-.72,.05-.23,.27-.43,.33-.67,.06-.23,.13-.46,.19-.7,.06-.23,.09-.47,.16-.72,.06-.23,.08-.56,.15-.81-.17,.18-.23,.58-.39,.75-.17,.18-.62,.09-.79,.26-.18,.18-.33,.37-.49,.54-.18,.18-.29,.42-.46,.58-.19,.17-.24,.48-.42,.64-.19,.17-.51,.17-.69,.32-.2,.16-.34,.39-.53,.52-.22,.15-.33,.47-.53,.58-.24,.13-.66-.27-.88-.2-.25,.08-.41,.28-.64,.27-.25,0-.57,.21-.79,.1-.21-.1-.12-.61-.31-.8-.16-.16-.68-.04-.83-.26-.12-.19,.17-.63,.05-.87-.1-.2-.57-.25-.67-.49-.09-.21-.22-.43-.31-.68-.08-.22,.02-.47-.06-.71-.06,.23-.22,.38-.28,.6-.06,.23,.18,.54,.12,.76-.06,.23-.42,.38-.47,.6-.06,.23,.17,.54,.11,.76-.06,.23-.38,.39-.44,.61-.06,.23-.17,.45-.23,.67-.07,.23,.04,.51-.03,.72-.07,.23-.41,.37-.48,.59-.08,.24-.21,.43-.29,.64-.09,.24-.05,.49-.14,.69-.11,.23-.16,.45-.28,.63-.14,.21-.15,.54-.31,.67-.19,.15-.47,.22-.7,.26-.21,.04-.4-.26-.65-.32-.2-.05-.53,.21-.77,.1-.19-.09-.28-.41-.49-.55-.18-.12-.46-.13-.65-.28-.18-.13-.35-.29-.54-.46-.17-.14-.16-.14-.35-.31,.08,.24,.09,.25,.17,.48,.08,.24-.13,.57-.06,.8,.08,.24,.57,.36,.63,.58,.07,.25-.16,.57-.1,.8,.06,.25,0,.51,.05,.74,.04,.25,.2,.47,.22,.71,.02,.25,.33,.51,.32,.75-.01,.25-.25,.49-.3,.73-.05,.24-.15,.47-.24,.7-.08,.22-.14,.47-.27,.69-.11,.21-.41,.3-.56,.51-.14,.19-.38,.3-.54,.49-.15,.18-.26,.39-.44,.58-.16,.17-.21,.46-.39,.64-.17,.17-.47,.2-.66,.38-.18,.16-.24,.5-.43,.67,.25,.02,.52,.04,.75,.09,.24,.06,.51,.04,.73,.13,.23,.09,.39,.33,.59,.45,.2,.13,.22,.46,.39,.62,.17,.17,.64,.07,.78,.27,.14,.19,.21,.46,.31,.68,.1,.21,.27,.43,.34,.66,.07,.22,.02,.5,.06,.74,.04,.23-.14,.49-.13,.74,.01,.23,.12,.47,.11,.72,0,.23,.17,.5,.14,.74-.03,.23-.24,.45-.29,.69-.04,.23-.06,.47-.12,.71-.06,.23-.4,.38-.47,.61-.07,.23,0,.49-.09,.72-.08,.22-.17,.44-.27,.67-.09,.22-.16,.45-.26,.67-.1,.22,.11,.58,0,.8-.1,.21-.46,.31-.57,.53-.11,.21-.14,.47-.26,.68,.12-.21,.37-.34,.49-.54,.13-.21,.03-.56,.16-.75,.13-.21,.35-.35,.49-.55,.14-.2,.07-.56,.22-.75,.15-.2,.53-.21,.68-.39,.16-.19,.12-.55,.28-.73,.17-.18,.32-.39,.49-.55,.18-.17,.68,0,.85-.15,.19-.16,.17-.56,.35-.7,.2-.15,.31-.44,.5-.57,.21-.14,.45-.24,.66-.35,.22-.12,.62,.17,.84,.08,.23-.09,.36-.46,.58-.52,.24-.06,.53,.27,.77,.25,.24-.02,.47-.43,.71-.41,.24,.02,.54-.05,.77,.02,.23,.06,.37,.42,.59,.53,.21,.1,.49,.13,.68,.28,.19,.14,.29,.4,.46,.58,.16,.17,.39,.53,.54,.73,.05-.25,.31-.64,.36-.88,.05-.25-.29-.58-.23-.81,.06-.25,.1-.5,.16-.73,.07-.25,.07-.52,.15-.74,.09-.25,.47-.37,.57-.58,.1-.24-.05-.6,.07-.81,.13-.22,.61-.19,.76-.38,.16-.2,.24-.42,.42-.59,.18-.16,.43-.2,.63-.34,.2-.13,.35-.31,.58-.42,.21-.1,.29-.53,.53-.63,.22-.08,.56,.12,.8,.04,.22-.07,.4-.35,.65-.41,.23-.06,.56,.24,.8,.18,.23-.05,.45-.18,.7-.24,.23-.05,.24-.28,.49-.33Z"/>
          <path class="cls-6" d="M193,45.94c.16-.19,.22-.18,.37-.35,.16-.19,.46-.23,.61-.39,.18-.18,.23-.45,.4-.59,.19-.17,.48-.15,.66-.27,.22-.15,.37-.24,.56-.31,.24-.1,.36-.12,.58-.11,.23,.01,.42-.1,.63,.03,.18,.11,.32,.26,.5,.45,.14,.16,.2,.38,.34,.6,.12,.18,.49,.22,.61,.44,.11,.19,.24,.39,.35,.61,.1,.2-.06,.53,.05,.75,.1,.2,.45,.3,.55,.52,.09,.21,.08,.47,.18,.69,.09,.21,.35,.35,.44,.57,.09,.21-.06,.53,.04,.75,.09,.21,.47,.3,.57,.52,.09,.21,.21,.42,.31,.64,.09,.21-.03,.65,.07,.87,.04-.25,.2-.58,.24-.81,.05-.25,.15-.47,.21-.7,.06-.25-.15-.56-.08-.78,.08-.25,.41-.38,.5-.59,.11-.24,.19-.44,.33-.62,.16-.21,.29-.36,.49-.48,.2-.13,.32-.58,.57-.62,.22-.04,.53,.09,.79,.13,.22,.04,.48,.09,.73,.18,.21,.08,.29,.5,.53,.62,.21,.1,.52,0,.75,.13,.2,.11,.43,.22,.64,.35,.2,.13,.35,.33,.56,.48,.19,.13,.55,.05,.76,.2,.19,.14,.31,.4,.51,.55,.19,.14,.2,.53,.4,.69,.19,.15,.38-.02,.57,.14-.11-.23-.33-.18-.42-.4-.1-.23,.19-.63,.1-.85-.1-.23-.56-.31-.65-.53-.1-.24,.1-.58,.01-.8-.09-.24,0-.53-.07-.75-.08-.24-.49-.37-.56-.59-.07-.25-.18-.48-.23-.71-.06-.26,.25-.55,.23-.78-.03-.27-.36-.5-.34-.72,.02-.27,.09-.54,.18-.75,.1-.23,.19-.55,.37-.72,.17-.15,.48-.22,.73-.32,.21-.09,.5,.02,.76-.03,.22-.04,.45-.09,.71-.11,.23-.02,.47,.09,.72,.09,.23,0,.49-.37,.74-.36,.23,.01,.71,.37,.96,.39-.19-.15-.52-.54-.7-.68-.19-.15-.64,.05-.82-.09-.19-.15-.3-.39-.49-.52-.19-.15-.17-.57-.35-.7-.19-.15-.42-.23-.6-.37-.19-.15-.56-.06-.74-.2-.19-.15-.29-.41-.47-.55-.19-.15-.43-.23-.6-.37-.19-.16-.19-.51-.35-.66-.18-.17-.33-.34-.48-.5-.17-.19-.46-.24-.58-.42-.14-.21-.46-.37-.52-.57-.07-.23-.09-.58-.04-.81,.04-.21,.31-.42,.46-.63,.12-.17,.2-.46,.39-.63,.16-.14,.43-.21,.64-.35,.18-.12,.32-.35,.54-.47,.19-.11,.54,.02,.76-.09,.2-.1,.37-.25,.59-.36-.26-.01-.5,.2-.74,.19-.26-.02-.49-.25-.73-.27-.26-.02-.48-.2-.72-.22-.26-.03-.55,.29-.78,.26-.26-.04-.52-.03-.76-.09-.25-.06-.44-.37-.66-.44-.24-.08-.48-.15-.7-.25-.23-.11-.32-.42-.52-.56-.2-.14-.44-.2-.62-.37-.17-.16-.46-.23-.62-.43-.15-.18-.06-.54-.2-.75-.13-.2-.23-.4-.35-.63-.11-.21-.56-.26-.66-.5-.1-.21,.13-.58,.04-.82-.09-.22-.12-.47-.21-.71-.08-.22-.4-.28-.49-.52-.12,.22-.15,.4-.28,.59-.14,.2-.42,.29-.59,.46-.17,.18-.35,.32-.55,.46-.2,.14-.3,.47-.52,.57-.22,.1-.5,.12-.73,.18-.23,.05-.5-.12-.75-.11-.23,.01-.46,.02-.71-.01-.23-.02-.52,.2-.76,.15-.23-.05-.4-.35-.64-.43-.22-.08-.54,.05-.77-.05-.21-.1-.39-.31-.61-.43-.21-.11-.41-.25-.62-.38-.2-.13-.26-.46-.46-.61-.19-.14-.61,0-.8-.15-.18-.15-.22-.48-.4-.65-.18-.16-.26-.42-.43-.59-.17-.16-.48-.19-.65-.37-.16-.17-.22-.45-.38-.63-.16-.18-.59-.13-.75-.32-.15-.18-.26-.42-.41-.61,.15,.19,.65,.12,.79,.31,.15,.2,.25,.43,.39,.62,.14,.2,.28,.41,.41,.61,.13,.21-.15,.66-.03,.87,.12,.21,.5,.27,.61,.48,.12,.22,.4,.35,.5,.57,.11,.22,.21,.45,.3,.67,.09,.23-.08,.56,0,.78,.08,.23,.23,.44,.29,.66,.07,.24,.26,.45,.31,.68,.05,.24-.21,.53-.19,.76,.02,.25,.16,.48,.16,.71,0,.25-.29,.45-.32,.68-.03,.24,0,.46-.06,.69-.07,.24,.14,.57,.04,.78-.11,.22-.41,.32-.56,.51-.15,.19-.38,.27-.56,.43-.18,.15-.17,.57-.38,.7-.2,.12-.43,.27-.66,.36-.22,.09-.62-.03-.86,.03,.22,.14,.4,.46,.6,.59,.21,.14,.38,.32,.58,.46,.21,.15,.71-.11,.9,.04,.2,.16,.19,.57,.37,.73,.19,.17,.48,.23,.65,.4,.18,.19,.45,.3,.6,.49,.16,.2-.11,.66,.01,.87,.12,.22,.22,.4,.3,.63,.08,.23,.34,.39,.39,.63,.05,.23,.15,.47,.16,.72,.02,.23-.09,.48-.09,.74,0,.24-.2,.46-.22,.72-.02,.23,0,.47-.04,.73-.03,.23,.19,.51,.15,.76-.04,.24-.26,.45-.3,.7-.04,.24,.15,.32,.1,.57Z"/>
          <path class="cls-6" d="M173.86,35.09c.08-.23,.02-.3,.09-.51,.08-.24,.35-.41,.41-.62,.07-.24,0-.51,.04-.72,.05-.25,.07-.49,.08-.7,.02-.26,.06-.51,.03-.72-.04-.26-.04-.57-.17-.75-.13-.19-.36-.44-.58-.56-.19-.1-.54,.14-.79,.09-.21-.04-.42-.14-.68-.15-.22-.01-.45-.06-.7-.06-.22,0-.45,.15-.69,.17-.22,.02-.49-.3-.73-.27-.22,.02-.45,.17-.69,.2-.23,.03-.43,.25-.67,.28-.23,.03-.48-.11-.72-.08-.23,.03-.48-.13-.72-.1-.23,.03-.45,.16-.68,.19-.23,.03-.41,.49-.65,.52-.23,.03-.73-.14-.97-.11,.2-.16,.69-.31,.87-.47,.19-.17,.35-.37,.52-.53,.18-.18,.49-.25,.64-.42,.17-.2,.27-.47,.4-.65,.15-.22-.05-.6,.04-.81,.1-.24,.56-.4,.57-.63,.01-.24-.35-.45-.45-.69-.08-.21-.31-.3-.48-.5-.14-.17,0-.64-.21-.81-.17-.14-.43-.24-.65-.38-.19-.12-.48-.12-.7-.25-.2-.11-.29-.48-.52-.59-.21-.1-.44-.2-.68-.3-.21-.1-.44-.2-.67-.3-.22-.09-.55,.06-.78-.04-.22-.09-.35-.43-.59-.52-.22-.09-.51,.05-.75-.04,.25-.03,.5,.2,.73,.17,.25-.03,.47-.27,.71-.3,.25-.03,.46-.29,.69-.33,.25-.04,.47-.16,.71-.2,.25-.04,.53,.13,.76,.09,.25-.05,.45-.26,.67-.32,.25-.07,.47-.13,.69-.21,.25-.08,.57,.07,.77-.02,.24-.11,.39-.34,.57-.47,.22-.16,.46-.25,.59-.43,.15-.2,.2-.45,.25-.69,.05-.22-.05-.45-.09-.71-.03-.22,.14-.51,.05-.76-.08-.21-.22-.43-.34-.66-.1-.2-.47-.28-.6-.5-.12-.2-.12-.48-.27-.69-.13-.2-.31-.48-.46-.69,.22,.09,.6,.05,.82,.13,.22,.09,.4,.27,.62,.36,.22,.09,.4,.28,.61,.37,.22,.09,.47,.11,.68,.19,.22,.09,.47,.1,.68,.19,.23,.09,.4,.29,.61,.37,.23,.09,.38,.36,.59,.44,.23,.09,.59-.23,.8-.15,.23,.08,.37,.44,.58,.5,.24,.07,.48,.12,.69,.16,.25,.05,.5-.1,.71-.09,.26,.01,.44-.05,.65-.1,.24-.06,.59,.13,.76-.03,.16-.15,.17-.45,.28-.69,.08-.19-.05-.45,0-.7,.04-.21,.14-.41,.16-.66,.01-.21,.26-.44,.25-.69,0-.22,.13-.47,.11-.72-.01-.22-.25-.36-.27-.61,.14,.21,.31,.3,.45,.49,.15,.21,.05,.58,.19,.77,.15,.21,.52,.24,.67,.43,.16,.21,.22,.47,.38,.65,.17,.2,.52,.21,.68,.38,.18,.19,.26,.44,.43,.6,.19,.17,.32,.4,.52,.53,.21,.14,.54,.01,.76,.12,.22,.1,.34,.44,.57,.51,.23,.07,.48,.02,.73,.06,.23,.03,.46,.25,.72,.26,.23,0,.47-.37,.73-.38,.23-.01,.49,.23,.75,.2,.23-.03,.47-.08,.73-.12,.23-.04,.45-.23,.7-.28,.23-.04,.53,.06,.78,.01-.13,.21-.22,.46-.32,.67-.1,.23,0,.5-.05,.72-.06,.24-.6,.4-.62,.63-.02,.24,.32,.5,.35,.73,.03,.24,.2,.42,.27,.66,.07,.22,.07,.46,.18,.68,.11,.21,0,.58,.14,.77,.14,.19,.67,.05,.84,.23,.16,.17,.07,.61,.26,.77,.18,.15,.55,.06,.75,.2,.19,.13,.42,.19,.64,.32,.2,.12,.21,.62,.43,.73,.21,.1,.55-.05,.77,.05,.22,.09,.48,.06,.71,.14,.22,.08,.38,.35,.61,.42,.22,.07,.51-.05,.74,.01,.23,.06,.41,.33,.65,.39,.23,.05,.45,.18,.69,.23,.23,.05,.49,0,.73,.03,.24,.04,.51-.18,.75-.15-.24-.03-.51,.09-.74,.07-.24-.02-.48-.18-.72-.19-.25-.02-.51,.49-.75,.48-.25,0-.48-.33-.72-.33-.25,0-.5-.11-.74-.09-.25,.01-.47,.35-.7,.37-.25,.02-.51-.13-.74-.1-.24,.04-.45,.23-.68,.28-.24,.05-.56-.23-.79-.17-.24,.07-.37,.47-.59,.55-.23,.09-.48,.1-.69,.2-.22,.11-.51,.09-.71,.21-.21,.13-.48,.2-.66,.35-.19,.15-.42,.31-.58,.48-.17,.18-.17,.51-.3,.71-.13,.2-.14,.47-.23,.69-.09,.22-.06,.46-.11,.69-.04,.23-.45,.44-.45,.69,0,.23,.33,.46,.37,.7,.04,.23-.15,.27-.08,.5-.23-.11-.34,.1-.55,0-.23-.11-.41-.32-.63-.41-.24-.1-.47-.18-.69-.27-.24-.09-.49-.12-.71-.19-.25-.08-.44-.33-.67-.39-.25-.06-.51-.1-.74-.13-.25-.03-.51,.02-.75,.03-.25,0-.44,.35-.68,.4-.24,.05-.49-.06-.73,.03-.22,.08-.55-.05-.77,.07-.21,.11-.47,.17-.69,.31-.2,.12-.24,.51-.45,.66-.19,.14-.53,.1-.73,.26-.19,.15-.3,.4-.5,.56-.18,.15-.47,.2-.66,.37-.18,.16-.15,.29-.34,.46Z"/>
        </g>
        <g>
          <g>
            <path class="cls-3" d="M197.52,30.18c-.21,.13-.38,.28-.6,.36-.23,.08-.48-.06-.71-.03-.24,.04-.43,.12-.66,.1-.24-.01-.43-.07-.66-.13-.23-.06-.51,.07-.72-.03-.21-.1-.38-.28-.57-.42-.19-.14-.38-.27-.54-.44-.16-.17-.37-.31-.5-.52-.13-.21-.11-.48-.19-.69-.08-.23-.1-.45-.14-.68-.04-.24-.12-.45-.11-.69,.01-.24,0-.48,.05-.71,.06-.23-.09-.56,.01-.78,.1-.21,.38-.36,.52-.56,.14-.19,.29-.4,.47-.56,.17-.16,.37-.32,.58-.45,.21-.13,.47-.17,.69-.25,.23-.08,.5,.09,.73,.06,.24-.04,.44-.09,.68-.08,.24,.01,.47-.08,.7-.02,.23,.06,.41,.21,.63,.31,.21,.1,.48,.1,.68,.24,.19,.14,.5,.18,.66,.36,.16,.17,.24,.44,.37,.65,.13,.21,.16,.47,.24,.69,.08,.23,.02,.48,.06,.71,.04,.24-.1,.45-.11,.69-.01,.24,0,.44-.06,.67-.06,.23,0,.47-.11,.69-.1,.21-.16,.45-.3,.64-.14,.19-.45,.2-.63,.36-.17,.16-.27,.37-.47,.5Z"/>
            <g class="cls-5">
              <path class="cls-3" d="M199.44,27.05c-.06,.21-.35,.56-.45,.75-.1,.19-.12,.43-.26,.6-.13,.17-.14,.5-.31,.64-.16,.14-.47,.13-.66,.25-.21,.13-.43,.22-.65,.3-.23,.08-.5-.12-.73-.08-.24,.04-.45,.53-.69,.52-.24-.01-.42-.48-.65-.53-.23-.06-.49,.04-.71-.06-.21-.1-.36-.3-.55-.44-.19-.14-.33-.3-.49-.48-.16-.17-.35-.3-.48-.51-.12-.2-.35-.34-.43-.55-.08-.21-.19-.44-.22-.66-.04-.22,.07-.44,.08-.66-.08,.24,0,.48-.02,.73-.02,.25-.24,.51-.21,.76,.03,.25-.06,.57,.03,.82,.08,.24,.36,.43,.5,.65,.13,.21,.21,.47,.37,.64,.16,.18,.44,.25,.63,.39,.19,.14,.48,.1,.69,.2,.22,.1,.37,.35,.6,.41,.23,.06,.47,.17,.7,.18,.24,.01,.51,.11,.75,.07,.23-.04,.36-.51,.58-.59,.22-.08,.44-.09,.65-.22,.21-.13,.49-.16,.66-.32,.18-.17,.26-.41,.41-.61,.14-.2,.37-.35,.47-.57,.1-.22-.02-.51,.03-.75,.05-.24,.36-.64,.36-.88Z"/>
            </g>
          </g>
          <g>
            <path class="cls-3" d="M193.08,32.11c-.16,.19-.25,.48-.43,.63-.19,.16-.47,.22-.69,.33-.22,.12-.53-.04-.76,.03-.23,.07-.4,.42-.64,.44s-.5,.04-.75,.02c-.24-.02-.44-.29-.67-.36-.23-.07-.39-.24-.61-.35-.21-.11-.41-.18-.6-.34-.19-.16-.3-.33-.46-.52-.16-.19-.69-.12-.81-.33-.12-.22,.1-.59,.02-.82-.07-.23-.09-.46-.12-.7s-.26-.48-.24-.72c.02-.24,.31-.43,.38-.67,.07-.23,.02-.5,.13-.72,.11-.21,.27-.39,.43-.59,.16-.19,.43-.23,.61-.39,.19-.16,.27-.43,.48-.54,.22-.12,.35-.47,.58-.54,.23-.07,.53,.02,.78,0,.24-.03,.47,.33,.71,.35,.24,.02,.47-.09,.71-.03,.23,.07,.44,.13,.66,.24,.21,.11,.42,.21,.61,.37s.49,.21,.64,.39c.16,.19,0,.58,.11,.79,.12,.22,.5,.3,.57,.53,.07,.23-.01,.5,.01,.74s.34,.5,.31,.74c-.02,.24-.13,.51-.2,.74-.07,.23-.55,.29-.66,.51-.11,.21,.03,.57-.12,.77Z"/>
            <g class="cls-5">
              <path class="cls-3" d="M193.61,28.75c.01,.22,.29,.26,.26,.49-.03,.22-.15,.46-.22,.68-.07,.21-.47,.29-.57,.49-.1,.19-.28,.3-.43,.48-.16,.19-.21,.42-.4,.58-.19,.16-.18,.62-.39,.74-.22,.12-.52,.11-.76,.18-.23,.07-.5,.05-.75,.08s-.51,.23-.76,.21c-.24-.02-.41-.49-.65-.56-.23-.07-.55,.1-.77-.01-.21-.11-.37-.33-.57-.49-.18-.15-.35-.31-.5-.48-.15-.18-.33-.34-.44-.54-.12-.2-.23-.52-.31-.73,.01,.26,0,.63,.06,.89,.07,.25,.1,.56,.22,.79,.12,.23,.41,.38,.58,.59,.16,.2,.28,.48,.49,.65,.19,.16,.47,.22,.68,.33,.22,.11,.42,.34,.65,.41,.24,.07,.53-.07,.77-.05,.24,.02,.52,.27,.76,.24s.43-.41,.66-.48c.23-.07,.46-.14,.67-.26,.21-.12,.27-.41,.46-.57,.18-.15,.66-.02,.81-.22,.16-.2,.09-.56,.2-.78,.12-.23,.06-.48,.13-.72,.07-.24,.12-.44,.13-.69,.02-.25-.02-.46-.05-.7-.03-.25,.1-.31,.02-.54Z"/>
            </g>
          </g>
          <g>
            <path class="cls-3" d="M187.3,27.45c-.21-.1-.43-.24-.62-.37-.19-.13-.37-.33-.53-.49-.17-.16-.23-.44-.37-.62-.14-.19-.09-.48-.2-.68-.11-.2-.34-.35-.41-.56-.07-.22,.16-.49,.12-.72-.04-.23-.35-.41-.35-.64,0-.23,0-.46,.04-.69,.03-.22,.15-.43,.22-.66,.07-.22,.3-.35,.41-.56,.1-.21,.06-.48,.19-.67,.13-.19,.4-.24,.56-.41,.16-.16,.09-.59,.28-.73,.19-.14,.56,.03,.77-.07,.2-.11,.4-.15,.62-.22,.22-.07,.35-.46,.58-.49,.23-.04,.48,.05,.71,.04,.23,0,.46,0,.69,.03,.22,.03,.4,.27,.62,.34,.22,.07,.39,.18,.6,.29,.21,.1,.56-.04,.74,.09,.19,.13,.18,.49,.34,.65,.17,.16,.39,.25,.53,.43,.14,.19,.17,.42,.28,.62,.11,.2,.25,.37,.33,.59,.07,.22,.42,.38,.46,.61,.04,.23-.04,.49-.04,.72,0,.23-.37,.42-.4,.65-.03,.22,.08,.46,0,.68-.07,.22,.16,.57,.06,.78-.1,.21-.36,.36-.5,.54-.13,.19-.45,.23-.61,.39-.16,.16-.42,.18-.6,.32-.19,.14-.24,.44-.45,.55-.2,.11-.49-.02-.7,.05-.22,.07-.4,.15-.63,.18-.23,.04-.42,.4-.65,.4-.23,0-.43-.35-.66-.38-.22-.03-.41-.1-.63-.17-.22-.07-.6,.26-.81,.16Z"/>
            <g class="cls-5">
              <path class="cls-3" d="M191.51,27.16c-.26,.07-.37,.29-.63,.31-.26,.02-.53-.43-.8-.46-.26-.03-.53,.08-.79,0-.25-.07-.41-.34-.65-.46-.21-.1-.43-.14-.61-.27-.19-.13-.25-.37-.41-.53-.16-.16-.5-.15-.63-.33-.14-.19-.45-.28-.56-.48-.11-.2,.21-.58,.14-.8-.07-.22-.26-.38-.3-.61-.04-.23-.24-.44-.25-.67,0-.23-.16-.5-.13-.73,.03-.22,.26-.44,.33-.66,.07-.22,.34-.36,.44-.56,.12-.25,.08-.6,.24-.82,.17-.22,.58-.2,.78-.38,.2-.18,.56-.51,.79-.65-.24,.06-.81,0-1.03,.11-.22,.1-.21,.61-.42,.75-.2,.14-.7-.09-.88,.08-.18,.17,.04,.68-.11,.89-.14,.2-.66,.16-.77,.39-.1,.21,.24,.59,.17,.8-.07,.22-.58,.33-.61,.56-.03,.23,.34,.49,.34,.71,0,.23-.37,.5-.34,.72,.04,.23,.03,.51,.1,.72,.07,.22,.44,.34,.54,.54,.11,.2,.17,.44,.3,.63,.14,.18,.28,.37,.45,.54,.16,.16,.33,.33,.52,.47,.18,.13,.33,.39,.54,.49,.22,.11,.58-.06,.81,.01,.24,.07,.5-.1,.74-.07,.25,.03,.47,.46,.71,.45,.25-.01,.51-.1,.75-.15,.24-.05,.38-.4,.61-.49,.23-.09,.39,.07,.6-.06Z"/>
            </g>
          </g>
        </g>
      </g>
    </g>
  </g>
</svg>