<?xml version="1.0" encoding="UTF-8"?>
<svg id="Layer_1" data-name="Layer 1" xmlns="http://www.w3.org/2000/svg" viewBox="0 0 97.45 131.54">
  <defs>
    <style>
      .cls-1 {
        fill: #8a6539;
      }

      .cls-2 {
        fill: #f2daa4;
      }

      .cls-3 {
        fill: #cea575;
      }

      .cls-4 {
        fill: #f26649;
      }

      .cls-5 {
        fill: #73542d;
      }

      .cls-6 {
        fill: #c49a6c;
      }

      .cls-7 {
        fill: #fcaf17;
      }

      .cls-8 {
        fill: none;
        stroke: #73542d;
        stroke-linecap: round;
        stroke-miterlimit: 10;
        stroke-width: 1.5px;
      }

      .cls-9 {
        fill: #f99d1c;
      }
    </style>
  </defs>
  <g>
    <path class="cls-6" d="M82.93,78.92c-.09-.35,.07-.28,0-.72-.03-.2,.03-.45,0-.71-.03-.22-.17-.44-.19-.69-.02-.23,.11-.46,.1-.71,0-.23-.29-.47-.28-.71,0-.23,.37-.45,.39-.69,.02-.23-.04-.47,0-.71,.03-.23-.11-.5-.06-.73,.05-.23,.22-.43,.29-.66,.07-.23,.29-.38,.39-.6,.09-.22,.15-.43,.26-.64,.11-.21,.1-.48,.24-.67,.14-.19,.11-.53,.28-.7,.16-.17,.48-.18,.67-.34,.18-.15,.46-.13,.67-.26,.2-.12,.35-.3,.57-.4,.21-.1,.34-.41,.57-.49,.22-.07,.43-.28,.67-.34,.23-.05,.5,.03,.75,0,.25-.03,.54,.2,.77,.15,.25-.05,.5-.11,.73-.18,.24-.07,.35-.49,.57-.59,.23-.1,.63,.15,.84,.04,.22-.13,.24-.54,.43-.68,.2-.15,.4-.27,.57-.44,.17-.18,.41-.29,.55-.49,.15-.2,.07-.52,.18-.73,.11-.22,.21-.42,.29-.64,.09-.23,.26-.42,.32-.65,.06-.26,.31-.4,.49-.54,.19-.15,.4-.15,.64-.16,.24-.01,.46-.07,.67,.07,.19,.12,.15,.37,.25,.62,.08,.22,.53,.3,.62,.54,.08,.22,.11,.47,.18,.7,.07,.22-.06,.52,0,.75,.07,.23,.49,.36,.55,.6,.06,.23-.03,.5,.02,.74,.05,.23,.25,.44,.3,.68,.04,.24-.24,.53-.2,.77,.04,.24-.13,.5-.11,.73,.03,.24,.55,.43,.57,.67,.02,.24-.22,.5-.21,.74,0,.24-.23,.47-.24,.71,0,.24-.06,.47-.08,.7-.02,.24-.01,.47-.05,.7-.04,.24,.17,.52,.11,.75-.06,.24,.08,.53,0,.76-.07,.23-.27,.43-.36,.65-.1,.22-.15,.48-.26,.69-.12,.21-.3,.4-.44,.6-.14,.19-.33,.37-.49,.55-.16,.18-.59,.07-.78,.23-.18,.16-.06,.67-.25,.81-.19,.15-.35,.35-.54,.49-.19,.14-.41,.27-.61,.4-.2,.13-.64-.11-.84,0-.21,.12-.29,.45-.5,.56-.21,.11-.4,.27-.62,.38-.22,.1-.57-.1-.78,0-.22,.09-.41,.25-.63,.33-.23,.08-.44,.19-.66,.26-.23,.07-.47,.08-.7,.14-.23,.06-.36,.55-.59,.6-.24,.06-.55-.23-.78-.19-.24,.05-.44,.27-.67,.31-.24,.04-.48,.04-.71,.07-.24,.03-.47,.16-.7,.18-.24,.02-.48,.11-.72,.12-.24,.01-.5-.19-.73-.18-.25,0-.49,.04-.72,.03-.25,0-.49,.07-.72,.07-.25,0-.48-.22-.7-.24-.26-.02-.52,.17-.73,.15-.27-.03-.53,.06-.73,.04-.45-.06-.31-.3-.66-.37"/>
    <g>
      <path class="cls-1" d="M18.45,127.18c.08,.21,.01,.33,.08,.55,.07,.22,.37,.36,.44,.58,.07,.22,.13,.43,.19,.65,.07,.21,.03,.46,.1,.67,.07,.21,.27,.37,.35,.58,.08,.21,.04,.37,.14,.57,.25,.07,.46,0,.7,.06,.26,.06,.48,.15,.73,.19,.26,.04,.47,.38,.72,.4,.27,.03,.53-.06,.77-.05,.27,0,.53,.14,.77,.12,.28-.02,.55,.02,.78-.02,.29-.04,.56-.1,.77-.15,.46-.12,.34-.17,.53-.5,.16-.29,.15-.15,.06-.58-.04-.18-.27-.36-.32-.61-.04-.2-.06-.42-.11-.66-.03-.2-.18-.4-.21-.64-.03-.21-.05-.43-.08-.67-.03-.21,.14-.46,.11-.69-.25,.05-.5,.03-.74,.07-.25,.04-.48,.2-.72,.23-.25,.03-.49,.15-.73,.17-.25,.02-.5,.12-.74,.14-.25,.01-.51-.4-.75-.4-.25,0-.5,.04-.73,.03-.26-.01-.5,0-.73-.02-.26-.02-.49-.06-.72-.09-.26-.04-.4,.12-.62,.07Z"/>
      <path class="cls-1" d="M32.62,126.67c.06,.24,0,.45,.05,.69,.06,.24,.31,.43,.37,.67,.06,.24,.12,.48,.19,.72,.06,.24-.13,.55-.07,.78,.07,.24,.53,.36,.59,.6s.04,.4,.11,.63c.22,.09,.26,.34,.48,.4,.22,.06,.43,.23,.65,.27,.23,.04,.47,.09,.69,.1,.23,.02,.47-.21,.69-.21,.24,0,.45-.08,.67-.1,.24-.02,.47,0,.68-.03,.25-.05,.45-.16,.64-.22,.4-.11,.43,.18,.61-.1,.19-.3,.3-.22,.27-.7-.01-.2-.13-.43-.15-.72,0-.22-.29-.45-.3-.72,0-.22,.16-.47,.16-.73,0-.23,.22-.48,.21-.74,0-.23-.4-.33-.4-.59-.23,.06-.35,.02-.57,.07-.24,.05-.51-.15-.74-.12-.24,.04-.43,.43-.66,.46-.24,.02-.5-.33-.73-.32-.25,.01-.47,.01-.7,.01-.25,0-.47,0-.7-.03-.25-.02-.47-.09-.69-.12-.25-.03-.53,.24-.74,.2-.26-.05-.42-.11-.62-.16Z"/>
      <path class="cls-1" d="M62.02,127.69c.06,.23-.28,.35-.22,.58,.06,.23,.29,.41,.35,.63,.06,.23,.12,.45,.18,.67,.06,.23,.27,.41,.33,.63s.03,.47,.09,.68c.22,.08,.45,.07,.66,.13,.23,.06,.41,.26,.63,.3,.23,.04,.46,.08,.68,.1,.23,.02,.47-.3,.68-.3,.24,0,.47,.22,.68,.2,.24-.02,.51,.17,.72,.14,.25-.05,.41-.39,.6-.44,.4-.11,.57,.22,.74-.06,.19-.32,.06-.31,.04-.8-.01-.21,.06-.45,.05-.74,0-.22-.02-.47-.03-.74,0-.23-.04-.48-.05-.74,0-.24-.29-.42-.29-.68-.22,.05-.38,.09-.6,.14-.22,.04-.45,.08-.68,.11-.23,.03-.49-.26-.71-.23-.23,.02-.43,.37-.65,.38-.23,.02-.47-.23-.7-.22-.23,0-.45,.29-.68,.29-.24,0-.46-.35-.68-.35-.24,0-.48,.38-.69,.36-.24-.01-.26,0-.47-.02Z"/>
      <path class="cls-6" d="M61.78,127.59c.21,.02,.48,.02,.72,.04,.22,.01,.45-.02,.68-.01,.22,0,.45,.07,.68,.07,.22,0,.45,.02,.69,.01,.22,0,.46,.11,.69,.09,.23-.02,.44-.2,.67-.23,.23-.02,.41-.33,.64-.37,.23-.03,.44-.07,.66-.11,.22-.04,.35,.04,.57-.02,0-.23,.26-.35,.26-.6,0-.23-.21-.46-.22-.71,0-.23,.16-.47,.16-.71,0-.23-.04-.47-.04-.71,0-.23-.26-.47-.26-.71,0-.23,.31-.47,.32-.71,0-.23-.23-.47-.22-.71,0-.23,.04-.47,.05-.71,0-.23,.37-.46,.37-.71,0-.23-.28-.48-.27-.72,0-.23-.07-.47-.06-.71,0-.23-.14-.47-.14-.71,0-.23,.04-.47,.05-.71,0-.23,.5-.45,.51-.69,0-.23-.23-.48-.22-.72,0-.23-.08-.48-.07-.72,0-.23,.34-.46,.35-.7,0-.24-.43-.49-.41-.73,.01-.23,.38-.45,.4-.69,.01-.23-.29-.49-.28-.73,.01-.24,.42-.45,.43-.69,.01-.24-.25-.49-.23-.73,.01-.23-.14-.48-.13-.72,.01-.24,.35-.46,.37-.7,.01-.24,.14-.47,.15-.71,.01-.24-.17-.52-.15-.76-.23,.01-.5-.09-.75-.07-.23,.02-.46,.2-.7,.21-.23,.02-.49-.22-.73-.21-.23,.02-.45,.35-.69,.37-.24,.01-.48,.02-.72,.03-.23,.01-.47,.01-.71,.02-.24,.01-.49-.28-.73-.27-.24,.01-.45,.54-.69,.55-.24,.01-.49-.24-.73-.23-.24,0-.47,.26-.71,.27-.24,0-.49-.32-.73-.32-.24,0-.47,.26-.71,.27-.24,0-.68-.32-.92-.32,.02,.24,.32,.65,.33,.89,.02,.24,.15,.47,.17,.71,.02,.24-.29,.51-.27,.74,.02,.24,.01,.48,.04,.72,.02,.24,.2,.46,.23,.7,.02,.24-.03,.48,0,.72,.02,.24,.23,.46,.26,.7,.03,.24,.22,.46,.24,.7,.03,.24-.32,.52-.29,.76,.03,.24,.08,.47,.11,.71,.03,.24-.05,.49-.02,.73,.03,.24,.16,.46,.19,.7,.03,.24,.06,.48,.1,.71,.03,.24,.33,.44,.37,.68,.03,.24-.29,.53-.26,.77,.04,.24,.42,.42,.46,.66,.04,.24-.28,.53-.25,.77,.04,.24,.2,.45,.24,.69,.04,.24-.09,.5-.04,.74,.04,.24,.55,.39,.59,.62,.04,.24-.29,.54-.24,.77,.05,.24,.05,.48,.1,.71,.05,.23,.54,.37,.59,.61,.05,.23-.04,.49,0,.73,.05,.23-.01,.49,.04,.72,.05,.23,.07,.5,.13,.73Z"/>
      <path class="cls-1" d="M74.99,126.85c-.04,.24-.03,.35-.07,.58-.05,.24-.32,.44-.36,.66-.05,.25,.01,.5-.03,.72-.05,.25,.1,.53,.05,.74-.05,.27-.4,.44-.44,.64-.09,.44-.17,.35,0,.66,.16,.3,.12,.3,.52,.42,.19,.05,.4,.21,.66,.26,.21,.04,.5-.31,.74-.29,.22,.02,.43,.15,.67,.15,.22,0,.45,.07,.69,.05,.22-.02,.47,.03,.7,0,.22-.04,.48-.03,.7-.11,.21-.07,.54-.16,.75-.26,.26-.24-.1-.4,.11-.84,.09-.18,.24-.36,.36-.62,.09-.19,.11-.45,.22-.69,.09-.2,.47-.29,.58-.52,.09-.21-.13-.57-.03-.8,.09-.21,.47-.53,.58-.77-.23,.06-.67,.17-.9,.21-.24,.05-.46,.14-.69,.17-.24,.03-.47,.09-.7,.1-.24,.01-.48-.11-.71-.12-.24,0-.49,.12-.71,.1-.24-.02-.44-.32-.67-.35-.24-.04-.55,.32-.77,.27-.25-.05-.39-.45-.6-.51-.25-.07-.42,.19-.61,.12Z"/>
      <path class="cls-3" d="M71.64,72.9c-.24-.01-.5,.2-.74,.19-.24-.02-.47-.31-.71-.33-.24-.02-.51,.24-.75,.22-.24-.02-.49,0-.73-.01-.24-.02-.5,.14-.74,.12-.24-.02-.43-.55-.67-.57-.24-.02-.52,.27-.76,.24-.24-.03-.48-.05-.72-.08-.24-.03-.46-.26-.7-.29-.24-.03-.48-.07-.72-.1-.24-.03-.53,.3-.77,.27-.24-.03-.48-.06-.72-.1-.24-.04-.4-.6-.64-.64-.24-.04-.5,.04-.73,0-.24-.04-.5,.04-.74,0-.24-.04-.48-.05-.72-.09-.24-.04-.48-.09-.71-.14-.24-.05-.45-.2-.69-.24-.24-.05-.48-.06-.72-.11-.24-.05-.42-.33-.66-.38-.24-.05-.53,.13-.76,.08-.24-.06-.53,.14-.76,.08-.24-.06-.35-.6-.58-.66-.24-.06-.56,.22-.79,.15-.23-.06-.39-.41-.62-.48-.23-.07-.45-.17-.68-.24-.23-.07-.51,.03-.74-.04-.23-.07-.5-.01-.73-.08-.23-.07-.44-.21-.67-.29-.23-.08-.5-.05-.72-.13-.23-.08-.44-.22-.67-.3-.23-.08-.35-.46-.57-.55-.23-.09-.45-.17-.68-.26-.23-.09-.63,.27-.85,.18-.23-.09-.36-.4-.58-.49-.22-.1-.43-.24-.65-.33-.22-.1-.56,.07-.78-.03-.22-.1-.39-.31-.61-.42-.22-.1-.44-.22-.65-.32-.22-.11-.41-.27-.62-.38-.22-.11-.5-.09-.71-.2-.22-.11-.22-.6-.43-.72-.21-.12-.56,0-.76-.12-.21-.12-.41-.25-.62-.37-.21-.13-.34-.37-.54-.5-.21-.13-.32-.39-.52-.52-.2-.13-.47-.17-.66-.3-.2-.14-.56-.05-.75-.18-.2-.14-.48-.17-.67-.31-.2-.14-.36-.34-.55-.48-.19-.15-.13-.63-.31-.77-.19-.15-.59-.04-.77-.19-.19-.16-.19-.52-.37-.68-.19-.16-.51-.15-.69-.31-.18-.17-.26-.44-.42-.6-.18-.17-.33-.36-.49-.52-.18-.18-.33-.36-.49-.53-.17-.18-.4-.3-.55-.47-.17-.19-.19-.48-.33-.65-.17-.2-.56-.2-.69-.37-.17-.22-.28-.44-.39-.61-.26-.38-.11-1.04-.42-.87-.31,.17,.02,.6-.21,.87-.23,.27-.25,.25-.48,.52-.23,.27-.16,.33-.39,.6-.23,.27-.25,.25-.48,.52-.23,.26-.51,.02-.73,.29-.23,.27,.03,.49-.2,.76-.23,.27-.47,.06-.7,.33-.23,.27-.18,.31-.41,.57-.23,.27-.06,.41-.29,.68-.23,.27-.19,.31-.42,.58-.23,.27-.25,.25-.48,.52-.23,.27-.54,0-.77,.28-.16,.19-.16,.51-.31,.69-.16,.19-.14,.52-.29,.71-.16,.19-.53,.21-.68,.4-.15,.2-.25,.43-.4,.62-.15,.2-.14,.51-.29,.7-.15,.2-.47,.26-.61,.45-.15,.2-.11,.53-.25,.72-.15,.2-.66,.13-.8,.32-.15,.2,.04,.63-.1,.83-.14,.2-.4,.32-.53,.51-.14,.21-.38,.34-.51,.54-.14,.21-.36,.35-.49,.55-.13,.21-.15,.29-.27,.49-.31,.08-.26,.24-.58,.24s-.32,.24-.65,.24-.33-.44-.65-.44-.33,.07-.65,.07-.28,.2-.58,.31c-.34,.12-.03,.06-.11,.52-.03,.2-.27,.4-.31,.67-.04,.21,.24,.5,.2,.76-.04,.22-.21,.43-.25,.68-.03,.22,.04,.47,0,.72-.03,.23-.37,.42-.4,.66-.03,.23,.09,.49,.06,.73-.03,.23,.04,.48,0,.72-.03,.23-.03,.47-.06,.71-.03,.23-.1,.46-.13,.7-.03,.23-.15,.46-.18,.7-.03,.23,.08,.49,.05,.73-.03,.23-.03,.47-.05,.71-.03,.23-.07,.46-.1,.7-.03,.23-.28,.44-.3,.68-.03,.23,.08,.48,.05,.72-.03,.23-.12,.46-.14,.7-.02,.23-.05,.47-.07,.71-.02,.23,0,.48-.01,.71-.02,.23-.27,.45-.29,.69-.02,.23-.07,.47-.09,.71-.02,.24-.16,.46-.18,.7-.02,.24,.3,.5,.28,.74-.02,.24-.05,.47-.07,.71-.02,.24,.16,.49,.14,.73-.02,.24-.05,.47-.06,.71-.02,.24-.33,.45-.34,.69-.02,.24-.24,.46-.26,.7-.01,.24,.18,.49,.17,.73-.01,.24,.22,.49,.2,.72-.01,.24-.22,.46-.24,.7-.01,.24,.09,.48,.08,.72-.01,.24,.07,.48,.06,.72,0,.24-.01,.47-.02,.71,0,.24-.34,.46-.35,.7,0,.24-.07,.47-.08,.71,0,.24,.4,.49,.39,.72,0,.24-.09,.47-.09,.71,0,.24-.42,.47-.42,.71,0,.24,.3,.48,.3,.72,0,.24-.17,.48-.17,.72,0,.24,0,.48,0,.72,0,.24-.14,.48-.14,.72,0,.24,.48,.47,.49,.71,0,.24-.38,.48-.38,.72,0,.24,0,.48,0,.72,0,.24,0,.48,.01,.72,0,.24,.23,.47,.24,.71,0,.24-.11,.48-.1,.72,0,.24-.09,.48-.07,.72,.01,.24,.14,.47,.15,.71,.01,.24,.24,.47,.25,.71,.01,.24-.13,.49-.11,.73,.02,.24-.2,.49-.18,.73,.02,.24,.33,.46,.35,.7,.02,.24,.13,.47,.15,.71,.02,.24-.11,.49-.08,.73,.02,.24,.09,.47,.11,.71,.02,.24-.24,.51-.21,.75,.03,.24,.04,.48,.06,.72,.03,.24,.47,.43,.5,.67,.03,.24,0,.48,.04,.72,.03,.24-.11,.5-.08,.74,.03,.24,.23,.45,.26,.69,.04,.24,.17,.46,.2,.69,.04,.24-.28,.53-.24,.77,.04,.24,.54,.39,.58,.63,.04,.24-.32,.54-.27,.78,.04,.24-.03,.5,.02,.73,.05,.24,.39,.41,.44,.65,.05,.24-.11,.52-.06,.75,.05,.23,.36,.41,.42,.64,.05,.23,.15,.46,.21,.69,.06,.23,.06,.48,.12,.71,.06,.23,.11,.47,.17,.7,.06,.23,.28,.42,.35,.65,.07,.23,.06,.48,.13,.71,.07,.23,.1,.47,.18,.69,.07,.23-.06,.52,.02,.75,.08,.23,.4,.26,.48,.48,.22,.05,.32,.31,.58,.35,.23,.03,.47,.13,.73,.15,.23,.02,.48,.13,.74,.14,.24,.01,.49-.45,.75-.45,.24,0,.48,.04,.73,.03,.24-.01,.51,.29,.76,.27,.24-.02,.46-.29,.71-.32,.24-.03,.48-.05,.73-.1,.24-.04,.49,.01,.74-.04-.03-.23-.15-.44-.19-.68-.03-.23,.25-.5,.22-.74-.03-.23-.5-.42-.53-.66-.02-.23,.04-.48,.02-.72-.02-.23,.13-.49,.1-.73-.02-.23-.06-.47-.08-.71-.02-.23-.31-.45-.33-.69-.02-.23,.37-.5,.35-.74-.02-.23-.29-.45-.3-.7-.01-.23,.21-.48,.2-.73-.01-.23,.14-.48,.13-.72-.01-.23-.46-.45-.47-.69,0-.24,.14-.48,.13-.72,0-.24,.02-.47,.02-.72,0-.24,.22-.48,.22-.72,0-.24-.14-.47-.14-.71,0-.24-.08-.47-.08-.72,0-.24,.18-.48,.18-.72,0-.24-.45-.47-.45-.72,0-.23,.46-.47,.46-.71,0-.24-.16-.47-.16-.71,0-.24,.02-.47,.02-.71,0-.24-.23-.48-.22-.72,0-.24,.16-.47,.16-.71,0-.24-.22-.48-.21-.72,0-.24,.28-.47,.29-.71,0-.24,.22-.47,.23-.71,0-.24-.07-.48-.06-.72,.01-.24,.03-.47,.04-.71,.01-.24-.35-.5-.34-.74,.01-.24,0-.48,.02-.72,.01-.24,.08-.48,.1-.72,.01-.24-.04-.48-.03-.72,.02-.24,.44-.45,.46-.69,.02-.24-.13-.49-.11-.73,.02-.24-.16-.5-.14-.74s.22-.49,.24-.74c.23,.09,.46,.24,.7,.33,.23,.08,.53-.02,.77,.06,.23,.08,.36,.49,.6,.57,.23,.08,.47,.19,.71,.26,.23,.07,.47,.18,.71,.25,.24,.07,.6-.32,.85-.25,.24,.06,.36,.38,.61,.44,.01,.24,.3,.41,.32,.65,.01,.24-.4,.5-.39,.74,.01,.24,.27,.47,.28,.71,.01,.24-.19,.5-.18,.74,.01,.24,.05,.48,.07,.72s.27,.47,.28,.71-.24,.5-.22,.74c.02,.24,.13,.48,.14,.72,.02,.24,.25,.47,.27,.71,.02,.24,0,.49,.02,.73,.02,.24-.3,.51-.28,.75,.02,.24,.32,.46,.34,.7,.02,.24-.25,.51-.23,.75,.02,.24,.15,.47,.18,.72,.02,.24,.3,.46,.32,.7,.02,.24-.31,.52-.28,.76,.02,.24,.52,.43,.54,.68,.03,.24,0,.49,.03,.73,.03,.24-.07,.5-.04,.74,.03,.24-.18,.51-.15,.75,.03,.24,.51,.43,.54,.67,.03,.24-.39,.54-.35,.78,.03,.24,.36,.44,.39,.68,.03,.24-.3,.54-.26,.78,.04,.24,.46,.42,.5,.66,.04,.24-.06,.5-.03,.74,.04,.24,.25,.45,.29,.69,.04,.24-.1,.51-.06,.75,.04,.24,.27,.44,.31,.68,.04,.24-.2,.53-.16,.77,.05,.24,.19,.46,.24,.69,.05,.24,.12,.47,.17,.7,.05,.24,.1,.47,.15,.71s.09,.49,.14,.72c.2,.05,.49-.11,.75-.06,.21,.04,.44,.04,.69,.07,.22,.03,.44,.12,.68,.13,.23,.02,.45-.07,.7-.07,.23,0,.46,.29,.71,.28,.23-.01,.47-.05,.71-.07,.23-.02,.43-.3,.67-.34,.23-.04,.48,.08,.72,.02,.23-.05,.44-.04,.68-.11,0-.23-.14-.44-.14-.69,0-.23-.03-.47-.03-.72,0-.23-.07-.47-.07-.72,0-.23,.17-.47,.17-.72,0-.23,.05-.47,.05-.72,0-.23-.22-.48-.21-.72,0-.23,.42-.47,.42-.71,0-.23-.3-.48-.3-.72,0-.24,.09-.47,.09-.72,0-.24,.1-.47,.11-.72,0-.24,.1-.47,.1-.72,0-.24-.23-.48-.22-.73,0-.24-.13-.48-.12-.72,0-.23,.39-.46,.39-.7,0-.23-.32-.49-.31-.73,0-.24,.2-.47,.21-.71,0-.24,.16-.47,.17-.71,.01-.24,.02-.48,.03-.72,.01-.24-.08-.48-.07-.72,.01-.24-.08-.48-.07-.72,.01-.24,.03-.48,.04-.72,.01-.24,.04-.47,.05-.71,.01-.24,.13-.47,.14-.71,.01-.24,.16-.47,.17-.71,.01-.24,.15-.47,.17-.71,.02-.24-.39-.51-.38-.75,.02-.24,.47-.45,.49-.69,.02-.24-.28-.5-.27-.74,.02-.24,.36-.46,.38-.7,.02-.24-.25-.56-.23-.81,.2,.13,.46,.28,.67,.4,.21,.12,.47,.14,.68,.26,.21,.11,.34,.39,.55,.49,.22,.11,.41,.25,.63,.35,.22,.1,.43,.23,.65,.32,.22,.09,.4,.3,.63,.38,.22,.09,.55-.1,.78-.02,.23,.08,.45,.17,.68,.24,.23,.07,.49,.04,.72,.11,.23,.07,.39,.38,.63,.44,.23,.06,.49,.04,.72,.1,.23,.06,.44,.23,.68,.28,.23,.05,.5-.02,.73,.02,.24,.05,.46,.18,.69,.22,.24,.04,.46,.16,.7,.19,.24,.04,.49-.03,.73,0,.24,.03,.46,.23,.7,.26,.24,.03,.52-.3,.76-.27,.24,.03,.46,.26,.7,.29,.24,.02,.49-.1,.73-.08,.24,.02,.49-.19,.73-.17,.24,.02,.45,.52,.69,.53,.24,.01,.49-.11,.73-.1,.24,0,.49-.11,.73-.1,.24,0,.48,.01,.72,.02,.24,0,.48,.18,.72,.19,.24,0,.48-.18,.72-.18,.24,0,.48,.21,.72,.21,.24,0,.48-.16,.72-.16,.24,0,.47-.29,.71-.3,.24,0,.49,.37,.73,.37,.24,0,.46-.42,.7-.43,.24,0,.49,.2,.73,.19,.24-.01,.47-.21,.71-.22,.24-.01,.48-.05,.72-.06,.24-.01,.49,.08,.72,.07,.24-.01,.49,.13,.72,.11,.24-.02,.48,.03,.72,.02,.24-.02,.47-.15,.71-.17,.24-.02,.48,.1,.72,.08,.24-.02,.46-.31,.69-.32,.25-.02,.5,.04,.74,.03,.25-.01,.49-.14,.73-.15,.25-.01,.5-.05,.74-.06,.26,0,.51,.15,.75,.14,.26,0,.51,.3,.74,.3,.26,0,.51-.2,.74-.19,.27,.02,.48,.27,.69,.31,.28,.05,.63-.3,.81-.22,.21,.09,.14,.58,.31,.76,.15,.16,.56,.13,.68,.35,.11,.2,.31,.39,.39,.63,.08,.21,.06,.48,.11,.72,.05,.22,.2,.44,.24,.69,.04,.23,.1,.47,.12,.71,.03,.23-.32,.5-.3,.74,.02,.23,.02,.46,.03,.71,0,.23,.11,.46,.11,.71,0,.23-.19,.47-.2,.71,0,.23,.2,.47,.2,.71,0,.23,.2,.48,.18,.72-.01,.23-.06,.47-.08,.71-.02,.23,.02,.48,0,.71-.02,.24-.2,.46-.22,.7-.02,.24,0,.48-.03,.71-.02,.24,.14,.5,.11,.73-.03,.24-.14,.47-.17,.7-.03,.24-.45,.43-.48,.66-.03,.24,.42,.54,.38,.77-.03,.24-.55,.41-.59,.64-.03,.24,.22,.52,.18,.75-.04,.24-.16,.46-.19,.69-.04,.24,.15,.51,.11,.74-.04,.24-.37,.42-.41,.65-.04,.24,0,.5-.04,.73,.19,.07,.43,.18,.68,.25,.21,.06,.45,.09,.7,.14,.22,.05,.44,.18,.68,.22,.22,.03,.48-.13,.73-.11,.23,.02,.46,.1,.7,.11,.23,0,.47,.12,.71,.11,.23-.01,.45-.23,.69-.26,.23-.03,.51,.23,.75,.18,.23-.04,.6-.07,.84-.13,.09-.21-.05-.66,.04-.89,.09-.21-.01-.51,.08-.73,.09-.21,.67-.22,.76-.45,.09-.21-.27-.62-.18-.84,.09-.21,.33-.37,.42-.59,.09-.21,.12-.46,.21-.68,.09-.21,.13-.45,.21-.68,.09-.22,.32-.38,.41-.6,.08-.22,.18-.43,.26-.66,.08-.22-.03-.51,.06-.74,.08-.22,.44-.33,.53-.56,.08-.22,0-.5,.09-.72,.08-.22,.14-.44,.23-.67,.08-.22,.13-.45,.21-.68,.08-.22,.14-.45,.23-.67,.08-.22,.25-.41,.33-.63,.08-.22,.1-.47,.18-.69,.08-.22,.43-.34,.52-.57,.08-.22,.02-.49,.1-.71,.08-.22,.09-.47,.17-.69,.08-.22,.44-.34,.52-.57,.08-.22,.05-.48,.13-.71,.08-.22-.1-.53-.02-.76,.08-.22,.34-.38,.42-.61,.08-.22-.05-.52,.03-.74,.08-.23,.46-.35,.54-.58,.08-.23,.31-.4,.39-.63,.08-.23,.05-.49,.13-.72,.07-.23,.01-.5,.08-.73s.21-.44,.27-.67c.07-.23-.04-.51,.02-.74,.06-.23,.07-.48,.13-.71,.06-.23,.02-.49,.08-.72,.06-.23,.33-.42,.38-.65,.05-.23-.08-.51-.03-.74,.05-.23,.02-.48,.07-.72,.04-.24,.42-.41,.46-.65,.04-.24-.08-.5-.04-.74,.04-.24-.11-.5-.08-.74,.03-.24,.47-.42,.5-.66,.03-.24,.1-.47,.13-.71,.03-.24-.06-.49-.04-.73,.02-.24,.25-.46,.27-.7,.02-.24-.01-.49,0-.73,.01-.24-.35-.5-.34-.74,0-.24,.42-.47,.43-.71,0-.24-.5-.48-.5-.72,0-.24,.14-.48,.13-.72,0-.24,.16-.48,.15-.72,0-.24,.09-.49,.07-.73-.01-.24-.4-.45-.42-.69-.02-.24,.27-.51,.24-.74-.03-.24-.45-.43-.48-.66-.03-.24,.08-.49,.04-.73-.04-.24-.15-.46-.19-.69-.04-.24,.36-.56,.31-.79-.05-.24-.22-.45-.28-.68-.06-.23-.42-.39-.48-.62-.06-.23,0-.5-.07-.72-.07-.23,.11-.54,.04-.77-.08-.23-.11-.48-.19-.7-.08-.23-.4-.37-.49-.59-.09-.22,.02-.54-.07-.75-.1-.22-.57-.26-.68-.48-.11-.22,.1-.59-.02-.8-.11-.21-.57-.23-.69-.44-.12-.21,.13-.64,0-.84-.13-.2-.46-.28-.59-.47-.14-.2-.15-.48-.3-.67-.14-.19-.45-.26-.6-.44-.15-.18-.07-.58-.23-.75-.16-.18-.55-.14-.72-.32-.17-.17-.48-.19-.65-.35-.17-.16-.22-.46-.41-.62-.18-.15-.37-.3-.56-.44-.19-.15-.21-.52-.41-.66-.19-.14-.53-.08-.73-.21-.2-.13-.28-.46-.49-.58-.2-.12-.44-.21-.65-.32-.21-.11-.49-.1-.71-.2-.21-.1-.46-.15-.68-.24-.22-.09-.4-.28-.62-.37-.22-.09-.5-.03-.73-.11-.22-.08-.36-.43-.6-.5-.23-.07-.52,.07-.76,.01-.23-.06-.42-.29-.65-.34-.23-.05-.51,.08-.74,.03-.23-.05-.52,.19-.76,.15-.23-.04-.42-.41-.66-.44-.23-.03-.5,.17-.74,.14-.24-.03-.48,.06-.72,.04-.24-.02-.44-.5-.69-.52Z"/>
    </g>
  </g>
  <path class="cls-6" d="M18.59,96.04c.23-.27,.33-.19,.56-.46,.23-.27,.25-.26,.48-.53,.23-.27,.17-.32,.41-.6,.23-.27,.31-.2,.55-.48,.23-.27,.1-.39,.33-.66,.18-.22,.39,.01,.61,.08,.22,.06,.63-.06,.7,.21,.06,.24,.25,.4,.34,.62,.09,.23,.02,.5,.13,.71,.11,.22,.11,.5,.24,.69,.13,.21,.14,.52,.28,.7,.16,.2,.64,.09,.8,.26,.18,.18,.31,.37,.48,.52,.2,.17,.16,.61,.33,.73,.2,.15,.47-.18,.67-.27,.19-.09,.45-.07,.51-.32,.06-.24,.14-.48,.21-.71,.07-.24-.03-.54,.05-.77,.09-.24,.43-.37,.52-.59,.1-.24,.13-.49,.23-.71,.11-.23-.06-.6,.05-.81,.12-.23,.54-.29,.65-.49,.17-.3,.4-.4,.67-.33,.25,.07,.61,.23,.66,.58,.05,.37-.04,.38,0,.76,.05,.37-.12,.4-.07,.77,.05,.37,.37,.33,.42,.7,.05,.37-.02,.38,.03,.76,.03,.24,.03,.47,.2,.58,.18,.12,.35-.03,.56-.13,.21-.1,.37-.27,.56-.39,.2-.12,.52-.04,.71-.18,.19-.14,.49-.15,.66-.3,.18-.15,.2-.48,.36-.64,.16-.17,.43-.24,.58-.42,.15-.18,.36-.33,.49-.52,.13-.19,.02-.54,.14-.74,.12-.2,.21-.41,.31-.62,.1-.21,.55-.27,.63-.48,.09-.22,.05-.49,.12-.71,.08-.22,.23-.43,.29-.65,.07-.24,.03-.41,.2-.49,.19-.09,.49-.29,.67-.18,.16,.09,.37,.39,.42,.63,0,0-.33,.07-.33,.08,.05,.26,.44,.26,.64,.35,.21,.09,.55,.43,.76,.27,.2-.16,.28-.46,.46-.62,.18-.17,.19-.51,.35-.69,.17-.19,.53-.21,.67-.41,.15-.2,.13-.51,.26-.72,.13-.21,.5-.29,.61-.51,.11-.22-.05-.58,.04-.8,.1-.23,.51-.35,.58-.58,.08-.24-.05-.54,.01-.78,.06-.24-.06-.52-.01-.76,.05-.25,.1-.48,.13-.72,.03-.25,.43-.46,.45-.7,.02-.25,0-.51,0-.75,0-.23-.03-.31,.1-.43,.15-.15,.26-.57,.46-.54,.18,.02,.25,.41,.37,.61,.11,.19,.23,.11,.35,.3,.12,.2,.27,.28,.47,.31,.2,.02,.55,.13,.7-.05,.15-.19,.34-.38,.47-.58,.13-.2-.13-.64-.01-.86,.11-.21,.49-.3,.59-.52,.1-.22,.02-.51,.1-.74,.08-.23,.08-.48,.15-.71,.06-.24,0-.49,.06-.72,.05-.24,.31-.43,.35-.67,.04-.24-.06-.5-.04-.74,.03-.25,.47-.46,.49-.69,.02-.25,.05-.5,.06-.74,0-.25,.01-.51,0-.74,0-.26-.33-.49-.35-.72-.02-.3,.24-.43,.44-.57,.21-.15,.46-.36,.71-.2,.37,.25,.2,.49,.57,.74,.24,.16,.7,.11,.9-.03,.19-.13,.39-.48,.39-.77,0-.22,.01-.46,0-.72,0-.22-.34-.44-.36-.69-.02-.23,.33-.5,.3-.74-.02-.23-.05-.47-.08-.71-.03-.23-.44-.41-.49-.64-.04-.23,.2-.52,.15-.75-.05-.23-.02-.49-.08-.72-.06-.23-.31-.41-.38-.64-.07-.23-.02-.5-.1-.72-.08-.22-.38-.32-.48-.54-.23-.1-.3-.44-.52-.54-.22-.1-.44-.21-.65-.31-.22-.1-.56,.05-.78-.05-.22-.11-.33-.43-.54-.54-.22-.11-.4-.28-.61-.39-.22-.11-.67,.22-.88,.11-.22-.12-.33-.42-.54-.53-.21-.12-.31-.43-.52-.54-.21-.12-.57,.01-.78-.11-.21-.13-.23-.54-.43-.67-.21-.13-.45,.18-.65,.05-.34,.1-.5-.28-.81-.11-.31,.18-.1,.54-.41,.71-.31,.18-.47-.09-.77,.08-.31,.18-.11,.53-.42,.71-.31,.18-.31,.18-.62,.36-.31,.18-.58-.28-.89-.11-.31,.18-.22,.33-.53,.5-.31,.18-.23,.32-.53,.5-.31,.18-.41,0-.72,.17-.31,.18-.24,.29-.55,.47-.31,.18-.31,.18-.62,.36-.31,.18-.33,.14-.64,.32-.31,.18-.37,.08-.68,.26-.31,.18-.17,.43-.48,.61-.31,.18-.36,.09-.67,.27-.31,.18-.41,0-.72,.17-.31,.18-.31,.17-.62,.35-.31,.18-.31,.19-.62,.36-.31,.18-.2,.38-.51,.56-.31,.18-.23,.32-.54,.49-.31,.18-.46-.09-.78,.09-.31,.18-.18,.4-.49,.58-.31,.18-.44-.04-.75,.14-.31,.18-.28,.24-.59,.42-.31,.18-.27,.25-.58,.43-.31,.18-.45-.07-.77,.11-.31,.18-.18,.41-.5,.59-.31,.18-.33,.15-.65,.32-.31,.17-.15,.22-.53,.47-.16,.11-.58-.05-.79,.11-.17,.13-.21,.46-.4,.63-.16,.14-.28,.36-.46,.53-.16,.16-.57,.09-.74,.27-.15,.17-.08,.55-.24,.74-.15,.17-.5,.2-.65,.39-.14,.18-.06,.54-.2,.74-.13,.19-.18,.44-.31,.64-.13,.19-.43,.42-.55,.63-.42-.06-.42-.2-.81-.37-.39-.17-.28-.66-.7-.72-.03,.24-.31,.72-.34,.97-.03,.24,.18,.5,.15,.74-.03,.24-.24,.45-.27,.7-.03,.24-.02,.48-.04,.73-.03,.24,.25,.51,.22,.75-.03,.24-.12,.47-.15,.72-.02,.24-.4,.45-.42,.69-.02,.24,.12,.5,.09,.74-.02,.24-.09,.48-.11,.72-.02,.24,.17,.5,.15,.74-.02,.24,.05,.49,.03,.73-.02,.24-.28,.46-.3,.71-.02,.24-.16,.47-.18,.72-.02,.24,.12,.5,.1,.74-.02,.24-.23,.47-.24,.72-.02,.24,.4,.49,.38,.74,.05,.24-.15,.51-.09,.75,.06,.24-.03,.53,.04,.76,.07,.24,.54,.34,.63,.57,.09,.24,.03,.52,.12,.74,.1,.23,.27,.42,.37,.64,.11,.23,.37,.36,.48,.57,.12,.23,.04,.55,.16,.75,.14,.23,.4,.34,.52,.53,.15,.23,.27,.43,.4,.6,.13,.17,.16,.6,.35,.61,.19,0,.36-.33,.5-.49Z"/>
  <path class="cls-2" d="M39.32,61.33c-.34,.11-.35,.09-.65,.26-.31,.18-.2,.37-.51,.54-.31,.18-.5-.16-.81,.02-.31,.18-.13,.48-.44,.66-.31,.18-.34,.12-.65,.29-.31,.18-.33,.14-.64,.31-.31,.18-.21,.35-.52,.53-.31,.18-.33,.14-.64,.32q-.31,.18-.62,.36c-.31,.18-.5-.15-.81,.02-.31,.18-.31,.17-.62,.35-.31,.18-.1,.54-.4,.72-.31,.18-.47-.11-.78,.07-.31,.18-.35,.11-.65,.28-.31,.18-.15,.45-.46,.63-.31,.18-.37,.07-.68,.25-.31,.18-.34,.12-.65,.3-.31,.18-.18,.4-.49,.58-.31,.18-.45-.07-.76,.11-.31,.18-.21,.36-.51,.54-.31,.18-.29,.21-.6,.39-.31,.18-.35,.1-.66,.28-.31,.18-.3,.2-.61,.38-.31,.18-.25,.29-.56,.46-.31,.18-.35,.11-.66,.29-.31,.18-.41,0-.72,.18-.31,.18-.32,.15-.63,.33-.31,.18-.21,.36-.52,.54-.31,.18-.25,.28-.57,.46-.31,.18-.43-.02-.74,.16-.31,.18-.33,.15-.65,.32-.31,.17-.25,.08-.63,.33-.16,.11-.23,.41-.45,.58-.17,.13-.48,.12-.67,.3-.16,.14-.42,.22-.6,.4-.16,.16-.37,.29-.54,.47-.15,.17-.03,.59-.19,.78-.15,.17-.39,.28-.54,.47-.14,.18-.18,.44-.32,.64-.13,.19-.58,.17-.71,.38-.13,.19-.04,.52-.17,.73-.35-.03-.22-.37-.54-.51-.32-.14-.5,.27-.82,.13-.32-.14-.23-.35-.55-.49-.32-.14-.32-.15-.64-.29-.32-.14-.36-.06-.68-.21-.32-.14-.22-.37-.55-.52s-.45,.15-.78,0c-.29-.13-.58-.13-.76,.15-.13,.2-.39,.32-.5,.53-.12,.21,.04,.56-.06,.76-.11,.21-.45,.31-.55,.52-.09,.22-.01,.51-.09,.72-.08,.22-.03,.48-.09,.7-.07,.23-.42,.38-.47,.61-.05,.23-.07,.47-.11,.7-.04,.23,.29,.51,.26,.74-.02,.24-.52,.44-.53,.67,0,.24,.21,.48,.21,.71,0,.24,.15,.46,.17,.69,.02,.24-.09,.48-.06,.71,.03,.24,.33,.42,.37,.65,.04,.23,.11,.45,.16,.67,.05,.23-.12,.51-.06,.73,.06,.23-.16,.55-.08,.77,.08,.23,.37,.38,.45,.59,.09,.22,.17,.45,.26,.66,.09,.22,.13,.47,.22,.67,.1,.22,.34,.36,.45,.56,.11,.22,.2,.44,.31,.63,.18,.31,.45,.29,.72,.21,.25-.07,.5-.19,.54-.54,.03-.24,.11-.47,.16-.69,.06-.24,.08-.48,.15-.69,.08-.23,.04-.51,.14-.71,.11-.22,.47-.58,.59-.77,.02,.25,.12,.7,.15,.95,.03,.25-.21,.54-.16,.78,.05,.25,.38,.43,.43,.67,.06,.25-.23,.59-.16,.82,.07,.24,.07,.52,.15,.75,.09,.24,.56,.33,.66,.55,.1,.24,.12,.5,.22,.72,.11,.23-.05,.6,.07,.81,.12,.23,.67,.21,.8,.41,.14,.23,.02,.6,.15,.79,.16,.23,.39,.37,.52,.54,.13,.17,.28,.07,.47,.08,.19,0,.3,.09,.44-.07,.23-.27,.14-.35,.37-.62,.23-.27,.18-.32,.42-.59,.23-.27,.3-.22,.53-.49,.23-.27,.38-.15,.62-.42,.23-.27,.33-.19,.57-.46,.18-.21,.31-.3,.54-.23,.22,.06,.5,.16,.57,.43,.06,.24,.23,.42,.32,.64,.09,.23,.03,.51,.14,.72,.11,.22,.09,.52,.22,.72,.13,.21,.32,.39,.47,.57,.16,.2,.36,.35,.52,.51,.18,.18,.21,.51,.38,.66,.2,.17,.71-.07,.88,.06,.2,.15,.21,.18,.41,.09,.19-.09,.2-.15,.26-.39,.06-.24,.11-.5,.19-.73,.08-.24,.49-.36,.58-.59,.09-.24,.27-.43,.36-.65,.1-.24-.12-.6-.01-.82,.11-.23,.34-.4,.45-.61,.12-.23,.42-.35,.53-.55,.17-.3,.24-.35,.51-.28,.25,.07,.35,.15,.4,.5,.05,.37,.44,.32,.49,.69,.05,.37-.17,.4-.12,.77,.05,.37,.29,.34,.34,.71,.05,.37-.47,.44-.42,.82,.03,.24,.28,.62,.45,.74,.18,.12,.65,.08,.86-.02,.21-.1,.36-.35,.55-.46,.2-.12,.48-.14,.67-.27,.19-.14,.32-.37,.49-.52,.18-.15,.12-.55,.28-.71,.16-.17,.63-.06,.78-.23,.15-.18,.2-.45,.33-.64,.13-.19,0-.54,.12-.74,.12-.2,.3-.35,.41-.56,.1-.21,.39-.33,.48-.55,.09-.22-.09-.53-.02-.74,.08-.22,.14-.43,.2-.65,.07-.24,.42-.31,.59-.39,.19-.09,.51-.32,.7-.21,.16,.09,.11,.47,.16,.72,0,0,.25-.04,.25-.04,.05,.26,.03,.51,.23,.59,.21,.09,.61,.23,.81,.07,.2-.16,.3-.43,.48-.6,.18-.17,.38-.34,.54-.52,.17-.19,.32-.39,.47-.58,.15-.2,.13-.52,.25-.72,.13-.21,.08-.51,.19-.72,.11-.22,.68-.23,.78-.45,.1-.23,.16-.49,.23-.72,.08-.24,.11-.5,.17-.73,.06-.24,.04-.51,.08-.75,.05-.25-.06-.51-.03-.75,.03-.25,.07-.49,.09-.73,.02-.25,0-.5,0-.73,0-.23,.05-.54,.18-.67,.15-.15,.47-.04,.66-.01,.18,.02,.43,.04,.55,.24,.11,.19-.09,.31,.02,.5,.12,.2,.42,.43,.62,.45,.2,.02,.24-.4,.39-.58,.15-.19,.71-.08,.85-.28,.13-.2-.19-.68-.08-.89,.11-.21,.39-.34,.49-.56,.1-.22,.14-.46,.22-.69,.08-.23,.3-.41,.37-.65,.06-.24,.31-.44,.36-.67,.05-.24,0-.51,.03-.75,.04-.24,.03-.5,.05-.74,.03-.25-.03-.5-.02-.74,.02-.25-.16-.5-.15-.73,0-.25,.24-.49,.24-.72,0-.26-.22-.49-.23-.72-.02-.3,.27-.52,.47-.66,.21-.15,.55-.32,.79-.15,.37,.25,.28,.37,.65,.62,.24,.16,.58,.26,.79,.13,.19-.13,.43-.48,.43-.77,0-.22,.07-.47,.06-.73,0-.23-.16-.47-.18-.72-.02-.23-.09-.47-.11-.72-.02-.23,.08-.49,.05-.74-.03-.23-.09-.48-.13-.72-.04-.23-.12-.47-.17-.71-.05-.23-.33-.41-.4-.65-.06-.23-.05-.48-.13-.71-.07-.23-.31-.4-.4-.62-.09-.22,.2-.61,.1-.83-.1-.22-.43-.33-.54-.55-.11-.21-.28-.4-.41-.6-.13-.2-.4-.29-.55-.49-.15-.19-.1-.53-.26-.71-.16-.18-.37-.31-.54-.48-.18-.16-.3-.39-.5-.54-.19-.14-.3-.43-.51-.56-.2-.12-.45-.23-.67-.33-.21-.1-.5-.07-.74-.16-.22-.08-.46-.02-.7-.08Z"/>
  <path class="cls-4" d="M9.75,64.24s.08,.07,.07,.07c-.13,.2-.29,.36-.4,.57-.11,.21-.23,.4-.33,.62-.1,.22-.45,.32-.54,.54-.08,.22,.01,.51-.05,.73-.07,.23-.02,.48-.07,.71-.05,.23-.07,.46-.1,.69-.04,.23-.53,.41-.55,.65-.02,.24,.39,.5,.38,.74,0,.24-.47,.48-.46,.72,0,.24,.55,.44,.58,.67,.02,.24-.35,.52-.31,.76,.04,.23,.14,.46,.19,.69,.05,.23-.03,.51,.03,.74,.07,.23,.52,.33,.6,.56,.08,.22-.08,.54,.01,.76,.09,.22,.19,.44,.3,.65,.11,.21,.14,.47,.26,.68,.12,.21,.63,.17,.76,.37,.13,.2-.02,.58,.12,.78,.14,.19,.3,.37,.45,.56,.15,.18,.49,.2,.65,.37,.16,.17,.21,.45,.38,.62,.17,.16,.22,.47,.4,.63,.18,.15,.37,.31,.56,.46,.19,.14,.62-.05,.82,.08,.19,.13,.22,.53,.42,.65,.2,.12,.46,.15,.68,.26,.21,.11,.43,.18,.64,.28,.21,.1,.39,.26,.6,.35,.21,.09,.5,0,.71,.09,.22,.08,.38,.31,.6,.39,.22,.07,.44,.15,.66,.21,.22,.06,.41,.28,.63,.34,.23,.05,.5-.12,.73-.07,.23,.04,.48-.11,.71-.07,.23,.03,.44,.13,.67,.15l-.02,.18c.24,.02,.47,.27,.7,.28,.24,0,.49-.51,.73-.51,.24,0,.47,.09,.71,.09,.24,0,.48,.22,.72,.21,.24-.01,.46-.23,.7-.24,.24-.02,.47-.1,.7-.13,.24-.03,.47-.05,.7-.08,.24-.03,.54,.35,.77,.31,.24-.04,.46-.2,.69-.25,.24-.05,.38-.47,.61-.52,.23-.06,.47-.09,.69-.15,.23-.07,.51,.03,.73-.04,.23-.08,.48-.08,.7-.16,.23-.09,.37-.36,.59-.45,.22-.1,.56,.07,.77-.03,.22-.1,.43-.22,.64-.34,.21-.11,.33-.39,.53-.51,.21-.12,.4-.25,.6-.38,.2-.13,.53-.08,.72-.22,.19-.14,.14-.61,.32-.75,.19-.15,.52-.11,.7-.26,.18-.16,.47-.2,.64-.36,.17-.16,.27-.41,.44-.58,.17-.17,.26-.41,.42-.58,.16-.18,.13-.51,.28-.69,.15-.18,.32-.34,.47-.53,.15-.19,.26-.39,.4-.58,.14-.2,.56-.19,.69-.39,.13-.2,.18-.45,.3-.65,.12-.21,.44-.3,.55-.51,.12-.21,.09-.5,.19-.71,.11-.22,.29-.39,.39-.6,.1-.22,.25-.42,.34-.63,.1-.22,.26-.43,.34-.64,.09-.23-.22-.6-.14-.82,.08-.23,.02-.5,.09-.71,.08-.24,.4-.38,.46-.6,.07-.25,.4-.41,.45-.62,.06-.26-.17-.57-.13-.76,.09-.44,.1-.34,.14-.68"/>
  <g>
    <path class="cls-9" d="M19.14,88.86c-.05,.22-.34,.39-.46,.56-.12,.18-.4,.17-.58,.29-.18,.12-.31,.21-.53,.25-.21,.04-.39,.16-.61,.12-.22-.05-.54,.07-.72-.05-.18-.12-.25-.43-.37-.61-.12-.18,.01-.44-.03-.66-.04-.21-.05-.35,0-.58s-.11-.51,0-.68c.12-.18,.41-.19,.6-.31,.18-.12,.34-.22,.55-.27,.21-.04,.41-.09,.63-.05,.22,.05,.35,.23,.52,.35,.18,.12,.34,.22,.46,.4,.12,.18,.56,.28,.6,.5,.04,.21,0,.53-.06,.75Z"/>
    <path class="cls-7" d="M22.45,88.71c-.07-.24-.43-.41-.48-.65-.05-.24,.14-.54,.12-.78-.03-.24,.23-.48,.24-.73,0-.23-.22-.48-.22-.72,0-.23,.15-.48,.13-.72-.02-.24-.18-.46-.21-.7-.03-.24-.06-.47-.11-.7-.05-.23-.2-.44-.26-.66-.07-.23-.31-.38-.4-.59-.09-.22-.13-.43-.24-.63-.12-.21-.06-.52-.21-.7-.15-.18-.49-.14-.68-.28-.18-.14-.3-.32-.52-.42-.21-.09-.34-.42-.59-.47-.24-.05-.5,.09-.73,.09-.24,0-.49-.08-.72-.03-.23,.06-.32,.43-.53,.54-.21,.1-.41,.15-.6,.3-.19,.14-.37,.25-.54,.42-.17,.16-.39,.26-.54,.45-.15,.18-.34,.33-.47,.53-.13,.19-.22,.42-.34,.62-.12,.2-.05,.51-.15,.72-.11,.21-.21,.41-.31,.62-.1,.22-.41,.34-.49,.56-.09,.23,.07,.6-.05,.81-.12,.21-.72,.12-.86,.32-.14,.2-.26,.4-.41,.59-.1,.12-.22,.41-.24,.58-.02,.21,.45,.31,.58,.46,.13,.16,.18,.27,.38,.32,.35,.07,.38-.05,.73,.02,.35,.07,.25,.55,.6,.63,.35,.07,.38-.06,.73,.01s.32,.23,.67,.3c.35,.07,.35,.09,.7,.16,.35,.07,.42-.24,.77-.17,.35,.07,.31,.26,.66,.33,.35,.07,.42-.27,.77-.2,.35,.07,.36,.04,.71,.11,.35,.07,.31,.26,.67,.34,.35,.07,.38-.04,.73,.04s.28,.43,.63,.51c.21,.04,.5-.13,.68-.22,.18-.09,.09-.39,.16-.59,.06-.17,.27-.28,.23-.43Z"/>
  </g>
  <path class="cls-1" d="M28.87,2.82c-.25,.26-.06,.3-.36,.66-.13,.15-.09,.5-.26,.72-.14,.17-.32,.33-.48,.53-.14,.18-.4,.28-.55,.49-.14,.19-.55,.19-.69,.4-.13,.19-.04,.55-.18,.76-.13,.2-.03,.55-.16,.76-.12,.2-.29,.38-.41,.59-.12,.2-.49,.27-.61,.48-.12,.21-.04,.52-.16,.74-.11,.21-.12,.47-.22,.69-.11,.21-.39,.34-.49,.56-.1,.22-.12,.47-.22,.69-.09,.22-.26,.41-.35,.64-.09,.22-.49,.33-.58,.56-.08,.23,.15,.57,.08,.8-.07,.23-.24,.43-.31,.66-.07,.23,.18,.54,.12,.78-.06,.23-.51,.37-.57,.61-.05,.23,.14,.52,.09,.76-.04,.24-.05,.48-.09,.72-.04,.24-.04,.48-.06,.72-.03,.24-.43,.44-.44,.69-.02,.24,.27,.5,.26,.74,0,.24-.05,.48-.05,.72,0,.24,.06,.48,.06,.72,0,.24-.33,.5-.31,.75,.02,.24,.34,.45,.36,.7,.03,.24,.08,.47,.12,.71,.04,.24,.03,.48,.07,.72,.05,.23-.17,.53-.11,.77,.06,.23,.38,.4,.44,.64,.07,.23,.29,.41,.36,.64,.07,.23-.14,.56-.06,.79,.08,.22,.42,.35,.52,.58,.09,.22,.14,.46,.24,.68,.1,.22,.23,.42,.34,.64,.11,.21-.07,.58,.05,.8,.12,.21,.55,.24,.67,.45,.12,.21,.32,.36,.45,.57,.13,.2,.26,.4,.4,.6,.14,.2,.27,.39,.42,.58,.14,.19-.12,.69,.03,.88,.15,.19,.33,.36,.48,.55,.15,.18,.66,.07,.82,.26,.16,.18-.06,.7,.1,.88,.16,.18,.49,.21,.66,.38,.17,.17,.35,.33,.53,.5,.17,.17,.5,.17,.68,.34,.17,.16,.37,.31,.55,.47,.18,.16,.23,.46,.41,.62,.18,.16,.44,.22,.62,.38,.18,.15,.34,.34,.53,.5,.19,.15,.24,.47,.44,.62,.19,.15,.57,.05,.76,.2,.19,.14,.19,.56,.39,.7,.2,.14,.34,.37,.54,.51,.2,.14,.69,.13,.89,.27,.18-.3-.24-.33-.5-.68-.12-.16-.38-.26-.54-.48-.13-.18-.05-.52-.19-.73-.13-.19-.29-.36-.42-.57-.12-.19-.47-.25-.6-.46-.12-.2-.19-.43-.32-.64-.12-.2-.27-.39-.38-.6-.11-.21,.03-.55-.07-.76s-.51-.28-.61-.49c-.1-.22-.3-.4-.39-.61-.09-.22,0-.52-.07-.74-.08-.23,0-.5-.06-.72-.06-.24-.21-.44-.25-.67-.04-.24,.11-.48,.1-.71,0-.25-.2-.48-.16-.71,.04-.24,.26-.4,.37-.61,.11-.21-.03-.62,.15-.79,.16-.15,.46-.22,.69-.34,.19-.1,.5,.04,.74-.02,.21-.06,.41-.23,.67-.26,.25-.03,.49-.02,.71-.07,.24-.06,.45-.19,.66-.28,.23-.09,.5-.1,.69-.22,.21-.13,.18-.52,.34-.68,.17-.18,.24-.34,.35-.54,.12-.21,.65-.27,.69-.49,.04-.23-.12-.52-.16-.76-.04-.23-.32-.36-.43-.58-.11-.2-.28-.29-.45-.46-.16-.16-.21-.41-.43-.54-.19-.11-.41-.16-.65-.24-.21-.07-.42-.13-.66-.17-.22-.04-.43-.36-.68-.38-.23-.01-.47,.2-.72,.22-.25,.01-.5,.03-.72,.02-.25-.02-.54,.14-.75,.09-.25-.06-.32-.6-.51-.69-.23-.11-.67,.12-.83-.03-.18-.18,.04-.6-.03-.81-.08-.22-.25-.37-.22-.61,.02-.23-.19-.58-.07-.79,.11-.2,.62-.1,.8-.27,.16-.15,.18-.48,.4-.6,.19-.11,.36-.38,.6-.45,.21-.06,.48-.12,.73-.14,.22-.03,.48,.1,.73,.11,.22,0,.49-.12,.74-.09,.22,.03,.39,.41,.63,.47,.25,.07,.52,.12,.73,.12,.26,0,.45-.28,.66-.36,.23-.09,.26-.33,.43-.5,.16-.17,.29-.27,.39-.49,.1-.21,.59-.29,.65-.53,.05-.23-.19-.51-.19-.75,0-.24,.13-.49,.09-.72-.04-.24-.24-.44-.32-.66-.08-.23,.03-.58-.1-.77-.13-.2-.61-.09-.79-.24-.18-.15-.27-.4-.5-.47-.21-.07-.44-.23-.69-.22-.22,0-.52-.09-.77-.02-.25,.08-.4,.43-.63,.49-.26,.06-.54-.1-.76-.06-.27,.04-.49-.06-.71-.06-.28,0-.48,.08-.68,.03-.27-.08-.55-.01-.7-.17-.16-.18-.01-.45-.04-.71-.02-.22-.44-.51-.36-.77,.06-.22,.44-.35,.56-.58,.11-.21,.34-.33,.49-.54,.13-.19-.06-.65,.11-.85,.16-.18,.59-.11,.77-.29,.17-.17,.31-.37,.5-.53,.19-.15,.29-.43,.49-.57,.2-.14,.39-.32,.6-.45,.21-.12,.44-.25,.66-.35,.22-.1,.62,.08,.81-.06,.19-.15,.22-.49,.38-.67,.15-.18,.4-.31,.52-.52,.12-.21,.29-.42,.38-.64,.09-.22-.18-.56-.12-.79,.06-.23,.47-.41,.49-.65,.03-.24-.09-.51-.1-.74,0-.24-.4-.43-.44-.66-.05-.24-.04-.45-.13-.66-.09-.23-.03-.51-.18-.69-.15-.19-.45-.14-.65-.26-.2-.12-.25-.67-.5-.71-.22-.03-.49,.22-.75,.26-.22,.03-.36,.34-.6,.43-.21,.07-.43,.08-.66,.2-.2,.1-.4,.19-.62,.33-.19,.12-.29,.36-.49,.52-.18,.14-.38,.25-.57,.41-.17,.15-.47,.17-.65,.34-.17,.16-.51,.16-.68,.33Z"/>
  <g>
    <path class="cls-3" d="M25.67,33.57c.05-.36-.08-.37-.27-.8-.08-.19-.27-.38-.4-.63-.1-.2-.27-.39-.4-.63-.11-.2-.44-.3-.57-.52-.12-.2-.23-.42-.36-.63-.13-.2-.07-.53-.21-.74-.13-.2-.23-.44-.37-.64-.14-.19-.33-.36-.49-.56-.15-.19-.42-.28-.58-.47-.15-.18-.24-.43-.41-.62-.16-.18-.16-.52-.34-.7-.17-.17-.52-.18-.69-.36-.17-.17-.22-.48-.4-.65-.18-.17-.37-.33-.56-.49-.19-.17-.59-.09-.77-.24-.19-.17-.31-.4-.5-.55-.2-.16-.37-.34-.56-.48-.21-.15-.33-.41-.53-.53-.22-.14-.41-.33-.61-.44-.24-.13-.65,.22-.86,.14-.26-.09-.41-.38-.63-.38-.26,0-.58-.09-.78,.03-.19,.12-.43,.33-.57,.56-.12,.18-.19,.46-.28,.71-.08,.21-.15,.45-.21,.71-.05,.22-.15,.46-.2,.72-.04,.23,.33,.52,.31,.78-.03,.23-.09,.46-.11,.72-.02,.23-.06,.47-.07,.72-.01,.24-.12,.47-.13,.73,0,.24-.08,.48-.08,.74,0,.24,.13,.47,.14,.7,.01,.24-.16,.49-.13,.72,.03,.24,.36,.42,.4,.64,.05,.24-.01,.48,.05,.7,.07,.23,.2,.42,.28,.64,.09,.22,.11,.45,.21,.66,.11,.21,.27,.38,.39,.57,.13,.2,.14,.47,.28,.65,.15,.19,.35,.31,.51,.48,.16,.17,.32,.34,.49,.48,.18,.15,.25,.46,.44,.59,.2,.13,.38,.32,.59,.42,.21,.11,.5,.05,.72,.13,.22,.08,.47,.05,.7,.11,.23,.05,.43,.29,.66,.31,.23,.03,.48-.1,.71-.1,.23,0,.44-.22,.68-.25,.23-.03,.45,.02,.69-.03,.23-.05,.44-.09,.67-.16,.22-.07,.38-.25,.6-.35,.21-.1,.5-.02,.7-.14,.2-.12,.55-.02,.74-.16,.19-.13,.08-.65,.26-.81,.18-.15,.48-.15,.65-.32,.16-.16,.41-.25,.57-.43,.15-.17,.46-.37,.61-.56Z"/>
    <path class="cls-2" d="M23.08,33.13c.06-.34,0-.17-.18-.56-.08-.17-.21-.36-.34-.58-.1-.18-.26-.35-.39-.56-.12-.18-.22-.38-.37-.57-.13-.18-.2-.4-.36-.59-.14-.17-.39-.25-.56-.42-.15-.16,.02-.66-.15-.82-.16-.16-.51-.13-.69-.29-.2-.18-.3-.45-.48-.6-.21-.17-.5-.21-.69-.34-.24-.16-.41-.39-.6-.47-.28-.12-.6-.15-.8-.08-.21,.07-.54,.25-.67,.52-.09,.18-.02,.5-.08,.78-.04,.21,.04,.48,.01,.75-.02,.22,.14,.48,.12,.74-.01,.23-.24,.47-.25,.73,0,.24-.27,.51-.25,.73,.03,.24,.21,.47,.27,.69,.06,.24,0,.54,.08,.75,.1,.22,.53,.27,.66,.46,.14,.2,.04,.61,.21,.77,.17,.17,.6,.02,.8,.15,.2,.13,.41,.15,.63,.23,.22,.08,.35,.54,.58,.57,.23,.03,.5-.13,.73-.14,.23-.02,.48-.04,.71-.11,.22-.06,.51-.03,.73-.14,.2-.1,.16-.61,.35-.76,.18-.14,.55-.05,.72-.22,.16-.16,.09-.42,.24-.61Z"/>
  </g>
  <path class="cls-1" d="M64.34,19.57c-.03,.36,.29,.29,.23,.75-.03,.2-.33,.4-.38,.68-.04,.22,.23,.51,.18,.77-.04,.22-.08,.47-.14,.71-.05,.23-.09,.47-.15,.71-.06,.23-.53,.35-.6,.59-.06,.23,.05,.51-.02,.75-.07,.23-.41,.37-.49,.6-.07,.23,.19,.57,.1,.8-.08,.22-.24,.42-.32,.65-.08,.22-.43,.34-.52,.57-.09,.22-.1,.47-.2,.7-.1,.22,.16,.6,.05,.82-.1,.22-.39,.35-.51,.56-.11,.21-.16,.46-.28,.68-.12,.21-.24,.42-.37,.63-.12,.21-.1,.51-.23,.71-.13,.2-.43,.3-.57,.5-.13,.2-.19,.46-.33,.66-.14,.19-.19,.47-.34,.66-.15,.19-.71,.05-.87,.23-.15,.18-.26,.41-.42,.59-.16,.18-.18,.49-.35,.66-.17,.17-.38,.3-.56,.47-.17,.17-.49,.17-.67,.33-.18,.16-.21,.49-.4,.64-.19,.15-.32,.37-.51,.52-.19,.14-.39,.29-.59,.43-.2,.14-.31,.41-.52,.54-.2,.13-.66-.16-.87-.03-.21,.12-.31,.43-.52,.54-.21,.11-.34,.39-.56,.5-.22,.1-.42,.26-.64,.36-.22,.09-.48,.12-.7,.21-.22,.09-.51,0-.74,.08-.23,.08-.51-.04-.75,.03-.23,.07-.34,.57-.57,.63-.23,.06-.53-.15-.77-.1-.23,.05-.46,.14-.7,.18-.24,.04-.46,.17-.7,.2-.24,.04-.49-.01-.73,.02-.24,.03-.47,.1-.72,.12-.24,.02-.49-.21-.73-.2-.24,.01-.47,.14-.71,.15-.24,0-.47,.14-.72,.14-.24,0-.48,.07-.73,.06-.24,0-.49,.14-.73,.13-.24-.01-.49,0-.73,0-.24-.02-.44-.57-.68-.59-.24-.02-.53,.48-.78,.45-.24-.03-.45-.32-.69-.35-.24-.03-.44-.32-.68-.36-.24-.04-.53,.27-.77,.23-.24-.04-.42-.4-.66-.45-.23-.05-.48-.01-.72-.06-.24-.05-.53,.16-.77,.11-.23-.05-.48-.07-.72-.13-.24-.06-.25-.21-.49-.27,.09-.34,.07-.05,.51-.08,.2-.02,.44,.02,.71,0,.22-.02,.44-.19,.69-.22,.22-.03,.43-.22,.68-.25,.23-.03,.48,.07,.72,.03,.23-.04,.49,.09,.73,.04,.23-.04,.47-.06,.7-.11,.23-.05,.46-.13,.69-.19,.23-.06,.48-.07,.7-.14,.23-.07,.49-.05,.72-.12,.23-.08,.47-.14,.69-.23,.22-.09,.39-.33,.6-.43,.22-.11,.36-.35,.56-.47,.21-.13,.53-.12,.7-.26,.19-.16,.17-.52,.31-.7,.15-.19,.18-.41,.26-.62,.09-.22,.4-.38,.41-.62,0-.22-.39-.39-.45-.64-.06-.21-.07-.4-.19-.63-.1-.2,.01-.52-.13-.73-.14-.2-.54-.25-.65-.45-.12-.22,.24-.64,.17-.85-.08-.24-.56-.36-.6-.58-.04-.25,.29-.51,.31-.73,.02-.25,.02-.46,.1-.67,.08-.23-.09-.62,.05-.81,.15-.19,.42-.35,.62-.48,.2-.12,.57,.18,.8,.12,.22-.05,.41-.38,.66-.36,.22,.02,.38,.34,.62,.42,.21,.07,.46,.02,.68,.15,.19,.11,.33,.3,.53,.46,.18,.14,.36,.26,.54,.44,.16,.16,.33,.32,.48,.51,.16,.2,.36,.34,.52,.49,.18,.18,.48,.17,.66,.3,.21,.15,.32,.39,.52,.47,.24,.1,.46,.16,.67,.18,.25,.02,.42-.15,.63-.23,.22-.08,.48-.06,.64-.23,.15-.17,.28-.37,.37-.6,.08-.21,.31-.44,.32-.69,0-.22-.3-.45-.36-.69-.05-.22-.12-.42-.23-.65-.09-.2-.35-.29-.49-.49-.13-.18,0-.58-.16-.76-.15-.16-.35-.31-.54-.47-.17-.14-.44-.18-.65-.31-.22-.15-.54-.21-.68-.37-.17-.19-.29-.49-.37-.71-.08-.23,.12-.53,.13-.77,.02-.23-.12-.54-.03-.76,.09-.21,.21-.47,.36-.67,.14-.19,.61-.08,.79-.24,.17-.16,.23-.45,.43-.58,.2-.13,.49-.03,.71-.11,.23-.09,.35-.55,.58-.58,.24-.03,.54-.02,.77,.02,.23,.04,.4,.35,.61,.47,.19,.11,.37,.24,.53,.44,.14,.17,.39,.31,.49,.54,.11,.24,.08,.52,.19,.73,.12,.24,.47,.31,.59,.5,.15,.23,.2,.47,.34,.63,.19,.21,.17,.62,.35,.74,.24,.16,.58,.15,.8,.15,.24,0,.39-.28,.6-.44,.18-.13,.39-.22,.54-.45,.12-.19,.46-.31,.56-.56,.08-.21-.22-.57-.16-.82,.06-.23,.27-.43,.31-.68,.03-.24-.14-.49-.13-.74,.01-.24-.04-.47-.05-.72,0-.24,.43-.52,.41-.77-.03-.24,0-.52-.05-.76-.05-.24-.21-.47-.28-.71-.07-.23-.16-.42-.18-.66-.01-.24-.31-.5-.27-.74,.04-.23,.36-.41,.43-.64,.08-.22,0-.52,.11-.74,.11-.21,.19-.47,.33-.66,.14-.2,.65-.09,.81-.26,.16-.18,.13-.53,.31-.68,.19-.16,.38-.31,.58-.42,.21-.13,.41-.3,.63-.37,.23-.08,.51,.2,.74,.19,.24-.01,.41-.06,.64,.02,.22,.07,.4,.12,.59,.28,.17,.14,.25,.32,.4,.54,.12,.18,.27,.34,.36,.58,.08,.2,.03,.44,.09,.69,.05,.22,.17,.42,.2,.67,.03,.22,.17,.44,.19,.69,.02,.23-.05,.46-.04,.71,0,.23,.16,.47,.15,.72,0,.23-.2,.46-.22,.71Z"/>
  <g>
    <path class="cls-3" d="M42.32,42.28c.24-.28,.3,.04,.75-.11,.19-.06,.43-.11,.7-.19,.21-.06,.46-.06,.72-.12,.22-.05,.38-.47,.64-.52,.23-.04,.53,.26,.79,.22,.23-.04,.44-.33,.69-.36,.23-.03,.48,0,.74-.03,.24-.02,.48-.04,.73-.06,.24-.01,.49,.04,.74,.03,.24,0,.48,.02,.73,.02,.24,0,.49-.29,.74-.28,.24,0,.49,0,.74,0,.24,.02,.49,.05,.74,.07,.24,.02,.44,.5,.69,.53,.25,.03,.54-.26,.77-.23,.25,.04,.49,.1,.73,.14,.25,.04,.52-.02,.75,.03,.25,.05,.48,.18,.7,.24,.25,.07,.47,.22,.68,.3,.25,.09,.53,.09,.73,.2,.24,.13,.55,.23,.7,.4,.17,.19,.19,.56,.23,.8,.04,.22-.3,.41-.37,.68-.06,.21,.12,.52-.01,.76-.1,.19-.38,.3-.53,.52-.13,.19-.08,.53-.24,.73-.14,.18-.22,.44-.39,.64-.15,.17-.69,0-.87,.19-.16,.17-.05,.62-.23,.8-.17,.17-.34,.34-.52,.52-.17,.16-.42,.26-.61,.43-.18,.16-.36,.31-.54,.45-.19,.15-.3,.4-.49,.53-.2,.14-.52,.07-.72,.19-.21,.12-.34,.36-.55,.46-.22,.1-.45,.16-.67,.24-.22,.08-.44,.2-.66,.26-.23,.06-.49,0-.72,.05-.24,.04-.45,.34-.68,.36-.24,.02-.49-.28-.72-.29-.24,0-.44-.2-.67-.23-.23-.03-.44-.08-.66-.14-.23-.06-.59,.29-.81,.2-.22-.09-.3-.48-.51-.59-.21-.11-.39-.24-.58-.37-.19-.13-.33-.3-.51-.46-.18-.16-.64-.03-.8-.2-.16-.17-.28-.41-.42-.6-.13-.19-.18-.46-.29-.67-.11-.2-.25-.41-.34-.63-.09-.21,0-.5-.06-.73-.07-.22-.06-.45-.11-.69-.05-.23-.33-.42-.36-.66-.03-.23-.07-.47-.08-.71,0-.23,.32-.46,.34-.7,.01-.23-.42-.51-.39-.75,.03-.23,.32-.44,.36-.68Z"/>
    <path class="cls-2" d="M43.88,43.52c.22-.27,.48,.22,.9,.09,.19-.05,.37-.25,.63-.3,.2-.04,.43-.07,.68-.1,.21-.03,.42-.25,.67-.27,.22-.02,.46,.02,.7,.01,.22,0,.46-.05,.7-.04,.22,0,.45,.13,.69,.14,.22,.02,.46,0,.7,.03,.26,.03,.55-.16,.78-.12,.27,.04,.52,.17,.74,.23,.28,.07,.36,.57,.55,.66,.27,.13,.49,.1,.58,.29,.09,.2,.26,.44,.14,.73-.08,.19-.31,.35-.48,.59-.13,.18-.3,.35-.49,.56-.15,.17-.38,.29-.57,.48-.16,.16-.37,.3-.57,.48-.18,.17-.17,.55-.35,.69-.2,.14-.38,.36-.58,.46-.22,.11-.63-.26-.84-.19-.23,.07-.35,.63-.58,.66-.24,.03-.5-.35-.73-.36-.24-.02-.5,.15-.73,.09-.23-.06-.4-.28-.6-.39-.21-.11-.5-.12-.67-.27-.18-.15-.35-.34-.49-.53-.14-.18,.07-.57-.03-.78-.1-.21-.32-.34-.38-.57-.06-.22-.36-.41-.38-.65-.02-.23,.28-.47,.3-.71,.01-.23-.3-.63-.26-.87Z"/>
  </g>
  <path class="cls-3" d="M38.21,37.52c-.19-.14-.33-.35-.53-.49-.2-.14-.36-.31-.56-.45-.2-.13-.31-.41-.51-.54-.2-.13-.44-.21-.64-.33-.21-.12-.59,.06-.79-.05-.21-.12-.29-.47-.5-.58-.21-.11-.5-.06-.72-.17-.22-.11-.31-.45-.53-.55-.22-.1-.54,.04-.76-.05-.22-.09-.32-.5-.54-.58-.22-.09-.43-.23-.66-.31-.23-.08-.52,.04-.75-.03-.23-.07-.42-.3-.64-.36-.23-.06-.5,0-.73-.05-.23-.06-.51,.09-.74,.04-.23-.05-.44-.26-.67-.3-.24-.04-.51,.16-.74,.13-.24-.03-.45-.21-.69-.23-.24-.02-.46-.25-.7-.26-.24-.01-.48-.09-.72-.1-.24,0-.48,.35-.72,.35-.24,0-.47,0-.71,.02-.24,.02-.49-.13-.73-.11-.24,.03-.44,.29-.68,.33-.24,.04-.53-.26-.76-.21-.23,.05-.39,.45-.62,.5-.23,.06-.55-.21-.78-.15-.23,.07-.48,.08-.71,.16-.23,.08-.42,.26-.64,.35-.22,.09-.46,.15-.68,.25-.22,.1-.26,.56-.47,.67-.21,.11-.61-.13-.81-.01-.21,.12-.33,.39-.53,.52-.2,.13-.3,.4-.5,.53-.2,.13-.52,.08-.71,.23-.19,.14-.26,.44-.44,.59-.18,.15-.49,.16-.67,.32-.18,.16-.14,.54-.31,.71-.17,.17-.34,.32-.5,.5-.16,.17-.4,.26-.56,.45-.16,.18-.57,.14-.73,.33-.15,.19-.17,.48-.31,.67-.15,.2-.26,.42-.39,.62-.14,.2-.47,.28-.6,.49-.13,.21-.04,.55-.16,.76-.12,.21-.21,.44-.33,.65-.11,.22-.43,.33-.54,.55-.11,.22-.33,.4-.43,.62-.1,.22,.27,.64,.18,.87-.09,.23-.2,.44-.28,.67-.08,.23-.11,.47-.18,.7-.07,.23-.25,.43-.31,.66-.06,.24-.32,.42-.37,.66-.05,.24-.16,.47-.21,.71-.05,.24-.16,.47-.2,.71-.04,.24,.27,.53,.24,.77-.03,.24,0,.48-.02,.73-.02,.24-.4,.46-.41,.71,0,.24,.45,.49,.45,.74,0,.23-.21,.46-.24,.69-.02,.23-.24,.42-.29,.64-.05,.22-.02,.46-.09,.67-.07,.22-.37,.33-.46,.54-.09,.21,.13,.55,.03,.76-.11,.2-.23,.4-.35,.59-.12,.19-.4,.27-.54,.45,0,0,.13,.12,.12,.12-.14,.19-.43,.28-.56,.48-.13,.2-.34,.36-.46,.56-.12,.2,.17,.64,.06,.85-.11,.21-.39,.33-.49,.54-.1,.22-.06,.48-.15,.7-.09,.22-.49,.32-.57,.55-.08,.23-.06,.48-.12,.71-.06,.23-.13,.46-.18,.69-.05,.23-.05,.48-.08,.71-.04,.23,0,.48-.03,.71-.02,.24-.31,.46-.32,.7,0,.24,.28,.48,.28,.72s-.26,.49-.24,.73c.02,.24,.31,.45,.34,.68,.03,.23-.18,.51-.14,.74,.04,.23,.43,.39,.49,.63,.05,.23,.1,.46,.16,.68,.07,.23-.18,.55-.1,.78,.08,.22,.47,.33,.56,.55,.09,.22,.01,.51,.11,.72,.1,.21,.26,.4,.37,.61,.11,.21,.21,.42,.33,.63,.12,.2,.24,.41,.37,.61,.13,.2,.18,.45,.32,.65,.14,.19,.38,.31,.53,.5,.14,.19,.13,.51,.28,.69,.15,.18,.64,.06,.8,.24,.16,.17-.05,.7,.12,.87,.17,.17,.31,.37,.49,.53,.17,.16,.61,.03,.79,.19,.18,.15,.15,.56,.33,.71,.18,.15,.4,.27,.59,.41,.2,.15,.65-.06,.85,.08,.2,.14,.36,.35,.56,.48,.21,.13,.27,.51,.48,.63,.22,.12,.39,.33,.61,.44,.22,.11,.47,.2,.69,.3,.22,.11,.61-.16,.84-.07,.23,.1,.35,.44,.58,.53,.23,.09,.48,.12,.72,.2,.24,.07,.52-.02,.75,.04,.24,.06,.37,.53,.61,.58,0,0,.03-.16,.03-.16,.24,.05,.51-.07,.75-.03,.24,.04,.43,.38,.67,.42,.24,.04,.48,.1,.72,.13,.24,.03,.5-.03,.74,0,.24,.02,.49,.1,.72,.11,.24,.01,.5-.39,.74-.38,.24,0,.48,.28,.72,.28,.24,0,.48-.19,.72-.2,.24-.01,.48-.05,.72-.07,.24-.02,.49,.03,.72,0,.24-.03,.46-.2,.7-.23,.24-.03,.55,.34,.78,.3,.24-.04,.44-.29,.68-.34,.24-.05,.5,0,.73-.06,.23-.06,.38-.45,.61-.52,.23-.07,.51,.02,.74-.05,.23-.07,.47-.11,.7-.19,.23-.08,.36-.41,.58-.5,.23-.09,.43-.21,.65-.31,.22-.1,.6,.16,.82,.06,.22-.1,.44-.22,.65-.33,.22-.11,.27-.52,.48-.64,.21-.12,.65,.17,.86,.05,.21-.12,.44-.22,.64-.35,.2-.13,.15-.66,.35-.8,.2-.13,.46-.18,.65-.32,.2-.14,.57-.04,.76-.18,.19-.14,.32-.38,.51-.53,.19-.15,.48-.18,.67-.33,.19-.15,.33-.37,.51-.52,.18-.16,.21-.49,.39-.65,.18-.16,.58-.09,.75-.26,.18-.17,.33-.36,.5-.53,.17-.17,.14-.54,.31-.72,.17-.18,.39-.3,.55-.48,.17-.18,.48-.23,.64-.41,.16-.18,.11-.55,.26-.74,.16-.19,.42-.28,.57-.46,.15-.19,.12-.52,.27-.71,.15-.19,.42-.28,.57-.47,.15-.2,.39-.31,.53-.51,.14-.2,.23-.43,.37-.62,.14-.2,.28-.4,.41-.6,.14-.21,.18-.47,.31-.66,.14-.21,.19-.46,.31-.66,.13-.21,.29-.4,.4-.59,.13-.22,.24-.43,.35-.63,.13-.23,.17-.48,.28-.67,.13-.24,.46-.34,.55-.52,.21-.41,.27-.27,.4-.6,0,0-.34-.15-.34-.15,.12-.21,.47-.3,.57-.52,.11-.22,.14-.47,.23-.69,.1-.22,.41-.36,.49-.58,.09-.23,.05-.5,.13-.73,.08-.23,.13-.47,.19-.7,.07-.23,.15-.46,.21-.7,.06-.24-.14-.52-.1-.76,.04-.24,.25-.44,.29-.68,.03-.24-.21-.5-.19-.74,.02-.24,.55-.44,.56-.68,.01-.24-.43-.49-.43-.73,0-.24,.03-.47,.02-.71-.01-.24,.35-.51,.33-.75-.02-.24-.44-.44-.47-.67-.03-.24-.03-.48-.07-.71-.04-.24,.06-.5,.01-.74-.05-.23-.35-.41-.41-.64-.06-.23-.05-.48-.12-.71-.07-.23-.22-.43-.3-.65-.08-.23,.13-.56,.05-.79-.09-.22-.08-.49-.18-.71-.1-.22-.48-.31-.58-.53-.11-.22,.06-.57-.06-.78-.11-.21-.31-.38-.43-.59-.12-.21-.35-.35-.48-.56-.13-.2-.21-.44-.34-.64-.13-.2-.52-.22-.66-.41-.14-.19,.08-.66-.07-.85-.15-.19-.61-.13-.77-.31-.15-.19-.06-.58-.22-.76-.16-.18-.31-.37-.48-.55-.16-.18-.27-.41-.44-.58-.17-.17-.56-.12-.73-.29-.17-.17-.47-.2-.64-.36-.18-.16-.16-.53-.34-.69-.18-.16-.46-.2-.65-.35-.19-.15-.36-.32-.55-.47-.19-.15-.42-.24-.61-.39Z"/>
  <path class="cls-5" d="M15.81,54.1c-.11,.2-.03,.58-.24,.7-.2,.11-.48,.16-.72,.18-.23,.02-.53,.05-.75-.02-.22-.07-.5-.18-.64-.32-.16-.15-.11-.51-.15-.7-.04-.2,.22-.28,.33-.48,.11-.2,.04-.53,.25-.65,.2-.11,.44-.27,.68-.28,.23-.02,.43,.29,.65,.37,.22,.07,.61-.13,.75,0,.16,.15,.2,.5,.23,.69,.04,.2-.29,.31-.4,.51Z"/>
  <path class="cls-5" d="M23.13,56.77c-.05,.22,.08,.44,.16,.67,.08,.21,.35,.24,.51,.41,.16,.16,.23,.32,.45,.41,.21,.09,.36,.52,.55,.51,.22-.01,.51-.18,.67-.31,.16-.12-.1-.49-.05-.71,.05-.22,.32-.42,.24-.64-.08-.21-.26-.38-.43-.55-.16-.16-.4-.17-.62-.26-.21-.09-.36-.3-.55-.29-.22,.01-.29,.29-.45,.41-.16,.12-.44,.13-.48,.35Z"/>
  <path class="cls-5" d="M8.99,62.48c-.11,.23-.33,.37-.48,.56-.16,.2-.33,.33-.53,.49-.2,.15-.27,.49-.49,.61-.22,.11-.53,0-.77,.07-.24,.07-.46,.16-.71,.19-.25,.03-.49,.3-.75,.29-.25,0-.54,.07-.79,.02-.24-.04-.45-.34-.69-.43-.23-.08-.42-.27-.65-.39-.23-.11-.36-.35-.57-.49-.21-.14-.56-.09-.74-.25-.19-.17-.47-.27-.63-.46-.16-.2-.01-.61-.14-.82-.13-.22-.2-.43-.29-.66-.09-.24-.47-.38-.51-.62-.05-.25-.25-.52-.24-.77,0-.25,.13-.54,.18-.78,.06-.24,.5-.34,.61-.57,.11-.23,.23-.39,.39-.59,.16-.2,.13-.55,.33-.71,.2-.15,.36-.42,.58-.53,.22-.11,.47-.29,.71-.36,.24-.07,.59,.37,.84,.34,.25-.03,.46-.05,.72-.04,.25,0,.54-.4,.8-.36,.24,.04,.39,.5,.63,.58,.23,.08,.64-.24,.87-.13s.38,.4,.58,.54c.21,.14,.3,.43,.49,.6,.19,.17,.56,.17,.72,.36,.16,.2-.05,.65,.07,.86,.13,.22,.57,.27,.67,.5,.09,.24,.15,.5,.2,.74,.05,.25,.14,.52,.13,.77,0,.25-.01,.54-.07,.78-.06,.24-.35,.42-.46,.65Z"/>
  <path class="cls-8" d="M11.56,69.88c.2,.14,.55-.02,.76,.08,.22,.1,.36,.32,.58,.38,.23,.06,.46-.06,.7-.04,.24,.02,.44,.19,.68,.17,.24-.02,.48,.05,.71,0,.23-.06,.38-.3,.6-.4,.21-.1,.41-.19,.6-.33,.19-.13,.44-.19,.6-.36,.17-.16,.49-.22,.63-.41,.13-.19,.34-.39,.44-.61,.1-.21-.03-.54,.04-.77"/>
</svg>