<?xml version="1.0" encoding="UTF-8"?>
<svg id="Layer_1" data-name="Layer 1" xmlns="http://www.w3.org/2000/svg" viewBox="0 0 11.13 10.21">
  <defs>
    <style>
      .cls-1 {
        fill: #f15b43;
      }
    </style>
  </defs>
  <path class="cls-1" d="M10.54,7.56c-.11,.22-.15,.49-.3,.68-.15,.2-.17,.54-.35,.71s-.46,.26-.67,.4c-.2,.13-.61-.12-.84-.02-.22,.1-.4,.23-.64,.3-.23,.06-.39,.55-.64,.58-.24,.03-.52-.26-.77-.26s-.49,.05-.73,.02c-.24-.03-.51,.06-.75,0s-.42-.31-.66-.39c-.23-.08-.56,.05-.78-.06s-.23-.61-.43-.73c-.21-.13-.61,.02-.8-.13-.19-.16-.37-.35-.54-.52-.17-.18-.4-.33-.55-.52-.15-.2-.35-.39-.47-.6s-.04-.55-.13-.77c-.09-.23,.08-.53,.02-.76-.06-.24-.4-.41-.42-.66-.02-.24-.11-.51-.09-.75,.02-.24,.35-.43,.41-.67,.06-.23-.21-.61-.1-.83,.11-.22,.37-.39,.52-.58,.15-.2,.27-.46,.44-.62,.18-.17,.45-.26,.65-.4,.2-.13,.45-.21,.68-.31,.22-.1,.51-.01,.74-.08,.23-.06,.45-.16,.69-.19,.24-.03,.47-.4,.72-.4s.49,.28,.73,.31c.24,.03,.52-.1,.76-.04s.4,.39,.63,.47,.56-.05,.78,.06,.27,.52,.48,.65c.21,.13,.35,.32,.54,.47,.19,.16,.5,.16,.67,.33,.17,.18,.2,.46,.35,.65,.15,.2,.39,.31,.51,.52s.41,.35,.51,.57c.09,.23,0,.52,.07,.76,.06,.24,.33,.45,.35,.7,.02,.24-.13,.51-.15,.75-.02,.24-.27,.44-.33,.67-.06,.23-.03,.49-.14,.71l.03-.02Z"/>
</svg>