<?xml version="1.0" encoding="utf-8"?>
<!-- Generator: Adobe Illustrator 27.0.0, SVG Export Plug-In . SVG Version: 6.00 Build 0)  -->
<svg version="1.1" id="Layer_1" xmlns="http://www.w3.org/2000/svg" xmlns:xlink="http://www.w3.org/1999/xlink" x="0px" y="0px"
	 viewBox="0 0 123 168.7" style="enable-background:new 0 0 123 168.7;" xml:space="preserve">
<style type="text/css">
	.st0{fill:#AA714B;}
	.st1{fill:#996942;}
	.st2{fill:url(#SVGID_1_);}
	.st3{fill:#8A6539;}
	.st4{fill:#BB8758;}
	.st5{fill:#AA784B;}
	.st6{fill:#E5C494;}
	.st7{fill:#00B49D;}
	.st8{fill:#F47920;}
	.st9{fill:#F7941D;}
	.st10{fill:#F2DAA4;}
	.st11{fill:#D39C6E;}
	.st12{fill:#73542D;}
	.st13{fill:none;stroke:#73542D;stroke-width:1.5;stroke-linecap:round;stroke-miterlimit:10;}
</style>
<path class="st0" d="M104.5,101.1c-0.1-0.3-0.1-0.3-0.1-0.7c0-0.2-0.3-0.4-0.4-0.7c0-0.2,0.4-0.5,0.4-0.8c0-0.2-0.4-0.4-0.4-0.7
	c0-0.2-0.1-0.5-0.1-0.7c0-0.2-0.1-0.5-0.1-0.7c0-0.2,0.3-0.5,0.3-0.7s0.2-0.5,0.2-0.7c0-0.2-0.2-0.5-0.2-0.8c0-0.2,0.3-0.4,0.4-0.7
	s-0.2-0.6-0.1-0.8c0.1-0.2,0.4-0.4,0.5-0.6s-0.1-0.6,0-0.8c0.1-0.2,0.2-0.5,0.3-0.7c0.1-0.2,0.6-0.2,0.7-0.4
	c0.1-0.2,0.3-0.3,0.5-0.5c0.2-0.2,0.2-0.5,0.4-0.6c0.2-0.2,0.3-0.4,0.5-0.6c0.2-0.1,0.3-0.4,0.5-0.5c0.2-0.1,0.6,0.2,0.9,0.1
	c0.2-0.1,0.4-0.2,0.6-0.3c0.2-0.1,0.4-0.1,0.7-0.2c0.2-0.1,0.4-0.2,0.7-0.2c0.2-0.1,0.5,0,0.7,0c0.2,0,0.5-0.1,0.7-0.1
	c0.2-0.1,0.4-0.4,0.6-0.5c0.2-0.1,0.6,0.1,0.8,0.1c0.2-0.1,0.5-0.2,0.7-0.2c0.2-0.1,0.3-0.5,0.5-0.6c0.2-0.1,0.6,0.1,0.8-0.1
	c0.2-0.1,0.2-0.6,0.4-0.7c0.2-0.2,0.6,0,0.8-0.2c0.2-0.2,0.2-0.5,0.3-0.7c0.1-0.2,0-0.6,0.1-0.8c0.1-0.2,0.7-0.2,0.8-0.4
	s0-0.5,0.1-0.8s0.2-0.5,0.2-0.7c0.1-0.3,0.1-0.4,0.3-0.6c0.2-0.2,0.2-0.6,0.5-0.7s0.5,0.2,0.8,0.2c0.2,0.1,0.5,0.1,0.7,0.3
	c0.2,0.2,0.1,0.4,0.2,0.7c0.1,0.2,0.7,0.2,0.7,0.5c0.1,0.2,0,0.5,0.1,0.7c0.1,0.2,0.3,0.4,0.4,0.6c0.1,0.2-0.3,0.6-0.2,0.8
	c0.1,0.2,0.3,0.4,0.3,0.6c0.1,0.2,0.3,0.4,0.4,0.6c0.1,0.2,0,0.5,0.1,0.7s0.3,0.4,0.4,0.7c0,0.2,0,0.5,0.1,0.7
	c0,0.2,0.1,0.5,0.1,0.7s0,0.5,0,0.7c0,0.2-0.3,0.5-0.3,0.7c0,0.2,0.5,0.5,0.5,0.7c0,0.2,0.1,0.5,0.1,0.7c0,0.2-0.5,0.5-0.5,0.7
	c0,0.2-0.1,0.5-0.1,0.7c0,0.2,0.1,0.5,0.1,0.7c0,0.2,0,0.5-0.1,0.7c-0.1,0.2,0,0.5,0,0.7c-0.1,0.2-0.3,0.4-0.3,0.6
	c-0.1,0.2-0.3,0.4-0.4,0.6c-0.1,0.2,0,0.5-0.1,0.7c-0.1,0.2-0.3,0.3-0.5,0.5c-0.1,0.2-0.2,0.4-0.4,0.6c-0.2,0.2-0.4,0.3-0.6,0.4
	c-0.2,0.2-0.2,0.5-0.3,0.7c-0.2,0.2-0.6,0-0.8,0.2c-0.2,0.2-0.3,0.4-0.5,0.6c-0.2,0.2-0.4,0.3-0.6,0.4c-0.2,0.1-0.2,0.5-0.4,0.7
	c-0.2,0.1-0.5,0.2-0.7,0.3c-0.2,0.1-0.4,0.2-0.6,0.4c-0.2,0.1-0.5,0.1-0.7,0.2c-0.2,0.1-0.5,0-0.8,0.1c-0.2,0.1-0.3,0.4-0.6,0.5
	s-0.5,0-0.8,0.1c-0.2,0.1-0.4,0.3-0.6,0.4c-0.2,0.1-0.4,0.2-0.7,0.3s-0.6-0.2-0.8-0.1c-0.2,0.1-0.4,0.3-0.7,0.4
	c-0.2,0.1-0.4,0.2-0.7,0.3c-0.2,0.1-0.5,0-0.7,0c-0.2,0-0.5,0.1-0.7,0.1c-0.2,0-0.5,0.3-0.7,0.3s-0.5-0.4-0.8-0.3
	c-0.2,0-0.5,0.3-0.7,0.3c-0.2,0-0.5-0.1-0.7-0.1c-0.2,0-0.5,0.3-0.7,0.4c-0.2,0-0.5-0.3-0.7-0.3c-0.2,0-0.5,0.3-0.7,0.3
	c-0.2,0-0.5-0.5-0.7-0.6c-0.3,0-0.5,0.1-0.7,0.1c-0.3,0-0.5,0-0.7-0.1c-0.3,0-0.6,0.3-0.8,0.2c-0.4-0.1-0.3-0.5-0.6-0.6"/>
<path class="st1" d="M77.2,163.6c0.2,0,0.6,0.1,0.8,0.2c0.2,0,0.5-0.3,0.7-0.3c0.2,0,0.5,0.1,0.7,0.1c0.2,0,0.5-0.2,0.7-0.2
	c0.2,0,0.5,0.1,0.7,0.1c0.2,0,0.5-0.1,0.7-0.1c0.2,0,0.5,0.2,0.7,0.2c0.2,0,0.5,0,0.7-0.1c0.2,0,0.5,0,0.7-0.1
	c0.2,0,0.4-0.3,0.7-0.4c0.2-0.1,0.6,0.1,0.8,0c0-0.2-0.2-0.6-0.2-0.8c0-0.2,0.1-0.5,0.1-0.7c0-0.2-0.2-0.5-0.2-0.7
	c0-0.2,0-0.5,0-0.7c0-0.2,0.1-0.5,0.1-0.7c0-0.2,0.1-0.5,0.1-0.7c0-0.2-0.2-0.5-0.2-0.7c0-0.2,0.3-0.5,0.3-0.7
	c0-0.2-0.3-0.5-0.3-0.7s0.4-0.5,0.4-0.7s-0.1-0.5-0.1-0.7s-0.1-0.5-0.1-0.7c0-0.2,0-0.5,0-0.7c0-0.2,0-0.5,0-0.7
	c0-0.2,0.2-0.5,0.2-0.7c0-0.2-0.4-0.5-0.3-0.7c0-0.2,0.1-0.5,0.1-0.7c0-0.2,0.4-0.5,0.4-0.7c0-0.2,0-0.5,0.1-0.7
	c0-0.2-0.5-0.5-0.5-0.7c0-0.2,0.2-0.5,0.3-0.7c0-0.2-0.1-0.5-0.1-0.7s0.3-0.5,0.4-0.7c0-0.2-0.3-0.5-0.3-0.7c0-0.2,0-0.5,0-0.7
	c0-0.2,0.1-0.5,0.1-0.7c0-0.2,0.1-0.5,0.1-0.7c0-0.2,0.1-0.5,0.1-0.7s0.3-0.5,0.3-0.7s-0.1-0.5-0.1-0.7c0-0.2-0.1-0.5-0.1-0.7
	c0-0.2,0.2-0.5,0.2-0.7c0-0.2-0.2-0.5-0.2-0.7c-0.2,0-0.5-0.2-0.7-0.2c-0.2,0-0.4,0.2-0.7,0.3c-0.2,0-0.5,0-0.7,0
	c-0.2,0-0.5,0.1-0.7,0.1c-0.2,0-0.5,0.1-0.7,0.1c-0.2,0-0.4,0.2-0.7,0.3c-0.2,0-0.5-0.1-0.7-0.1c-0.2,0-0.5-0.1-0.7-0.1
	c-0.2,0-0.4,0.2-0.7,0.2c-0.2,0-0.5,0.1-0.7,0.1c-0.2,0-0.5-0.1-0.7,0c-0.2,0-0.5-0.3-0.7-0.3c-0.2,0-0.4,0.4-0.7,0.5
	c-0.2,0-0.5,0-0.7,0c-0.2,0-0.5-0.3-0.7-0.3c-0.2,0-0.5,0.3-0.7,0.3c-0.2,0-0.3-0.1-0.5,0c0,0.2-0.4,0.3-0.4,0.6
	c0,0.2,0.3,0.5,0.4,0.7c0,0.2,0.1,0.5,0.1,0.7s-0.1,0.5-0.1,0.7c0,0.2,0.2,0.5,0.2,0.7s0.1,0.5,0.1,0.7s-0.2,0.5-0.2,0.8
	c0,0.2,0.4,0.4,0.4,0.7c0,0.2,0,0.5,0,0.7c0,0.2-0.2,0.5-0.2,0.8s-0.2,0.5-0.1,0.8c0,0.2,0.2,0.5,0.2,0.7c0,0.2,0.4,0.4,0.4,0.7
	c0,0.2-0.1,0.5-0.1,0.7s0.1,0.5,0.2,0.7s-0.1,0.5-0.1,0.7c0,0.2,0,0.5,0,0.7c0,0.2,0,0.5,0,0.7c0,0.2,0.1,0.5,0.1,0.7
	c0,0.2,0.1,0.5,0.1,0.7s0.2,0.5,0.3,0.7c0,0.2,0.3,0.4,0.3,0.7c0,0.2-0.4,0.6-0.4,0.8c0,0.2,0.5,0.4,0.5,0.6c0,0.2,0.1,0.5,0.2,0.7
	c0,0.2,0.1,0.5,0.1,0.7c0.1,0.2-0.2,0.5-0.2,0.8c0.1,0.2,0.5,0.4,0.5,0.6c0.1,0.2,0.1,0.5,0.1,0.7c0.1,0.2,0.1,0.5,0.1,0.7
	c0.1,0.2,0.1,0.5,0.1,0.7c0.1,0.2-0.1,0.5,0,0.7S77.2,163.3,77.2,163.6L77.2,163.6z"/>
<linearGradient id="SVGID_1_" gradientUnits="userSpaceOnUse" x1="16.67" y1="117.5845" x2="114.1511" y2="117.5845">
	<stop  offset="0" style="stop-color:#D3A176"/>
	<stop  offset="1" style="stop-color:#AF6C46"/>
</linearGradient>
<path class="st2" d="M89.9,93.7c-0.2,0-0.5-0.3-0.7-0.4c-0.2,0-0.5,0.3-0.7,0.3c-0.2,0-0.5-0.3-0.7-0.3s-0.5,0.2-0.7,0.2
	s-0.4-0.4-0.7-0.4c-0.2,0-0.5,0.3-0.8,0.3c-0.2,0-0.5-0.1-0.7-0.1c-0.2,0-0.5-0.2-0.7-0.2c-0.2,0-0.5,0.2-0.7,0.1s-0.5-0.1-0.7-0.1
	s-0.4-0.3-0.7-0.4c-0.2,0-0.5,0.3-0.8,0.3s-0.5-0.1-0.7-0.2s-0.4-0.3-0.7-0.3c-0.2,0-0.5-0.2-0.7-0.2s-0.5-0.1-0.7-0.1
	s-0.5,0.2-0.8,0.1s-0.5,0-0.7-0.1c-0.2,0-0.5-0.1-0.7-0.2c-0.2,0-0.5,0-0.7-0.1c-0.2,0-0.5-0.2-0.7-0.2c-0.2-0.1-0.4-0.4-0.6-0.5
	c-0.2-0.1-0.5,0-0.7,0c-0.2-0.1-0.5,0.2-0.8,0.1c-0.2-0.1-0.4-0.3-0.7-0.3c-0.2-0.1-0.4-0.3-0.7-0.4c-0.2-0.1-0.6,0.3-0.8,0.3
	c-0.2-0.1-0.4-0.2-0.7-0.3c-0.2-0.1-0.4-0.4-0.6-0.4c-0.2-0.1-0.6,0.2-0.8,0.2c-0.2-0.1-0.4-0.5-0.6-0.5c-0.2-0.1-0.5-0.1-0.7-0.2
	c-0.2-0.1-0.5-0.1-0.7-0.2c-0.2-0.1-0.4-0.2-0.7-0.2c-0.2-0.1-0.6,0.2-0.8,0.1c-0.2-0.1-0.5-0.1-0.7-0.1S64,89,63.7,88.9
	s-0.5,0.1-0.8,0c-0.2-0.1-0.5-0.2-0.7-0.2c-0.2-0.1-0.4-0.3-0.6-0.3c-0.2-0.1-0.5,0-0.7-0.1c-0.2-0.1-0.4-0.2-0.6-0.3
	c-0.2-0.1-0.5-0.1-0.7-0.2c-0.2-0.1-0.4-0.2-0.7-0.3s-0.3-0.5-0.5-0.6c-0.2-0.1-0.5-0.1-0.7-0.2c-0.2-0.1-0.4-0.3-0.6-0.4
	c-0.2-0.1-0.4-0.3-0.6-0.4s-0.4-0.2-0.7-0.3c-0.2-0.1-0.6,0.1-0.8,0c-0.2-0.1-0.3-0.4-0.5-0.5c-0.2-0.1-0.5,0-0.7-0.2
	c-0.2-0.1-0.4-0.2-0.6-0.3c-0.2-0.1-0.5-0.1-0.7-0.2c-0.2-0.1-0.4-0.2-0.6-0.4s-0.3-0.4-0.5-0.5c-0.2-0.1-0.4-0.3-0.6-0.4
	c-0.2-0.1-0.5-0.1-0.7-0.3c-0.2-0.1-0.5-0.2-0.7-0.3c-0.2-0.1-0.5-0.2-0.7-0.3s-0.2-0.6-0.4-0.7c-0.2-0.1-0.4-0.2-0.6-0.4
	c-0.2-0.1-0.4-0.2-0.6-0.4c-0.2-0.1-0.4-0.3-0.6-0.4c-0.2-0.2-0.5-0.2-0.7-0.3c-0.2-0.2-0.3-0.4-0.5-0.6s-0.3-0.4-0.5-0.5
	c-0.2-0.2-0.5-0.2-0.6-0.4c-0.2-0.2-0.3-0.4-0.5-0.6c-0.2-0.2-0.5-0.1-0.7-0.3c-0.2-0.2-0.1-0.6-0.3-0.8c-0.2-0.2-0.4-0.3-0.6-0.4
	c-0.2-0.2-0.5-0.2-0.6-0.4c-0.2-0.2-0.2-0.4-0.4-0.6c-0.2-0.2-0.2-0.5-0.3-0.6c-0.2-0.2-0.3-0.3-0.5-0.5c-0.2-0.2-0.4-0.3-0.6-0.4
	c-0.2-0.2-0.5-0.3-0.6-0.4c-0.2-0.2-0.1-0.5-0.2-0.7c-0.2-0.4-0.2-0.9-0.5-0.8c-0.3,0.2-0.2,0.4-0.5,0.7c-0.2,0.3,0,0.4-0.3,0.7
	c-0.2,0.3-0.1,0.4-0.4,0.6s-0.3,0.2-0.6,0.5c-0.2,0.3-0.5,0.1-0.7,0.4c-0.2,0.3-0.2,0.3-0.5,0.5c-0.2,0.3,0,0.5-0.2,0.8
	c-0.2,0.3-0.5,0-0.8,0.3c-0.2,0.3,0,0.5-0.2,0.8c-0.2,0.3-0.3,0.2-0.5,0.5c-0.2,0.3-0.3,0.2-0.6,0.5c-0.2,0.3-0.1,0.4-0.3,0.7
	c-0.2,0.3-0.2,0.3-0.5,0.6c-0.2,0.3-0.3,0.2-0.6,0.5c-0.2,0.3-0.4,0.2-0.6,0.5c-0.1,0.2-0.4,0.3-0.5,0.5c-0.1,0.2-0.2,0.4-0.4,0.6
	c-0.1,0.2-0.5,0.2-0.6,0.4c-0.1,0.2,0,0.6-0.1,0.8c-0.1,0.2-0.3,0.3-0.5,0.5s-0.5,0.2-0.6,0.4c-0.1,0.2,0,0.6-0.1,0.8
	c-0.1,0.2-0.4,0.3-0.5,0.5c-0.1,0.2-0.2,0.5-0.3,0.7c-0.1,0.2-0.5,0.2-0.7,0.4c-0.1,0.2-0.4,0.3-0.6,0.5c-0.1,0.2,0.1,0.7,0,0.9
	c-0.1,0.2-0.5,0.3-0.6,0.4c-0.1,0.2-0.5,0.3-0.6,0.5c-0.1,0.2-0.3,0.4-0.4,0.6c-0.1,0.2-0.2,0.4-0.4,0.6c-0.1,0.2,0,0.6-0.2,0.8
	c-0.3,0.1-0.4,0.2-0.7,0.2s-0.4-0.1-0.7-0.1s-0.4,0.1-0.7,0.1s-0.4-0.1-0.7-0.1s-0.4,0-0.7,0s-0.5-0.5-0.8-0.4
	c-0.3,0.1,0.2,0.5,0.1,1c0,0.2,0,0.4-0.1,0.7c0,0.2-0.1,0.4-0.1,0.7c0,0.2-0.5,0.4-0.5,0.6c0,0.2,0.2,0.5,0.1,0.8c0,0.2,0,0.5,0,0.7
	c0,0.2-0.4,0.4-0.4,0.7c0,0.2,0,0.5,0,0.7c0,0.2,0,0.5-0.1,0.7c0,0.2-0.1,0.5-0.2,0.7c0,0.2,0.4,0.5,0.3,0.8c0,0.2-0.4,0.4-0.4,0.7
	c0,0.2,0.1,0.5,0.1,0.7c0,0.2-0.1,0.5-0.1,0.7c0,0.2,0,0.5,0,0.7c0,0.2,0,0.5,0,0.7c0,0.2-0.3,0.4-0.3,0.7c0,0.2,0,0.5-0.1,0.7
	c0,0.2,0,0.5,0,0.7c0,0.2-0.3,0.4-0.3,0.7c0,0.2,0.2,0.5,0.1,0.7c0,0.2,0.1,0.5,0,0.7c0,0.2-0.3,0.4-0.3,0.7c0,0.2-0.2,0.5-0.2,0.7
	c0,0.2,0.3,0.5,0.3,0.7s-0.2,0.4-0.3,0.7c0,0.2,0,0.5-0.1,0.7c0,0.2,0.1,0.5,0.1,0.7c0,0.2,0.1,0.5,0.1,0.7c0,0.2-0.3,0.5-0.3,0.7
	s-0.3,0.5-0.3,0.7c0,0.2,0,0.5,0,0.7s0,0.5,0,0.7c0,0.2,0,0.5,0,0.7s0,0.5,0,0.7c0,0.2,0,0.5,0,0.7s-0.2,0.5-0.2,0.7
	s0.1,0.5,0.1,0.7c0,0.2,0,0.5,0,0.7s-0.1,0.5-0.2,0.7s0.2,0.5,0.2,0.7c0,0.2-0.2,0.5-0.2,0.7c0,0.2-0.1,0.5-0.1,0.7s0.1,0.5,0.1,0.7
	c0,0.2-0.1,0.5-0.1,0.7c0,0.2,0.2,0.5,0.2,0.7c0,0.2,0.1,0.5,0.1,0.7c0,0.2-0.3,0.5-0.4,0.7c0,0.2,0.3,0.5,0.2,0.7
	c0,0.2-0.2,0.5-0.2,0.7s0,0.5,0,0.7c0,0.2,0.2,0.5,0.2,0.7s-0.2,0.5-0.2,0.7s0.1,0.5,0.1,0.7c0,0.2,0,0.5,0.1,0.7
	c0,0.2,0.1,0.5,0.2,0.7c0,0.2-0.2,0.5-0.2,0.7s0,0.5,0,0.7s0.2,0.5,0.2,0.7c0,0.2-0.1,0.5-0.1,0.7c0,0.2-0.1,0.5-0.1,0.7
	c0,0.2,0.1,0.5,0.1,0.7c0,0.2-0.2,0.5-0.2,0.7c0,0.2,0.2,0.5,0.2,0.7s-0.2,0.5-0.2,0.7c0,0.2-0.1,0.5-0.1,0.7s0,0.5,0,0.7
	c0,0.2,0.4,0.5,0.4,0.7s0,0.5,0,0.7s0.1,0.5,0.1,0.7s-0.2,0.5-0.2,0.7s0,0.5,0,0.7c0,0.2,0.1,0.5,0.1,0.7c0,0.2,0.2,0.5,0.2,0.7
	c0,0.2,0,0.5,0,0.7c0,0.2,0,0.5,0.1,0.7c0,0.2,0.1,0.5,0.1,0.7c0,0.2-0.1,0.5-0.1,0.7c0,0.2,0.3,0.4,0.3,0.7c0,0.2,0.3,0.4,0.4,0.7
	c0,0.2-0.2,0.5-0.1,0.8s0,0.5,0,0.7c0,0.2,0.3,0.4,0.3,0.7c0,0.2,0,0.5,0,0.7c0,0.2,0.2,0.4,0.3,0.7c0,0.2,0,0.5,0,0.7
	c0,0.2,0.2,0.5,0.2,0.7c0,0.2,0.2,0.4,0.3,0.7c0,0.2-0.3,0.6-0.2,0.8c0,0.2,0,0.5,0.1,0.7c0,0.2,0.3,0.4,0.4,0.7
	c0,0.2-0.1,0.5,0,0.8c0.1,0.2,0.4,0.4,0.5,0.6c0.1,0.2,0.2,0.4,0.2,0.7c0.1,0.2-0.3,0.6-0.2,0.8s0.1,0.5,0.2,0.7
	c0.1,0.2,0.5,0.3,0.6,0.6c0.1,0.2,0,0.5,0.1,0.7c0.1,0.2-0.1,0.6-0.1,0.8s0.6,0.3,0.6,0.6c0.1,0.2,0,0.5,0,0.7s0.3,0.3,0.4,0.5
	c0.2,0.1,0.3,0.1,0.5,0.1c0.2,0,0.4,0.2,0.7,0.2c0.2,0,0.4,0.4,0.7,0.4c0.2,0,0.5,0,0.7,0.1c0.2,0,0.5-0.3,0.7-0.3
	c0.2,0,0.5,0.3,0.7,0.3c0.2,0,0.5,0,0.7,0c0.2,0,0.5-0.3,0.7-0.4c0.2,0,0.5-0.2,0.7-0.2c0.2,0,0.5,0.2,0.7,0.1
	c0.2,0,0.5-0.1,0.7-0.2c0.2,0,0.3-0.2,0.5-0.2c0-0.2,0.1-0.3,0.1-0.6c0-0.2-0.2-0.4-0.2-0.7c0-0.2,0.3-0.5,0.2-0.8
	c0-0.2-0.2-0.4-0.2-0.7c0-0.2-0.3-0.4-0.3-0.7c0-0.2,0.1-0.5,0-0.7c0-0.2,0-0.5-0.1-0.7s0.1-0.5,0.1-0.7c0-0.2-0.1-0.5-0.1-0.7
	s0.2-0.5,0.2-0.7c0-0.2-0.2-0.5-0.2-0.7c0-0.2-0.3-0.5-0.3-0.7c0-0.2,0.3-0.5,0.3-0.7c0-0.2,0.1-0.5,0.1-0.7c0-0.2-0.4-0.5-0.4-0.7
	c0-0.2,0.3-0.5,0.3-0.7c0-0.2-0.1-0.5-0.1-0.7c0-0.2-0.2-0.5-0.2-0.7c0-0.2,0-0.5,0-0.7c0-0.2,0.4-0.5,0.4-0.7
	c0-0.2-0.3-0.5-0.3-0.7c0-0.2,0.4-0.5,0.4-0.7c0-0.2-0.3-0.5-0.3-0.7s0.2-0.5,0.2-0.7s-0.3-0.5-0.2-0.7c0-0.2,0-0.5,0-0.7
	s-0.1-0.5-0.1-0.7s0.4-0.5,0.4-0.7s-0.1-0.5-0.1-0.7c0-0.2-0.2-0.5-0.2-0.7c0-0.2-0.1-0.5-0.1-0.7c0-0.2,0.2-0.5,0.2-0.7
	s0.2-0.5,0.2-0.7c0-0.2-0.3-0.5-0.3-0.7c0-0.2-0.1-0.5-0.1-0.7c0-0.2,0.2-0.5,0.2-0.7s0.2-0.5,0.2-0.7s-0.2-0.5-0.2-0.7
	c0-0.2,0.3-0.5,0.3-0.7s-0.3-0.5-0.2-0.7c0-0.2,0.3-0.5,0.3-0.7s0.3-0.5,0.3-0.7c0-0.2-0.3-0.5-0.3-0.8c0-0.2,0.2-0.5,0.2-0.7
	c0-0.2,0.1-0.5,0.1-0.7c0-0.2-0.1-0.5,0-0.7c0-0.2-0.1-0.6,0-0.9c0.2,0.1,0.5,0.6,0.7,0.6s0.6-0.2,0.8-0.1c0.2,0.1,0.4,0.3,0.7,0.3
	c0.2,0.1,0.5,0.1,0.7,0.2c0.2,0.1,0.5,0.1,0.7,0.1s0.4,0.5,0.6,0.5c0.2,0.1,0.5,0.2,0.7,0.3c0.2,0.1,0.5,0.1,0.7,0.1s0.6-0.1,0.8,0
	c0,0.2-0.2,0.5-0.2,0.8c0,0.2,0.3,0.5,0.3,0.7c0,0.2,0.2,0.5,0.2,0.7c0,0.2-0.3,0.5-0.3,0.7s0.2,0.5,0.3,0.7s0.1,0.5,0.1,0.7
	c0,0.2-0.2,0.5-0.2,0.7c0,0.2-0.2,0.5-0.2,0.7c0,0.2,0.4,0.4,0.4,0.7c0,0.2-0.1,0.5-0.1,0.7c0,0.2,0,0.5,0,0.7
	c0,0.2-0.1,0.5-0.1,0.7c0,0.2,0.1,0.5,0.2,0.7s0.1,0.5,0.2,0.7s0,0.5,0.1,0.7s-0.2,0.5-0.2,0.7c0,0.2,0.2,0.5,0.2,0.7
	c0,0.2,0.1,0.5,0.1,0.7s0.1,0.5,0.1,0.7c0,0.2,0.3,0.5,0.3,0.7c0,0.2-0.2,0.5-0.2,0.8s0,0.5,0,0.7s0.4,0.4,0.4,0.7
	c0,0.2,0.1,0.5,0.1,0.7s-0.2,0.5-0.2,0.8c0,0.2,0,0.5,0.1,0.7c0,0.2,0,0.5,0,0.7c0,0.2,0,0.5,0,0.7c0,0.2,0.3,0.4,0.4,0.7
	c0,0.2,0,0.5,0,0.7c0,0.2,0.2,0.5,0.2,0.7c0,0.2-0.1,0.5,0,0.7c0,0.2,0.3,0.4,0.3,0.7c0,0.2,0.1,0.5,0.2,0.7c0,0.2-0.1,0.5-0.1,0.7
	c0,0.2,0,0.5,0,0.7c0,0.2,0.2,0.5,0.2,0.7c0,0.2,0,0.5,0.1,0.7c0,0.2,0.3,0.4,0.3,0.7c0,0.2,0.2,0.4,0.2,0.7s-0.1,0.5-0.1,0.8
	s0.2,0.4,0.2,0.7c0,0.2,0.2,0.4,0.2,0.7c0,0.2-0.1,0.6-0.1,0.8c0.2,0.1,0.6-0.1,0.8-0.1c0.2,0.1,0.5,0,0.7,0c0.2,0,0.5,0.1,0.7,0.1
	c0.2,0,0.5,0.2,0.7,0.2c0.2,0,0.5,0,0.7,0c0.2,0,0.5,0,0.7,0c0.2,0,0.5,0,0.7,0c0.2,0,0.5,0.1,0.8,0c0.2,0,0.5,0.1,0.8,0
	c0.2,0,0.5-0.1,0.7-0.2c0.2-0.1,0.5-0.2,0.8-0.3c0-0.2-0.1-0.5-0.1-0.8c0-0.2,0.1-0.5,0.1-0.7c0-0.2,0-0.5,0-0.7
	c0-0.2-0.2-0.5-0.2-0.7c0-0.2,0.2-0.5,0.2-0.7c0-0.2,0.3-0.5,0.3-0.7S48,157.2,48,157s-0.3-0.5-0.3-0.7c0-0.2,0.3-0.5,0.3-0.7
	s-0.3-0.5-0.3-0.7c0-0.2,0.5-0.5,0.5-0.7c0-0.2-0.4-0.5-0.4-0.7c0-0.2,0.1-0.5,0.1-0.7c0-0.2,0.3-0.5,0.3-0.7c0-0.2-0.4-0.5-0.4-0.7
	c0-0.2,0.1-0.5,0.1-0.7c0-0.2,0.1-0.5,0.1-0.7c0-0.2,0-0.5,0-0.7c0-0.2,0.1-0.5,0.1-0.7c0-0.2,0.1-0.5,0.1-0.7
	c0-0.2-0.2-0.5-0.1-0.7c0-0.2,0.2-0.5,0.2-0.7c0-0.2,0-0.5,0-0.7c0-0.2-0.1-0.5-0.1-0.7c0-0.2,0.2-0.5,0.2-0.7c0-0.2,0-0.5,0-0.7
	c0-0.2,0.3-0.5,0.3-0.7s-0.3-0.5-0.3-0.8s0.4-0.5,0.4-0.7c0-0.2,0-0.5,0-0.7c0-0.2-0.1-0.5-0.1-0.7c0-0.2,0.2-0.5,0.2-0.7
	c0-0.2-0.2-0.5-0.2-0.7c0-0.2,0-0.5,0-0.7c0-0.2-0.2-0.5-0.2-0.8c0-0.2,0-0.5,0-0.7c0-0.2,0.5-0.4,0.5-0.7c0-0.2-0.2-0.5-0.1-0.8
	c0-0.3-0.2-0.6-0.2-0.8c0-0.3,0.3-0.5,0.3-0.8h-0.1c0,0.3,0.2,0.6,0.2,0.9s-0.2,0.5-0.2,0.8c0.2,0.1,0.2,0.4,0.5,0.6
	s0.5,0.2,0.7,0.3s0.5,0.1,0.7,0.2s0.4,0.3,0.6,0.4c0.2,0.1,0.4,0.2,0.6,0.3s0.5,0,0.8,0.1c0.2,0.1,0.4,0.3,0.6,0.4
	c0.2,0.1,0.4,0.2,0.7,0.3s0.4,0.4,0.6,0.4s0.5,0.2,0.7,0.3c0.2,0.1,0.5,0.1,0.7,0.1s0.5,0.2,0.7,0.2s0.5,0,0.7,0.1
	c0.2,0.1,0.5-0.1,0.8,0c0.2,0.1,0.5,0.1,0.7,0.1c0.2,0.1,0.5,0.1,0.7,0.1c0.2,0.1,0.4,0.5,0.6,0.6c0.2,0.1,0.5,0.1,0.7,0.1
	c0.2,0,0.6-0.4,0.8-0.4c0.2,0,0.4,0.6,0.6,0.6c0.2,0,0.5-0.3,0.8-0.2s0.4,0.3,0.7,0.4c0.2,0,0.5-0.1,0.7,0c0.2,0,0.5,0,0.7,0
	s0.5,0.3,0.7,0.3s0.5-0.1,0.7-0.1c0.2,0,0.5-0.2,0.7-0.1c0.2,0,0.5,0,0.7,0s0.5,0.1,0.7,0.1c0.2,0,0.5,0.1,0.7,0.1s0.5,0.3,0.7,0.3
	c0.2,0,0.5-0.5,0.7-0.5c0.2,0,0.5,0.4,0.7,0.4s0.5,0.1,0.7,0.1s0.5-0.1,0.7-0.1s0.5-0.4,0.7-0.4s0.5,0.1,0.7,0.1s0.5,0.4,0.7,0.4
	c0.2,0,0.5-0.2,0.7-0.2c0.2,0,0.5-0.1,0.7-0.1c0.2,0,0.5-0.1,0.7-0.1c0.2,0,0.5,0.2,0.7,0.2c0.2,0,0.4-0.4,0.7-0.4
	c0.2,0,0.5-0.1,0.7-0.1c0.2,0,0.5,0.3,0.7,0.3c0.2,0,0.5-0.2,0.7-0.2c0.2,0,0.5,0,0.7,0c0.2,0,0.5,0.1,0.7,0.1
	c0.2,0,0.4-0.4,0.7-0.4c0.2,0,0.5,0.1,0.7,0.1c0.2,0,0.5,0.3,0.7,0.3s0.5,0,0.7,0c0.2,0,0.4-0.2,0.7-0.2c0.2,0,0.5-0.1,0.7-0.1
	c0.2,0,0.5-0.1,0.7-0.1c0.2,0,0.5,0.3,0.7,0.3c0.2,0,0.4-0.3,0.7-0.3c0.2,0,0.5,0.4,0.7,0.4c0.2,0,0.5-0.1,0.7-0.1
	c0.2,0,0.5-0.1,0.7-0.1c0.2,0,0.5,0.1,0.7,0.2c0.2,0,0.5-0.1,0.7-0.1c0.2,0,0.5-0.2,0.7-0.2c0.2,0.1,0.4,0.5,0.6,0.5
	c0.2,0.1,0.4,0.2,0.6,0.4c0.2,0.1,0.4,0.2,0.6,0.4c0.1,0.2,0.2,0.4,0.3,0.6c0.1,0.2,0.2,0.4,0.3,0.7c0.1,0.2,0.2,0.4,0.2,0.7
	c0.1,0.2,0.1,0.5,0.1,0.7c0,0.2,0,0.5,0.1,0.7c0,0.2,0.1,0.5,0.2,0.7c0,0.2-0.2,0.5-0.1,0.7c0,0.2,0.4,0.4,0.4,0.7
	c0,0.2-0.4,0.5-0.4,0.7c0,0.2,0.2,0.5,0.2,0.7s0,0.5,0,0.7c0,0.2-0.2,0.5-0.2,0.7s0,0.5,0,0.7c0,0.2-0.1,0.5-0.2,0.7
	c0,0.2-0.1,0.5-0.1,0.7s0.3,0.5,0.3,0.7s-0.2,0.5-0.2,0.7c0,0.2,0.3,0.5,0.2,0.8c0,0.2-0.5,0.4-0.6,0.7s0,0.5,0,0.7s0.4,0.5,0.4,0.8
	s-0.2,0.5-0.2,0.7s-0.5,0.4-0.5,0.7s0,0.5-0.1,0.7s0.4,0.6,0.3,0.8c0,0.2-0.4,0.4-0.4,0.7c0,0.2,0.2,0.5,0.1,0.8s0.1,0.5,0,0.7
	c0,0.2,0,0.5-0.1,0.7c0,0.2-0.6,0.4-0.6,0.6c0,0.2,0.1,0.5,0,0.8c0.2,0.1,0.5,0,0.8,0.1c0.2,0.1,0.5,0,0.8,0.1
	c0.2,0.1,0.4,0.4,0.7,0.5c0.2,0,0.5-0.2,0.8-0.2c0.2,0,0.4,0.4,0.7,0.4c0.2,0,0.5,0.1,0.8,0.1c0.2,0,0.5-0.3,0.7-0.3
	c0.2,0,0.5,0.2,0.8,0.2c0.2,0,0.5-0.2,0.7-0.2c0.2,0,0.6,0.2,0.8,0.2s0.6-0.1,0.8-0.2c0.1-0.2,0.1-0.6,0.2-0.8
	c0.1-0.2,0.1-0.5,0.2-0.7c0.1-0.2,0.1-0.5,0.2-0.7c0.1-0.2,0.2-0.4,0.3-0.6c0.1-0.2,0.3-0.4,0.4-0.6c0.1-0.2,0-0.5,0.1-0.7
	c0.1-0.2,0.3-0.4,0.4-0.6s0.3-0.4,0.4-0.6s0.1-0.5,0.2-0.7c0.1-0.2,0-0.5,0.1-0.8c0.1-0.2,0.3-0.4,0.4-0.6c0.1-0.2-0.2-0.6-0.1-0.8
	c0.1-0.2,0.2-0.4,0.3-0.6c0.1-0.2,0.4-0.4,0.5-0.6c0.1-0.2,0.3-0.4,0.4-0.6c0.1-0.2-0.1-0.5,0-0.8c0.1-0.2,0.2-0.4,0.3-0.6
	c0.1-0.2,0.3-0.4,0.4-0.6c0.1-0.2-0.2-0.6-0.1-0.8c0.1-0.2,0.4-0.4,0.5-0.6s0.2-0.4,0.3-0.6c0.1-0.2,0.1-0.5,0.2-0.7
	c0.1-0.2,0-0.5,0.1-0.7c0.1-0.2,0.4-0.4,0.5-0.6c0.1-0.2-0.1-0.5,0-0.8c0.1-0.2,0.2-0.4,0.3-0.7c0.1-0.2,0.4-0.4,0.5-0.6
	c0.1-0.2,0.2-0.4,0.2-0.7c0.1-0.2,0.2-0.4,0.3-0.7c0.1-0.2-0.1-0.6-0.1-0.8c0.1-0.2,0.1-0.5,0.2-0.7s0-0.5,0.1-0.7s0.7-0.3,0.8-0.5
	c0.1-0.2-0.3-0.6-0.2-0.8c0.1-0.2,0.5-0.3,0.6-0.6c0.1-0.2,0.1-0.5,0.1-0.7s-0.2-0.6-0.1-0.8s0.6-0.3,0.6-0.6c0.1-0.2-0.1-0.5,0-0.8
	s0.2-0.4,0.3-0.7c0.1-0.2,0-0.5,0.1-0.7s0.3-0.4,0.3-0.7c0.1-0.2,0.3-0.4,0.3-0.7c0.1-0.2,0.1-0.5,0.1-0.7c0.1-0.2-0.2-0.5-0.2-0.8
	c0.1-0.2-0.1-0.5,0-0.7c0-0.2,0.1-0.5,0.2-0.7c0-0.2,0.4-0.4,0.4-0.7s-0.1-0.5,0-0.7c0-0.2,0.1-0.5,0.1-0.7s-0.1-0.5-0.1-0.7
	c0-0.2,0.3-0.4,0.4-0.7c0-0.2-0.2-0.5-0.2-0.8s0.4-0.4,0.4-0.7c0-0.2-0.2-0.5-0.2-0.7c0-0.2-0.1-0.5-0.1-0.7c0-0.2,0.2-0.5,0.2-0.7
	c0-0.2-0.2-0.5-0.2-0.7c0-0.2,0.2-0.5,0.2-0.7c0-0.2,0.2-0.5,0.2-0.7c0-0.2,0.1-0.5,0.1-0.7c0-0.2-0.1-0.5-0.1-0.7
	c0-0.2-0.3-0.5-0.3-0.7s-0.2-0.5-0.2-0.7s0.3-0.5,0.3-0.8s0.1-0.5,0.1-0.7s-0.2-0.5-0.2-0.7s-0.1-0.5-0.1-0.7s-0.2-0.5-0.2-0.7
	s-0.2-0.5-0.2-0.7c0-0.2-0.3-0.4-0.3-0.7c-0.1-0.2,0-0.5,0-0.7c-0.1-0.2,0.2-0.6,0.2-0.8s-0.6-0.3-0.6-0.6s-0.2-0.4-0.2-0.7
	s-0.1-0.5-0.2-0.7c-0.1-0.2,0.3-0.6,0.2-0.8c-0.1-0.2-0.2-0.4-0.3-0.7s-0.3-0.4-0.4-0.6c-0.1-0.2-0.3-0.4-0.4-0.6
	c-0.1-0.2-0.3-0.4-0.4-0.6c-0.1-0.2,0.2-0.6,0-0.8c-0.1-0.2-0.4-0.3-0.6-0.5s-0.2-0.4-0.3-0.7c-0.1-0.2-0.4-0.3-0.6-0.5
	c-0.1-0.2-0.2-0.4-0.3-0.7c-0.1-0.2-0.2-0.4-0.3-0.6c-0.1-0.2-0.3-0.4-0.4-0.6c-0.2-0.2-0.4-0.3-0.5-0.5c-0.2-0.2-0.2-0.4-0.4-0.6
	s-0.4-0.2-0.6-0.4c-0.2-0.2-0.3-0.4-0.4-0.6c-0.2-0.2-0.1-0.6-0.2-0.8c-0.2-0.2-0.4-0.3-0.6-0.4c-0.2-0.2-0.4-0.2-0.6-0.4
	c-0.2-0.2-0.4-0.2-0.6-0.4c-0.2-0.1-0.4-0.3-0.6-0.5s-0.3-0.4-0.5-0.5c-0.2-0.1-0.5-0.1-0.7-0.2c-0.2-0.1-0.5-0.2-0.7-0.3
	c-0.2-0.1-0.4-0.3-0.6-0.4s-0.5-0.1-0.7-0.2s-0.2-0.6-0.5-0.7c-0.2-0.1-0.6,0.1-0.8,0c-0.2-0.1-0.5,0-0.7-0.1
	c-0.2-0.1-0.5-0.1-0.7-0.2c-0.2-0.1-0.3-0.6-0.5-0.7s-0.5,0.1-0.8,0.1c-0.2-0.1-0.4-0.2-0.7-0.3c-0.2-0.1-0.5-0.1-0.7-0.1
	c-0.2-0.1-0.4-0.3-0.7-0.3c-0.2-0.1-0.5,0.2-0.8,0.1c-0.2,0-0.4-0.3-0.7-0.4c-0.2,0-0.5,0.3-0.8,0.3s-0.5-0.1-0.7-0.1
	s-0.4-0.4-0.7-0.4c-0.2,0-0.5,0.2-0.8,0.2L89.9,93.7z M46.3,132.6l0.2-0.3L46.3,132.6C46.3,132.6,46.3,132.6,46.3,132.6L46.3,132.6z
	"/>
<g>
	<path class="st3" d="M21.5,162.8c0.1,0.2,0.2,0.6,0.2,0.8c0.1,0.2,0,0.5,0.1,0.7c0.1,0.2,0.2,0.4,0.3,0.7c0.1,0.2,0.1,0.5,0.2,0.7
		c0.1,0.2,0.4,0.4,0.5,0.6s-0.2,0.6-0.1,0.8c0.1,0.2,0.5,0.2,0.6,0.5c0.2,0.1,0.3,0.4,0.5,0.5c0.2,0.1,0.5,0,0.7,0
		c0.2,0.1,0.5,0.3,0.7,0.3c0.2,0,0.5-0.4,0.8-0.4c0.2,0,0.5,0.4,0.7,0.4c0.2,0,0.5,0.1,0.7,0.1c0.2,0,0.5-0.5,0.7-0.5
		c0.2,0,0.5,0.1,0.7,0.1c0.3,0,0.5,0,0.7,0c0.3-0.1,0.4-0.4,0.6-0.4c0.4-0.1,0.8,0.4,0.9,0.1c0.2-0.3-0.2-0.3-0.3-0.8
		c0-0.2-0.1-0.4-0.1-0.7c0-0.2-0.2-0.4-0.3-0.7c0-0.2,0-0.5,0-0.7c0-0.2-0.2-0.4-0.2-0.7c0-0.2,0.1-0.5,0-0.8c0-0.2-0.1-0.5-0.1-0.8
		c-0.2,0.1-0.5,0.4-0.7,0.4c-0.2,0-0.5-0.1-0.7-0.1c-0.2,0-0.5-0.2-0.7-0.1c-0.2,0-0.5,0.4-0.7,0.4c-0.2,0-0.5-0.2-0.7-0.1
		c-0.2,0-0.5-0.1-0.7,0c-0.2,0-0.5-0.1-0.7-0.1c-0.2,0-0.5,0-0.7,0c-0.2,0-0.5,0-0.7,0c-0.2,0-0.5,0.3-0.7,0.2
		c-0.2,0-0.5-0.1-0.7-0.1C22,163,21.7,162.8,21.5,162.8L21.5,162.8z"/>
	<path class="st3" d="M39.9,162.4c0,0.2,0.3,0.3,0.3,0.6s0.1,0.5,0.1,0.7c0.1,0.2-0.4,0.6-0.3,0.8s0.4,0.4,0.4,0.6
		c0.1,0.2,0.2,0.4,0.3,0.7c0.1,0.2-0.2,0.5-0.1,0.8c0.1,0.2,0.6,0.3,0.6,0.6s-0.2,0.6-0.1,0.8c0.2,0.1,0.6-0.1,0.8,0
		c0.2,0.1,0.3,0.5,0.6,0.6c0.2,0.1,0.5-0.2,0.7-0.1c0.2,0,0.5-0.1,0.7-0.1c0.2,0,0.5,0.4,0.7,0.4c0.2,0,0.5,0.1,0.7,0.1
		c0.2,0,0.5-0.2,0.7-0.3c0.2,0,0.5,0,0.7,0c0.3-0.1,0.5-0.3,0.6-0.3c0.4-0.1,0.7,0.2,0.8-0.1c0.2-0.3-0.3-0.4-0.3-0.8
		c0-0.2,0-0.4,0-0.7c0-0.2,0-0.4,0-0.7c0-0.2,0.3-0.5,0.3-0.7c0-0.2-0.5-0.4-0.5-0.7c0-0.2,0.2-0.5,0.2-0.7c0-0.2-0.2-0.4-0.2-0.7
		c0-0.2,0.3-0.5,0.3-0.8c-0.2,0.1-0.5,0.4-0.8,0.4c-0.2,0.1-0.6-0.3-0.8-0.3c-0.2,0-0.4,0.4-0.7,0.5c-0.2,0-0.5,0.2-0.7,0.2
		s-0.5-0.3-0.8-0.3c-0.3,0-0.5,0-0.7,0c-0.3,0-0.5,0.1-0.8,0.1c-0.3,0-0.5-0.1-0.7-0.1c-0.3,0-0.5,0.1-0.8,0.1c-0.3,0-0.5,0.1-0.8,0
		C40.2,162.7,40.1,162.4,39.9,162.4L39.9,162.4z"/>
	<path class="st3" d="M77.4,163.5c0.1,0.2,0.1,0.5,0.1,0.7s0.2,0.5,0.3,0.7c0.1,0.2-0.2,0.6-0.1,0.8s0.5,0.4,0.5,0.6
		c0.1,0.2-0.2,0.6-0.1,0.8c0.1,0.2,0.3,0.5,0.4,0.7c0.2,0.1,0.5,0.1,0.7,0.2c0.2,0.1,0.5,0.1,0.7,0.1c0.2,0.1,0.4,0.2,0.7,0.2
		c0.2,0,0.5-0.1,0.7-0.1c0.2,0,0.5,0.3,0.7,0.3c0.2,0,0.5-0.4,0.7-0.4c0.2,0,0.5,0.3,0.7,0.3c0.2,0,0.5-0.2,0.7-0.2
		c0.3-0.1,0.5-0.1,0.7-0.2c0.4-0.1,0.4,0,0.6-0.3s0-0.2,0-0.7c0-0.2,0-0.4,0-0.7c0-0.2,0.1-0.4,0.1-0.7c0-0.2-0.2-0.4-0.2-0.7
		c0-0.2-0.3-0.4-0.3-0.7c0-0.2,0-0.4,0-0.7c0-0.2,0.1-0.3,0.1-0.6c-0.2,0.1-0.4-0.2-0.6-0.1s-0.4,0.3-0.7,0.3
		c-0.2,0-0.5-0.1-0.7-0.1c-0.2,0-0.5,0.1-0.7,0.1c-0.2,0-0.5,0.3-0.7,0.3c-0.2,0-0.5-0.3-0.7-0.3s-0.5,0.2-0.7,0.2
		c-0.2,0-0.5,0-0.7,0c-0.2,0-0.5-0.4-0.7-0.4c-0.2,0-0.5,0.3-0.7,0.2C77.8,163.5,77.6,163.5,77.4,163.5L77.4,163.5z"/>
	<path class="st3" d="M94.1,162.4c0,0.2-0.4,0.4-0.4,0.6c0,0.2,0.2,0.5,0.2,0.7c0,0.2,0.1,0.5,0.1,0.7c-0.1,0.2-0.3,0.4-0.3,0.6
		c-0.1,0.2-0.1,0.5-0.1,0.7c-0.1,0.2-0.4,0.4-0.4,0.6c-0.1,0.3,0.1,0.5,0.1,0.7c-0.1,0.4-0.5,0.5-0.3,0.8c0.2,0.3,0.4,0.2,0.8,0.3
		c0.2,0.1,0.5,0,0.7,0.1c0.2,0.1,0.4,0,0.7,0.1c0.2,0,0.4,0.2,0.7,0.2c0.2,0,0.5-0.1,0.7-0.1c0.2,0,0.5,0.3,0.7,0.3
		c0.2,0,0.4-0.3,0.7-0.3c0.2,0,0.5,0.1,0.7,0c0.2-0.1,0.4-0.3,0.6-0.4c0.2-0.1,0.2-0.4,0.5-0.5c0.2-0.2,0.3,0,0.6-0.4
		c0.1-0.2,0-0.5,0.1-0.7c0.1-0.2,0.1-0.4,0.2-0.7c0.1-0.2,0.3-0.4,0.4-0.6c0.1-0.2,0.2-0.4,0.3-0.6c0.1-0.2,0.4-0.3,0.5-0.5
		c0.1-0.2,0.1-0.5,0.2-0.7c0.1-0.2,0.1-0.2,0.1-0.4c-0.2,0.1-0.3-0.1-0.6-0.1c-0.2,0.1-0.5,0.2-0.7,0.3c-0.2,0-0.5-0.2-0.8-0.2
		c-0.2,0-0.5-0.1-0.7-0.1c-0.2,0-0.5,0.4-0.7,0.4c-0.2,0-0.5-0.1-0.7-0.1c-0.2,0-0.5-0.1-0.7-0.1c-0.2,0-0.5-0.2-0.7-0.2
		c-0.2-0.1-0.5-0.2-0.7-0.2c-0.3-0.1-0.5-0.2-0.7-0.2C94.6,162.3,94.3,162.5,94.1,162.4L94.1,162.4z"/>
	<path class="st4" d="M24.3,90.1c-0.1,0.2-0.1,0.6-0.2,0.8c-0.1,0.2-0.5,0.3-0.6,0.5c-0.1,0.2-0.2,0.5-0.3,0.7
		c-0.1,0.2-0.2,0.4-0.4,0.6c-0.1,0.2-0.2,0.5-0.3,0.7c-0.1,0.2-0.3,0.4-0.4,0.6c-0.1,0.2,0,0.5-0.1,0.8c-0.1,0.2-0.2,0.4-0.3,0.7
		c-0.1,0.2-0.2,0.4-0.3,0.7c-0.1,0.2,0.1,0.5,0,0.8c0,0.2-0.4,0.4-0.4,0.7c0,0.2-0.1,0.5-0.1,0.7c0,0.2,0.3,0.5,0.4,0.7
		c0,0.2,0.3,0.4,0.3,0.7c0,0.2-0.4,0.6-0.4,0.8c0.1,0.2,0.6,0.3,0.7,0.5c0.1,0.2,0,0.5,0.1,0.7c0.1,0.2,0.3,0.4,0.4,0.6
		s0.3,0.4,0.5,0.6c0.1,0.2,0.2,0.5,0.3,0.7c0.1,0.2,0.3,0.4,0.5,0.6s0.5,0.2,0.6,0.4c0.2,0.2,0.1,0.6,0.3,0.7
		c0.2,0.2,0.5,0.2,0.6,0.4c0.2,0.2,0.4,0.3,0.5,0.5c0.2,0.2,0.4,0.3,0.6,0.4c0.2,0.2,0.4,0.3,0.6,0.5c0.2,0.2,0.3,0.4,0.5,0.6
		c0.2,0.2,0.4,0.3,0.6,0.4c0.2,0.2,0.2,0.5,0.4,0.7c0.2,0.2,0.5,0.2,0.6,0.4c0.2,0.2,0.4,0.3,0.6,0.4s0.2,0.5,0.3,0.7
		c0.2,0.2,0.4,0.2,0.6,0.4s0.5,0.1,0.7,0.3c0.2,0.2,0.2,0.5,0.4,0.7c0-0.2-0.1-0.5-0.1-0.8c0-0.2,0.4-0.4,0.4-0.7
		c0-0.2,0.2-0.4,0.3-0.7c0-0.2,0-0.5,0-0.7c0-0.2-0.1-0.5,0-0.7s0.2-0.5,0.2-0.7c0-0.2-0.1-0.5,0-0.8c0-0.2,0-0.5,0.1-0.7
		c0-0.2,0-0.5,0-0.7c0-0.2,0.3-0.4,0.3-0.7c0-0.2-0.1-0.5,0-0.8s0-0.5,0.1-0.7c0-0.2,0.4-0.4,0.5-0.7c0-0.2-0.1-0.5,0-0.8
		s-0.1-0.5,0-0.8s0.5-0.4,0.5-0.6c0-0.2,0.1-0.5,0.2-0.7c0-0.2,0-0.5,0-0.7c0-0.2,0.3-0.4,0.3-0.7s0.1-0.5,0.1-0.7s-0.3-0.6-0.2-0.8
		s0.5-0.4,0.5-0.6s-0.4-0.6-0.3-0.8s0.2-0.4,0.3-0.7c0-0.2,0.3-0.4,0.3-0.7s0.2-0.4,0.3-0.7c0-0.2-0.2-0.6-0.2-0.8
		c0-0.2,0.4-0.4,0.5-0.7s-0.3-0.6-0.2-0.8c0.1-0.2,0.3-0.3,0.4-0.5c-0.3-0.1-0.3,0.1-0.7,0.1s-0.4-0.4-0.7-0.4S34.2,90,33.8,90
		s-0.4,0.3-0.7,0.3s-0.4-0.1-0.7-0.1s-0.4-0.3-0.7-0.3s-0.4-0.1-0.7-0.1s-0.4,0.2-0.7,0.2s-0.4-0.2-0.7-0.2s-0.4,0.4-0.7,0.4
		s-0.4-0.3-0.7-0.3s-0.4,0.4-0.7,0.4s-0.4-0.4-0.7-0.4s-0.4,0.2-0.7,0.2S25.4,90,25.1,90C24.7,89.9,24.7,90,24.3,90.1L24.3,90.1z"/>
</g>
<path class="st5" d="M20.1,123.7c0.2-0.3,0.4-0.2,0.6-0.5s0.1-0.4,0.4-0.7s0.2-0.3,0.4-0.6c0.2-0.3,0.5-0.1,0.8-0.3
	c0.2-0.3-0.1-0.6,0.1-0.9c0.2-0.3,0.6,0,0.8-0.3c0.1-0.2,0.3-0.1,0.5-0.1c0.2,0,0.4-0.3,0.6-0.1c0.1,0.1,0.1,0.4,0.1,0.6
	c0.1,0.2,0.4,0.4,0.5,0.6c0.1,0.2,0.2,0.4,0.3,0.6c0.1,0.2,0.1,0.4,0.3,0.7c0.1,0.2,0.2,0.4,0.4,0.6c0.1,0.2,0.4,0.3,0.5,0.5
	c0.1,0.2,0.2,0.4,0.4,0.6c0.2,0.2,0.3,0.4,0.5,0.5c0.2,0.2,0.2,0.5,0.4,0.6c0.2,0.2,0.6,0.1,0.8,0.2c0.3,0.2,0.5,0.4,0.7,0.3
	c0.2-0.1,0.5-0.4,0.6-0.7c0.1-0.2,0.2-0.4,0.3-0.7c0.1-0.2-0.3-0.6-0.2-0.8c0.1-0.2,0.2-0.4,0.3-0.7c0.1-0.2,0.5-0.3,0.6-0.6
	s0-0.5,0.1-0.8c0.1-0.2,0.2-0.4,0.3-0.7c0.1-0.2,0.3-0.4,0.4-0.6c0.1-0.2,0.1-0.5,0.3-0.7c0.1-0.2,0.5-0.2,0.7-0.2
	c0.2-0.1,0.6-0.4,0.8-0.2c0.2,0.1,0.3,0.5,0.3,0.8c0,0.4-0.1,0.4-0.1,0.8s0.1,0.4,0.1,0.8c0,0.4,0.3,0.3,0.4,0.7
	c0,0.4-0.3,0.4-0.3,0.8c0,0.4,0.3,0.3,0.4,0.7c0,0.3,0,0.7,0.2,0.8c0.2,0.2,0.7,0.3,1,0.2c0.2-0.1,0.2-0.6,0.4-0.7
	c0.2-0.1,0.5-0.1,0.7-0.2c0.2-0.1,0.4-0.2,0.6-0.4s0.5-0.1,0.7-0.3c0.2-0.2,0.3-0.4,0.4-0.6c0.2-0.2,0.3-0.4,0.4-0.6
	c0.2-0.2,0.5-0.2,0.6-0.4s-0.1-0.6,0-0.8c0.1-0.2,0.7-0.2,0.8-0.4c0.1-0.2,0.1-0.5,0.2-0.7c0.1-0.2,0.2-0.4,0.3-0.6s0-0.5,0-0.7
	c0.1-0.2,0.3-0.4,0.4-0.6c0.1-0.2-0.1-0.5,0-0.7c0.1-0.3,0.5-0.4,0.7-0.5c0.2-0.1,0.4,0.1,0.6,0.2c0.2,0.1,0.3,0.2,0.4,0.5
	c0,0,0,0,0,0c0,0.2,0.5,0.2,0.6,0.3c0.2,0.1,0.2,0.2,0.4,0.2c0.2,0,0.3,0,0.5-0.1c0.2-0.2,0.3-0.3,0.5-0.5c0.2-0.2,0.6,0,0.8-0.2
	c0.2-0.2,0.2-0.5,0.4-0.6c0.2-0.2,0.1-0.5,0.3-0.7s0.4-0.3,0.5-0.5c0.1-0.2,0.3-0.4,0.4-0.6c0.1-0.2,0-0.5,0.2-0.7
	c0.1-0.2,0.5-0.3,0.6-0.5c0.1-0.2,0.2-0.4,0.3-0.7c0.1-0.2,0.2-0.4,0.3-0.7s-0.3-0.6-0.3-0.8c0.1-0.2,0.4-0.4,0.4-0.6
	c0-0.2-0.2-0.5-0.2-0.8c0-0.2,0.5-0.4,0.5-0.7c0-0.2-0.2-0.5-0.2-0.7c0-0.2,0.2-0.5,0.2-0.7c0-0.3,0-0.4,0.2-0.6
	c0.2-0.2,0.3-0.5,0.6-0.4c0.2,0,0.3,0.3,0.4,0.6c0.1,0.2,0.2,0.2,0.4,0.4c0.2,0.3,0.5,0.2,0.7,0.3c0.3,0,0.4,0,0.6-0.2
	c0.2-0.2,0.6-0.2,0.7-0.4c0.1-0.2,0-0.6,0.1-0.8c0.1-0.2,0.5-0.3,0.6-0.5c0.1-0.2,0.1-0.5,0.2-0.7s0-0.5,0-0.8
	c0.1-0.2,0.5-0.3,0.6-0.6s-0.3-0.6-0.3-0.8c0.1-0.2,0.2-0.4,0.2-0.7c0-0.2,0.2-0.4,0.2-0.7c0-0.2,0.3-0.4,0.3-0.7s-0.4-0.5-0.4-0.8
	c0-0.2,0.5-0.4,0.5-0.7c0-0.2-0.3-0.5-0.3-0.7c0-0.2,0.4-0.5,0.4-0.7c0-0.2-0.4-0.5-0.4-0.7c0-0.2,0.1-0.5,0.1-0.7
	c0-0.2-0.1-0.6,0-0.7c0.1-0.2,0.5-0.2,0.7-0.2c0.2-0.1,0.5-0.2,0.7,0c0.2,0.2,0.1,0.4,0.3,0.6c0.2,0.2,0.3,0.1,0.5,0.2
	c0.2,0.1,0.4,0.2,0.6,0.1c0.2,0,0.4-0.2,0.5-0.4c0.1-0.2,0.2-0.4,0.2-0.6c0-0.2-0.2-0.4-0.2-0.7c0-0.2,0-0.4-0.1-0.7
	c0-0.2,0-0.5,0-0.7c0-0.2-0.1-0.4-0.2-0.7c0-0.2,0.2-0.5,0.2-0.7c0-0.2-0.1-0.5-0.1-0.7c0-0.2-0.3-0.4-0.4-0.7c0-0.2,0.1-0.5,0-0.7
	c0-0.2-0.1-0.5-0.1-0.7c-0.1-0.2-0.2-0.4-0.3-0.6s-0.2-0.4-0.2-0.7s-0.2-0.4-0.3-0.6c-0.1-0.2,0-0.5-0.1-0.7S56.1,87,56,86.8
	c-0.1-0.2-0.4-0.3-0.5-0.5c-0.1-0.2,0.1-0.7,0-0.8c-0.2-0.1-0.6,0-0.8-0.1s-0.4-0.3-0.6-0.4c-0.2-0.1-0.4-0.3-0.6-0.4
	c-0.2-0.1-0.4-0.3-0.6-0.4c-0.2-0.1-0.6,0-0.8-0.2c-0.2-0.1-0.5-0.1-0.7-0.2c-0.2-0.1-0.2-0.6-0.5-0.7c-0.2-0.1-0.6,0-0.8-0.1
	s-0.3-0.4-0.5-0.6c-0.2-0.1-0.4-0.4-0.6-0.5c-0.3,0.1-0.3,0.2-0.6,0.4c-0.3,0.2-0.3,0.3-0.6,0.4c-0.3,0.2-0.3,0.3-0.6,0.4
	c-0.2,0.1-0.4,0.2-0.6,0.4c-0.3,0.2-0.3,0.2-0.6,0.3S45.3,83.9,45,84c-0.3,0.2-0.4,0.1-0.7,0.2c-0.3,0.2-0.4,0.1-0.7,0.2
	c-0.3,0.2-0.1,0.6-0.4,0.7s-0.5-0.2-0.8,0c-0.3,0.2-0.2,0.5-0.5,0.6c-0.3,0.2-0.5-0.1-0.8,0.1s-0.2,0.5-0.5,0.6
	c-0.3,0.2-0.3,0.2-0.6,0.3c-0.3,0.2-0.3,0.3-0.6,0.4s-0.4,0-0.7,0.2s-0.3,0.1-0.7,0.3s-0.3,0.2-0.6,0.3c-0.3,0.2-0.4,0.1-0.7,0.2
	s-0.2,0.4-0.5,0.6s-0.3,0.2-0.6,0.3c-0.3,0.2-0.3,0.3-0.6,0.4s-0.4,0-0.8,0.1s-0.3,0.2-0.6,0.4c-0.3,0.2-0.4,0.1-0.7,0.2
	c-0.3,0.2-0.2,0.3-0.6,0.5s-0.4,0.1-0.7,0.3s-0.4,0.1-0.7,0.3c-0.3,0.2-0.3,0.3-0.6,0.4c-0.3,0.2-0.4,0-0.7,0.2s-0.1,0.5-0.5,0.7
	c-0.3,0.2-0.4,0-0.7,0.2c-0.3,0.2-0.2,0.3-0.6,0.5c-0.3,0.2-0.2,0.4-0.5,0.6c-0.3,0.2-0.6-0.2-0.9-0.1c-0.3,0.2-0.2,0.3-0.6,0.5
	c-0.3,0.2-0.2,0.3-0.6,0.5s-0.3,0.2-0.6,0.4c-0.3,0.2-0.3-0.1-0.7,0.2c-0.2,0.1-0.3,0.4-0.5,0.6c-0.2,0.1-0.5,0.1-0.7,0.3
	c-0.2,0.1-0.2,0.4-0.4,0.6c-0.2,0.2-0.1,0.5-0.3,0.7c-0.2,0.2-0.6,0-0.8,0.2c-0.1,0.2,0,0.6-0.2,0.8c-0.1,0.2-0.5,0.2-0.6,0.4
	c-0.1,0.2-0.1,0.5-0.3,0.7c-0.1,0.2-0.3,0.4-0.4,0.6c-0.1,0.2-0.4,0.3-0.5,0.5c-0.1,0.2-0.4,0.3-0.5,0.5c-0.1,0.2-0.2,0.3-0.4,0.5
	c-0.2,0-0.2-0.1-0.4-0.1c0,0.2-0.2,0.4-0.2,0.7s0.2,0.5,0.2,0.7c0,0.2-0.1,0.5-0.1,0.7c0,0.2,0.1,0.5,0,0.7c0,0.2,0,0.5,0,0.7
	c0,0.2-0.2,0.5-0.2,0.7c0,0.2-0.4,0.4-0.4,0.7s0.2,0.5,0.1,0.7c0,0.2-0.3,0.4-0.3,0.7c0,0.2,0.4,0.5,0.4,0.8c0,0.2-0.5,0.4-0.5,0.7
	s0.3,0.5,0.3,0.8c0,0.2,0.1,0.5,0,0.7c0,0.2-0.1,0.5-0.1,0.7s0.1,0.5,0,0.7s0,0.5,0,0.7s-0.4,0.4-0.4,0.7c0,0.2,0,0.5,0,0.7
	c0,0.2,0.1,0.5,0,0.7c0,0.2-0.2,0.5-0.2,0.7c0,0.2,0.2,0.5,0.2,0.7c0,0.2,0.2,0.5,0.2,0.7c0,0.2-0.1,0.5-0.1,0.7s0,0.5,0,0.7
	c0,0.2-0.2,0.5-0.2,0.7s0,0.5,0,0.7c0.1,0.2,0.4,0.3,0.5,0.6c0.1,0.2,0.2,0.5,0.3,0.7c0.1,0.2-0.1,0.6,0,0.8
	c0.1,0.2,0.7,0.2,0.8,0.4c0.2,0.2-0.1,0.7,0,0.9c0.2,0.2,0.6,0.1,0.8,0.2C19.7,123.9,19.9,123.8,20.1,123.7L20.1,123.7z"/>
<path class="st6" d="M48.5,78.6c-0.3,0.1-0.4-0.1-0.8,0.1c-0.3,0.2-0.3,0.2-0.6,0.4c-0.3,0.2-0.3,0.2-0.6,0.4
	c-0.3,0.2-0.3,0.2-0.6,0.3c-0.3,0.2-0.2,0.5-0.5,0.6c-0.3,0.2-0.5-0.1-0.8,0s-0.3,0.2-0.6,0.4s-0.1,0.5-0.4,0.7
	c-0.3,0.2-0.5-0.1-0.8,0.1s-0.4,0.1-0.7,0.3c-0.3,0.2-0.2,0.3-0.5,0.5c-0.3,0.2-0.4,0.1-0.7,0.2c-0.3,0.2-0.2,0.4-0.5,0.6
	c-0.3,0.2-0.5-0.1-0.8,0.1s-0.3,0.2-0.6,0.3s-0.2,0.4-0.5,0.6c-0.3,0.2-0.4,0-0.8,0.2s-0.3,0.1-0.7,0.3c-0.3,0.2-0.1,0.6-0.4,0.8
	c-0.3,0.2-0.4,0-0.7,0.2s-0.4,0-0.7,0.2c-0.3,0.2-0.2,0.4-0.5,0.6c-0.3,0.2-0.5-0.1-0.8,0.1c-0.3,0.2-0.1,0.6-0.4,0.8
	s-0.6-0.2-0.9-0.1c-0.3,0.2-0.1,0.5-0.4,0.7c-0.3,0.2-0.5-0.1-0.8,0.1c-0.3,0.2-0.1,0.5-0.4,0.7s-0.3,0.2-0.6,0.4s-0.6-0.3-0.9-0.1
	s-0.2,0.3-0.5,0.5s-0.2,0.3-0.5,0.5c-0.3,0.2-0.4,0-0.7,0.2s-0.2,0.3-0.6,0.5s-0.3,0.2-0.6,0.4s-0.3,0.2-0.7,0.3s-0.4,0.1-0.7,0.3
	c-0.3,0.2-0.2,0.4-0.5,0.6s-0.4,0.1-0.7,0.3c-0.3,0.2-0.3-0.1-0.7,0.2c-0.2,0.1-0.4,0.2-0.6,0.4c-0.2,0.1-0.4,0.3-0.5,0.4
	c-0.2,0.1-0.2,0.5-0.4,0.6c-0.2,0.2-0.2,0.4-0.4,0.6c-0.2,0.2-0.5,0.1-0.7,0.3c-0.1,0.2-0.1,0.5-0.3,0.7c-0.1,0.2-0.5,0.2-0.6,0.4
	c-0.1,0.2-0.2,0.4-0.4,0.6c-0.1,0.2-0.2,0.4-0.4,0.6c-0.1,0.2-0.5,0.2-0.6,0.4c-0.1,0.2,0,0.5-0.2,0.7c-0.1,0.2-0.3,0.4-0.4,0.6
	c-0.4,0-0.4,0-0.7-0.2c-0.3-0.1-0.2-0.5-0.5-0.6c-0.3-0.1-0.4,0.1-0.7-0.1s-0.4-0.1-0.7-0.2s-0.2-0.5-0.5-0.6s-0.4,0.1-0.8,0
	c-0.3-0.1-0.2-0.4-0.5-0.5s-0.4,0.1-0.8,0c-0.3-0.1-0.4-0.1-0.7-0.2c-0.2-0.1-0.3-0.1-0.5-0.1s-0.3,0.1-0.4,0.3
	c-0.1,0.2-0.6,0.2-0.7,0.4c-0.1,0.2-0.2,0.5-0.3,0.7c-0.1,0.2,0,0.5-0.1,0.8c-0.1,0.2-0.4,0.4-0.5,0.6c-0.1,0.2-0.1,0.5-0.2,0.7
	c-0.1,0.2,0.1,0.6,0.1,0.8c-0.1,0.2-0.2,0.4-0.3,0.7s-0.5,0.4-0.5,0.6c-0.1,0.2,0.1,0.5,0,0.8c0,0.2-0.1,0.5-0.1,0.7
	s0.2,0.5,0.2,0.7s0.1,0.5,0.1,0.7s-0.2,0.5-0.2,0.7c0,0.2-0.1,0.5-0.1,0.7c0,0.2,0.2,0.5,0.2,0.7s-0.1,0.5-0.1,0.8
	c0,0.2,0.5,0.4,0.6,0.6c0.1,0.2-0.1,0.5-0.1,0.8s0,0.5,0,0.8c0.1,0.2,0.5,0.3,0.6,0.6s0,0.5,0.1,0.7c0.1,0.2,0.2,0.4,0.3,0.7
	c0.1,0.2,0.3,0.4,0.4,0.6c0.1,0.2,0,0.5,0.1,0.8c0.1,0.2,0.4,0.4,0.5,0.6c0.1,0.2,0.2,0.4,0.3,0.6c0.1,0.2,0.2,0.7,0.4,0.8
	c0.2,0.1,0.7-0.1,0.9-0.3c0.2-0.2,0.1-0.5,0.2-0.8c0-0.2,0.4-0.4,0.4-0.7c0.1-0.2-0.2-0.5-0.1-0.8c0.1-0.2,0.1-0.5,0.2-0.7
	c0.1-0.2,0-0.5,0.1-0.8c0.1-0.2,0.4-0.1,0.5-0.3c0,0.2,0.2,0.2,0.2,0.5c0,0.2,0.1,0.5,0.1,0.7c0,0.2-0.1,0.5-0.1,0.7
	c0.1,0.2,0.1,0.5,0.1,0.7c0.1,0.2,0.5,0.4,0.5,0.6c0.1,0.2,0.1,0.4,0.2,0.7c0.1,0.2-0.4,0.6-0.3,0.8c0.1,0.2,0.3,0.4,0.4,0.6
	c0.1,0.2,0.3,0.4,0.4,0.6c0.1,0.2,0.2,0.4,0.3,0.6c0.1,0.2,0.2,0.4,0.3,0.6c0.1,0.2,0.1,0.5,0.3,0.7c0.1,0.2,0.3,0.4,0.4,0.6
	c0.1,0.2,0.1,0.5,0.2,0.7c0.1,0.2,0.5,0.3,0.6,0.4c0.2,0.2,0.4,0.1,0.7,0.1c0.2,0,0.7,0.3,0.9,0.1c0.2-0.3,0-0.5,0.2-0.8
	s0.5-0.1,0.7-0.4s0.3-0.3,0.5-0.6c0.2-0.3,0.1-0.4,0.4-0.7c0.2-0.3,0.1-0.4,0.4-0.7c0.2-0.3,0.3-0.2,0.5-0.5
	c0.1-0.2,0.3-0.4,0.5-0.4c0.2,0,0.5,0.1,0.6,0.2c0.1,0.1,0,0.4,0,0.6c0.1,0.2,0.1,0.5,0.2,0.7c0.1,0.2,0.6,0.3,0.7,0.5
	c0.1,0.2,0,0.5,0.1,0.7s0.2,0.4,0.3,0.6c0.1,0.2,0.5,0.2,0.6,0.4c0.1,0.2,0.2,0.4,0.4,0.6c0.2,0.2,0.3,0.4,0.5,0.5
	c0.2,0.2,0.3,0.4,0.5,0.5c0.2,0.2,0.5,0.2,0.6,0.3c0.3,0.2,0.5,0.6,0.8,0.5c0.2-0.1,0.3-0.6,0.4-0.9c0.1-0.2,0.1-0.5,0.2-0.7
	c0.1-0.2,0.3-0.4,0.4-0.6c0.1-0.2,0.3-0.4,0.4-0.6c0.1-0.2,0.1-0.5,0.1-0.7c0.1-0.2-0.1-0.6,0-0.8c0.1-0.2,0.1-0.5,0.2-0.7
	c0.1-0.2,0.3-0.4,0.4-0.6c0.1-0.2,0.6-0.2,0.7-0.4c0.1-0.2,0.1-0.6,0.4-0.7c0.2-0.1,0.4,0.2,0.6,0.4c0.2,0.1,0.5,0.2,0.5,0.5
	c0,0.4-0.1,0.4,0,0.8c0,0.4,0,0.4,0.1,0.8c0,0.4,0,0.4,0.1,0.8c0,0.4,0.1,0.4,0.2,0.8s-0.1,0.4-0.1,0.8c0,0.3,0.5,0.4,0.7,0.6
	c0.2,0.2,0.4,0.2,0.7,0.1c0.2-0.1,0.6,0.1,0.8,0c0.2-0.1,0.2-0.6,0.4-0.7c0.2-0.1,0.4-0.2,0.6-0.4c0.2-0.1,0.3-0.4,0.5-0.5
	c0.2-0.2,0.3-0.3,0.5-0.5c0.2-0.2,0.6-0.1,0.8-0.3c0.2-0.2,0-0.6,0.2-0.8c0.1-0.2,0.5-0.2,0.7-0.4c0.1-0.2,0.2-0.4,0.3-0.6
	c0.1-0.2,0-0.5,0.1-0.7s0.2-0.4,0.2-0.7c0.1-0.2,0.2-0.4,0.3-0.6c0.1-0.2,0.5-0.3,0.6-0.5c0.1-0.2,0-0.5,0-0.7
	c0.1-0.3,0.2-0.7,0.4-0.8c0.2-0.1,0.6,0.1,0.8,0.3c0.2,0.1,0.4,0.3,0.5,0.6l0.2,0c0,0.2-0.1,0.4,0.1,0.6c0.2,0.1,0.3,0,0.5,0
	c0.2,0,0.5,0.3,0.7,0.2c0.2-0.2,0.1-0.6,0.3-0.8c0.2-0.2,0.5-0.2,0.6-0.4c0.2-0.2,0.4-0.3,0.6-0.4c0.2-0.2,0.4-0.3,0.5-0.5
	s0.3-0.4,0.4-0.6c0.1-0.2,0-0.5,0.2-0.7c0.1-0.2,0-0.5,0.1-0.7c0.1-0.2,0.6-0.2,0.7-0.5s0.1-0.5,0.2-0.7c0.1-0.2-0.2-0.6-0.1-0.8
	c0.1-0.2,0.2-0.4,0.3-0.7c0.1-0.2,0.3-0.4,0.3-0.7c0-0.2-0.2-0.5-0.2-0.8c0-0.2,0.2-0.4,0.2-0.7c0-0.2-0.1-0.5,0-0.7
	c0-0.2,0.3-0.5,0.3-0.7c0-0.3,0-0.6,0.1-0.7c0.2-0.2,0.5-0.4,0.8-0.4c0.2,0,0.6,0.2,0.8,0.5c0.1,0.2,0.1,0.3,0.2,0.5
	c0.2,0.3,0.3,0.4,0.5,0.5c0.3,0,0.4-0.1,0.6-0.4c0.2-0.2,0.3-0.4,0.4-0.6c0.1-0.2,0.3-0.4,0.4-0.6s0.4-0.3,0.5-0.5
	c0.1-0.2,0.1-0.5,0.2-0.7c0.1-0.2,0.2-0.4,0.3-0.6c0.1-0.2,0.2-0.4,0.2-0.7s0.1-0.5,0.1-0.7c0.1-0.2,0.3-0.4,0.4-0.6
	c0-0.2,0.1-0.5,0.2-0.7s0.2-0.4,0.2-0.7c0-0.2-0.3-0.5-0.3-0.7c0-0.2,0-0.5,0.1-0.7c0-0.2-0.2-0.5-0.2-0.7c0-0.2,0-0.5,0-0.7
	c0-0.2,0.3-0.5,0.3-0.7c0-0.2,0.2-0.5,0.2-0.7c0-0.2-0.2-0.4,0-0.6c0.1-0.2,0.2-0.5,0.4-0.6c0.2-0.1,0.5,0.2,0.7,0.3
	c0.2,0.2,0.3,0.1,0.5,0.2s0.3,0.1,0.5,0.2c0.2,0.1,0.3,0.1,0.5,0.1c0.2,0,0.5,0.1,0.7-0.1c0.1-0.2,0.3-0.4,0.3-0.7
	c0-0.2-0.4-0.4-0.4-0.7c0-0.2,0.1-0.5,0-0.7c0-0.2,0.4-0.5,0.4-0.7c0-0.2-0.3-0.4-0.4-0.7c0-0.2,0.1-0.5,0.1-0.7
	c0-0.2-0.1-0.5-0.1-0.7c0-0.2,0.1-0.5,0-0.7c0-0.2-0.6-0.4-0.6-0.6c0-0.2,0.3-0.6,0.2-0.8c-0.1-0.2-0.1-0.5-0.2-0.7
	c-0.1-0.2-0.1-0.5-0.2-0.7c-0.1-0.2-0.4-0.4-0.5-0.6c-0.1-0.2-0.1-0.5-0.2-0.7s-0.1-0.5-0.2-0.7c-0.1-0.2-0.3-0.4-0.5-0.6
	s-0.4-0.3-0.6-0.5s-0.1-0.5-0.3-0.7c-0.1-0.2-0.1-0.5-0.3-0.7s-0.5-0.2-0.7-0.3s-0.4-0.3-0.6-0.4s-0.3-0.4-0.5-0.6
	c-0.2-0.1-0.4-0.2-0.6-0.4c-0.2-0.1-0.3-0.5-0.5-0.6c-0.2-0.1-0.4-0.2-0.7-0.3c-0.2-0.1-0.6,0.2-0.8,0.1
	C48.9,78.7,48.8,78.6,48.5,78.6L48.5,78.6z"/>
<path class="st7" d="M10.2,82.1C10.2,82.1,10.2,82.1,10.2,82.1c-0.2,0.2-0.2,0.5-0.3,0.7s-0.2,0.4-0.3,0.7c-0.1,0.2-0.3,0.4-0.4,0.6
	c-0.1,0.2-0.2,0.5-0.3,0.7c-0.1,0.2-0.1,0.5-0.2,0.7c-0.1,0.2,0.1,0.5,0,0.8c-0.1,0.2-0.2,0.4-0.2,0.7c0,0.2,0.1,0.5,0.1,0.7
	s-0.5,0.4-0.5,0.7c0,0.2,0.2,0.5,0.2,0.7s0,0.5,0,0.7s0.2,0.5,0.2,0.7S8.3,91,8.4,91.2s0.1,0.5,0.1,0.7s0,0.5,0.1,0.7
	c0.1,0.2-0.1,0.5,0,0.8s0.2,0.5,0.2,0.7c0.1,0.2,0.3,0.4,0.4,0.6c0.1,0.2,0.3,0.4,0.4,0.6c0.1,0.2,0.1,0.5,0.2,0.7
	c0.1,0.2,0.2,0.4,0.3,0.7c0.1,0.2,0.3,0.4,0.4,0.6c0.1,0.2,0.2,0.5,0.3,0.7s0.4,0.3,0.6,0.5c0.1,0.2,0.1,0.6,0.2,0.8
	c0.1,0.2,0.6,0.1,0.8,0.3c0.2,0.2,0.4,0.3,0.6,0.4c0.2,0.2,0.2,0.5,0.4,0.6c0.2,0.2,0.3,0.4,0.4,0.6c0.2,0.2,0.3,0.4,0.4,0.6
	s0.6-0.1,0.8,0.1s0.4,0.3,0.6,0.4c0.2,0.1,0.2,0.6,0.4,0.7s0.6-0.1,0.8,0s0.3,0.4,0.5,0.5c0.2,0.1,0.4,0.2,0.7,0.3s0.5,0,0.8,0.1
	c0.2,0.1,0.4,0.4,0.6,0.5c0.2,0.1,0.5,0.1,0.7,0.2s0.5-0.2,0.8-0.1c0.2,0.1,0.4,0.5,0.6,0.5c0.2,0.1,0.5,0.1,0.7,0.1s0.5-0.1,0.8,0
	s0.5,0.2,0.7,0.2c0.2,0,0.5,0.2,0.7,0.2l0-0.3c0.2,0,0.5,0.1,0.7,0.1s0.5,0.2,0.7,0.2c0.2,0,0.5-0.2,0.7-0.2c0.2,0,0.5-0.1,0.7-0.1
	c0.2,0,0.5,0.2,0.7,0.2c0.2,0,0.5,0.2,0.7,0.1c0.2,0,0.5-0.3,0.7-0.3c0.2,0,0.5,0.1,0.7,0.1s0.5,0,0.7,0c0.2,0,0.4-0.3,0.7-0.4
	s0.5-0.1,0.7-0.2c0.2-0.1,0.5,0.3,0.8,0.2c0.2-0.1,0.4-0.2,0.7-0.3c0.2-0.1,0.5,0,0.7-0.1c0.2-0.1,0.4-0.3,0.6-0.4
	c0.2-0.1,0.4-0.4,0.6-0.4c0.2-0.1,0.5-0.2,0.7-0.2c0.2-0.1,0.6,0.1,0.8,0c0.2-0.1,0.3-0.5,0.5-0.6s0.6,0.2,0.8,0.1s0.3-0.4,0.5-0.5
	c0.2-0.1,0.3-0.4,0.5-0.6c0.2-0.1,0.5,0,0.8-0.2c0.2-0.1,0.3-0.4,0.5-0.6s0.6-0.1,0.8-0.2c0.2-0.2,0.2-0.5,0.4-0.7
	c0.2-0.2,0.6-0.1,0.8-0.2c0.2-0.2,0.2-0.5,0.4-0.6c0.2-0.2,0.2-0.5,0.4-0.6s0.3-0.3,0.5-0.5c0.2-0.2,0.6-0.1,0.8-0.3
	s0.3-0.4,0.5-0.6c0.2-0.2,0.2-0.4,0.4-0.6c0.2-0.2,0-0.6,0.1-0.8c0.1-0.2,0.5-0.2,0.7-0.4c0.1-0.2,0.2-0.5,0.3-0.7
	c0.1-0.2,0.2-0.4,0.4-0.6s0.5-0.3,0.6-0.5c0.1-0.2,0.3-0.4,0.4-0.6s-0.2-0.6-0.1-0.8c0.1-0.2,0.5-0.3,0.6-0.5c0.1-0.2,0-0.5,0.1-0.7
	c0.1-0.2,0.1-0.5,0.2-0.7c0.1-0.2,0.1-0.5,0.2-0.7c0.1-0.2,0.4-0.4,0.5-0.6c0.1-0.2,0-0.5,0.1-0.7c0.1-0.2,0.5-0.3,0.6-0.6
	c0.1-0.2,0.2-0.5,0.2-0.7c0.1-0.2,0.1-0.5,0.2-0.7c0.1-0.3-0.2-0.6-0.2-0.8c0.1-0.4,0.2-0.3,0.3-0.7"/>
<g>
	<path class="st8" d="M22.4,113.8c0,0.2-0.3,0.3-0.5,0.5c-0.1,0.2-0.2,0.3-0.4,0.5c-0.2,0.2-0.1,0.7-0.3,0.7
		c-0.2,0.1-0.5-0.3-0.8-0.3c-0.2,0-0.5,0.5-0.7,0.5c-0.2-0.1-0.4-0.3-0.6-0.4c-0.2-0.1-0.4-0.2-0.6-0.4s-0.1-0.4-0.2-0.7
		c-0.1-0.2,0-0.4,0-0.7c0-0.2-0.1-0.4-0.1-0.6c0-0.2,0.1-0.4,0.2-0.6c0.1-0.2,0.2-0.4,0.4-0.6c0.2-0.2,0.3-0.4,0.5-0.5
		c0.2-0.1,0.5,0.1,0.7,0.1s0.5-0.2,0.7-0.2c0.2,0.1,0.4,0.3,0.6,0.4s0.5,0.1,0.6,0.3c0.1,0.2,0.2,0.4,0.3,0.7c0.1,0.2,0,0.4,0,0.7
		C22.3,113.4,22.5,113.6,22.4,113.8L22.4,113.8z"/>
	<path class="st9" d="M27,113.6c-0.1-0.2-0.2-0.4-0.2-0.7s-0.2-0.4-0.3-0.7s-0.2-0.5-0.2-0.7c0-0.2,0.1-0.5,0.2-0.7
		c0-0.2,0.2-0.5,0.2-0.7s0-0.5-0.1-0.7c0-0.2-0.1-0.5-0.1-0.7s0.2-0.5,0.1-0.7s-0.6-0.4-0.6-0.6c0-0.2,0-0.5-0.1-0.7
		c-0.1-0.2-0.2-0.4-0.2-0.7s-0.2-0.4-0.3-0.6c-0.1-0.2,0.1-0.6,0-0.8c-0.1-0.2-0.2-0.5-0.3-0.7c-0.1-0.2-0.6-0.1-0.7-0.3
		c-0.2-0.2-0.3-0.4-0.5-0.5c-0.2-0.1-0.3-0.4-0.6-0.5c-0.2-0.1-0.5-0.1-0.7-0.2s-0.5-0.1-0.7-0.1s-0.5,0.4-0.7,0.4
		c-0.2,0-0.5-0.1-0.7,0s-0.3,0.4-0.5,0.5c-0.2,0.1-0.7-0.2-0.9-0.1c-0.2,0.1-0.4,0.3-0.6,0.5c-0.2,0.2-0.3,0.4-0.5,0.6
		c-0.2,0.2-0.2,0.5-0.4,0.7c-0.1,0.2-0.4,0.3-0.5,0.5c-0.1,0.2-0.2,0.5-0.3,0.7c-0.1,0.2,0,0.6-0.1,0.8c-0.1,0.2-0.6,0.2-0.7,0.4
		c-0.1,0.2-0.1,0.5-0.2,0.7c-0.1,0.2,0.1,0.6,0,0.8c-0.1,0.2-0.3,0.4-0.4,0.6c-0.1,0.2-0.4,0.3-0.6,0.5c-0.1,0.2,0,0.6-0.2,0.7
		c-0.1,0.2-0.3,0.4-0.4,0.6c-0.1,0.2-0.4,0.2-0.4,0.4c0,0.3,0.3,0.4,0.4,0.6c0.2,0.2,0.2,0.6,0.5,0.6c0.4,0.1,0.4-0.2,0.8-0.1
		s0.3,0.3,0.7,0.3c0.4,0.1,0.3,0.3,0.7,0.3s0.4-0.1,0.8,0s0.4,0.1,0.7,0.2c0.4,0.1,0.4,0.1,0.7,0.1c0.4,0.1,0.4-0.1,0.8,0
		c0.4,0.1,0.4-0.1,0.8,0c0.4,0.1,0.3,0.6,0.6,0.7s0.4,0,0.7,0.1c0.4,0.1,0.4,0,0.7,0.1c0.4,0.1,0.4,0,0.7,0.1s0.4-0.1,0.8,0
		c0.4,0.1,0.4,0.1,0.7,0.2c0.4,0.1,0.4,0.1,0.7,0.1c0.3,0.1,0.4-0.1,0.7-0.2s0.5-0.2,0.6-0.4C27,114.1,27,113.8,27,113.6L27,113.6z"
		/>
</g>
<path class="st3" d="M35.2,3.6c-0.2,0.3,0.1,0.4-0.2,0.8c-0.1,0.2-0.3,0.3-0.4,0.6c-0.1,0.2-0.4,0.2-0.6,0.4
	c-0.1,0.2-0.2,0.4-0.3,0.6c-0.1,0.2-0.6,0.2-0.7,0.3c-0.1,0.2-0.2,0.5-0.3,0.7c-0.1,0.2,0,0.6-0.2,0.8c-0.1,0.2-0.2,0.4-0.4,0.6
	c-0.1,0.2-0.4,0.3-0.6,0.5C31.3,9,31,9.1,30.8,9.3c-0.1,0.2-0.2,0.4-0.3,0.6c-0.1,0.2-0.1,0.5-0.2,0.7c-0.1,0.2,0,0.5-0.1,0.7
	c-0.1,0.2-0.4,0.3-0.5,0.6c-0.1,0.2-0.4,0.3-0.5,0.6c-0.1,0.2-0.2,0.4-0.3,0.7s0,0.5,0,0.8c-0.1,0.2-0.4,0.4-0.5,0.6
	c-0.1,0.2-0.1,0.5-0.2,0.7c-0.1,0.2-0.1,0.5-0.2,0.7c-0.1,0.2-0.3,0.4-0.3,0.7c-0.1,0.2-0.1,0.5-0.2,0.7c-0.1,0.2,0.2,0.6,0.2,0.8
	c-0.1,0.2-0.2,0.4-0.3,0.7c-0.1,0.2,0,0.5-0.1,0.7c0,0.2-0.2,0.5-0.2,0.7c0,0.2-0.1,0.5-0.1,0.7c0,0.2-0.4,0.4-0.4,0.7
	c0,0.2,0.1,0.5,0.1,0.7s0.1,0.5,0,0.7s0,0.5,0,0.7s-0.5,0.5-0.5,0.7s0.4,0.5,0.4,0.7c0,0.2-0.5,0.5-0.4,0.7c0,0.2,0.5,0.5,0.6,0.7
	s-0.4,0.5-0.3,0.8c0,0.2,0.1,0.5,0.1,0.7c0,0.2-0.1,0.5,0,0.7c0,0.2,0.5,0.4,0.5,0.6c0,0.2-0.2,0.5-0.1,0.8c0.1,0.2,0.1,0.5,0.2,0.7
	c0.1,0.2,0,0.5,0.1,0.7s0.6,0.3,0.7,0.5c0.1,0.2-0.2,0.6-0.1,0.8c0.1,0.2,0.2,0.4,0.3,0.7c0.1,0.2,0.4,0.3,0.5,0.6
	c0.1,0.2,0,0.5,0.1,0.7c0.1,0.2,0,0.5,0.1,0.7c0.1,0.2,0.2,0.4,0.3,0.6s0.6,0.2,0.7,0.4c0.1,0.2,0,0.6,0.1,0.8
	c0.1,0.2,0.3,0.3,0.5,0.5c0.1,0.2,0.3,0.4,0.4,0.6c0.1,0.2,0.2,0.4,0.4,0.6c0.1,0.2,0.4,0.3,0.6,0.5c0.1,0.2,0.2,0.5,0.3,0.7
	s0.3,0.4,0.5,0.6c0.2,0.2,0.2,0.5,0.3,0.7s0.5,0.2,0.7,0.4c0.2,0.2,0.5,0.2,0.6,0.4c0.2,0.2,0.3,0.4,0.4,0.6
	c0.2,0.2,0.2,0.5,0.4,0.6s0.2,0.5,0.3,0.7c0.2,0.2,0.7,0,0.9,0.1c0.2,0.2,0.3,0.4,0.5,0.5s0.2,0.5,0.4,0.7c0.2,0.2,0.5,0.2,0.7,0.3
	s0.4,0.2,0.6,0.4c0.2,0.2,0.4,0.3,0.5,0.5s0.1,0.6,0.3,0.8c0.2,0.2,0.5,0.2,0.7,0.3c0.2,0.1,0.6,0,0.8,0.1c0.2,0.1,0.4,0.3,0.6,0.5
	s0.3,0.4,0.5,0.6c0.2,0.1,0.4,0.3,0.6,0.5c0.2-0.3-0.3-0.1-0.6-0.5c-0.1-0.2,0-0.5-0.2-0.8c-0.1-0.2-0.3-0.4-0.4-0.6
	c-0.1-0.2-0.4-0.3-0.6-0.5c-0.1-0.2-0.3-0.4-0.4-0.6c-0.1-0.2-0.1-0.5-0.2-0.7c-0.1-0.2-0.6-0.2-0.7-0.4c-0.1-0.2,0-0.5-0.2-0.8
	s-0.1-0.5-0.2-0.7s-0.3-0.4-0.4-0.6s-0.3-0.4-0.4-0.6c-0.1-0.2-0.4-0.3-0.5-0.6s-0.2-0.5-0.2-0.7s-0.2-0.5-0.3-0.7
	c-0.1-0.2,0.2-0.6,0.1-0.8c-0.1-0.2-0.2-0.5-0.2-0.7c0-0.2,0.1-0.5,0.1-0.7c0-0.2-0.2-0.5-0.2-0.7c0-0.2,0.1-0.5,0.2-0.7
	c0.1-0.2,0.2-0.4,0.3-0.6s0.3-0.3,0.4-0.5c0.2-0.2,0.1-0.6,0.3-0.8c0.2-0.1,0.4-0.4,0.6-0.5c0.2-0.1,0.5,0.1,0.8,0
	c0.2,0,0.5,0.2,0.8,0.2c0.2,0,0.4-0.4,0.7-0.4c0.2,0,0.5-0.1,0.7-0.2c0.2-0.1,0.4-0.2,0.6-0.3c0.2-0.1,0.5-0.1,0.7-0.3
	c0.2-0.1,0.2-0.5,0.4-0.6c0.2-0.2,0.6-0.1,0.8-0.3c0.1-0.2-0.1-0.6,0-0.8c0.1-0.2,0.2-0.4,0.2-0.6c0-0.2,0.1-0.5,0-0.7
	c0-0.2-0.3-0.4-0.4-0.6c-0.1-0.2-0.2-0.4-0.3-0.6c-0.1-0.2-0.3-0.3-0.5-0.5C43,29,43,28.5,42.8,28.4c-0.2-0.1-0.4-0.2-0.7-0.3
	c-0.2-0.1-0.6,0.3-0.8,0.2c-0.2,0-0.4-0.4-0.6-0.4c-0.2,0-0.5-0.1-0.7-0.1c-0.2,0-0.5,0.3-0.7,0.3s-0.5-0.1-0.7-0.1
	c-0.2,0-0.5-0.1-0.7-0.1c-0.2,0-0.5,0.2-0.8,0.1c-0.2-0.1-0.4-0.4-0.6-0.5c-0.2-0.1-0.5-0.1-0.7-0.2c-0.2-0.2-0.4-0.4-0.5-0.6
	c-0.1-0.2-0.1-0.5-0.2-0.7s0-0.5,0-0.7c0-0.2,0-0.5,0.2-0.7c0.1-0.2,0.3-0.4,0.5-0.6c0.2-0.2,0.5-0.2,0.7-0.3
	c0.2-0.1,0.4-0.2,0.6-0.3c0.2-0.1,0.3-0.4,0.6-0.4c0.2-0.1,0.5-0.2,0.7-0.3c0.2,0,0.5,0.2,0.7,0.2c0.2,0,0.5,0,0.7,0.1
	c0.2,0,0.5,0.1,0.7,0.1c0.2,0,0.5-0.1,0.7,0c0.3,0.1,0.5,0.3,0.7,0.3c0.3,0,0.6,0.1,0.8,0c0.2-0.1,0.6-0.1,0.8-0.3
	c0.2-0.1,0.2-0.6,0.3-0.8c0.2-0.2,0.4-0.3,0.5-0.5c0.1-0.2,0.1-0.5,0.1-0.7c0.1-0.2,0.5-0.4,0.5-0.7c0-0.2-0.2-0.5-0.2-0.8
	s0.2-0.5,0.1-0.8c-0.1-0.2-0.6-0.4-0.7-0.6s0-0.5-0.1-0.8s-0.3-0.4-0.5-0.6c-0.2-0.2-0.4-0.2-0.7-0.4c-0.2-0.1-0.4-0.4-0.7-0.5
	c-0.2,0-0.5,0.3-0.8,0.3c-0.2,0-0.5,0-0.7,0c-0.2,0.1-0.5,0-0.7,0c-0.2,0.1-0.4,0.4-0.6,0.5c-0.2,0-0.5-0.2-0.8-0.2
	c-0.3,0-0.5,0.2-0.7,0.2c-0.3,0-0.5,0.1-0.7,0.1c-0.3,0-0.4-0.4-0.6-0.5c-0.2-0.1-0.4-0.2-0.5-0.4c-0.1-0.2-0.5-0.3-0.5-0.6
	c0-0.2,0.5-0.4,0.5-0.7c0-0.2-0.1-0.5,0-0.7c0.1-0.2,0.1-0.5,0.2-0.7c0.1-0.2,0.3-0.3,0.5-0.5c0.1-0.2,0.1-0.5,0.2-0.7
	c0.2-0.2,0.3-0.4,0.5-0.6c0.2-0.2,0.5-0.2,0.7-0.3c0.2-0.2,0.5-0.1,0.7-0.2c0.2-0.1,0.2-0.5,0.4-0.6c0.2-0.1,0.4-0.3,0.6-0.4
	s0.4-0.2,0.6-0.3s0.3-0.4,0.6-0.4c0.2-0.1,0.5-0.2,0.7-0.3s0.3-0.4,0.5-0.6c0.2-0.2,0.4-0.3,0.5-0.5c0.1-0.2,0.3-0.4,0.4-0.6
	c0.1-0.2,0.2-0.5,0.3-0.7s0-0.5,0.1-0.7c0.1-0.2,0-0.5,0.1-0.7s0.1-0.5,0.1-0.7C43.7,4,44,3.8,44,3.6c0-0.2-0.3-0.5-0.4-0.7
	c0-0.2,0.2-0.6,0.2-0.8c-0.1-0.2-0.1-0.5-0.2-0.7c-0.1-0.2-0.6-0.2-0.8-0.3c-0.2-0.2-0.3-0.4-0.5-0.5C42,0.4,41.8,0,41.6,0
	c-0.2,0-0.5,0.4-0.8,0.5c-0.2,0-0.5-0.2-0.8-0.2c-0.2,0.1-0.4,0.2-0.7,0.3c-0.2,0.1-0.3,0.3-0.6,0.5c-0.2,0.1-0.5,0.1-0.7,0.3
	c-0.2,0.1-0.3,0.4-0.5,0.5c-0.2,0.1-0.3,0.3-0.5,0.5c-0.2,0.2-0.4,0.2-0.6,0.4C36.3,3,36,3,35.8,3.2C35.7,3.3,35.4,3.4,35.2,3.6
	L35.2,3.6z"/>
<g>
	<path class="st4" d="M31,43c0-0.4-0.4-0.3-0.6-0.7c-0.1-0.2,0-0.5-0.1-0.8c-0.1-0.2-0.1-0.5-0.2-0.7c-0.1-0.2-0.3-0.4-0.4-0.6
		c-0.1-0.2-0.4-0.3-0.5-0.5c-0.1-0.2,0-0.5-0.2-0.8c-0.1-0.2-0.6-0.2-0.8-0.4c-0.1-0.2,0-0.6-0.2-0.8c-0.1-0.2-0.2-0.5-0.3-0.7
		c-0.1-0.2-0.6-0.1-0.8-0.3c-0.1-0.2,0-0.6-0.2-0.8c-0.1-0.2-0.4-0.3-0.5-0.5c-0.2-0.2-0.4-0.3-0.6-0.4s-0.4-0.3-0.5-0.5
		s-0.3-0.3-0.5-0.5c-0.2-0.2-0.1-0.6-0.3-0.8c-0.2-0.2-0.5-0.2-0.7-0.3c-0.2-0.2-0.3-0.4-0.5-0.6c-0.2-0.2-0.3-0.4-0.5-0.5
		c-0.2-0.2-0.6,0-0.8-0.2c-0.2-0.2-0.1-0.6-0.3-0.8c-0.2-0.2-0.5-0.2-0.7-0.3c-0.2-0.1-0.6,0-0.8-0.1c-0.2-0.1-0.4-0.3-0.6-0.4
		c-0.2-0.1-0.3-0.4-0.5-0.5c-0.2-0.1-0.5,0-0.7,0c-0.2-0.1-0.4-0.6-0.6-0.6c-0.3,0-0.5,0.3-0.7,0.4c-0.2,0.1-0.2,0.4-0.4,0.6
		c-0.1,0.2-0.3,0.3-0.5,0.5c-0.1,0.2-0.2,0.4-0.3,0.6c-0.1,0.2,0,0.5-0.1,0.7c-0.1,0.2-0.1,0.4-0.2,0.7c0,0.2-0.3,0.4-0.3,0.7
		c0,0.2-0.1,0.5-0.2,0.7c0,0.2,0.3,0.5,0.2,0.8c0,0.2-0.3,0.5-0.3,0.7c0,0.2-0.3,0.5-0.3,0.7c0,0.2,0.2,0.5,0.2,0.7
		c0,0.2-0.2,0.5-0.2,0.7c0,0.2,0.1,0.5,0.1,0.7c0,0.2,0,0.5,0,0.7c0,0.2,0.1,0.5,0.2,0.7c0,0.2,0.3,0.4,0.3,0.7
		c0.1,0.2,0,0.5,0.1,0.7c0.1,0.2-0.1,0.5,0,0.7c0.1,0.2,0.4,0.3,0.5,0.6c0.1,0.2,0.1,0.5,0.2,0.7s0,0.5,0.1,0.8s0.4,0.3,0.5,0.5
		c0.1,0.2,0.2,0.5,0.4,0.6c0.2,0.2,0.5,0.1,0.7,0.3c0.2,0.2,0.3,0.4,0.5,0.5c0.2,0.2,0.4,0.3,0.5,0.4c0.2,0.1,0.4,0.3,0.6,0.5
		c0.2,0.1,0.4,0.3,0.6,0.4c0.2,0.1,0.5,0.1,0.7,0.2c0.2,0.1,0.5-0.1,0.7,0s0.4,0.1,0.7,0.1c0.2,0,0.4,0.3,0.7,0.3
		c0.2,0,0.5-0.3,0.7-0.3c0.2,0,0.5,0.5,0.8,0.5c0.2,0,0.5-0.1,0.7-0.2s0.5-0.1,0.7-0.2c0.2-0.1,0.3-0.6,0.5-0.7s0.5-0.1,0.7-0.2
		c0.2-0.1,0.3-0.3,0.5-0.5c0.2-0.1,0.7,0.2,0.9,0c0.2-0.1,0.3-0.4,0.5-0.5c0.2-0.2,0.5-0.2,0.6-0.4c0.2-0.2,0.4-0.3,0.5-0.5
		c0.2-0.2,0.1-0.6,0.2-0.8C30.4,43.3,30.8,43.2,31,43L31,43z"/>
	<path class="st10" d="M28,42.4c0-0.3-0.1-0.2-0.3-0.7c-0.1-0.2-0.1-0.5-0.2-0.7c-0.1-0.2-0.5-0.2-0.6-0.5c-0.1-0.2-0.3-0.4-0.4-0.6
		c-0.1-0.2,0.1-0.7,0-0.9c-0.1-0.2-0.4-0.3-0.6-0.5c-0.1-0.2-0.5-0.2-0.6-0.4c-0.1-0.2-0.4-0.3-0.5-0.5c-0.2-0.2-0.2-0.5-0.4-0.6
		s-0.4-0.3-0.6-0.4c-0.2-0.2-0.4-0.3-0.5-0.5c-0.2-0.2-0.2-0.5-0.4-0.7c-0.2-0.2-0.5-0.1-0.7-0.2c-0.2-0.1-0.4-0.2-0.6-0.3
		c-0.3-0.1-0.5,0-0.7,0c-0.2,0-0.6-0.3-0.8-0.1c-0.1,0.2,0.1,0.6,0,0.8c-0.1,0.2-0.5,0.3-0.6,0.6c0,0.2,0.1,0.5,0,0.7
		c0,0.2,0.3,0.5,0.2,0.7c0,0.2-0.5,0.4-0.5,0.7c0,0.2,0.2,0.5,0.2,0.7c0,0.2,0.2,0.5,0.2,0.7c0,0.2,0,0.5,0.1,0.7c0,0.2,0,0.5,0,0.7
		c0.1,0.2,0.3,0.4,0.4,0.6c0.1,0.2-0.1,0.6,0,0.8s0.3,0.4,0.4,0.6c0.2,0.2,0.5,0.2,0.7,0.3s0.5,0.1,0.6,0.2c0.2,0.1,0.4,0.2,0.6,0.3
		c0.2,0.1,0.3,0.6,0.6,0.6s0.5-0.2,0.7-0.2c0.2,0,0.5,0.1,0.7,0.1c0.2,0,0.4-0.2,0.6-0.3c0.2-0.1,0.5,0.1,0.8,0
		c0.2-0.1,0.2-0.6,0.4-0.7c0.2-0.1,0.5-0.1,0.6-0.3c0.2-0.2,0.4-0.2,0.6-0.4C27.6,42.9,27.8,42.6,28,42.4L28,42.4z"/>
</g>
<path class="st3" d="M80.7,25c0,0.4,0.2,0.3,0.2,0.7c0,0.2-0.2,0.4-0.2,0.7c0,0.2-0.3,0.4-0.4,0.7c0,0.2,0.3,0.5,0.3,0.8
	c0,0.2-0.3,0.4-0.3,0.7c-0.1,0.2,0.1,0.5,0,0.8c-0.1,0.2-0.1,0.5-0.1,0.7c-0.1,0.2-0.6,0.3-0.6,0.6c-0.1,0.2-0.2,0.4-0.3,0.7
	c-0.1,0.2,0,0.5-0.1,0.7c-0.1,0.2-0.1,0.5-0.2,0.7c-0.1,0.2,0.1,0.5,0.1,0.8c-0.1,0.2-0.4,0.3-0.5,0.6c-0.1,0.2,0,0.5-0.1,0.7
	c-0.1,0.2-0.1,0.5-0.2,0.7c-0.1,0.2-0.6,0.2-0.7,0.5s0.1,0.5-0.1,0.8c-0.1,0.2-0.2,0.4-0.3,0.7C77,37.6,77,37.8,76.9,38
	s-0.5,0.3-0.6,0.5c-0.1,0.2-0.2,0.4-0.3,0.7c-0.1,0.2-0.2,0.4-0.3,0.6s-0.3,0.4-0.4,0.6s-0.2,0.4-0.3,0.6c-0.1,0.2-0.4,0.3-0.5,0.5
	c-0.1,0.2-0.2,0.4-0.4,0.6c-0.2,0.2-0.2,0.4-0.4,0.6c-0.2,0.2-0.4,0.3-0.5,0.5c-0.2,0.2-0.2,0.5-0.4,0.6c-0.2,0.2-0.2,0.5-0.4,0.6
	c-0.2,0.2-0.4,0.3-0.6,0.5c-0.2,0.2-0.3,0.4-0.5,0.5s-0.3,0.4-0.5,0.5c-0.2,0.2-0.4,0.3-0.6,0.4c-0.2,0.2-0.4,0.2-0.6,0.4
	s-0.3,0.4-0.5,0.5s-0.7-0.1-0.9,0c-0.2,0.1-0.3,0.5-0.5,0.6C67.5,48,67.2,48,67,48.2c-0.2,0.1-0.3,0.3-0.6,0.5
	c-0.2,0.1-0.5,0.1-0.7,0.2c-0.2,0.1-0.4,0.2-0.6,0.3c-0.2,0.1-0.5,0.1-0.7,0.2s-0.4,0.3-0.6,0.4c-0.2,0.1-0.4,0.3-0.6,0.4
	c-0.2,0.1-0.4,0.3-0.6,0.4c-0.2,0.1-0.5-0.1-0.8,0c-0.2,0.1-0.5-0.1-0.8-0.1c-0.2,0.1-0.4,0.2-0.7,0.3c-0.2,0-0.5-0.1-0.7,0
	c-0.2,0-0.4,0.4-0.6,0.5c-0.2,0-0.5-0.2-0.8-0.2c-0.2,0-0.4,0.5-0.7,0.5s-0.5,0.1-0.7,0.2c-0.2,0-0.5-0.4-0.8-0.3s-0.5,0.2-0.7,0.2
	c-0.2,0-0.5,0-0.7,0s-0.5-0.1-0.7-0.1c-0.2,0-0.5,0.5-0.7,0.5s-0.5-0.3-0.7-0.3c-0.2,0-0.5-0.2-0.7-0.2c-0.2,0-0.5,0-0.7-0.1
	c-0.2,0-0.5,0.1-0.7,0s-0.5,0-0.7,0c-0.2,0-0.5,0.2-0.7,0.2s-0.5-0.1-0.7-0.1c-0.2,0-0.4-0.3-0.7-0.3c-0.2,0-0.5-0.1-0.7-0.2
	s-0.5,0-0.7-0.1s-0.5,0.1-0.7,0c-0.2,0-0.5-0.2-0.7-0.2c-0.2,0-0.4-0.3-0.7-0.4c-0.2,0-0.5,0.1-0.8,0.1c-0.2-0.1-0.4-0.3-0.7-0.3
	c-0.2-0.1-0.3,0.2-0.6,0.1c0.1-0.3,0.1-0.2,0.5-0.2c0.2,0,0.5,0.1,0.7,0c0.2,0,0.5,0,0.7,0c0.2,0,0.5,0.1,0.7,0c0.2,0,0.5,0,0.7,0
	c0.2,0,0.4-0.5,0.6-0.6c0.2,0,0.5,0.2,0.8,0.1c0.2,0,0.5,0.1,0.8,0s0.5-0.1,0.7-0.1s0.5-0.2,0.7-0.2s0.5-0.1,0.7-0.2
	c0.2-0.1,0.5-0.1,0.7-0.2c0.2-0.1,0.3-0.5,0.5-0.6c0.2-0.1,0.5-0.1,0.7-0.2c0.2-0.1,0.5-0.2,0.7-0.3c0.2-0.1,0.5-0.1,0.7-0.3
	c0.2-0.1,0.5-0.2,0.6-0.3c0.2-0.2,0.3-0.4,0.5-0.6c0.2-0.2,0.5-0.2,0.6-0.4c0.1-0.2,0-0.5,0.1-0.8c0.1-0.2,0.2-0.4,0.3-0.6
	c0-0.2,0-0.4-0.1-0.7c0-0.2,0-0.4-0.1-0.7c-0.1-0.2-0.2-0.4-0.3-0.6c-0.1-0.2-0.1-0.5-0.3-0.7c-0.1-0.2-0.3-0.4-0.4-0.6
	c-0.1-0.2-0.2-0.5-0.3-0.7c-0.1-0.2,0-0.5,0-0.7c-0.1-0.2,0-0.5-0.1-0.7c0-0.2-0.2-0.5-0.2-0.7c0-0.2,0-0.5,0-0.7
	c0.1-0.2,0.3-0.4,0.4-0.6c0.1-0.2,0.1-0.5,0.3-0.7c0.2-0.2,0.2-0.5,0.4-0.6c0.2-0.1,0.5-0.2,0.7-0.2c0.2-0.1,0.5-0.1,0.7-0.1
	c0.2,0,0.5-0.1,0.8-0.1c0.2,0,0.4,0.3,0.7,0.4c0.2,0.1,0.3,0.4,0.5,0.5c0.2,0.1,0.7-0.2,0.8,0c0.2,0.1,0.2,0.5,0.4,0.6
	c0.2,0.2,0.2,0.4,0.4,0.6c0.2,0.2,0.2,0.4,0.4,0.6c0.2,0.2,0.4,0.3,0.6,0.4c0.2,0.2,0.5,0.1,0.7,0.3c0.2,0.2,0.3,0.3,0.5,0.4
	c0.2,0.1,0.3,0.4,0.5,0.4c0.2,0.1,0.4,0.5,0.6,0.5c0.2,0,0.5-0.3,0.7-0.3c0.2,0,0.3-0.4,0.5-0.5c0.2-0.1,0.3-0.2,0.5-0.4
	c0.1-0.2,0.5-0.2,0.6-0.5c0.1-0.2-0.1-0.5-0.1-0.7c0-0.2-0.1-0.4-0.1-0.7c0-0.2,0.1-0.5,0.1-0.7c-0.1-0.2-0.2-0.4-0.3-0.6
	c-0.1-0.2-0.1-0.4-0.3-0.6c-0.1-0.2,0-0.6-0.2-0.8c-0.2-0.2-0.6-0.1-0.7-0.3c-0.2-0.2-0.3-0.4-0.5-0.5c-0.2-0.1-0.5,0-0.8-0.2
	c-0.2-0.2-0.2-0.6-0.3-0.8c-0.2-0.2-0.5-0.2-0.6-0.5c-0.1-0.2-0.2-0.5-0.3-0.7c0-0.2-0.1-0.5,0-0.8c0-0.2,0.5-0.4,0.6-0.6
	c0.1-0.2,0-0.6,0.1-0.8c0.1-0.2,0.3-0.4,0.5-0.6s0.3-0.4,0.5-0.5c0.2-0.1,0.6,0,0.8-0.1c0.2-0.1,0.3-0.5,0.5-0.6
	c0.2-0.1,0.5-0.2,0.7-0.2c0.2,0,0.5,0,0.8,0c0.2,0,0.4,0.3,0.6,0.4c0.2,0.1,0.6,0,0.8,0.1c0.2,0.1,0.5,0.2,0.6,0.5
	c0.1,0.2,0,0.6,0.1,0.8c0.1,0.2,0.4,0.3,0.6,0.5c0.1,0.2,0.2,0.5,0.3,0.6c0.1,0.2,0.3,0.4,0.4,0.6c0.2,0.2,0,0.6,0.2,0.8
	c0.2,0.2,0.6,0.1,0.8,0.2c0.2,0.2,0.4,0.2,0.6,0.2c0.2,0.1,0.3,0.1,0.6,0.1c0.2,0,0.3-0.1,0.5-0.2c0.2-0.1,0.7,0.1,0.8-0.2
	c0.1-0.2,0.2-0.4,0.4-0.7c0.1-0.2-0.2-0.6-0.2-0.8c0.1-0.2,0.6-0.3,0.7-0.5c0.1-0.2-0.1-0.5-0.1-0.8c0-0.2,0-0.5,0.1-0.7
	c0-0.2-0.2-0.5-0.2-0.7c0-0.2,0-0.5,0-0.7c0-0.2,0.2-0.5,0.2-0.7c0-0.2-0.2-0.5-0.2-0.7c0-0.2,0-0.5-0.1-0.7c-0.1-0.2,0.1-0.5,0-0.7
	c-0.1-0.2-0.4-0.4-0.4-0.7c0-0.2,0.3-0.5,0.3-0.7c0-0.2,0.2-0.4,0.2-0.7c0.1-0.2,0-0.5,0.1-0.7s0.1-0.5,0.2-0.7
	c0.1-0.2,0.1-0.5,0.2-0.7c0.1-0.2,0.5-0.2,0.6-0.4c0.2-0.2,0.3-0.4,0.5-0.6s0.2-0.5,0.4-0.7c0.2-0.1,0.4-0.2,0.7-0.4
	c0.2-0.1,0.4-0.3,0.7-0.4c0.2-0.1,0.5,0.1,0.8,0.1c0.2,0,0.5-0.4,0.7-0.4c0.2,0,0.6,0,0.8,0.1c0.2,0.1,0.4,0.4,0.6,0.6
	c0.2,0.1,0.2,0.4,0.4,0.6c0.1,0.2,0.3,0.3,0.4,0.6c0.1,0.2,0,0.5,0.1,0.7c0.1,0.2,0.3,0.4,0.4,0.6c0.1,0.2-0.1,0.5,0,0.8
	c0,0.2,0.4,0.4,0.4,0.7c0,0.2-0.1,0.5-0.1,0.8c0,0.2-0.2,0.5-0.2,0.7c0,0.2,0.1,0.5,0.1,0.7C80.9,24.6,80.7,24.8,80.7,25L80.7,25z"
	/>
<g>
	<path class="st4" d="M52.4,54.2c0.2-0.3,0.3,0.2,0.8,0c0.2-0.1,0.3-0.5,0.6-0.5c0.2-0.1,0.5,0.2,0.8,0.1c0.2-0.1,0.4-0.2,0.7-0.2
		c0.2,0,0.4-0.4,0.7-0.4c0.2,0,0.5-0.1,0.7-0.2c0.2,0,0.5,0.3,0.8,0.2c0.2,0,0.5-0.2,0.7-0.3c0.2,0,0.5,0,0.7,0
		c0.2,0,0.5-0.2,0.7-0.2c0.2,0,0.5-0.2,0.7-0.2c0.2,0,0.5,0.1,0.7,0.1c0.2,0,0.5,0.2,0.7,0.2c0.2,0,0.5,0,0.7,0c0.2,0,0.5,0,0.7,0
		c0.2,0,0.5,0.1,0.7,0.1c0.2,0,0.5,0.1,0.7,0.2c0.2,0,0.5,0.1,0.7,0.1s0.5-0.1,0.7,0c0.2,0,0.5-0.1,0.7,0c0.2,0,0.4,0.3,0.7,0.3
		c0.2,0,0.5-0.2,0.8-0.1c0.2,0,0.5,0,0.7,0.1c0.2,0.1,0.4,0.4,0.6,0.5c0.2,0.1,0.6-0.2,0.8-0.1c0.2,0.1,0.5,0.3,0.7,0.4
		c0.2,0.1,0.3,0.5,0.4,0.7c0.2,0.2,0.6,0.3,0.7,0.5s-0.4,0.5-0.4,0.8c0,0.2,0.3,0.5,0.3,0.8c-0.1,0.2-0.5,0.3-0.6,0.5
		c-0.1,0.2-0.2,0.4-0.3,0.6c-0.1,0.2,0,0.6-0.2,0.8c-0.1,0.2-0.3,0.3-0.5,0.5c-0.2,0.2-0.6,0.1-0.8,0.3c-0.2,0.2-0.1,0.6-0.3,0.8
		c-0.2,0.2-0.5,0.1-0.7,0.3c-0.2,0.2-0.2,0.4-0.4,0.6c-0.2,0.2-0.4,0.3-0.6,0.4c-0.2,0.2-0.3,0.3-0.5,0.5c-0.2,0.2-0.3,0.3-0.5,0.5
		c-0.2,0.2-0.3,0.3-0.5,0.5c-0.2,0.1-0.3,0.5-0.5,0.6c-0.2,0.1-0.5,0.1-0.7,0.2c-0.2,0.1-0.4,0.2-0.6,0.3c-0.2,0.1-0.4,0.3-0.6,0.4
		c-0.2,0.1-0.5,0-0.7,0.1c-0.2,0.1-0.5,0.1-0.7,0.2c-0.2,0.1-0.5-0.1-0.7,0c-0.2,0-0.4,0.4-0.7,0.4c-0.2,0-0.5,0-0.7,0
		s-0.5,0.2-0.7,0.2s-0.4-0.4-0.7-0.4c-0.2,0-0.5-0.1-0.7-0.1c-0.2-0.1-0.5,0-0.7-0.1c-0.2-0.1-0.5,0-0.7-0.1s-0.4-0.3-0.6-0.4
		c-0.2-0.1-0.3-0.5-0.5-0.6c-0.2-0.1-0.5-0.1-0.7-0.3c-0.2-0.2-0.4-0.3-0.5-0.5c-0.2-0.2,0-0.6-0.2-0.8c-0.2-0.2-0.4-0.2-0.6-0.5
		c-0.1-0.2-0.1-0.5-0.2-0.7c-0.1-0.2-0.6-0.2-0.7-0.5c-0.1-0.2-0.2-0.5-0.2-0.7s0.1-0.5,0-0.8c-0.1-0.2-0.1-0.5-0.2-0.7
		c0-0.2-0.2-0.5-0.2-0.7c0-0.2,0.1-0.5,0.1-0.7c0-0.2-0.3-0.5-0.3-0.7c0-0.2,0.1-0.5,0.1-0.7c0-0.2,0.4-0.4,0.4-0.7
		C52.5,54.7,52.3,54.4,52.4,54.2L52.4,54.2z"/>
	<path class="st10" d="M54.8,56.1c0.2-0.3,0.1-0.1,0.5-0.2c0.2-0.1,0.3-0.5,0.6-0.6c0.2,0,0.5,0.1,0.7,0c0.2,0,0.4-0.2,0.7-0.2
		c0.2,0,0.5,0,0.7-0.1c0.2,0,0.5-0.2,0.7-0.2c0.2,0,0.5,0.2,0.7,0.2c0.2,0,0.5-0.1,0.7-0.1c0.2,0,0.5-0.1,0.7-0.1
		c0.2,0,0.4,0.6,0.7,0.6c0.2,0,0.5,0,0.7,0c0.2,0,0.5-0.1,0.7-0.1c0.2,0,0.5,0.2,0.7,0.2c0.3,0.1,0.4,0.3,0.6,0.4
		c0.2,0.1,0.5,0,0.7,0.2c0.2,0.2,0.3,0.4,0.3,0.6c0,0.2-0.1,0.4-0.2,0.7c-0.1,0.2-0.1,0.5-0.2,0.7c-0.1,0.2-0.7,0.1-0.8,0.2
		c-0.1,0.2-0.1,0.5-0.3,0.7c-0.2,0.2-0.2,0.5-0.4,0.6c-0.2,0.2-0.3,0.4-0.5,0.5c-0.2,0.2-0.4,0.3-0.6,0.4C62,61,61.7,61,61.5,61.1
		c-0.2,0.1-0.5,0-0.7,0.1c-0.2,0.1-0.3,0.6-0.5,0.7c-0.2,0.1-0.5-0.2-0.8-0.1c-0.2,0-0.5,0.1-0.7,0.1c-0.2,0-0.5,0.1-0.7,0
		c-0.2,0-0.4-0.2-0.7-0.2c-0.2-0.1-0.5-0.1-0.7-0.2s-0.2-0.4-0.4-0.6c-0.2-0.1-0.4-0.2-0.6-0.4s-0.4-0.3-0.5-0.5
		c-0.1-0.2-0.3-0.4-0.4-0.6c-0.1-0.2-0.3-0.4-0.4-0.6c-0.1-0.2-0.2-0.5-0.2-0.7c0-0.2,0.5-0.5,0.5-0.7c0-0.2-0.5-0.5-0.5-0.7
		C54.3,56.4,54.8,56.3,54.8,56.1L54.8,56.1z"/>
</g>
<path class="st11" d="M47.3,47.7c-0.2-0.1-0.5-0.1-0.7-0.2c-0.2-0.1-0.4-0.2-0.6-0.4c-0.2-0.1-0.3-0.5-0.5-0.6S45.2,46.1,45,46
	s-0.7,0.2-0.9,0c-0.2-0.1-0.4-0.3-0.6-0.4c-0.2-0.1-0.4-0.2-0.7-0.3c-0.2-0.1-0.4-0.3-0.6-0.4c-0.2-0.1-0.3-0.4-0.5-0.5
	c-0.2-0.1-0.4-0.3-0.6-0.4c-0.2-0.1-0.4-0.3-0.6-0.4c-0.2-0.1-0.6,0.1-0.8,0s-0.5-0.1-0.7-0.2c-0.2-0.1-0.3-0.5-0.5-0.6
	s-0.6,0.3-0.8,0.2c-0.2-0.1-0.4-0.3-0.6-0.4s-0.4-0.3-0.6-0.4c-0.2-0.1-0.5,0-0.7-0.1c-0.2-0.1-0.4-0.3-0.7-0.4
	c-0.2,0-0.5,0.2-0.8,0.2s-0.5-0.1-0.7-0.1c-0.2,0-0.5-0.3-0.7-0.3c-0.2,0-0.5,0.1-0.7,0.1c-0.2,0-0.5-0.2-0.7-0.2
	c-0.2,0-0.5-0.1-0.7-0.1c-0.2,0-0.5,0.5-0.7,0.5c-0.2,0-0.5-0.2-0.7-0.2s-0.5,0.2-0.7,0.2c-0.2,0-0.5-0.3-0.7-0.3s-0.5,0.1-0.7,0.2
	c-0.2,0-0.5,0-0.7,0.1c-0.2,0-0.5,0.1-0.7,0.2c-0.2,0-0.5,0.2-0.7,0.2c-0.2,0-0.5-0.2-0.8-0.1s-0.4,0.4-0.6,0.5
	c-0.2,0.1-0.5-0.1-0.8,0c-0.2,0.1-0.4,0.4-0.6,0.5s-0.5-0.1-0.8,0c-0.2,0.1-0.3,0.5-0.5,0.6c-0.2,0.1-0.4,0.2-0.6,0.3
	s-0.6-0.1-0.8,0c-0.2,0.1-0.2,0.5-0.5,0.7c-0.2,0.1-0.5,0.1-0.7,0.2s-0.4,0.3-0.5,0.5c-0.2,0.1-0.4,0.3-0.6,0.4
	c-0.2,0.1-0.4,0.3-0.6,0.4c-0.2,0.2-0.4,0.2-0.6,0.4s-0.3,0.4-0.4,0.6c-0.2,0.2-0.5,0.2-0.7,0.3c-0.2,0.2,0,0.7-0.2,0.8
	s-0.7,0-0.9,0.2s-0.4,0.3-0.5,0.5c-0.1,0.2,0,0.6-0.1,0.8c-0.1,0.2-0.6,0.2-0.7,0.4c-0.1,0.2-0.3,0.4-0.4,0.6
	c-0.1,0.2,0.1,0.6-0.1,0.8s-0.3,0.3-0.5,0.6c-0.1,0.2-0.5,0.3-0.6,0.5c-0.1,0.2-0.3,0.4-0.4,0.6s-0.2,0.5-0.3,0.7
	c-0.1,0.2,0.1,0.6,0.1,0.8c-0.1,0.2-0.4,0.3-0.6,0.5s-0.1,0.5-0.2,0.7c-0.1,0.2,0,0.5-0.1,0.7C9.5,56.9,9,57,8.9,57.2s0,0.5-0.1,0.8
	c-0.1,0.2,0,0.5,0,0.7c-0.1,0.2-0.4,0.4-0.5,0.6c-0.1,0.2-0.1,0.5-0.2,0.7c-0.1,0.2,0,0.5-0.1,0.7C8.1,61,8,61.3,8,61.5
	c0,0.2,0.3,0.5,0.3,0.8S7.9,62.7,7.9,63c0,0.2,0.1,0.5,0.1,0.7c0,0.2,0,0.5,0,0.7S8,64.9,8,65.1c0,0.3,0.1,0.5,0.1,0.8
	s-0.5,0.4-0.5,0.7c-0.1,0.2,0.1,0.5,0,0.8s-0.2,0.4-0.3,0.7c-0.1,0.2,0.1,0.6,0,0.8c-0.1,0.2-0.4,0.4-0.5,0.6
	c-0.1,0.2-0.3,0.4-0.4,0.6s-0.1,0.6-0.2,0.8c0,0,0,0,0,0.1c-0.1,0.2-0.6,0.2-0.7,0.3c-0.1,0.2-0.3,0.4-0.4,0.6s0,0.6-0.1,0.8
	c-0.1,0.2-0.7,0.2-0.8,0.4c-0.1,0.2-0.2,0.4-0.3,0.6C3.7,74,4.1,74.4,4,74.6c-0.1,0.2-0.3,0.4-0.3,0.6s-0.4,0.3-0.5,0.6
	s0,0.5-0.1,0.7C3,76.8,2.7,77,2.7,77.2s0,0.5-0.1,0.7s0.2,0.5,0.1,0.7c0,0.2-0.4,0.4-0.4,0.7s0,0.5,0,0.7c0,0.2,0.3,0.5,0.3,0.7
	s-0.1,0.5-0.1,0.7c0,0.2-0.2,0.5-0.2,0.7c0,0.2,0.3,0.4,0.4,0.7c0,0.2-0.1,0.5,0,0.7S3,84,3.1,84.3c0,0.2,0,0.5,0,0.7
	c0.1,0.2,0,0.5,0.1,0.7s0.2,0.4,0.3,0.7s0.2,0.4,0.2,0.7s0.3,0.4,0.4,0.6c0.1,0.2,0.3,0.4,0.4,0.6c0.1,0.2,0.2,0.4,0.3,0.7
	s0.2,0.4,0.3,0.6c0.1,0.2,0.3,0.4,0.4,0.6s0.1,0.5,0.2,0.7C5.8,91,5.8,91.3,6,91.5c0.1,0.2,0.6,0.2,0.7,0.3c0.1,0.2,0.1,0.5,0.2,0.7
	c0.2,0.2,0.4,0.3,0.5,0.5s0.1,0.5,0.3,0.7c0.2,0.2,0.4,0.3,0.6,0.4s0.4,0.3,0.5,0.5C9,94.8,9.2,95,9.4,95.1s0.5,0.1,0.7,0.3
	c0.2,0.2,0.2,0.4,0.4,0.6c0.2,0.2,0.5,0.1,0.7,0.2c0.2,0.2,0.1,0.7,0.3,0.8c0.2,0.1,0.6-0.1,0.9,0c0.2,0.1,0.4,0.3,0.6,0.4
	c0.2,0.1,0.2,0.6,0.4,0.7c0.2,0.1,0.6-0.1,0.8,0c0.2,0.1,0.4,0.3,0.6,0.4s0.4,0.3,0.6,0.4s0.5,0,0.8,0.1s0.4,0.2,0.6,0.3
	s0.5,0.1,0.7,0.2s0.4,0.4,0.6,0.5s0.4,0.2,0.7,0.3c0.2,0.1,0.5-0.2,0.8-0.1c0,0-0.1,0.3-0.1,0.3c0.2,0.1,0.5,0,0.7,0.1
	c0.2,0,0.5,0,0.7,0s0.5,0.1,0.7,0.2c0.2,0,0.5-0.2,0.8-0.2s0.4,0.5,0.7,0.5s0.5-0.4,0.8-0.3c0.2,0,0.5,0.3,0.7,0.4
	c0.2,0,0.5,0,0.7,0s0.5,0.1,0.7,0.1s0.5-0.3,0.7-0.3c0.2,0,0.5-0.2,0.7-0.2c0.2,0,0.5,0.2,0.7,0.2s0.5-0.2,0.7-0.2
	c0.2,0,0.5,0,0.7-0.1s0.5-0.2,0.7-0.2s0.5,0.3,0.8,0.3c0.2-0.1,0.5-0.2,0.7-0.3c0.2-0.1,0.5-0.1,0.7-0.2c0.2-0.1,0.4-0.3,0.7-0.4
	c0.2-0.1,0.5-0.1,0.7-0.2s0.5-0.2,0.7-0.3s0.5-0.1,0.7-0.1c0.2-0.1,0.4-0.2,0.7-0.3c0.2-0.1,0.4-0.4,0.6-0.5
	c0.2-0.1,0.5-0.1,0.7-0.2c0.2-0.1,0.6,0.2,0.8,0.1c0.2-0.1,0.4-0.4,0.6-0.5s0.3-0.4,0.5-0.5c0.2-0.1,0.5-0.1,0.7-0.2
	s0.4-0.2,0.6-0.3c0.2-0.1,0.5-0.2,0.7-0.3c0.2-0.1,0.4-0.2,0.6-0.4c0.2-0.1,0.2-0.5,0.4-0.7c0.2-0.1,0.3-0.3,0.5-0.5
	c0.2-0.1,0.7,0.1,0.9,0c0.2-0.2,0.1-0.7,0.3-0.8s0.6,0,0.8-0.2c0.2-0.2,0.2-0.5,0.4-0.6c0.2-0.2,0.5-0.2,0.6-0.4s0.2-0.4,0.4-0.6
	c0.2-0.2,0.4-0.3,0.5-0.5c0.2-0.2,0.6-0.1,0.8-0.2c0.2-0.2,0.2-0.5,0.4-0.6c0.2-0.2,0.2-0.5,0.3-0.7c0.2-0.2,0.5-0.1,0.7-0.3
	c0.2-0.2,0.2-0.5,0.4-0.7s0.4-0.3,0.6-0.4c0.2-0.2,0.3-0.4,0.5-0.5c0.2-0.2,0.4-0.3,0.5-0.5c0.2-0.2,0-0.6,0.2-0.8s0.6-0.2,0.7-0.4
	c0.2-0.2,0.1-0.5,0.2-0.7c0.2-0.2,0.3-0.4,0.5-0.6s0.3-0.4,0.4-0.6c0.1-0.2,0.3-0.4,0.5-0.6c0.1-0.2,0.3-0.4,0.4-0.6
	c0.1-0.2,0-0.6,0.1-0.8c0.1-0.2,0.2-0.4,0.4-0.6c0.1-0.2,0.3-0.4,0.4-0.6c0.1-0.2,0.6-0.2,0.8-0.4c0.1-0.2,0-0.6,0.1-0.8
	c0.1-0.2,0.3-0.4,0.4-0.6c0.1-0.2,0.1-0.5,0.2-0.7c0.2-0.4,0.2-0.3,0.4-0.6l0.1,0c0.1-0.2,0.1-0.5,0.2-0.7c0.1-0.2,0.1-0.5,0.2-0.7
	c0.1-0.2,0.3-0.4,0.4-0.6c0.1-0.2,0.5-0.3,0.6-0.6s-0.1-0.6,0-0.8c0.1-0.2,0.3-0.4,0.4-0.6c0.1-0.2-0.1-0.5,0-0.8s0-0.5,0.1-0.7
	c0-0.2,0.6-0.4,0.6-0.6c0-0.2-0.3-0.5-0.3-0.8c0-0.2,0.1-0.5,0.1-0.7s0.2-0.5,0.2-0.7c0-0.2,0-0.5,0.1-0.7c0-0.2-0.1-0.5-0.1-0.7
	s0.2-0.5,0.2-0.7c0-0.2-0.2-0.5-0.2-0.7c0-0.2,0-0.5,0-0.7s-0.1-0.5-0.1-0.7c0-0.2,0-0.5,0-0.7c0-0.2-0.3-0.4-0.4-0.7
	c0-0.2,0.2-0.5,0.1-0.8c0-0.2,0-0.5,0-0.7c-0.1-0.2-0.1-0.5-0.2-0.7s-0.6-0.3-0.6-0.5c-0.1-0.2,0.2-0.6,0.1-0.8
	c-0.1-0.2-0.2-0.5-0.2-0.7c-0.1-0.2-0.1-0.5-0.2-0.7c-0.1-0.2-0.6-0.3-0.7-0.5s-0.2-0.5-0.3-0.7s-0.1-0.5-0.2-0.7
	c-0.1-0.2-0.3-0.4-0.4-0.6c-0.1-0.2-0.1-0.5-0.2-0.7c-0.1-0.2-0.2-0.4-0.3-0.6s-0.5-0.3-0.6-0.5c-0.1-0.2-0.3-0.4-0.4-0.6
	c-0.1-0.2,0-0.6-0.2-0.8c-0.1-0.2-0.7-0.1-0.8-0.3c-0.2-0.2,0-0.6-0.1-0.8C53,53,52.6,53,52.4,52.8s-0.1-0.5-0.3-0.7
	c-0.2-0.2-0.5-0.1-0.7-0.3c-0.2-0.2-0.3-0.3-0.5-0.5s-0.3-0.3-0.5-0.5c-0.2-0.2-0.1-0.6-0.2-0.8c-0.2-0.2-0.5-0.2-0.7-0.3
	s-0.2-0.5-0.4-0.7s-0.6,0-0.8-0.2c-0.2-0.2-0.3-0.4-0.5-0.5C47.6,48.2,47.6,47.8,47.3,47.7L47.3,47.7z"/>
<path class="st12" d="M18.2,69.6c-0.2,0.2-0.3,0.5-0.5,0.6s-0.6,0.3-0.8,0.3c-0.3,0-0.5-0.3-0.8-0.5s-0.6-0.2-0.7-0.4
	c-0.1-0.2-0.1-0.6,0-0.8c0-0.2-0.2-0.7,0-0.9c0.2-0.2,0.5-0.5,0.8-0.6c0.2-0.1,0.6,0,0.9,0c0.3,0,0.4,0.4,0.7,0.6s0.5,0.2,0.6,0.4
	c0.1,0.2,0.2,0.5,0.2,0.7C18.6,69.2,18.4,69.4,18.2,69.6L18.2,69.6z"/>
<path class="st12" d="M28.7,73.4c-0.2,0.2-0.3,0.6-0.6,0.6c-0.3,0-0.6,0-0.9-0.1c-0.2-0.1-0.4-0.4-0.6-0.6c-0.2-0.2-0.5-0.3-0.6-0.6
	c-0.1-0.3,0.3-0.5,0.3-0.8s0-0.7,0.2-0.8c0.2-0.2,0.6,0.1,0.9,0c0.3,0,0.5,0.1,0.7,0.2c0.2,0.1,0.5,0.1,0.7,0.3
	c0.2,0.2,0.2,0.4,0.3,0.6c0.1,0.3,0.5,0.6,0.4,0.8S28.9,73.3,28.7,73.4L28.7,73.4z"/>
<path class="st12" d="M10.5,78.4c-0.1,0.2-0.1,0.5-0.3,0.7c-0.1,0.2-0.2,0.5-0.4,0.7S9.4,80,9.2,80.2c-0.2,0.1-0.6-0.1-0.8,0
	c-0.2,0.1-0.4,0.2-0.6,0.3C7.5,80.5,7.3,81,7.1,81c-0.2,0-0.5-0.3-0.8-0.3c-0.2,0-0.5,0.1-0.7,0c-0.2,0-0.5,0.1-0.8,0
	s-0.4-0.3-0.7-0.4c-0.2-0.1-0.6,0.1-0.8-0.1S3.2,79.7,3,79.6c-0.2-0.1-0.6,0-0.8-0.1C2,79.3,1.8,79.1,1.6,79
	c-0.2-0.2-0.4-0.3-0.5-0.5c-0.1-0.2-0.4-0.4-0.5-0.6s0-0.6-0.1-0.8c-0.1-0.2,0.1-0.5,0-0.8c-0.1-0.2-0.4-0.4-0.4-0.7
	c0-0.2-0.1-0.5-0.1-0.8s0.3-0.4,0.4-0.7c0.1-0.2-0.2-0.6-0.1-0.8s0.4-0.4,0.5-0.6c0.1-0.2,0.3-0.5,0.4-0.6c0.2-0.2,0.5-0.3,0.6-0.4
	c0.2-0.1,0.4-0.2,0.7-0.3c0.2-0.1,0.5,0,0.7-0.1c0.2-0.1,0.5-0.2,0.7-0.2s0.5-0.4,0.7-0.4c0.2,0,0.5,0.3,0.7,0.3
	c0.2,0,0.5-0.1,0.8,0s0.4,0.4,0.6,0.5s0.6-0.1,0.8,0.1s0.3,0.5,0.5,0.7c0.2,0.1,0.4,0.3,0.5,0.5c0.2,0.2,0.5,0.2,0.7,0.3
	c0.2,0.2,0.2,0.5,0.4,0.7c0.1,0.2,0.4,0.3,0.5,0.5s0.4,0.3,0.5,0.6c0.1,0.2,0,0.5,0.1,0.8c0.1,0.2,0.3,0.4,0.4,0.7
	c0,0.2-0.1,0.5-0.1,0.8c0,0.2-0.3,0.4-0.3,0.7C10.6,77.9,10.6,78.2,10.5,78.4L10.5,78.4z"/>
<path class="st13" d="M13,89.4c0.2,0.1,0.4,0.2,0.6,0.3s0.5,0,0.7,0.1c0.2,0.1,0.4,0.4,0.6,0.4c0.2,0.1,0.5-0.1,0.7-0.1
	c0.2,0,0.5,0.3,0.7,0.3c0.2,0,0.5-0.2,0.7-0.3c0.2-0.1,0.4-0.4,0.6-0.4s0.5-0.1,0.7-0.2c0.2-0.1,0.4-0.2,0.6-0.4
	c0.2-0.1,0.5-0.2,0.6-0.3c0.2-0.2,0.3-0.4,0.4-0.6c0.1-0.2,0.5-0.2,0.6-0.4c0.1-0.2,0.1-0.5,0.2-0.7c0.1-0.2-0.1-0.5,0-0.8"/>
</svg>
