<?xml version="1.0" encoding="UTF-8"?>
<svg id="Layer_1" data-name="Layer 1" xmlns="http://www.w3.org/2000/svg" viewBox="0 0 68.73 52.57">
  <defs>
    <style>
      .cls-1 {
        fill: #fff;
      }

      .cls-2 {
        fill: #f26649;
      }

      .cls-3 {
        fill: #e6e6e6;
      }
    </style>
  </defs>
  <path class="cls-1" d="M68.45,6.82c0,.2,.3,.41,.28,.6-.02,.2-.43,.34-.47,.53-.03,.19-.03,.38-.08,.56-.05,.19,.16,.46,.09,.64-.07,.18-.26,.32-.35,.49-.08,.18-.3,.27-.4,.44-.1,.17-.05,.42-.16,.58-.11,.16-.3,.26-.42,.41-.13,.15-.06,.48-.2,.62s-.42,.12-.57,.25c-.15,.13-.26,.3-.42,.42-.16,.11-.45,0-.62,.1-.17,.1-.15,.56-.33,.64-.18,.08-.5-.18-.68-.12-.18,.07-.36,.12-.55,.17-.19,.05-.34,.23-.53,.26-.19,.03-.38,.1-.58,.12-.19,.02-.39,.15-.59,.15s-.4-.09-.59-.11c-.2-.02-.37-.19-.56-.23-.19-.03-.4,.03-.59-.02-.19-.05-.35-.18-.53-.25-.18-.07-.37-.13-.54-.21-.18-.08-.3-.25-.47-.35-.17-.1-.51,.07-.67-.05-.16-.11-.06-.56-.21-.69-.15-.13-.45-.07-.59-.21-.14-.14-.24-.31-.36-.46-.13-.15-.39-.2-.5-.36-.11-.16-.09-.41-.19-.58-.1-.17-.03-.42-.11-.59-.08-.18-.43-.24-.5-.43-.07-.18,.15-.45,.1-.64-.05-.19-.31-.32-.35-.52-.03-.19,.18-.41,.17-.61-.02-.19,.02-.37,.02-.57s-.41-.41-.39-.6c.02-.2,.23-.37,.26-.57,.03-.19-.02-.41,.03-.6,.05-.19,.18-.36,.25-.54,.07-.18,.15-.36,.23-.54,.08-.18,.06-.42,.16-.59,.1-.17,.4-.21,.51-.37,.11-.16,.28-.27,.4-.42,.13-.15,.11-.42,.25-.56s.46-.07,.61-.2c.15-.13,.23-.33,.39-.44,.16-.11,.34-.18,.51-.28,.17-.1,.22-.43,.39-.51,.18-.08,.47,.13,.66,.06,.18-.07,.28-.42,.46-.47,.19-.05,.38-.15,.57-.19,.19-.03,.42,.16,.62,.14,.19-.02,.39,.13,.58,.13s.39-.17,.59-.15c.2,.02,.36,.2,.55,.24,.19,.03,.37,.09,.56,.14,.19,.05,.36,.12,.54,.18,.18,.07,.4,.03,.58,.11,.18,.08,.48-.06,.65,.03,.17,.1,.12,.54,.28,.65,.16,.11,.47,.02,.62,.14,.15,.13,.4,.17,.53,.3s.28,.3,.4,.45c.13,.15,.13,.41,.24,.57,.11,.16,.27,.3,.36,.47,.1,.17,.23,.33,.32,.51,.08,.18-.07,.45,0,.64,.07,.18,.28,.32,.33,.51,.05,.19,.1,.38,.13,.58,.03,.19-.02,.4,0,.59,.02,.19-.1,.39-.1,.59Z"/>
  <path class="cls-2" d="M3.15,43.12c-.26-.11,.22-.24,.33-.6,.05-.15-.05-.38,.02-.59,.05-.16,.32-.28,.38-.48,.06-.17,.03-.38,.1-.57,.06-.17,.1-.36,.17-.55,.06-.17,.2-.32,.27-.51,.06-.17,.08-.37,.15-.56,.07-.17,.09-.37,.16-.55,.07-.17,.28-.3,.35-.48,.07-.17-.24-.51-.16-.69,.07-.17,.13-.36,.21-.54,.07-.17,.52-.19,.59-.37,.08-.17-.03-.43,.05-.61,.08-.17,.24-.31,.33-.48,.08-.17,.28-.29,.36-.47,.08-.17-.02-.43,.06-.61,.08-.17,.27-.29,.35-.47,.08-.17-.03-.44,.06-.61,.08-.17,.36-.24,.45-.42,.09-.17,.16-.34,.25-.52,.09-.17,.04-.41,.13-.58,.09-.17,.2-.33,.3-.49,.09-.17,.25-.3,.34-.47,.09-.16,.34-.24,.43-.41,.09-.16-.14-.52-.04-.68,.1-.16,.46-.17,.55-.34,.1-.16,.19-.33,.29-.49,.1-.16,.15-.35,.25-.51,.1-.16,.1-.39,.2-.55,.1-.16,.24-.3,.34-.46,.1-.16,.07-.41,.18-.57,.1-.16,.42-.18,.53-.34,.11-.16,.26-.28,.37-.44,.11-.16,.23-.3,.35-.46,.11-.16-.07-.52,.04-.68,.11-.15,.51-.1,.62-.26,.11-.15,.01-.47,.13-.62,.11-.15,.27-.28,.39-.43,.12-.15,.19-.33,.31-.48,.12-.15,.32-.23,.44-.38,.12-.15,.07-.44,.19-.59,.12-.15,.51-.08,.63-.22,.12-.15,0-.5,.13-.64,.12-.15,.33-.22,.46-.37,.13-.14,.29-.26,.42-.4,.13-.14,.4-.15,.53-.29,.13-.14,.01-.51,.14-.65,.13-.14,.27-.27,.41-.41,.13-.14,.25-.29,.39-.43,.13-.14,.29-.26,.42-.39,.13-.14,.42-.12,.56-.26,.14-.13,.21-.33,.35-.47,.14-.13,.25-.29,.39-.42,.14-.13,.19-.36,.33-.49,.14-.13,.27-.28,.41-.41,.14-.13,.51,0,.65-.13,.14-.13,.14-.43,.28-.55,.15-.12,.36-.17,.51-.29,.15-.12,.2-.37,.35-.49,.15-.12,.33-.21,.48-.33,.15-.12,.37-.15,.52-.27,.15-.12,.31-.23,.46-.34,.15-.11,.32-.21,.48-.32,.15-.11,.23-.34,.38-.45,.16-.11,.39-.11,.55-.22,.16-.11,.34-.18,.5-.29,.16-.11,.34-.19,.5-.29,.16-.1,.18-.43,.34-.54,.16-.1,.5,.07,.66-.03,.16-.1,.24-.34,.41-.44,.16-.1,.41-.06,.57-.16,.17-.1,.25-.34,.41-.44,.17-.09,.37-.13,.53-.22,.17-.09,.33-.2,.5-.29,.17-.09,.35-.17,.52-.25,.17-.09,.29-.28,.46-.37,.17-.08,.3-.26,.48-.34,.17-.08,.4-.06,.57-.14,.17-.08,.4-.05,.57-.12,.17-.08,.34-.18,.52-.25,.18-.08,.33-.19,.51-.27,.18-.07,.36-.13,.54-.2,.18-.07,.41,0,.59-.06,.18-.07,.26-.4,.44-.46,.18-.07,.46,.16,.64,.09,.18-.06,.3-.3,.48-.36,.18-.06,.32-.24,.51-.3,.18-.06,.45,.16,.63,.1,.18-.06,.36-.11,.55-.17,.18-.05,.29-.36,.48-.42,.18-.05,.39-.01,.58-.06,.18-.05,.37-.08,.56-.13,.19-.05,.36-.12,.55-.17,.19-.04,.35-.2,.54-.25,.19-.04,.38-.05,.57-.09,.19-.04,.42,.14,.61,.1,.19-.04,.39-.01,.58-.05,.19-.03,.34-.29,.53-.32,.19-.03,.35-.24,.54-.27,.19-.03,.4,.09,.6,.06,.19-.03,.41,.14,.6,.12,.19-.03,.36-.19,.55-.21,.19-.02,.38-.1,.57-.12,.19-.02,.38-.04,.58-.06,.19-.02,.4,.2,.6,.18,.19-.02,.38,0,.57-.02,.19-.01,.36-.39,.55-.4,.19-.01,.38-.04,.58-.05,.19-.01,.38-.05,.58-.05,.19,0,.4,.31,.59,.31,.19,0,.38-.01,.58-.01,.19,0,.38-.15,.57-.15,.19,0,.38-.16,.58-.16,.19,0,.38,.22,.58,.22,.19,0,.39-.13,.58-.13,.19,0,.38,.11,.58,.11,.19,0,.38,.03,.58,.04,.19,0,.38,0,.58,0,.19,.01,.38,.13,.57,.14,.19,.01,.39-.02,.58,0,.19,.01,.4-.15,.59-.13,.19,.02,.39,0,.58,0,.19,.02,.35,.39,.54,.41,.19,.02,.43-.37,.62-.35,.19,.02,.35,.35,.54,.37,.19,.02,.4-.12,.6-.09,.19,.02,.36,.26,.55,.29s.37,.13,.57,.16c.19,.03,.36-.04,.54,.02,.18,.06,.41-.02,.57,.07,.16,.09,.2,.36,.34,.48,.14,.12,.31,.18,.43,.32,.12,.14,.12,.34,.21,.5,.09,.16,.23,.27,.29,.44,.06,.17,.41,.29,.43,.47,.03,.18,.04,.4,.03,.59,0,.19-.08,.39-.1,.58-.02,.19-.07,.38-.1,.58-.03,.19-.07,.38-.11,.57-.04,.18-.13,.37-.18,.55-.05,.18-.13,.36-.19,.55-.06,.18-.36,.28-.42,.46-.06,.18,.18,.47,.11,.65-.07,.18-.25,.31-.33,.49-.07,.18-.14,.36-.22,.53-.07,.17-.16,.35-.24,.52-.08,.17-.25,.3-.33,.48-.08,.17,.1,.47,.01,.64-.08,.17-.27,.3-.35,.47-.08,.17-.43,.22-.51,.39-.08,.17,.11,.48,.02,.65-.08,.17-.15,.35-.24,.53-.08,.17-.31,.27-.39,.44-.09,.17-.19,.33-.27,.51-.09,.17-.01,.42-.1,.59-.09,.17-.27,.29-.36,.46-.08,.17,.02,.44-.06,.61-.08,.17-.47,.2-.55,.37-.08,.17-.21,.33-.29,.5-.08,.17,.01,.43-.07,.61-.08,.17-.37,.25-.45,.43-.08,.17,.07,.45-.01,.63-.08,.18-.32,.28-.4,.46-.08,.18-.09,.38-.16,.56-.08,.18-.14,.36-.22,.54-.07,.18-.22,.33-.29,.51-.07,.18,.04,.43-.02,.61-.07,.18-.09,.38-.15,.56-.07,.18-.35,.28-.41,.47-.06,.18,.07,.43,0,.62-.06,.18-.42,.27-.48,.46-.06,.18-.09,.38-.15,.57-.05,.19,.03,.41-.02,.6-.05,.19-.13,.37-.18,.55-.05,.19-.11,.37-.15,.56-.04,.19,.21,.44,.17,.63-.04,.19-.41,.31-.44,.5-.03,.19-.06,.38-.09,.58-.03,.19,.03,.4,0,.59-.02,.19,.13,.4,.11,.59-.02,.19-.36,.36-.37,.55-.01,.19-.08,.39-.09,.58,0,.19,0,.39,0,.59,0,.19,.06,.39,.06,.59,0,.19,.32,.38,.32,.57,0,.19-.31,.4-.3,.6,.01,.19,0,.39,.02,.59,.02,.19,.42,.34,.45,.53,.03,.19-.23,.42-.2,.62,.03,.19,.22,.35,.25,.54,.04,.19,.07,.38,.12,.57,.04,.19,.03,.39,.08,.58,.05,.19,.2,.34,.25,.53,.05,.18-.11,.44-.05,.62,.06,.18,.41,.26,.48,.45,.07,.18,.19,.34,.26,.52,.07,.18-.09,.45-.01,.63,.08,.18,.34,.27,.42,.45,.08,.17-.1,.47-.01,.65,.09,.17,.38,.24,.47,.41,.09,.17,.03,.42,.12,.59,.09,.17,.27,.29,.37,.46,.1,.16,.29,.27,.39,.44,.1,.16,.22,.32,.33,.48,.11,.16,.07,.27,.18,.43-.28,.08-.27,.32-.55,.31-.29-.02-.28-.18-.56-.2-.29-.02-.28-.1-.57-.12-.29-.02-.29,.02-.58,0-.29-.02-.28-.12-.57-.14-.29-.02-.31,.28-.59,.26-.29-.02-.28-.12-.57-.14-.29-.02-.29,.02-.58,0-.29-.02-.27-.24-.56-.26-.29-.02-.28-.15-.57-.16-.29-.02-.31,.31-.59,.29-.29-.02-.29,.06-.58,.05-.29-.02-.27-.26-.56-.28-.29-.02-.3,.14-.58,.13-.29-.02-.28-.05-.57-.07-.29-.02-.28-.15-.57-.17-.29-.02-.3,.12-.58,.11-.29-.02-.28-.16-.57-.17-.29-.02-.29,0-.58-.02-.29-.02-.28-.07-.57-.09-.29-.02-.29-.05-.57-.07-.29-.02-.31,.32-.6,.3-.29-.02-.28-.06-.57-.08-.29-.02-.29-.03-.57-.05-.29-.02-.28-.19-.56-.21-.29-.02-.29,.1-.58,.08-.29-.02-.28-.15-.57-.17s-.3,.16-.59,.14c-.29-.02-.27-.34-.55-.36-.29-.02-.29,.09-.58,.07-.29-.02-.28-.12-.57-.14-.29-.02-.3,.17-.58,.15-.29-.02-.3,.16-.58,.15-.29-.02-.27-.22-.56-.24-.29-.02-.3,.13-.58,.11-.29-.02-.27-.29-.56-.31-.29-.02-.31,.29-.6,.28-.29-.02-.29,0-.58-.02-.29-.02-.28-.13-.57-.15-.29-.02-.27-.23-.56-.25-.29-.02-.3,.2-.59,.18-.29-.02-.27-.24-.56-.25-.29-.02-.3,.2-.59,.18-.29-.02-.28-.12-.57-.14-.29-.02-.3,.13-.58,.12-.29-.02-.29,0-.57-.02-.29-.02-.29,.05-.58,.03-.29-.02-.26-.42-.55-.44-.29-.02-.3,.12-.58,.1-.29-.02-.28-.13-.57-.15-.29-.02-.29,.1-.58,.08-.29-.02-.28-.12-.57-.14-.29-.02-.29,0-.58-.02-.29-.02-.31,.27-.59,.25-.29-.02-.28-.16-.57-.17-.29-.02-.3,.15-.59,.14-.29-.02-.27-.33-.56-.35-.29-.02-.28-.08-.57-.09-.29-.02-.3,.23-.59,.21-.29-.02-.28-.07-.57-.08-.29-.02-.29,.09-.58,.07-.29-.02-.28-.17-.57-.19-.29-.02-.3,.24-.59,.22-.29-.02-.27-.32-.56-.34-.29-.02-.31,.26-.59,.25-.29-.02-.27-.29-.56-.31-.29-.02-.31,.28-.59,.26-.29-.02-.29-.04-.57-.06-.29-.02-.28-.19-.57-.2-.29-.02-.29,.04-.58,.02-.29-.02-.28-.13-.57-.15-.29-.02-.28-.09-.57-.11-.29-.02-.3,.19-.59,.17-.29-.02-.29,.02-.58,0-.29-.02-.27-.25-.56-.27-.29-.02-.28-.05-.57-.07-.29-.02-.29,.03-.58,0-.29-.02-.3,.09-.58,.07-.29-.02-.29-.03-.58-.05-.29-.02-.29,0-.58-.02-.29-.02-.28-.11-.57-.13-.29-.02-.28-.13-.57-.14-.29-.02-.29,.06-.58,.04-.29-.02-.29,.04-.58,.03-.29-.02-.3,.14-.59,.13-.29-.02-.29,.02-.58,0-.29-.02-.29,.03-.58,0-.29-.02-.27-.3-.56-.32-.29-.02-.28-.1-.57-.11-.29-.02-.31,.33-.6,.31-.29-.02-.27-.32-.56-.34-.29-.02-.32-.06-.61-.02-.32,.04-.34,.27-.61,.16Z"/>
  <g>
    <path class="cls-1" d="M.78,42.82c.03-.19,.14-.36,.19-.54,.05-.18-.05-.42,.02-.59,.07-.18,.13-.37,.21-.54,.08-.17,.18-.35,.28-.51,.1-.16,.35-.22,.47-.37,.12-.14,.31-.22,.44-.36,.13-.13,.31-.2,.46-.32,.15-.12,.33-.15,.49-.25,.16-.1,.25-.28,.42-.36,.17-.08,.33-.14,.51-.21,.17-.07,.28-.35,.46-.4,.18-.05,.38-.07,.57-.12,.18-.05,.37-.11,.56-.16,.18-.05,.42,.08,.61,.03,.18-.05,.32-.29,.51-.34,.18-.05,.42,.1,.61,.05,.19-.04,.4,.02,.59-.03,.19-.04,.33-.29,.52-.34,.19-.04,.41,.07,.6,.03,.19-.04,.39,0,.58-.05,.19-.04,.34-.22,.53-.26,.19-.04,.39-.02,.58-.06,.19-.04,.37-.08,.57-.12,.19-.04,.39,0,.58-.03,.19-.04,.34-.25,.53-.29,.19-.04,.37-.1,.56-.14,.19-.04,.38-.09,.57-.13,.19-.04,.39,0,.59-.03,.19-.03,.34-.32,.53-.35,.19-.03,.44,.28,.63,.25,.19-.03,.33-.35,.52-.38,.19-.03,.39-.03,.58-.06,.19-.03,.39-.02,.58-.05,.19-.03,.37-.16,.56-.19,.19-.03,.38-.1,.57-.13,.19-.03,.43,.25,.62,.22,.19-.03,.39,0,.58-.02,.19-.02,.35-.35,.54-.38,.19-.02,.43,.35,.62,.33,.19-.02,.35-.4,.54-.42,.19-.02,.42,.26,.61,.24s.37-.24,.56-.26c.19-.02,.4,.12,.59,.1,.19-.02,.37-.35,.56-.36,.19-.01,.4,.11,.59,.1,.19-.01,.38-.14,.58-.15,.19,0,.4,.19,.59,.19,.2,0,.39-.03,.58-.03,.2,0,.39,.03,.58,.02,.19,0,.39-.24,.58-.24,.2,0,.39,.2,.59,.2,.19,0,.39-.19,.58-.18,.19,0,.38,.27,.57,.27,.19,0,.38,.03,.57,.03,.19,0,.39-.13,.58-.12,.19,0,.39-.03,.58-.02,.19,.01,.37,.21,.56,.22,.19,.01,.39-.12,.58-.11,.19,.01,.39-.09,.58-.07,.19,.02,.37,.14,.56,.16,.19,.02,.37,.12,.56,.14,.19,.02,.4-.16,.59-.14,.19,.02,.38,.07,.57,.1,.19,.02,.37,.18,.56,.21,.19,.02,.38,.04,.57,.06,.19,.03,.4-.05,.58-.02,.19,.03,.34,.3,.53,.33,.19,.03,.38,.07,.56,.1,.19,.03,.42-.18,.61-.15,.19,.03,.37,.11,.56,.15,.19,.04,.37,.1,.56,.13,.19,.04,.33,.27,.52,.31,.19,.04,.38,.05,.56,.09,.19,.04,.45-.24,.63-.2,.19,.04,.35,.18,.54,.23,.19,.04,.37,.1,.55,.15,.19,.05,.33,.26,.51,.31,.19,.05,.34,.2,.52,.25,.18,.05,.44-.18,.63-.13,.18,.05,.37,.11,.55,.17,.18,.05,.33,.24,.51,.3,.18,.05,.35,.16,.53,.21,.18,.06,.39,.04,.57,.09,.18,.06,.42-.07,.6,0,.18,.06,.35,.16,.53,.22,.18,.06,.31,.28,.49,.34,.18,.06,.38,.07,.56,.14,.18,.06,.32,.24,.5,.3,.18,.07,.45-.12,.63-.05,.18,.07,.36,.12,.54,.19,.18,.07,.33,.21,.5,.28,.18,.07,.28,.33,.45,.4,.18,.07,.46-.11,.63-.04,.18,.07,.34,.18,.51,.26,.18,.07,.34,.17,.51,.25,.17,.08,.26,.35,.43,.43,.17,.08,.35,.14,.52,.22,.17,.08,.37,.11,.54,.19,.17,.08,.42-.01,.59,.07,.17,.08,.38,.09,.55,.16,.17,.08,.29,.26,.46,.34,.18,.09,.31,.27,.48,.38,.17,.11,.39,.15,.55,.27,.16,.12,.24,.34,.38,.49,.14,.14,.43,.16,.56,.31,.13,.16,.04,.47,.14,.64,.11,.17,.23,.32,.32,.5,.09,.18,.38,.29,.44,.48,.06,.19-.05,.44,0,.64,.04,.2-.02,.4,0,.6,.03,.29,.09,.28,.11,.56,.03,.29,.09,.28,.11,.57,.03,.29,.19,.27,.22,.56,.03,.29,.05,.28,.08,.57,.03,.29-.09,.3-.06,.58,.03,.29,.12,.28,.15,.56,.03,.29-.28,.32-.25,.6,.03,.29-.02,.29,0,.58s.14,.28,.17,.56c.02,.19,.21,.42,.16,.58-.06,.17-.23,.35-.36,.48-.12,.13-.41,.04-.57,.11-.16,.07-.29,.05-.48,.05-.17,0-.31,.04-.49-.04-.17-.07-.38-.06-.57-.13-.17-.07-.35-.15-.53-.22-.17-.07-.35-.16-.53-.23-.17-.07-.4-.02-.59-.1-.18-.07-.3-.27-.49-.35-.18-.07-.36-.13-.54-.21-.18-.07-.37-.09-.56-.16-.18-.07-.28-.35-.46-.41-.18-.07-.43,.07-.62,0-.18-.07-.36-.13-.55-.2-.18-.06-.31-.28-.49-.35-.18-.06-.42,.03-.6-.03-.18-.06-.29-.34-.48-.4-.18-.06-.44,.11-.63,.05-.18-.06-.32-.24-.51-.3-.18-.06-.43,.1-.62,.04-.18-.06-.28-.39-.46-.45-.18-.06-.41,.04-.6-.02-.18-.06-.4-.01-.58-.07-.18-.06-.31-.29-.5-.35-.18-.05-.39-.05-.57-.1-.18-.05-.35-.18-.54-.23-.18-.05-.41,.03-.6-.02-.19-.05-.32-.3-.51-.35-.19-.05-.38-.07-.57-.12-.19-.05-.39-.05-.57-.1-.19-.05-.42,.08-.61,.04-.19-.05-.33-.28-.52-.32-.19-.04-.36-.13-.55-.18-.19-.04-.41,.06-.6,.02-.19-.04-.33-.27-.52-.32-.19-.04-.37-.12-.56-.16-.19-.04-.45,.27-.64,.23-.19-.04-.33-.34-.52-.38-.19-.04-.39,0-.58-.04-.19-.04-.4,.05-.59,.02-.19-.03-.35-.25-.54-.28-.19-.03-.42,.14-.61,.11-.19-.03-.35-.26-.54-.29-.19-.03-.38-.1-.57-.13-.19-.03-.42,.2-.61,.17-.19-.03-.36-.21-.56-.24-.19-.02-.38-.1-.57-.12-.19-.02-.38-.14-.57-.16-.19-.02-.39-.01-.58-.03-.19-.02-.4,.15-.6,.13-.19-.02-.37-.19-.57-.21-.19-.02-.4,.19-.6,.18-.19-.01-.37-.25-.57-.27-.19-.01-.39-.07-.58-.08-.19,0-.39,0-.59-.01-.19,0-.4,.34-.59,.34-.19,0-.38,.03-.57,.03-.19,0-.38-.26-.57-.26-.19,0-.38-.06-.57-.06-.19,0-.38,.27-.57,.27-.19,0-.39-.25-.58-.24-.19,0-.38,.02-.57,.03-.19,0-.38,.08-.57,.08-.19,0-.39-.2-.59-.2-.19,0-.37,.43-.56,.44-.19,0-.39-.13-.58-.12-.19,.01-.39-.09-.58-.08-.19,.01-.37,.3-.56,.31-.19,.01-.41-.28-.6-.26-.19,.02-.37,.15-.56,.16-.19,.02-.4-.16-.59-.14-.19,.02-.38,.11-.57,.13-.19,.02-.37,.17-.56,.19-.19,.02-.36,.21-.55,.23-.19,.02-.4-.1-.59-.08-.19,.02-.4-.09-.59-.07-.19,.02-.4-.05-.58-.03-.19,.03-.37,.11-.56,.14-.19,.03-.35,.27-.54,.3-.19,.03-.4-.06-.59-.03-.19,.03-.39-.01-.58,.02-.19,.03-.32,.42-.5,.45-.19,.03-.4-.04-.58,0-.19,.03-.43-.21-.61-.17-.19,.04-.34,.26-.53,.3-.19,.04-.36,.15-.55,.18-.19,.04-.42-.14-.6-.1-.19,.04-.32,.34-.5,.38-.19,.04-.36,.13-.54,.17-.19,.04-.43-.16-.61-.12-.19,.04-.35,.19-.53,.23-.19,.04-.39,0-.57,.05-.19,.05-.41-.07-.6-.02-.19,.05-.28,.44-.47,.49-.19,.05-.38,.06-.56,.11-.19,.05-.46-.22-.64-.17-.19,.05-.36,.14-.54,.19-.19,.05-.26,.49-.44,.54-.19,.05-.47-.23-.64-.17-.19,.06-.33,.23-.51,.29-.19,.06-.41,0-.58,.05-.19,.06-.37,.12-.54,.17-.18,.06-.31,.11-.47,.1-.18-.01-.3-.08-.46-.16-.16-.08-.3-.13-.41-.26-.11-.13-.18-.27-.22-.44-.05-.16-.15-.32-.13-.51,.04-.27,.24-.25,.28-.52,.04-.28-.27-.32-.23-.6,.04-.28,.35-.23,.39-.5,.04-.28-.3-.32-.26-.6,.04-.27,.33-.23,.37-.51,.04-.28-.15-.3-.11-.58,.04-.28,.13-.26,.17-.54,.04-.28,.16-.27,.17-.55,.02-.28-.15-.29-.11-.57Z"/>
    <path class="cls-3" d="M27.67,43.63c-.19,0-.38-.2-.57-.2-.19,0-.39,.41-.58,.41-.19,0-.38-.23-.57-.23-.19,0-.38-.21-.57-.21-.19,0-.38,.16-.57,.16-.19,0-.38,.01-.57,.02-.19,0-.38-.04-.57-.04-.19,0-.38,0-.57,0-.19,0-.39-.05-.58-.04-.19,0-.37,.27-.56,.28-.19,0-.38,.15-.57,.16-.19,.01-.39-.06-.58-.04-.19,.01-.38,0-.57,0-.19,.01-.39-.01-.58,0-.19,.02-.4-.17-.59-.15-.19,.02-.38,.08-.57,.1-.19,.02-.38,.11-.56,.13-.19,.02-.38,.05-.57,.07-.19,.02-.37,.14-.56,.16-.19,.02-.39-.04-.58-.01-.19,.02-.4-.07-.58-.05-.19,.02-.36,.19-.55,.21-.19,.03-.38,.08-.56,.1-.19,.03-.37,.09-.56,.12-.19,.03-.39-.01-.58,.02-.19,.03-.34,.28-.53,.31-.19,.03-.39-.05-.58-.01-.19,.03-.42-.21-.61-.18-.19,.03-.35,.22-.54,.25-.19,.03-.41-.13-.6-.09-.19,.04-.33,.33-.51,.36-.19,.04-.36,.13-.55,.17-.19,.04-.37,.09-.55,.13-.19,.04-.41-.11-.59-.07-.19,.04-.32,.3-.51,.34-.19,.04-.36,.14-.54,.18-.19,.04-.37,.07-.56,.11-.19,.04-.45-.26-.63-.22-.19,.05-.33,.27-.51,.31-.19,.05-.36,.16-.54,.2-.19,.05-.39,.03-.57,.08-.19,.05-.39,.01-.57,.06-.19,.05-.33,.25-.5,.3-.19,.05-.35,.15-.53,.2-.19,.05-.42-.09-.6-.04-.19,.05-.35,.16-.53,.21-.19,.06-.4,0-.58,.05-.19,.06-.34,.19-.52,.24-.19,.06-.32,.2-.49,.26-.03,.02,.16,.02,.15,.05-.03,.18-.36,.37-.32,.54,.05,.17,.2,.35,.32,.49,.11,.13,.35,.15,.51,.23,.15,.08,.32,.07,.49,.08,.17,.01,.28-.09,.46-.15,.17-.06,.44,.15,.63,.09,.17-.05,.34-.17,.52-.23,.18-.05,.31-.26,.5-.31,.18-.05,.35-.16,.53-.21,.18-.05,.44,.18,.63,.13,.18-.05,.39,0,.58-.06,.18-.05,.35-.13,.54-.18,.18-.05,.28-.41,.47-.46,.18-.05,.41,.07,.6,.03,.18-.05,.31-.33,.5-.37,.18-.04,.37-.1,.55-.15,.18-.04,.37-.07,.56-.11,.18-.04,.4,.05,.59,.01,.18-.04,.34-.23,.53-.27,.18-.04,.42,.16,.61,.12,.18-.04,.38-.03,.57-.07,.18-.04,.35-.19,.54-.22,.19-.04,.41,.15,.6,.12,.19-.03,.31-.42,.5-.46,.19-.03,.4,.1,.59,.06,.19-.03,.34-.27,.53-.3,.19-.03,.43,.28,.62,.25,.19-.03,.33-.33,.52-.36,.19-.03,.37-.09,.56-.12,.19-.03,.39,.03,.58,0,.19-.03,.37-.11,.56-.14,.19-.02,.42,.32,.61,.29,.19-.02,.34-.35,.53-.37,.19-.02,.4,.13,.59,.11,.19-.02,.37-.14,.56-.16,.19-.02,.37-.1,.56-.12,.19-.02,.4,.15,.59,.14,.19-.02,.39,.03,.58,.02,.19-.02,.35-.4,.54-.41,.19-.01,.4,.31,.59,.3,.19-.01,.37-.25,.56-.26,.19-.01,.39,.23,.59,.22,.19,0,.37-.27,.56-.28,.19,0,.38-.11,.57-.12,.19,0,.39,.08,.58,.07,.19,0,.39,.21,.58,.21,.19,0,.38-.02,.58-.02,.19,0,.38-.17,.58-.17,.19,0,.38-.02,.58-.02,.19,0,.39,.05,.58,.05,.19,0,.39-.21,.59-.2,.19,0,.37,.45,.57,.45,.19,0,.39-.21,.59-.2,.19,0,.4-.2,.59-.18,.19,.01,.38,.2,.57,.22,.19,.01,.37,.2,.57,.21,.19,.01,.38,.09,.57,.1,.19,.02,.4-.09,.59-.07,.19,.02,.4-.12,.59-.1,.19,.02,.39,.01,.58,.04,.19,.02,.37,.15,.56,.18,.19,.02,.41-.14,.6-.12,.19,.03,.36,.25,.55,.28,.19,.03,.36,.18,.56,.21,.19,.03,.38,.06,.57,.1,.19,.03,.42-.13,.61-.1,.19,.03,.4-.02,.59,.01,.19,.03,.34,.28,.54,.31,.19,.04,.42-.15,.61-.11,.19,.04,.3,.48,.49,.52,.19,.04,.42-.1,.61-.06,.19,.04,.4-.03,.59,.02,.19,.04,.37,.13,.56,.18,.19,.04,.33,.28,.52,.33,.19,.04,.45-.22,.64-.18,.19,.05,.34,.26,.52,.31,.19,.05,.4,0,.59,.04,.19,.05,.34,.24,.53,.29,.19,.05,.36,.14,.55,.19,.19,.05,.44-.15,.63-.1,.19,.05,.29,.42,.47,.48,.19,.05,.42-.05,.6,0,.19,.05,.35,.2,.53,.25,.19,.06,.37,.11,.56,.16,.19,.06,.45-.16,.64-.1,.19,.06,.35,.18,.54,.23,.19,.06,.28,.38,.47,.44,.19,.06,.4,0,.59,.07,.19,.06,.4,.03,.58,.09,.18,.06,.35,.18,.53,.24,.18,.06,.32,.27,.5,.33,.18,.06,.37,.11,.55,.17,.19,.07,.42-.02,.6,.04,.18,.07,.41,0,.59,.07,.18,.07,.3,.32,.47,.39,.18,.07,.34,.21,.51,.27,.18,.07,.34,.19,.52,.26,.18,.07,.46-.12,.64-.05,.18,.07,.42,0,.59,.07,.18,.07,.25,.43,.42,.5,.18,.07,.46-.09,.63-.02,.18,.08,.29,.32,.46,.39,.18,.08,.32,.24,.49,.32,.17,.07,.39,.02,.55,.02,.18,0,.44,.15,.59,.08,.16-.07,.25-.34,.38-.46,.12-.12,.36-.23,.42-.39,.06-.16-.25-.38-.26-.56,0,0,.15,.04,.14,.04-.17-.07-.31-.23-.49-.31-.17-.07-.32-.2-.51-.27-.17-.07-.44,.08-.62,0-.17-.07-.28-.32-.46-.4-.17-.07-.43,.07-.61,0-.17-.07-.37-.1-.55-.17-.17-.07-.25-.41-.43-.48-.18-.07-.38-.07-.56-.14-.18-.07-.41,.01-.59-.05-.18-.07-.27-.38-.45-.44-.18-.06-.44,.09-.62,.03-.18-.06-.38-.05-.57-.12-.18-.06-.27-.39-.45-.45-.18-.06-.4,0-.58-.06-.18-.06-.36-.12-.54-.18-.18-.06-.33-.21-.52-.27-.18-.06-.44,.14-.62,.08-.18-.06-.3-.31-.48-.37-.18-.06-.4,.03-.59-.03-.18-.06-.28-.37-.47-.42-.18-.05-.37-.09-.55-.14-.18-.05-.37-.07-.56-.13-.18-.05-.42,.08-.6,.03-.18-.05-.34-.18-.53-.23-.18-.05-.34-.2-.52-.25-.18-.05-.39,0-.58-.05-.18-.05-.36-.13-.55-.18-.18-.05-.4,.02-.58-.03-.18-.05-.33-.26-.51-.31-.18-.05-.4,.06-.59,.01-.18-.04-.38-.04-.57-.08-.19-.04-.31-.34-.5-.38-.19-.04-.42,.14-.61,.1-.19-.04-.38-.05-.57-.09-.19-.04-.37-.09-.56-.13-.19-.04-.31-.42-.49-.45-.19-.04-.43,.22-.62,.18-.19-.04-.33-.29-.52-.32-.19-.03-.37-.1-.56-.14-.19-.03-.4,.05-.59,.02-.19-.03-.36-.18-.55-.21-.19-.03-.43,.24-.62,.21-.19-.03-.39,0-.58-.03-.19-.03-.35-.23-.55-.25-.19-.03-.37-.1-.56-.12-.19-.02-.37-.17-.56-.19-.19-.02-.4,.07-.59,.05-.19-.02-.4,.13-.59,.11-.19-.02-.35-.35-.54-.37-.19-.02-.4,.11-.59,.09-.19-.02-.38-.09-.57-.1-.19-.01-.39,.02-.58,.01-.19-.01-.4,.19-.59,.18-.19-.01-.37-.34-.56-.34-.19,0-.4,.28-.59,.27-.19,0-.38-.21-.57-.22Z"/>
  </g>
</svg>