<?xml version="1.0" encoding="UTF-8"?>
<svg id="Layer_1" data-name="Layer 1" xmlns="http://www.w3.org/2000/svg" viewBox="0 0 101.44 101.99">
  <defs>
    <style>
      .cls-1 {
        fill: #fffde9;
      }

      .cls-2 {
        fill: #f8f7cb;
      }
    </style>
  </defs>
  <path class="cls-1" d="M32.89,99.02c.18,.07,.37,.1,.55,.16,.18,.07,.26,.42,.44,.48,.18,.06,.37,.11,.55,.17,.18,.06,.37,.11,.55,.17,.18,.06,.47-.22,.65-.16,.18,.05,.38,.05,.57,.1,.18,.05,.27,.49,.45,.54,.19,.05,.37,.1,.56,.15,.19,.05,.44-.19,.63-.14,.19,.04,.37,.12,.55,.16,.19,.04,.36,.18,.54,.22,.19,.04,.42-.17,.61-.13,.19,.04,.32,.37,.51,.4,.19,.03,.42-.19,.61-.16,.19,.03,.35,.25,.54,.28,.19,.03,.36,.19,.55,.21,.19,.03,.39,0,.58,.02,.19,.02,.38,.08,.57,.1,.19,.02,.41-.19,.6-.17,.19,.02,.39-.05,.58-.03,.19,.02,.38,.07,.57,.08,.19,.02,.37,.23,.56,.24,.19,.01,.38,.02,.58,.04,.19,.01,.39-.11,.58-.1,.19,0,.39-.08,.58-.07,.19,0,.37,.4,.57,.41,.19,0,.39-.29,.58-.29,.19,0,.38,.04,.58,.04,.19,0,.38,.06,.58,.06,.19,0,.38-.05,.58-.05,.19,0,.39,.09,.58,.08,.19,0,.38-.2,.57-.21,.19,0,.38-.11,.57-.12,.19-.01,.38,0,.57-.01,.19-.01,.38-.02,.57-.04,.19-.01,.39,.08,.58,.07,.19-.02,.37-.13,.56-.15,.19-.02,.41,.28,.61,.26,.19-.02,.36-.27,.55-.3,.19-.02,.4,.08,.59,.06,.19-.02,.37-.14,.56-.17,.19-.03,.4,.09,.59,.07,.19-.03,.37-.14,.56-.17,.19-.03,.39,0,.58-.02,.19-.03,.39,.02,.58-.01,.19-.03,.35-.2,.54-.24,.19-.04,.36-.17,.55-.2,.19-.04,.42,.13,.61,.09,.19-.04,.3-.43,.49-.47,.19-.04,.46,.31,.65,.27,.19-.04,.29-.45,.48-.5,.19-.04,.36-.12,.55-.17,.19-.05,.43,.13,.61,.08,.19-.05,.41,.04,.59-.01,.19-.05,.36-.16,.54-.21,.18-.05,.34-.22,.52-.28,.18-.05,.35-.16,.54-.21,.18-.06,.38-.06,.57-.11,.18-.06,.38-.08,.56-.14,.18-.06,.35-.17,.53-.23,.18-.06,.35-.16,.53-.23,.18-.06,.44,.1,.62,.03,.18-.06,.36-.14,.54-.2,.18-.07,.32-.24,.5-.31,.18-.07,.27-.36,.45-.43,.18-.07,.36-.13,.54-.2,.18-.07,.37-.09,.55-.17s.36-.13,.54-.21c.18-.07,.39-.07,.56-.15s.44,.04,.61-.04,.38-.1,.55-.18c.17-.08,.35-.16,.53-.24,.17-.08,.2-.48,.37-.56,.17-.08,.31-.23,.49-.31,.17-.08,.53,.2,.7,.11,.17-.09,.32-.23,.49-.31s.32-.22,.49-.31c.17-.09,.22-.41,.39-.5,.17-.09,.51,.14,.68,.04,.17-.09,.32-.21,.49-.31,.17-.09,.2-.42,.37-.52,.17-.1,.46,.02,.62-.08,.17-.1,.35-.16,.52-.26,.16-.1,.31-.24,.47-.34,.16-.1,.32-.21,.48-.31,.16-.1,.18-.43,.34-.53,.16-.1,.37-.14,.53-.24s.47,0,.63-.1c.16-.11,.09-.55,.25-.66,.16-.11,.43-.05,.59-.16,.16-.11,.27-.28,.43-.39,.16-.11,.45-.04,.6-.15,.15-.11,.25-.3,.41-.42,.15-.12,.37-.15,.52-.27s.29-.25,.44-.37c.15-.12,.24-.32,.39-.44,.15-.12,.2-.36,.35-.48,.15-.12,.21-.35,.35-.47,.15-.12,.55,.05,.7-.07,.14-.13,.12-.45,.26-.57,.14-.13,.23-.31,.38-.44,.14-.13,.27-.27,.41-.4,.14-.13,.41-.12,.55-.26s.24-.31,.37-.44,.42-.12,.56-.26c.14-.14,.24-.31,.37-.45s.22-.32,.35-.46,.14-.4,.27-.54c.13-.14,.17-.36,.3-.51,.13-.14,.28-.26,.41-.41s.37-.19,.5-.33c.12-.15,.17-.35,.3-.5,.12-.15,.35-.21,.47-.36,.12-.15,.05-.45,.17-.6,.12-.15,.38-.19,.49-.34,.12-.15,.11-.39,.23-.55,.12-.15,.21-.32,.32-.48,.11-.16,.57-.06,.68-.22,.11-.16-.1-.54,.01-.7,.11-.16,.51-.12,.62-.27,.11-.16-.05-.49,.06-.65,.1-.16,.38-.21,.48-.37,.1-.16,.05-.42,.15-.58,.1-.16,.12-.37,.22-.54,.1-.16,.51-.14,.61-.31,.1-.17,.13-.37,.23-.54,.09-.17,.02-.43,.11-.6,.09-.17,.43-.21,.52-.38,.09-.17-.13-.5-.04-.67,.09-.17,.11-.37,.2-.54,.08-.17,.18-.33,.27-.51,.08-.17,.25-.31,.33-.48,.08-.17,.26-.31,.33-.48,.08-.18,.01-.41,.09-.59,.07-.18,.19-.34,.26-.52,.07-.18,.23-.32,.3-.5,.07-.18,.29-.3,.36-.48,.07-.18-.14-.46-.07-.64,.06-.18,.2-.34,.26-.52,.06-.18,.14-.36,.2-.54,.06-.18-.01-.41,.04-.59,.06-.18,.44-.27,.49-.46,.05-.18-.14-.44-.08-.62,.05-.19,0-.4,.04-.58,.05-.19,.45-.28,.5-.47,.05-.19-.05-.41,0-.6,.04-.19,.24-.34,.28-.53,.04-.19-.01-.4,.02-.59,.04-.19,.05-.38,.08-.57,.03-.19-.12-.41-.09-.6,.03-.19,.06-.38,.09-.57,.03-.19,.28-.35,.3-.54,.03-.19-.2-.41-.18-.61,.02-.19,.18-.36,.2-.56,.02-.19,.22-.36,.24-.56,.02-.19-.32-.42-.31-.61,.02-.19,.05-.38,.06-.57,.01-.19,.37-.36,.38-.55,.01-.19-.23-.4-.23-.59,0-.19-.07-.39-.07-.58,0-.19,.1-.38,.1-.57,0-.19-.07-.38-.07-.58,0-.19,.19-.38,.19-.58,0-.19-.13-.38-.13-.58,0-.19,0-.38,0-.58,0-.19,.26-.4,.25-.59,0-.19-.02-.39-.03-.58-.01-.19-.04-.39-.06-.58-.01-.19-.04-.39-.05-.58-.02-.19-.13-.38-.15-.57-.02-.19-.28-.36-.3-.55-.02-.19,.16-.41,.13-.6-.02-.19-.05-.38-.08-.57-.03-.19,.02-.39,0-.58-.03-.19,.05-.4,.02-.59-.03-.19-.43-.32-.46-.51-.03-.19-.07-.38-.11-.57-.03-.19-.12-.37-.16-.56-.04-.19,.1-.41,.06-.6-.04-.19,.12-.42,.08-.61-.04-.19-.21-.35-.26-.54-.04-.19-.2-.35-.24-.54-.04-.19,0-.4-.05-.58-.05-.19,.1-.42,.05-.61-.05-.19-.28-.33-.33-.51-.05-.19-.18-.36-.23-.55-.05-.19,.07-.43,.02-.61-.05-.19-.19-.35-.24-.54-.05-.19-.23-.34-.29-.52-.06-.19-.11-.37-.16-.56-.06-.19-.01-.4-.07-.58-.06-.19-.33-.3-.39-.49-.06-.19,.16-.46,.1-.64-.06-.18-.29-.31-.35-.49-.06-.18-.12-.37-.18-.55-.06-.18-.13-.36-.19-.54-.06-.18-.15-.36-.21-.54-.06-.18,.08-.44,.02-.62-.07-.18-.07-.39-.14-.57-.07-.18-.26-.32-.33-.5-.07-.18-.37-.27-.44-.45-.07-.18-.01-.41-.08-.59-.07-.18,.07-.44,0-.62-.07-.18-.27-.31-.34-.48-.07-.18-.2-.34-.27-.51-.07-.18-.29-.29-.36-.47-.08-.18-.16-.35-.23-.53-.08-.18-.12-.36-.2-.54-.08-.18-.15-.35-.23-.53-.08-.18,0-.42-.08-.6-.08-.18-.15-.36-.23-.53-.08-.17,.02-.44-.07-.61-.08-.17-.57-.15-.65-.32-.09-.17,0-.43-.08-.6-.09-.17-.06-.4-.15-.57-.09-.17-.17-.35-.26-.52-.09-.17-.2-.33-.29-.5-.09-.17-.38-.23-.47-.4-.09-.17-.21-.32-.3-.49-.09-.17-.05-.41-.15-.58-.1-.17-.13-.37-.22-.54-.1-.17-.1-.39-.19-.56-.1-.17-.29-.28-.39-.44-.1-.16-.4-.2-.5-.36-.1-.16-.27-.28-.38-.44-.1-.16,.09-.52-.01-.68-.11-.16-.26-.29-.37-.45-.11-.16-.37-.21-.48-.37-.11-.16-.25-.29-.36-.45-.11-.16,.02-.48-.09-.64-.11-.16-.37-.2-.49-.36-.11-.15-.36-.21-.48-.36-.12-.15-.21-.32-.33-.47-.12-.15,0-.49-.12-.64-.12-.15-.18-.35-.3-.5-.12-.15-.47-.11-.59-.26-.12-.15-.32-.23-.45-.38-.12-.15-.17-.36-.3-.5-.13-.15-.23-.31-.35-.46-.13-.14-.25-.29-.38-.43-.13-.14-.2-.34-.33-.48-.13-.14-.24-.31-.37-.45-.13-.14-.29-.25-.43-.39-.13-.14-.2-.35-.33-.48-.14-.14-.32-.23-.46-.36-.14-.13-.19-.36-.33-.49-.14-.13-.3-.25-.44-.38-.14-.13-.51,0-.66-.14-.14-.13-.02-.55-.17-.68-.14-.13-.47-.05-.61-.18-.15-.13-.16-.41-.31-.53-.15-.12-.26-.3-.41-.42-.15-.12-.33-.21-.48-.32-.15-.12-.36-.16-.52-.28-.15-.12-.3-.25-.45-.36-.15-.12-.26-.3-.42-.41-.16-.11-.29-.27-.44-.38-.16-.11-.41-.09-.57-.2-.16-.11-.26-.3-.42-.41-.16-.11-.37-.13-.53-.24-.16-.1-.35-.17-.51-.27-.16-.1-.33-.2-.49-.3-.16-.1-.42-.05-.58-.15-.17-.1-.2-.42-.37-.51-.17-.1-.3-.26-.47-.35-.17-.09-.49,.1-.66,0-.17-.09-.25-.35-.42-.44-.17-.09-.44,.01-.61-.07-.17-.09-.3-.26-.47-.35-.17-.08-.26-.35-.43-.43-.17-.08-.34-.18-.52-.25-.18-.08-.49,.16-.67,.08-.18-.08-.36-.13-.54-.2-.18-.07-.26-.38-.44-.45-.18-.07-.38-.08-.56-.15-.18-.07-.38-.07-.56-.13-.18-.07-.32-.25-.5-.31-.18-.07-.43,.08-.61,.01-.18-.06-.37-.1-.55-.16-.18-.06-.26-.45-.44-.5-.18-.06-.39-.04-.57-.09-.18-.06-.34-.22-.52-.27-.18-.05-.43,.12-.62,.06-.19-.05-.35-.17-.54-.22-.19-.05-.32-.31-.5-.36-.19-.05-.43,.13-.61,.08-.19-.04-.36-.13-.55-.17-.19-.04-.41,.08-.6,.04-.19-.04-.38-.07-.56-.11-.19-.04-.37-.08-.56-.12-.19-.04-.34-.27-.53-.3-.19-.03-.42,.17-.61,.14-.19-.03-.37-.08-.56-.1-.19-.03-.37-.1-.56-.13-.19-.03-.35-.31-.54-.33-.19-.02-.38-.03-.57-.05-.19-.02-.41,.26-.6,.24-.19-.02-.37-.12-.56-.13-.19-.02-.37-.22-.56-.24-.19-.02-.38-.05-.57-.06-.19-.01-.39,.02-.58,.01-.19-.01-.39,.18-.58,.18-.19,0-.37-.24-.56-.24-.19,0-.39,.17-.58,.17-.19,0-.38,.06-.57,.06-.19,0-.38,.02-.57,.01C51.13,.33,50.94,0,50.75,0c-.19,0-.38,.02-.57,.03-.19,0-.38,.25-.57,.25-.19,0-.38-.01-.57,0-.19,0-.38-.08-.57-.07-.19,0-.38,.1-.57,.11-.19,0-.39-.15-.58-.13-.19,.01-.4-.13-.59-.12-.19,.01-.38,.14-.57,.16-.19,.02-.38,.03-.57,.05-.19,.02-.37,.18-.56,.2-.19,.02-.38,.06-.57,.08-.19,.02-.39-.02-.58,0-.19,.02-.35,.26-.54,.29-.19,.02-.38,.02-.57,.05-.19,.03-.41-.13-.59-.1-.19,.03-.38,.07-.57,.1-.19,.03-.39,0-.58,.04-.19,.03-.35,.24-.53,.28-.19,.03-.39-.01-.58,.02-.19,.04-.37,.1-.56,.14-.19,.04-.37,.12-.55,.16-.19,.04-.4,0-.58,.03-.19,.04-.38,.09-.56,.13-.19,.04-.42-.09-.6-.04-.19,.05-.41-.03-.59,.02-.19,.05-.33,.29-.51,.33-.19,.05-.42-.06-.6-.01-.19,.05-.28,.45-.46,.5-.2,.05-.45-.14-.62-.09-.2,.06-.32,.31-.49,.36-.21,.07-.41,.09-.56,.14-.36,.12-.38-.17-.64-.05C32.6,2.85-1.62,20.02,.06,51.82c1.81,34.19,33.03,47.26,33.03,47.26"/>
  <path class="cls-2" d="M32.59,98.78c.18,.07,.29,.31,.47,.38,.18,.07,.3,.3,.48,.36,.18,.06,.49-.23,.67-.17,.18,.06,.32,.25,.5,.31,.18,.06,.36,.12,.55,.17,.18,.06,.35,.17,.53,.22,.18,.05,.39,.03,.57,.08,.18,.05,.32,.3,.5,.35,.19,.05,.41-.06,.6-.01,.19,.05,.35,.18,.54,.22,.19,.04,.4-.04,.59,0,.19,.04,.37,.08,.56,.12,.19,.04,.35,.18,.54,.21,.19,.04,.41-.09,.59-.06,.19,.03,.39-.03,.58,0,.19,.03,.37,.08,.56,.11,.19,.03,.38,.06,.57,.09,.19,.03,.34,.33,.53,.36,.19,.02,.37,.14,.56,.16,.19,.02,.4-.08,.59-.06,.19,.02,.4-.15,.59-.13,.19,.02,.36,.3,.55,.31,.19,.01,.4-.25,.59-.23,.19,.01,.37,.18,.56,.19,.19,0,.39-.04,.58-.03,.19,0,.38,.15,.57,.16,.19,0,.39-.21,.58-.21,.19,0,.38-.08,.57-.08,.19,0,.38,.39,.57,.39,.19,0,.38-.34,.57-.34,.19,0,.39,.14,.58,.13,.19,0,.38-.18,.57-.18,.19,0,.4,.32,.59,.31,.19,0,.37-.31,.56-.33,.19-.01,.38-.07,.57-.08,.19-.01,.4,.22,.59,.2,.19-.02,.38-.05,.57-.07,.19-.02,.38-.08,.57-.1,.19-.02,.38-.01,.58-.03,.19-.02,.37-.1,.56-.13,.19-.02,.37-.09,.57-.12,.19-.02,.4,.12,.59,.1,.19-.03,.36-.21,.55-.24,.19-.03,.36-.16,.55-.19,.19-.03,.44,.29,.63,.26,.19-.03,.37-.13,.56-.16,.19-.03,.37-.1,.56-.13,.19-.04,.34-.26,.53-.3,.19-.04,.42,.12,.6,.08,.19-.04,.38-.06,.57-.1,.19-.04,.3-.42,.48-.47,.19-.04,.38-.06,.57-.1,.19-.04,.43,.13,.61,.09,.19-.05,.32-.3,.5-.35,.19-.05,.44,.15,.62,.1,.19-.05,.4,0,.59-.04,.18-.05,.35-.18,.53-.23,.18-.05,.36-.13,.55-.19,.18-.06,.38-.07,.56-.13,.18-.06,.28-.4,.46-.46,.18-.06,.43,.07,.61,.01,.18-.06,.28-.36,.46-.43,.18-.06,.47,.19,.65,.12,.18-.06,.25-.43,.43-.5,.18-.07,.37-.11,.55-.18,.18-.07,.4-.02,.58-.08,.18-.07,.32-.23,.5-.3,.18-.07,.36-.14,.53-.21,.18-.07,.42,0,.59-.07,.18-.07,.38-.09,.56-.17,.18-.08,.34-.17,.52-.25,.18-.08,.4-.04,.58-.12,.17-.08,.18-.53,.35-.61s.5,.15,.67,.07,.29-.28,.46-.37c.17-.08,.26-.33,.43-.42s.4-.06,.57-.15c.17-.09,.43,0,.6-.09,.17-.09,.2-.45,.37-.54,.17-.09,.33-.19,.5-.28,.17-.09,.37-.13,.54-.22,.17-.09,.38-.11,.55-.2,.17-.1,.41-.06,.58-.16,.16-.1,.32-.22,.48-.32,.16-.1,.3-.25,.46-.36,.16-.1,.36-.16,.52-.26,.16-.1,.34-.18,.5-.28,.16-.11,.25-.33,.41-.43,.16-.11,.33-.2,.49-.31,.16-.11,.18-.41,.34-.52,.16-.11,.27-.28,.43-.39,.16-.11,.52,.06,.67-.05,.15-.11,.36-.16,.51-.28,.15-.12,.11-.49,.26-.61,.15-.12,.42-.09,.57-.21,.15-.12,.34-.19,.49-.31s.13-.45,.28-.57c.15-.12,.31-.23,.45-.35,.15-.12,.4-.12,.54-.25,.15-.13,.25-.3,.4-.42,.14-.13,.32-.22,.46-.35,.14-.13,.29-.25,.43-.38,.14-.13,.3-.24,.44-.38,.14-.13,.21-.33,.35-.47,.14-.13,.36-.18,.49-.32s.27-.28,.4-.41c.13-.14,.16-.38,.3-.51,.13-.14,.17-.37,.3-.51,.13-.14,.27-.27,.4-.41,.13-.14,.52-.05,.65-.19,.13-.14,.31-.24,.44-.38s.22-.32,.35-.46c.12-.15,.27-.28,.39-.43,.12-.15,.08-.43,.2-.58s.4-.18,.52-.33c.12-.15,.1-.41,.22-.56,.12-.15,.36-.21,.48-.36,.11-.15,.25-.29,.37-.45s.15-.37,.26-.53c.11-.16,.16-.36,.27-.52,.11-.16,.32-.25,.43-.41,.11-.16,.24-.31,.34-.47,.1-.16,.15-.36,.25-.53,.1-.16-.03-.47,.07-.63,.1-.16,.27-.28,.37-.45,.1-.17,.09-.39,.18-.56,.1-.17,.52-.15,.61-.32,.09-.17,.12-.37,.21-.54,.09-.17-.03-.45,.06-.62,.09-.17,.41-.22,.49-.4,.09-.17,.11-.38,.19-.55,.08-.17-.05-.45,.03-.62,.08-.17,.44-.22,.52-.39,.08-.17,.04-.4,.12-.58,.08-.18-.06-.44,.01-.62,.07-.18,.4-.25,.47-.43,.07-.18,.12-.37,.19-.55,.07-.18,.04-.39,.11-.57,.07-.18,.08-.38,.14-.56,.06-.18,.33-.29,.39-.48,.06-.18,.1-.37,.16-.55,.06-.18-.16-.45-.1-.63,.06-.18,.2-.34,.26-.52,.05-.18,.15-.35,.2-.54,.05-.18,.39-.3,.43-.48,.05-.19-.1-.42-.06-.61,.04-.19,.1-.37,.14-.56,.04-.19-.14-.42-.1-.61,.04-.19,.22-.34,.26-.53,.04-.19,.13-.36,.16-.55,.03-.19,.14-.37,.17-.55,.03-.19,.03-.38,.05-.57,.03-.19,.04-.38,.07-.57,.03-.19,.06-.38,.08-.57,.02-.19-.07-.39-.05-.59,.02-.19,.33-.35,.35-.54,.02-.19-.34-.42-.32-.61,.02-.19,.43-.35,.44-.54,.01-.19-.37-.41-.36-.6,.01-.19,.12-.38,.12-.57,0-.19,.3-.37,.3-.57,0-.19,0-.39,0-.58,0-.19-.42-.39-.42-.58,0-.19,.1-.38,.1-.57,0-.19,.12-.38,.12-.58,0-.19-.18-.38-.18-.57,0-.19,.01-.38,0-.57,0-.19,.01-.38,0-.57-.01-.19,.15-.39,.14-.59-.01-.19-.02-.38-.04-.57-.02-.19,.1-.4,.08-.59-.02-.19-.34-.35-.36-.54-.02-.19,.23-.41,.21-.61-.02-.19-.11-.38-.13-.57-.03-.19-.08-.38-.11-.57-.03-.19-.32-.34-.35-.53-.03-.19-.03-.38-.06-.57-.03-.19-.1-.37-.13-.56-.03-.19,.03-.39,0-.58-.04-.19-.05-.38-.09-.57-.04-.19-.2-.35-.24-.54-.04-.19,.03-.4-.01-.59-.04-.19,.04-.4,0-.59-.04-.19-.37-.31-.42-.49-.05-.19-.04-.39-.09-.57-.05-.19,.24-.47,.19-.65-.05-.19-.34-.31-.39-.5-.05-.19-.02-.4-.07-.58-.05-.19,.06-.42,0-.61-.05-.19-.2-.35-.26-.53-.06-.19-.41-.28-.47-.46-.06-.19,.09-.43,.04-.62-.06-.19-.19-.35-.25-.53-.06-.19,.04-.42-.02-.6-.06-.18-.3-.31-.36-.49-.06-.19-.11-.37-.17-.56-.06-.18,.09-.44,.02-.62-.06-.18-.14-.36-.21-.55-.06-.18-.14-.36-.21-.55-.07-.18-.25-.32-.32-.51-.07-.18-.14-.36-.21-.54-.07-.18-.01-.41-.08-.59-.07-.18-.23-.33-.3-.51-.07-.18-.16-.35-.23-.53-.07-.18,.04-.44-.03-.61-.07-.18-.14-.36-.22-.54-.08-.18-.33-.28-.4-.46-.08-.18-.15-.36-.23-.53-.08-.18-.15-.36-.23-.53-.08-.18-.26-.31-.34-.48-.08-.18,0-.42-.09-.6-.08-.18-.25-.31-.34-.48-.08-.17-.13-.37-.22-.54-.08-.17-.08-.39-.16-.57-.09-.17-.18-.34-.26-.52-.09-.17-.15-.36-.24-.53-.09-.17-.18-.35-.27-.52-.09-.17-.5-.17-.59-.34-.09-.17-.13-.37-.23-.54-.09-.17-.06-.41-.15-.58-.1-.17-.3-.28-.39-.44-.1-.17-.25-.3-.35-.46-.1-.17,.1-.51,0-.68-.1-.17-.51-.14-.61-.31-.1-.16-.03-.43-.13-.6-.1-.16-.18-.34-.28-.51-.11-.16-.3-.26-.41-.42-.11-.16-.2-.33-.31-.49-.11-.16-.16-.36-.27-.51-.11-.16-.33-.24-.44-.39-.11-.16,.06-.51-.06-.67-.11-.16-.23-.32-.34-.47-.11-.15-.41-.18-.52-.33-.12-.15-.35-.21-.47-.37-.12-.15,.04-.52-.08-.67-.12-.15-.48-.31-.6-.46,.09,.17,.11,.56,.2,.73,.09,.17,.4,.21,.49,.38,.09,.17,.09,.38,.18,.55,.09,.17,.31,.27,.4,.44,.09,.17,.27,.29,.36,.46,.09,.17-.11,.48-.02,.65,.08,.17,.23,.31,.32,.48,.08,.17,.01,.41,.09,.59,.08,.17,.49,.19,.57,.36,.08,.17,.04,.4,.12,.57,.08,.17-.04,.43,.04,.61,.08,.17,.2,.33,.28,.5,.08,.17,.38,.25,.45,.43,.07,.17,.11,.37,.18,.54,.07,.17,.25,.31,.32,.48,.07,.17,.15,.35,.22,.53,.07,.18-.19,.49-.12,.66,.07,.18,.08,.37,.15,.55,.07,.18,.52,.2,.59,.38,.07,.18,.08,.38,.14,.56,.07,.18,0,.4,.07,.58,.07,.18,.26,.31,.32,.49,.06,.18-.19,.47-.13,.65,.06,.18,.42,.26,.49,.44,.06,.18-.13,.45-.07,.63,.06,.18,.4,.27,.47,.45,.06,.18-.08,.43-.02,.61,.06,.18,.32,.3,.38,.48,.06,.18-.2,.46-.14,.64,.06,.18,.13,.36,.19,.54,.06,.18,.36,.29,.42,.47,.05,.18,.18,.35,.24,.53,.05,.18-.06,.42,0,.6,.05,.18,.15,.35,.2,.54,.05,.18,.11,.37,.16,.55,.05,.18,.05,.38,.1,.57s.27,.33,.32,.51c.05,.19-.14,.44-.09,.63,.05,.19,.05,.38,.09,.57,.05,.19,.25,.33,.3,.52,.04,.19,.09,.38,.13,.56,.04,.19,.03,.39,.07,.58,.04,.19,.22,.35,.26,.53,.04,.19-.25,.44-.21,.63,.04,.19,.23,.34,.27,.53,.04,.19-.04,.4,0,.59,.03,.19,.15,.36,.18,.55,.03,.19,.33,.34,.36,.53,.03,.19-.32,.44-.3,.63,.03,.19,.1,.37,.12,.56,.03,.19,.34,.34,.36,.53,.02,.19-.1,.4-.08,.59,.02,.19,.07,.38,.09,.57,.02,.19-.16,.4-.14,.59,.02,.19,.23,.36,.24,.56,.02,.19,.01,.38,.03,.58,.01,.19,.06,.38,.08,.57,.01,.19-.13,.39-.12,.58,0,.19,.36,.37,.37,.56,0,.19-.34,.4-.34,.59,0,.19,.25,.38,.25,.57,0,.19,0,.39,0,.58,0,.19-.14,.38-.14,.57,0,.19,.11,.39,.11,.58,0,.19-.13,.38-.14,.57,0,.19,0,.38,0,.57,0,.19-.06,.38-.07,.57-.01,.19-.13,.37-.14,.57-.01,.19,.11,.39,.09,.58-.02,.19,.02,.39,0,.58-.02,.19-.17,.37-.19,.56-.02,.19,.16,.4,.14,.6-.02,.19-.11,.37-.13,.56-.02,.19,.17,.41,.14,.6-.03,.19-.45,.32-.47,.51-.03,.19-.03,.38-.06,.57-.03,.19-.04,.38-.07,.57-.03,.19,0,.39-.04,.58-.04,.19-.06,.38-.1,.57-.04,.19,.16,.43,.11,.61-.04,.19-.22,.34-.27,.53-.04,.19-.11,.37-.16,.55-.05,.19-.04,.39-.09,.57-.05,.19-.32,.31-.37,.5-.05,.19-.12,.36-.17,.55-.05,.18-.18,.35-.23,.53-.06,.18,.15,.45,.09,.63-.06,.18-.13,.36-.19,.54-.06,.18-.25,.32-.31,.5-.06,.18,0,.41-.06,.59-.07,.18-.31,.29-.38,.47-.07,.18-.09,.38-.16,.55-.07,.18-.02,.41-.09,.58-.07,.18-.3,.29-.37,.47-.07,.18-.2,.33-.28,.5-.08,.18,.12,.47,.04,.65-.08,.17-.44,.22-.53,.39-.08,.17-.09,.38-.17,.55-.08,.17-.11,.37-.2,.54-.09,.17,0,.44-.08,.61-.09,.17-.28,.29-.37,.46-.09,.17-.12,.37-.21,.54-.09,.17-.41,.21-.51,.37-.09,.17-.07,.4-.17,.56-.1,.17-.32,.25-.42,.42-.1,.16-.11,.38-.21,.54-.1,.16-.34,.23-.45,.4-.1,.16,.03,.48-.07,.64-.1,.16-.16,.35-.27,.51-.11,.16-.48,.13-.59,.29-.11,.16-.18,.34-.3,.49-.11,.16-.11,.39-.22,.55-.11,.15-.12,.39-.23,.54-.11,.15-.26,.28-.38,.44-.12,.15-.24,.3-.36,.45-.12,.15-.23,.3-.35,.45-.12,.15-.37,.19-.5,.34-.12,.15,0,.5-.13,.64-.12,.15-.42,.15-.54,.3s-.14,.39-.26,.53c-.13,.14-.27,.28-.39,.42s-.29,.25-.42,.39c-.13,.14-.38,.16-.52,.3s-.13,.41-.26,.55-.43,.12-.56,.25-.3,.24-.44,.37-.17,.37-.31,.51c-.14,.13-.26,.28-.4,.41-.14,.13-.2,.35-.34,.48s-.38,.16-.52,.28c-.14,.13-.2,.35-.35,.48s-.35,.19-.49,.31c-.14,.13-.18,.38-.33,.5-.15,.12-.35,.18-.5,.3-.15,.12-.38,.13-.53,.25-.15,.12-.39,.12-.54,.24-.15,.12-.15,.42-.3,.54-.15,.12-.28,.26-.43,.38-.15,.12-.49-.01-.64,.1-.15,.11-.21,.36-.37,.47-.16,.11-.33,.19-.49,.3-.16,.11-.38,.12-.54,.23s-.2,.39-.35,.5c-.16,.11-.36,.15-.52,.25-.16,.11-.24,.33-.4,.43-.16,.1-.36,.16-.52,.26s-.39,.1-.55,.2c-.16,.1-.27,.3-.43,.4-.16,.1-.3,.24-.47,.34-.16,.1-.32,.21-.49,.3-.17,.1-.38,.1-.55,.19-.17,.09-.33,.19-.5,.28-.17,.09-.24,.35-.41,.45-.17,.09-.31,.24-.48,.33-.17,.09-.48-.09-.65,0s-.38,.09-.55,.17c-.17,.09-.35,.15-.52,.23s-.34,.18-.51,.26c-.17,.08-.32,.21-.49,.29-.17,.08-.25,.36-.43,.44-.17,.08-.46-.09-.64-.01-.18,.08-.33,.21-.5,.28-.18,.08-.22,.46-.4,.53-.18,.07-.35,.17-.52,.24-.18,.07-.41,.02-.58,.09-.18,.07-.42,0-.59,.06-.18,.07-.35,.16-.53,.22-.18,.07-.4,.01-.58,.08-.18,.07-.29,.32-.47,.38-.18,.06-.29,.33-.47,.39-.18,.06-.42-.04-.6,.03-.18,.06-.35,.16-.53,.22-.18,.06-.41-.02-.59,.03-.18,.06-.31,.3-.49,.36-.18,.06-.35,.18-.53,.23-.18,.05-.46-.2-.64-.15-.18,.05-.37,.08-.56,.13-.18,.05-.37,.11-.55,.16-.19,.05-.29,.41-.48,.46-.19,.05-.41-.07-.6-.02-.19,.04-.34,.25-.52,.29-.19,.04-.46-.3-.65-.26-.19,.04-.3,.45-.48,.49-.19,.04-.44-.22-.62-.19-.19,.04-.33,.3-.52,.34-.19,.04-.37,.12-.56,.16-.19,.03-.38,.09-.56,.12-.19,.03-.44-.29-.63-.26-.19,.03-.36,.19-.55,.21-.19,.03-.34,.34-.53,.36-.19,.03-.43-.31-.62-.29-.19,.02-.36,.22-.55,.25-.19,.02-.37,.19-.56,.21-.19,.02-.41-.23-.6-.21-.19,.02-.39-.05-.58-.03-.19,.02-.35,.38-.54,.4-.19,.01-.41-.38-.6-.36-.19,.01-.36,.32-.56,.33-.19,.01-.39-.03-.58-.02-.19,0-.38,0-.57,.01-.19,0-.38,.14-.57,.14-.19,0-.38,.08-.58,.08-.19,0-.39-.09-.58-.09-.19,0-.38,.02-.58,.01-.19,0-.38-.24-.57-.24-.19,0-.38-.15-.57-.15-.19,0-.38,.02-.57,0-.19,0-.39,.14-.58,.13-.19-.01-.39,.12-.58,.11-.19-.01-.38-.03-.57-.04-.19-.02-.39,.06-.58,.04-.19-.02-.38-.05-.57-.07-.19-.02-.34-.39-.53-.41-.19-.02-.42,.24-.61,.21-.19-.03-.38-.03-.57-.06-.19-.03-.38-.06-.57-.09-.19-.03-.34-.27-.53-.3-.19-.03-.4,.06-.59,.03-.19-.04-.37-.09-.56-.12-.19-.04-.38-.05-.57-.09-.19-.04-.38-.05-.57-.09"/>
</svg>