<?xml version="1.0" encoding="UTF-8"?>
<svg id="Layer_1" data-name="Layer 1" xmlns="http://www.w3.org/2000/svg" viewBox="0 0 60.15 43.6">
  <defs>
    <style>
      .cls-1 {
        fill: #fff;
      }

      .cls-2 {
        fill: #8a6539;
      }

      .cls-3 {
        fill: #f26649;
      }

      .cls-4 {
        fill: #e6e6e6;
      }
    </style>
  </defs>
  <path class="cls-2" d="M15.21,17.14c.19-.23,.2-.13,.42-.43,.1-.14,.11-.38,.24-.56,.1-.15,.01-.45,.13-.62,.1-.16,.36-.22,.47-.4,.1-.16,.3-.28,.4-.45,.1-.17-.08-.49,.01-.67,.09-.17,.17-.35,.25-.53,.08-.18,.31-.29,.39-.47,.08-.18,.14-.37,.21-.55,.07-.19,.22-.35,.27-.54,.06-.19-.13-.44-.09-.63,.04-.2,.23-.36,.24-.56,.02-.2,.16-.4,.15-.6,0-.2-.33-.36-.36-.55-.04-.19,.12-.44,.04-.62-.08-.18-.37-.22-.49-.39-.11-.16-.06-.44-.21-.58-.15-.14-.37-.17-.5-.27-.17-.13-.26-.32-.4-.39-.2-.1-.39-.13-.55-.11-.17,.02-.47-.05-.63,.08-.12,.1-.22,.31-.36,.47-.11,.13-.2,.29-.32,.45-.1,.14-.11,.36-.23,.52-.11,.14-.17,.33-.29,.48-.19,.23-.52,.41-.65,.31-.1-.08-.2-.37-.28-.62-.05-.15,.2-.41,.16-.62-.03-.17-.28-.32-.31-.52-.02-.17,.23-.4,.2-.6-.02-.18-.45-.32-.47-.52-.02-.18,.14-.39,.12-.58-.02-.18-.08-.37-.1-.56-.02-.18,.05-.38,.03-.58-.02-.19-.18-.36-.19-.55-.02-.19-.03-.36-.08-.55-.05-.19-.06-.37-.13-.54-.07-.18-.12-.36-.22-.52-.1-.16,0-.47-.12-.62-.12-.15-.46-.11-.59-.25-.13-.13-.24-.29-.39-.41-.15-.12-.26-.29-.42-.4-.16-.1-.39-.08-.56-.17-.17-.09-.38-.05-.56-.12-.17-.07-.23-.47-.41-.53-.18-.06-.38-.08-.57-.12-.18-.04-.38-.11-.56-.13-.19-.03-.42,.32-.61,.3C7.13,.34,6.95,0,6.76,0c-.19,0-.36,.33-.55,.34-.19,.01-.39-.19-.58-.16-.19,.03-.35,.15-.54,.19-.18,.04-.45-.17-.63-.11-.18,.06-.21,.51-.38,.59-.17,.07-.34,.13-.51,.22-.17,.09-.47-.06-.63,.05-.16,.11-.27,.28-.42,.4-.14,.12-.33,.21-.46,.34-.13,.13-.25,.29-.38,.44-.12,.14-.12,.38-.22,.54-.1,.15-.27,.27-.36,.44-.09,.16-.26,.29-.34,.47-.07,.17-.16,.35-.22,.53-.06,.17-.15,.36-.2,.54-.05,.18,.11,.41,.07,.6-.04,.18-.05,.37-.07,.56-.02,.18-.08,.37-.09,.56C.22,6.74,0,6.92,0,7.11c0,.19,.33,.38,.33,.57,0,.19-.34,.4-.32,.59,.02,.19,.44,.34,.47,.53,.03,.19-.33,.44-.3,.63,.04,.19,.18,.36,.22,.55,.05,.19,.09,.38,.15,.56,.06,.18,.25,.32,.32,.5,.07,.18,.18,.33,.26,.51,.08,.18,.22,.31,.31,.48,.09,.17-.02,.44,.08,.61,.1,.17,.08,.41,.18,.57,.1,.16,.33,.24,.44,.4,.11,.15,.34,.22,.46,.37,.12,.15,.14,.38,.27,.52,.13,.14,.2,.34,.33,.48,.13,.14,.37,.18,.5,.31,.14,.13,.37,.16,.51,.29,.14,.13,.17,.38,.32,.5,.15,.12,.23,.34,.38,.45,.15,.12,.29,.27,.44,.38,.16,.11,.45,.02,.61,.13,.16,.11,.38,.11,.54,.21,.16,.1,.28,.27,.44,.37,.17,.1,.22,.39,.39,.48,.17,.09,.44,0,.61,.08,.17,.09,.28,.3,.45,.38,.18,.09,.47-.09,.64-.02,.18,.08,.24,.41,.41,.48,.19,.08,.42,.01,.59,.08,.19,.08,.36,.18,.52,.24,.2,.07,.34,.27,.49,.32,.34,.11,.25,.18,.52,.25"/>
  <path class="cls-3" d="M43.74,41.71c-.19,.06-.34,.23-.52,.29-.19,.06-.44-.09-.62-.03-.19,.06-.32,.27-.51,.32-.19,.06-.36,.17-.54,.22-.19,.05-.35,.2-.54,.25-.19,.05-.44-.16-.63-.12-.19,.04-.35,.21-.54,.25-.19,.04-.43-.18-.62-.14-.19,.04-.37,.12-.56,.15-.19,.03-.37,.1-.56,.13-.19,.03-.37,.15-.56,.18-.19,.02-.37,.23-.56,.25-.19,.02-.42-.36-.61-.34-.19,.02-.37,.19-.56,.21-.19,.01-.38,.27-.57,.28-.19,0-.39-.08-.59-.08-.2,0-.39-.11-.58-.11-.2,0-.38-.24-.57-.25-.19,0-.4,.22-.59,.2-.19-.02-.41,.16-.6,.14-.19-.02-.38-.11-.57-.14-.19-.03-.37-.15-.56-.18-.19-.03-.34-.3-.53-.34-.19-.04-.39,0-.58-.04-.19-.04-.4,.03-.59-.02-.19-.05-.43,.1-.62,.05-.19-.06-.27-.43-.46-.49-.18-.06-.47,.16-.65,.1-.18-.07-.37-.14-.54-.21-.18-.07-.35-.19-.52-.26-.18-.08-.27-.35-.44-.44-.18-.08-.37-.11-.54-.2-.17-.09-.31-.24-.48-.33-.17-.09-.38-.12-.54-.21-.17-.1-.36-.16-.52-.26-.16-.1-.21-.38-.37-.49-.16-.11-.53,.09-.69-.02-.16-.11-.12-.5-.27-.61-.15-.12-.25-.31-.4-.43-.15-.12-.33-.2-.48-.32-.15-.12-.39-.14-.53-.27-.15-.13-.24-.31-.38-.44-.14-.13-.43-.12-.56-.25-.14-.14-.05-.5-.18-.64-.14-.14-.36-.19-.49-.33-.13-.14-.25-.29-.38-.43-.13-.14-.49-.09-.61-.24-.13-.15,.02-.52-.1-.67-.12-.15-.45-.14-.56-.29-.12-.15-.12-.4-.24-.55-.12-.15-.26-.29-.37-.45-.11-.16-.34-.24-.45-.39-.11-.16,.03-.49-.08-.65-.11-.16-.41-.19-.51-.36-.1-.16-.33-.25-.43-.42-.1-.16,.11-.52,0-.68-.1-.17-.17-.34-.27-.51-.1-.17-.37-.23-.46-.4-.09-.17-.24-.31-.33-.48-.09-.17-.23-.32-.32-.49-.09-.17-.21-.33-.29-.5-.09-.17-.16-.36-.24-.53-.08-.18,.12-.48,.04-.66-.08-.18-.23-.32-.3-.49-.08-.18-.08-.38-.16-.56-.08-.18-.37-.26-.44-.44-.07-.18-.06-.39-.13-.57-.07-.18-.04-.4-.1-.57-.07-.19-.15-.36-.22-.53-.07-.19-.04-.4-.1-.57-.07-.19-.19-.35-.25-.52-.06-.19-.43-.28-.49-.45-.06-.2-.08-.4-.13-.57-.06-.21,.2-.49,.15-.64-.1-.36-.45-.3-.28-.53,.17-.23,.35-.02,.58-.19,.23-.17,.17-.25,.39-.43,.23-.17,.2-.21,.43-.38,.23-.17,.23-.17,.46-.34,.22-.17,.06-.39,.28-.56,.23-.17,.26-.13,.48-.3,.22-.17,.43,.1,.66-.07,.23-.17,.07-.38,.29-.55,.22-.17,.31-.06,.53-.23,.22-.17,.09-.47,.36-.56,.12,.15,.22,.54,.35,.69,.12,.15,.24,.31,.36,.45,.13,.15,.2,.34,.33,.48,.13,.15,.45,.11,.58,.26,.13,.14,.08,.45,.21,.59,.13,.14,.33,.23,.46,.36,.13,.14,.25,.3,.38,.43,.14,.14,.49,.06,.63,.19,.14,.14,.23,.32,.36,.45,.14,.13,.29,.25,.43,.38,.14,.13,.09,.47,.23,.6,.14,.13,.23,.33,.37,.45,.15,.13,.5,0,.65,.13,.15,.12,.31,.22,.46,.34,.15,.12,.34,.19,.49,.3,.15,.12,.25,.3,.4,.41,.16,.12,.34,.18,.5,.29,.16,.11,.16,.44,.32,.55,.16,.11,.36,.16,.52,.26,.16,.11,.42,.06,.58,.16,.17,.1,.28,.27,.45,.36,.17,.1,.23,.37,.4,.47,.17,.09,.36,.14,.53,.23,.17,.09,.39,.08,.56,.16,.17,.08,.27,.34,.44,.42,.18,.08,.38,.1,.56,.17,.18,.07,.34,.19,.52,.26,.18,.07,.37,.13,.55,.19,.18,.06,.47-.23,.66-.17,.18,.06,.35,.17,.53,.22,.19,.05,.36,.14,.54,.18,.19,.04,.37,.09,.56,.13,.19,.04,.37,.08,.56,.11,.19,.03,.36,.2,.55,.22,.19,.02,.39,.01,.58,.03,.19,.01,.39-.13,.58-.12,.19,0,.38,.32,.57,.32,.19,0,.39-.16,.58-.17,.19,0,.39,.04,.58,.02,.19-.01,.4,.07,.59,.05,.19-.02,.33-.44,.52-.47,.19-.03,.41,.11,.59,.08,.19-.04,.41,.07,.6,.03,.19-.04,.29-.43,.47-.48,.19-.05,.39,0,.58-.05,.18-.06,.38-.08,.56-.14,.18-.06,.37-.11,.54-.18,.18-.07,.45,.09,.63,.01,.18-.07,.3-.29,.47-.37,.18-.08,.35-.16,.52-.24,.17-.09,.28-.3,.45-.39,.17-.09,.43-.01,.6-.11,.17-.1,.18-.45,.34-.55,.17-.1,.52,.11,.68,0,.16-.1,.17-.44,.33-.54,.16-.11,.32-.21,.48-.32,.16-.11,.26-.29,.41-.4,.16-.12,.54,.07,.69-.05,.15-.12,.05-.55,.19-.67,.15-.13,.39-.13,.53-.26,.15-.13,.34-.2,.48-.32,.15-.13,.25-.3,.38-.43,.14-.14,.25-.3,.38-.44,.14-.14,.36-.2,.49-.33,.14-.15,.36-.21,.48-.34,.15-.16,.25-.34,.35-.46,.24-.28-.02-.38,.15-.62,0,0,3.02-2.97,6.88-2.95s7.27,6.84,1.97,16.76c0,0-3.77,3-6.66,4.32s-7.03,2.79-7.03,2.79Z"/>
  <g>
    <path class="cls-1" d="M18.85,15.86c-.07-.11-.35-.08-.44-.16-.14,.13-.25,.24-.39,.36-.14,.12-.45,.04-.6,.16-.15,.12-.31,.21-.46,.32-.15,.12-.26,.27-.42,.38-.15,.11-.12,.49-.27,.59-.16,.11-.41,.07-.57,.17-.16,.1-.34,.17-.5,.26-.16,.1-.26,.31-.42,.4-.17,.09-.42,.02-.58,.1-.17,.09-.38,.09-.54,.17-.17,.08-.21,.45-.37,.53-.17,.08-.42-.02-.59,.05-.18,.07-.25,.41-.42,.48-.18,.07-.36,.14-.53,.2-.18,.06-.48-.24-.66-.18-.18,.06-.37,.09-.54,.14-.19,.05-.31,.32-.48,.36-.19,.05-.41-.08-.59-.04-.19,.04-.34,.26-.51,.3-.2,.04-.32,.06-.49,.08,0,.21,.04,.33,.13,.53,.16,.2,.06,.29,.24,.48,.18,.19,.36,.02,.54,.2,.18,.19,.19,.17,.37,.36,.18,.19,.05,.32,.23,.5,.18,.19,.29,.1,.45,.3,.09,.2,.16,.42,.31,.56,.16,.14,.39,.1,.59,.16s.35,.1,.56,.08c.21-.02,.51,.22,.7,.12,.24-.13,.26-.11,.5-.24,.24-.13,.19-.23,.43-.36,.24-.13,.3-.03,.54-.16,.24-.13,.08-.43,.32-.56,.24-.13,.32,.01,.57-.12,.24-.13,.24-.14,.48-.27,.24-.13,.21-.19,.46-.32,.24-.13,.22-.18,.46-.31,.24-.13,.26-.1,.51-.23,.24-.13,.34,.04,.58-.09,.25-.13,.29-.06,.53-.19,.25-.13,.19-.24,.43-.37,.2-.11,.24-.39,.37-.56,.13-.17,.47-.26,.53-.47,.05-.21,.06-.49,.02-.71-.03-.21-.12-.42-.23-.61-.07-.29-.17-.26-.22-.56-.04-.3-.02-.3-.06-.6-.04-.3-.13-.29-.1-.59,.04-.33,.18-.35,.12-.65Z"/>
    <path class="cls-4" d="M16.44,15.16c-.26,.13-.09,.46-.35,.59-.26,.13-.24,.18-.5,.31-.26,.13-.29,.08-.55,.21-.26,.13-.34-.03-.61,.1-.26,.13-.15,.36-.41,.49-.26,.13-.39-.12-.65,.01-.26,.13-.28,.09-.54,.23-.26,.13-.21,.23-.47,.36-.26,.13-.19,.27-.45,.41-.26,.13-.29,.07-.55,.2-.26,.13-.31,.04-.57,.17-.26,.13-.22,.22-.48,.36-.26,.13-.4-.14-.66,0s-.17,.31-.43,.45c-.18,.1-.44,.13-.57,.27-.13,.15,.09,.49,.02,.67-.06,.18-.12,.15-.12,.35,.17-.03,.23,.32,.44,.28,.17-.03,.32-.26,.51-.3,.17-.04,.32-.23,.51-.27,.17-.04,.39,.03,.57-.03,.17-.05,.35-.12,.53-.18,.17-.06,.35-.11,.53-.17,.17-.06,.38-.04,.56-.11,.17-.07,.27-.32,.45-.39,.17-.07,.41,.01,.58-.06,.17-.08,.22-.4,.39-.49,.17-.08,.53,.22,.7,.13,.16-.09,.17-.47,.34-.57,.16-.09,.46,.05,.63-.05,.16-.1,.27-.27,.43-.38,.16-.1,.24-.3,.4-.41,.15-.1,.27-.27,.42-.38,.15-.11,.43-.05,.58-.16,.15-.11,.34-.18,.48-.3,.15-.12,.27-.27,.41-.4,.14-.12,.14-.32,.28-.45-.16-.16-.33-.13-.54-.21-.21-.08-.38-.32-.6-.31-.22,.01-.53-.06-.73,.05Z"/>
  </g>
</svg>