<?xml version="1.0" encoding="UTF-8"?>
<svg id="Layer_1" data-name="Layer 1" xmlns="http://www.w3.org/2000/svg" viewBox="0 0 25.2 21.87">
  <defs>
    <style>
      .cls-1 {
        fill: #8a6539;
      }
    </style>
  </defs>
  <path class="cls-1" d="M23.03,21.59c-.1-.08-.22-.17-.34-.3-.12-.14-.2-.25-.19-.22,.06,.06-.04-.01,.02,.03,.03,.02,.1,.05-.02,0-.13-.05-.35-.15-.48-.24-.14-.1-.23-.16-.35-.27-.11-.1-.26-.27-.32-.35-.1-.11,.1,.1-.1-.07-.08-.07-.19-.16-.28-.24-.09-.09-.1-.1-.12-.11l-.04-.03s-.08-.06,0,0c.08,.07,.31,.17,.46,.18,.16,.01,.14,0-.06,.02-.19,.01-.61-.05-.89-.2-.29-.16-.46-.29-.68-.56-.22-.27-.33-.64-.36-.8-.03-.17-.04-.11,.02,.06,.07,.17,.22,.35,.3,.41-.1-.08-.27-.22-.41-.4-.15-.19-.23-.35-.2-.29,.03,.05,.1,.13,.11,.14,0,0,.06,.06,.17,.12,.12,.06,.3,.09,.21,.08-.09,0-.43-.07-.68-.2-.23-.11-.52-.33-.35-.21,.07,.05,.26,.13,.35,.15,.09,0-.08,.01-.38-.07-.29-.08-.56-.24-.72-.36-.13-.1-.24-.19-.38-.33-.14-.15-.24-.3-.22-.27l.05,.07c.08,.06-.24-.17-.4-.39-.2-.24-.32-.57-.35-.64-.03-.07,.04,.13,.14,.25,.08,.12,.2,.2,.14,.16-.03-.02-.01,0-.02,0,0,0-.15-.07-.28-.16-.14-.09-.23-.15-.33-.23-.11-.08-.25-.21-.38-.36-.14-.16-.19-.23-.15-.18,.03,.04,.05,.06,.04,.06,0,0,.13,.11,.29,.17,.17,.07,.31,.07,.15,.06-.17-.01-.56-.11-.82-.25-.27-.15-.4-.26-.61-.47-.2-.2-.4-.55-.47-.73-.07-.19-.04-.07,.05,.09,.1,.16,.19,.25,.25,.29,.05,.05,.22,.15,.38,.19,.18,.04,.19,.04-.07,0-.26-.04-.64-.18-.86-.33-.21-.14-.4-.28-.61-.55-.22-.26-.36-.64-.38-.72-.04-.1,.03,.12,.14,.28,.1,.15,.24,.26,.24,.26,.03,.03,.14,.1,.23,.13,.1,.03-.08,0-.33-.11-.25-.11-.44-.24-.58-.35,0,0,.03,.03,.1,.07,.08,.04,.1,.05-.12-.04-.2-.08-.41-.21-.54-.31l-.11-.08c-.08-.06-.15-.13-.22-.2-.15-.16-.29-.35-.39-.56-.21-.43-.22-.78-.23-.9,0-.13-.03-.05,.04,.2,.06,.26,.31,.6,.48,.72,.09,.08,.28,.2,.51,.26,.22,.05,.34,.04,.1,.04-.21,0-.68-.1-.98-.27-.33-.19-.47-.31-.69-.53-.22-.22-.42-.61-.48-.77-.06-.16-.01,.01,.1,.19,.06,.08,.11,.15,.16,.2,.06,.06,.04,.05,.19,.16,.22,.17,.67,.28,.89,.27,.22,0,.25-.03,.1,0-.13,.03-.51,.11-1.02,0-.49-.09-.96-.43-1.13-.61-.25-.22-.51-.64-.61-.94-.1-.32-.11-.39-.06-.21,.05,.17,.23,.46,.36,.58,.03,.03,.06,.06,.09,.08l-.09-.08c-.07-.06-.14-.12-.22-.2-.16-.15-.33-.4-.34-.41-.01,0,.09,.12,.11,.14l.03,.03-.1-.08-.21-.16-.31-.23-.34-.23-.25-.18c-.12-.09-.27-.23-.42-.39-.36-.43-.04-.04-.07-.09h0s.1,.08,.1,.08c.08,.06,.16,.1,.26,.15,.2,.09,.43,.14,.61,.16,.37,.02,.51-.05,.49-.04-.02,0-.15,.06-.48,.12-.31,.07-.98,.06-1.51-.23-.12-.06-.24-.14-.35-.22-.1-.08-.12-.1-.19-.15-.11-.1-.23-.22-.34-.37-.24-.3-.39-.71-.42-.78-.03-.06,.07,.21,.21,.39,.07,.09,.14,.16,.19,.21,0,0,.09,.07,.04,.03l-.12-.1c-.17-.14-.4-.4-.54-.63-.14-.24-.12-.19-.02-.04,.1,.13,.18,.21,.22,.24,.08,.07,.27,.2,.51,.27,.24,.07,.38,.07,.1,.05-.25-.02-.74-.17-1.01-.35-.15-.08-.28-.19-.35-.24l-.18-.15c-.12-.1-.3-.29-.36-.37-.06-.07,.01,.02,.02,.03,0,0,.07,.07-.17-.13-.17-.14-.41-.42-.54-.63-.14-.23-.09-.12,.01,.01,.08,.12,.2,.21,.17,.19-.14-.11-.34-.29-.52-.52-.19-.24-.27-.4-.2-.27,.07,.1,.17,.22,.21,.25l.03,.02-.03-.02-.06-.04-.13-.08-.45-.32-.1-.06-.27-.18c-.07-.05-.24-.18-.16-.11,.03,.03,.15,.11,.24,.14,.1,.04-.1-.02-.36-.15-.25-.13-.43-.26-.57-.36C-.13,4.24-.29,2.77,.51,1.77s2.26-1.17,3.27-.37c-.02-.01-.08-.06-.19-.11-.12-.06-.18-.07,.06,.03,.23,.1,.48,.25,.63,.37,.2,.15,.15,.12,.2,.16,.03,.03,.03,.03,.11,.08l.27,.21,.27,.23,.24,.18,.29,.24c.15,.13,.37,.36,.52,.58,.16,.25,.15,.23,.05,.1-.09-.11-.18-.18-.2-.2,.09,.07,.32,.28,.5,.51,.19,.25,.31,.49,.26,.4-.05-.09-.19-.24-.25-.28-.12-.1,.06,.05,.18,.16,.12,.11,.3,.31,.33,.36,.04,.04-.04-.03-.05-.04,0,0-.01,0,0,0,0,0-.09-.06-.17-.11-.15-.1-.49-.2-.59-.2-.13,0,.17,0,.55,.12,.39,.12,.71,.33,.91,.49,.15,.12,.35,.31,.54,.56,.19,.26,.28,.46,.21,.35-.06-.1-.19-.24-.25-.28l-.04-.03,.12,.11c.11,.1,.23,.22,.34,.37,.24,.3,.39,.71,.41,.79,.03,.07-.07-.19-.22-.37-.07-.09-.14-.16-.19-.2l-.1-.08c-.08-.06-.16-.11-.25-.16-.4-.22-.91-.22-1.07-.18-.18,.04-.17,.05-.04,0,.13-.03,.42-.13,.94-.11,.25,.02,.56,.09,.83,.21,.14,.06,.25,.13,.36,.21l.15,.11,.05,.04c.21,.13,.71,.77,.54,.58-.05-.05-.09-.08-.09-.08l.11,.1,.39,.31,.81,.71c.14,.12,.33,.36,.41,.48,.08,.12-.01,0-.06-.05l-.05-.05s-.01,0,0,0l.18,.16c.24,.22,.51,.64,.61,.96,.1,.32,.11,.41,.06,.23-.05-.16-.23-.45-.37-.56-.06-.07-.4-.32-.74-.38-.35-.07-.58,0-.56-.01,0,0,.17-.05,.55-.06,.37-.02,.97,.13,1.32,.39,.22,.15,.25,.19,.36,.3,.1,.1,.21,.23,.31,.37,.2,.3,.3,.62,.3,.6,0-.02-.13-.27-.25-.38-.12-.12-.14-.14-.33-.25-.17-.1-.49-.16-.54-.15-.09,0,.19,0,.55,.08,.38,.1,.7,.29,.91,.47,.29,.22,.62,.68,.73,1.09,.11,.4,.09,.62,.1,.65,0,.04,0-.16-.14-.45-.07-.15-.16-.28-.26-.38-.04-.04-.09-.09-.14-.12-.02-.01,0,0-.02-.01-.01,0-.09-.05-.15-.08-.08-.03,.09,.03,.3,.14,.21,.11,.37,.23,.48,.32-.02-.01-.09-.06-.19-.11-.12-.05-.15-.05,.09,.03,.23,.08,.48,.23,.63,.34,.12,.09,.37,.29,.56,.57,.21,.28,.32,.65,.33,.69,.02,.06-.06-.17-.18-.32-.12-.15-.19-.19-.28-.25-.09-.06-.32-.15-.43-.16-.11,0,.05,0,.38,.08,.32,.09,.61,.26,.79,.4,.18,.14,.39,.34,.57,.62,.18,.29,.25,.56,.23,.51-.01-.04-.13-.26-.23-.35-.1-.1-.12-.11-.26-.19-.12-.07-.36-.13-.39-.12-.02,0,.28,.02,.59,.14,.3,.11,.56,.3,.67,.4,.11,.09,.24,.22,.37,.37,.3,.38,.03,.06,.08,.14,.01,.01,.04,.04,.03,.04,0,0-.02,0,.11,.07,.13,.07,.26,.17,.36,.25,.06,.04,.29,.23,.47,.46,.19,.24,.32,.58,.34,.66,.03,.07-.05-.12-.15-.24-.05-.06-.09-.1-.13-.13,0,0-.06-.04-.02-.02l.08,.07c.11,.1,.26,.25,.37,.39,.11,.15,.09,.13,.06,.09-.04-.04-.03-.02-.04-.03-.04-.03-.18-.11-.32-.15-.16-.03-.17-.03,.07,0,.24,.04,.57,.18,.77,.31,.29,.21,.12,.08,.03,.04-.11-.06-.31-.09-.25-.08,.06,0,.4,.06,.65,.19,.25,.12,.44,.28,.55,.37,.13,.11,.3,.31,.41,.48,.11,.19,.1,.16,.04,.09-.05-.06-.1-.1-.08-.08,.2,.16,.45,.45,.57,.77,.12,.31,.13,.52,.13,.5,0-.01-.07-.24-.19-.38-.13-.15-.18-.19-.33-.27-.15-.08-.41-.12-.45-.11-.05,.01,.08-.02,.4,.02,.31,.03,.67,.19,.88,.35,.14,.11,.11,.09,.18,.14l.13,.12c.1,.09,.19,.2,.2,.21,.02,.02,.03,.03,.06,.06,.03,.01,.47,.43,.54,.57,.03,.04-.02-.02-.02-.01,0,0,.03,.03,0,.02,0,0-.08-.04-.07-.03,.02,0,.24,.09,.39,.19,.31,.2,.45,.33,.71,.62,.11,.15,.12,.16,.09,.14-.02-.02-.02-.01,0,0l.09,.08c.53,.52,.54,1.37,.02,1.91-.48,.49-1.25,.53-1.78,.12Z"/>
  <path class="cls-1" d="M8.92,9.52c-.02-.21,.1-.73,.06-.63-.01-.01-.02-.15-.04-.13,0-.02-.04-.23-.04-.38,0-.16,0-.26,0-.43,0-.15,.06-.41,.09-.5,.01-.07-.02,.03-.02,.01,0,0,0,0,0,0,0,0,0-.02,0,.05,0,.09,0,.22,.04,.35,.08,.28,.23,.43,.17,.37-.04-.05-.31-.29-.47-.73-.15-.45-.13-.81-.06-1.14,.07-.37,.35-.8,.48-.93,.14-.14,0-.06-.13,.18-.06,.11-.1,.23-.12,.33,0,.03-.02,.09-.02,.11v-.09c0-.12,.02-.31,.04-.43l-.02-.77c0-.11,0-.1-.01-.08,0,.03,0,.09-.04-.11-.03-.19-.03-.39-.03-.53v-.05s0,.06,0,.06v.14c0,.1,.03,.24,.07,.35,.1,.25,.13,.29-.05,0-.17-.29-.3-.81-.28-1.12,0-.3,.02-.54,.15-.92,.14-.36,.28-.56,.17-.38-.09,.15-.14,.38-.15,.45,0-.07,.04-.51,.17-.83,.06-.17,.15-.31,.17-.35,.03-.05,0-.01-.04,.07-.09,.18-.13,.38-.14,.45C8.95,.77,9.91-.07,11.02,0c1.11,.07,1.95,1.04,1.88,2.15-.02,.23-.09,.6-.25,.93-.07,.16-.15,.27-.16,.29-.02,.03,.02-.05,.05-.13,.07-.17,.09-.43,.07-.34-.02,.24-.12,.63-.28,.93-.19,.32-.15,.25-.07,.05,.07-.22,.07-.29,.07-.43,0-.14-.08-.5-.17-.64-.1-.15,.04,.03,.19,.43,.07,.19,.11,.41,.12,.6,0,.09,0,.18,0,.26v.12s0,0,0,.02c0,.03-.01-.01-.02-.04-.01-.03,.02,.19,.01,.38,0,.18-.02,.36-.03,.41l-.08,.49c-.01,.08-.07,.56-.13,.71-.01,.03-.02,.02-.03,.06v.03s-.04,.23-.04,.23c-.04,.18-.1,.38-.2,.56-.2,.39-.46,.58-.43,.56,.02-.01,.21-.3,.24-.5,.03-.17,.05-.35-.05-.65-.11-.28-.26-.4-.19-.32,.05,.07,.31,.34,.44,.79,.06,.21,.08,.43,.07,.6,0,.11,0,.14-.01,.17l-.02,.12c-.02,.15-.09,.41-.13,.49-.03,.07,0-.03-.02-.02,0,0-.02,.06-.02,.07,0,.02-.02-.03-.01,.12,.05,.58-.2,1.31-.19,1.2-.05,.74-.69,1.31-1.44,1.26s-1.31-.69-1.26-1.44Z"/>
  <path class="cls-1" d="M16.94,16.27s.03,0,.08,0c.05,0,.13-.04,.11-.03-.02,.02-.16,.11-.32,.18-.17,.07-.33,.11-.46,.14-.1,.02-.35,.06-.59,.03-.25-.02-.52-.13-.68-.22-.16-.09-.23-.14-.21-.11,.02,.02,.15,.1,.3,.13,.13,.04,.3,.03,.3,.03l-.15,.03-.35,.08-.2,.04c-.12,.02-.28,.04-.47,.03-.18,0-.41-.05-.51-.08-.1-.03-.05,0,.03,.02,.18,.03,.21,.02,.21,.04,.04,0,.24-.06-.11,.09-.15,.06-.31,.1-.43,.13l-.18,.03s.01,0,.03,0c.04,.02,.41-.14,.11,.02-.26,.17-.83,.27-.83,.27,.03,0,.1,0,.19-.03,.09-.03,.16-.07,.08-.02-.07,.05-.29,.16-.48,.23-.19,.07-.36,.1-.5,.12-.13,.02-.26,.04-.44,.04-.17,0-.39-.02-.49-.04-.1-.02-.04,0,.03,.02l.14,.02s-.38,.06-.61,.05c-.25,0-.05,.02-.1,.02-.01,0,0,0-.04,.01l-.22,.02c-.16,.01-.37,0-.56-.02-.19-.03-.29-.05-.22-.03,.06,.02,.17,.03,.22,.03,.11,0,.04,.02,.17,0,.05,0,.09-.02-.02,.03-.11,.05-.3,.11-.45,.15-.14,.04-.3,.06-.36,.07l-.12,.03s-.17,.05-.35,.09l-.23,.04s-.04,.02-.04,.02c0,0,.04,0,0,.02-.03,.01-.17,.06-.29,.09-.27,.06-.41,.09-.66,.12-.25,.03-.61,.01-.5,.03,.02,0,.04,0,.03,.02h0s.02,0-.07,.02c-.13,.01-.26,.02-.43,.02-.31,0-.71-.1-.98-.22-.28-.12-.4-.21-.36-.17,.04,.03,.25,.15,.49,.2,.24,.06,.44,.06,.58,.05-1.29,.15-2.46-.78-2.6-2.07-.15-1.29,.78-2.46,2.07-2.6,.26-.02,.57-.02,.93,.06,.36,.08,.68,.25,.82,.33,.15,.09,.12,.07-.05,0-.17-.07-.44-.14-.64-.14-.11,0-.18,0-.25,.01-.07,0,0,0,.02,0h.08c.11,0,.24-.01,.38,0,.35,.02,.23,.03,.21,.04,0,.01,.08,.01,.04,.03-.01,0-.03,.02,.05,0,.08-.02,.23-.05,.35-.06,.12-.02,.23-.02,.32-.03h.13c.05,0,.16,0,.35-.02h.23c.06-.02,.01,0-.01,0-.03,.01-.11,.04-.11,.05,0,0,.15-.05,.32-.09,.36-.08,.52-.09,.87-.1,.17,0,.4,.02,.57,.06,.18,.04,.2,.05,.13,.04-.07,0-.17,0-.21,0-.03,0-.04,0-.05,.01h.14c.19-.02,.63,.01,.61,.03,.01,0-.14,.03,.1,.02,.14,0,.3,0,.49,.01,.19,.02,.36,.07,.38,.07,.02,0-.08,0-.13,0-.06,0-.07,.01-.09,.02l-.16,.05c-.08,.03-.19,.09-.16,.08,.02,0,.2-.1,.4-.17,.2-.07,.38-.1,.53-.12,.24-.03-.1,.04-.15,.1-.09,.05,.49-.23,.77-.24,.08-.01,.15-.02,.21-.02,0,0,0,0,0,0l-.09,.04c-.13,.06,.29-.11,.56-.14,.24-.03,.5-.07,.92,0,.2,.03,.36,.1,.37,.1,.02,0-.09-.01-.16-.01-.07,0-.11,0-.11,.02h.15s.35-.02,.35-.02h.21c.12-.02,.4-.03,.66,.03,.26,.06,.5,.19,.62,.27,.13,.09,.15,.11,.09,.08-.13-.1-.6-.13-.59-.09,0-.01-.29,.13-.13,.07,.08-.04,.27-.13,.43-.17,.17-.05,.31-.06,.43-.07,.74-.08,1.41,.45,1.49,1.19,.08,.74-.45,1.41-1.19,1.49Z"/>
</svg>