<?xml version="1.0" encoding="UTF-8"?>
<svg id="Layer_1" data-name="Layer 1" xmlns="http://www.w3.org/2000/svg" viewBox="0 0 25.16 31.61">
  <defs>
    <style>
      .cls-1 {
        fill: #8a6539;
      }
    </style>
  </defs>
  <path class="cls-1" d="M.27,29.45c.15-.25,.58-.57,.89-.65,.32-.09,.29-.1,.07,0-.21,.11-.33,.27-.35,.31-.06,.06-.13,.37-.11,.29,0-.08,.08-.58,.24-.83,.2-.32,.18-.27,.24-.36,.05-.08,.26-.4,.33-.49,.03-.05,.02-.03,.06-.11,.05-.1,.16-.29,.24-.39l.08-.1c.06-.07,.11-.14,.19-.21,.14-.14,.35-.28,.54-.36,.4-.16,.59-.16,.43-.13-.15,.02-.46,.25-.52,.35-.05,.04-.16,.29-.17,.41,0,.13-.03-.22,.11-.61,.15-.38,.27-.56,.6-.87,.34-.3,.84-.42,.9-.43,.1-.03-.24,.05-.41,.22-.1,.09-.11,.11-.2,.24-.07,.11-.14,.29-.15,.44-.03,.32,.03,.38-.02,.22-.04-.15-.14-.69,.09-1.19,.1-.24,.23-.41,.38-.58,.16-.17,.4-.34,.62-.43,.48-.19,.74-.15,.73-.16,0,0-.09,0-.2,.04-.13,.04-.3,.13-.41,.24-.06,.06-.1,.09-.14,.15,0,.01,.02-.03,.03-.04l.08-.12,.17-.24c.04-.06,.15-.21,.12-.18,0-.02-.08,.15-.04,.05,.04-.13,.19-.45,.3-.6,.02-.03,.07-.1,.06-.09-.03,.04-.04,.06-.08,.12-.05,.09-.11,.24-.12,.36-.02,.26-.02,.26-.02-.13,0-.39,.23-.94,.42-1.16,.13-.19,.44-.48,.71-.62,.28-.15,.04-.04-.06,.06-.06,.05-.08,.08-.1,.11,.07-.1,.19-.24,.34-.37,.31-.28,.78-.43,.71-.41-.06,0-.38,.21-.42,.3-.08,.06-.27,.41-.27,.68,0,.26-.01,.18-.03-.23-.02-.43,.25-1.03,.45-1.25,.14-.2,.49-.51,.75-.64,.26-.13,0-.02-.11,.1-.11,.11-.12,.1-.23,.32-.1,.2-.1,.5-.08,.19,0-.29,.2-.82,.38-1.04,.15-.24,.48-.58,.88-.77,.4-.16,.4-.17,.14-.05-.11,.06-.21,.15-.27,.21-.03,.03-.05,.06-.07,.09l.05-.07,.35-.47s.04-.06,.02-.03c-.03,.03-.04,.06-.07,.11-.05,.08-.11,.23-.13,.35-.04,.29-.04,.26,0-.18,.04-.44,.32-.93,.47-1.09,.1-.14,.32-.38,.49-.51,.15-.12-.02,0-.02,.02-.05,.07,.05-.08,.17-.23,.35-.39,.2-.22,.27-.32,0-.02-.07,.11-.06,.1,0-.04,.17-.41,.29-.57l.74-1.04,.67-.93,.1-.16c.06-.1,.15-.24,.22-.33,.08-.17,.7-.78,.51-.59,0,0-.09,.08,.22-.27,.22-.27,.77-.57,.79-.56,0-.02-.34,.2-.4,.3-.01,.01-.05,.06-.04,.05l.06-.08,.15-.18c.27-.31,.1-.11,.31-.39,.08-.1,.22-.27,.26-.32l.08-.11s.02-.02,0,0l-.07,.1c-.04,.06-.09,.16-.13,.25-.08,.18-.12,.43-.12,.57,.02,.3,0,.24-.04-.21-.06-.45,.21-1.25,.5-1.56,.19-.29,.72-.7,1.11-.82,.38-.12,.19-.1-.13,.09-.14,.09-.26,.2-.32,.28l-.05,.06s0-.01,.01-.02l.03-.05,.12-.19,.21-.31c.08-.11,.24-.32,.43-.5,.23-.21,.16-.15,.1-.1-.16,.18,.23-.32,.32-.41l.09-.12s-.16,.22-.21,.42c-.02,.09-.03,.1,0-.04,.03-.12,.09-.35,.18-.54,.08-.18,.18-.35,.26-.46l.05-.08-.03,.04-.07,.11c-.12,.17-.2,.64-.16,.42,0-.22,.2-.85,.4-1.12l.12-.17s0,0,0,0c0,0-.02,.03-.04,.05-.02,.03-.03,.06,0,0,.03-.06,.09-.19,.15-.3,.06-.12,.13-.21,.18-.29l.04-.06,.09-.12c.12-.14,.24-.27,.41-.4,.33-.25,.7-.39,1-.45,.27-.05,.49-.05,.6-.05,.24,.01,.3,0,.02,0-.13,.01-.39,.06-.65,.2-.27,.14-.52,.39-.62,.55-.19,.2-.36,.83-.32,1.04,.03,.22-.06-.03-.01-.63,.03-.3,.14-.63,.27-.88,.07-.14,.13-.23,.21-.34,.03-.04-.01,.01-.02,.02-.06,.05-.19,.39-.18,.36,0-.06,.19-.63,.36-.86,.18-.28,.26-.38,.48-.62,.66-.62-.01,.03,.21-.21,.08-.11,.22-.28,.3-.37,.07-.08,.03-.05,.07-.09l.02-.03,.15-.19c.14-.16,.31-.32,.53-.47,.21-.15,.43-.25,.52-.28,.1-.04,.05-.03-.08,.04-.25,.1-.57,.48-.49,.39,.13-.18,.45-.51,.69-.67,.23-.16-.07,.04-.14,.13-.08,.09-.09,.09-.21,.29-.11,.2-.17,.51-.07,.1,.1-.38,.33-.79,.49-.99-.09,.11-.2,.3-.28,.53-.08,.23-.1,.47-.1,.61,.03,.29-.03,.14-.03-.45,0-.28,.09-.65,.21-.94,.15-.33,.23-.47,.5-.77,.23-.26,.6-.52,.94-.66,.34-.14,.64-.18,.82-.2,.39-.02,.42-.02,.17,0-.16,.02-.38,.07-.66,.22-.27,.15-.5,.35-.64,.55,.77-1.03,2.23-1.24,3.26-.47,1.03,.77,1.24,2.23,.47,3.26-.2,.27-.5,.55-.86,.74-.37,.2-.69,.27-.94,.3-.45,.04-.61,.02-.42,.02,.08,0,.29-.03,.54-.14,.26-.1,.54-.3,.71-.49,.2-.23,.23-.29,.34-.53,.09-.2,.14-.48,.15-.66-.01-.39-.02-.35,.02,.13,0,.23-.03,.58-.14,.9-.11,.32-.27,.59-.41,.78,.04-.05,.18-.28,.22-.48,.05-.22-.05,.29-.24,.66-.2,.38-.33,.53-.54,.76-.2,.23-.66,.54-.6,.49,.08-.05,.26-.23,.27-.26,.04-.05-.03,.04-.1,.12-.05,.07-.14,.16-.22,.23-.17,.16-.39,.32-.6,.43-.21,.11-.34,.16-.34,.16,0,0,.14-.06,.26-.15,.14-.09,.24-.19,.31-.28,.02-.02,.07-.09,.06-.08l-.07,.09c-.08,.11-.24,.29-.31,.35-.05,.05-.03,.03-.07,.07l-.15,.18c-.07,.09-.18,.2-.29,.3-.11,.1-.22,.19-.24,.2-.02,.02,.03-.03,.07-.07,.09-.1,.04-.05,.12-.16,.06-.06,.19-.44,.14-.32-.02,.07-.08,.26-.16,.44-.08,.18-.17,.33-.26,.46l-.1,.14c.05-.07,.08-.12,.13-.22,.09-.17,.16-.4,.18-.61,.02-.2,0-.32,0-.34l.02,.29c.05,.41-.17,1.23-.48,1.59-.16,.24-.48,.56-.84,.74-.35,.19-.71,.26-.93,.28-.48,.04-.61,0-.57,0,.02,0,.14,0,.31-.03,.21-.04,.48-.14,.73-.33,.13-.1,.22-.19,.31-.3,.06-.08,.05-.07,.05-.07h0s.02-.05,.02-.05c.01-.03,.03-.07,.02-.04l-.13,.26c-.06,.11-.13,.22-.19,.3l-.09,.12s.03-.04,.03-.05c.1-.11,.23-.55,.21-.57,.01-.02-.1,.64-.31,.98-.05,.08-.1,.18-.15,.24l-.07,.1s.01-.02,.01-.02c.02-.04,.07-.11,.11-.21,.04-.1,.08-.23,.08-.26,0-.04-.01,.07-.06,.25-.1,.38-.35,.78-.48,.93-.08,.1-.18,.23-.28,.33-.18,.19-.01,.01-.43,.49-.19,.2-.42,.38-.33,.3,.05-.05,.09-.11,.05-.06l-.34,.45-.18,.23c-.13,.15-.32,.33-.54,.47-.48,.3-.87,.35-.68,.3,.2-.06,.57-.34,.65-.48,.16-.16,.37-.76,.32-1.01-.03-.25,0-.12,.03,.38,0,.24-.06,.58-.17,.85-.05,.13-.13,.28-.19,.38l-.11,.16-.04,.05c-.08,.1-.19,.24-.29,.34l-.11,.12s-.44,.53-.44,.51l-.04,.04-.16,.19c-.19,.25-.69,.58-.86,.64-.15,.08,.22-.12,.31-.24,.17-.21-.02,.03-.16,.18-.46,.46-.14,.11-.28,.27l-.11,.15-.23,.32-.75,.93-.67,.83s.09-.2,.03-.05c-.07,.17-.24,.48-.35,.61-.15,.23-.59,.66-.5,.56,0,0-.01,.02-.19,.23-.13,.16-.45,.41-.45,.41,.01-.01,.1-.11,.08-.09,.02-.01,.21-.33,.22-.57,0-.24,.03-.08-.05,.4-.05,.22-.14,.46-.24,.62-.05,.1-.1,.16-.15,.23l-.07,.09-.37,.45-.04,.05c-.05,.07-.1,.13-.17,.2-.13,.14-.31,.28-.5,.39-.42,.22-.62,.25-.4,.17,.22-.1,.4-.3,.45-.38,.06-.07,.19-.41,.18-.5,0-.11,0,.38-.19,.77-.08,.19-.18,.33-.27,.45-.08,.11-.17,.21-.31,.34-.25,.25-.7,.45-.61,.4,.09-.04,.29-.22,.31-.26,.08-.07,.26-.48,.24-.71-.02-.21,.02-.1,0,.36-.01,.46-.3,1-.5,1.2-.17,.24-.66,.56-.89,.63-.25,.09,.03,0,.19-.15,.08-.07,.13-.13,.14-.15-.08,.1-.17,.21-.3,.32-.25,.24-.67,.42-.56,.37,.1-.05,.26-.2,.27-.24,.07-.07,.23-.43,.22-.62-.02-.2,.03,0-.02,.45-.03,.22-.12,.46-.22,.64-.05,.1-.1,.16-.15,.24-.04,.05-.01,.02-.02,.03,0,.01,.06-.13,.03-.08-.03,.09-.19,.43-.3,.57-.14,.2-.15,.2-.22,.3l-.18,.23-.09,.12-.06,.07c-.07,.09-.14,.17-.24,.26-.19,.17-.44,.31-.66,.38-.21,.07-.39,.09-.49,.1-.2,0-.14,.04,.15-.07,.14-.06,.29-.16,.38-.27,.09-.1,.15-.19,.22-.34,.14-.33,.07-.66,.07-.62-.01,.02,.1,.27,.05,.79-.03,.25-.13,.52-.25,.71-.14,.22-.22,.31-.39,.46-.31,.3-.85,.44-.94,.45-.13,.03,.18-.03,.37-.21,.18-.18,.18-.19,.27-.39,.07-.21,.05-.36,.03-.03-.03,.32-.22,.75-.39,.95-.16,.26-.64,.61-.98,.69-.35,.08-.35,.09-.14,0,.1-.04,.22-.13,.3-.2,.04-.04,.06-.07,.09-.1,.02-.03-.01,.01-.01,.01-.04,.05-.03,.03-.07,.1-.05,.09-.17,.28-.25,.38-.17,.22-.17,.22-.35,.46-.05,.07-.2,.27-.1,.12,.06-.08,.11-.38,.09-.27,0,.11-.11,.61-.27,.84-.12,.21-.37,.53-.76,.72-.39,.18-.62,.19-.48,.16,.12-.03,.39-.22,.43-.31-.45,.6-1.29,.72-1.89,.27s-.72-1.29-.27-1.89Z"/>
  <path class="cls-1" d="M13.69,12.96s0,.02,0,.03c0,0-.06-.07-.13-.18-.07-.11-.13-.22-.17-.32-.12-.31-.07-.1,.03,.03,.05,.07,.11,.12,.08,.1-.02-.02-.14-.11-.27-.25-.13-.14-.24-.32-.31-.46-.04-.08-.06-.14-.09-.21-.03-.08-.06-.19-.08-.29-.12-.46,.08-1.07,.15-1.19,.09-.19-.07,.05-.07,.36,0,.15,.02,.24,.06,.35,.04,.1,.12,.27,.24,.38,.24,.24,.37,.25,.13,.15-.2-.06-.8-.49-.97-.96-.09-.2-.18-.49-.18-.81,0-.31,.09-.63,.18-.81,.19-.39,.29-.48,.23-.43-.02,.03-.1,.15-.14,.33-.05,.19-.04,.45,0,.61l.02,.07s0-.01,0-.01l-.02-.04-.03-.08-.06-.17-.23-.57-.49-1.2c-.03-.05-.02-.01-.03-.01-.01,0-.19-.32-.25-.49-.07-.18-.14-.34-.2-.6-.03-.13-.05-.27-.06-.33,0-.05,0-.01,0,.01,.03,.09-.07-.1,.08,.26,.13,.29,.54,.56,.39,.47-.12-.03-.74-.52-.93-.98-.06-.11-.1-.21-.13-.31-.03-.07-.05-.14-.07-.22-.04-.16-.08-.37-.09-.58,0-.21,.01-.4,.01-.42,0-.03-.02,.08-.01,.19,.01,.23,.06,.34,.02,.25-.03-.04,.01,.05-.08-.11-.09-.17-.18-.39-.24-.53l-.04-.1c-.4-1.05,.13-2.22,1.17-2.61,1.05-.4,2.22,.13,2.61,1.17,.03,.08,.06,.18,.08,.26,.01,.06,0,.05,0,.07,0,.03,.14,.31,.19,.47,.03,.11,.16,.43,.18,.88,.01,.21-.01,.43-.03,.51-.01,.08,0,0,0-.1,0-.1-.03-.21-.04-.26l-.03-.07c-.02-.05-.04-.1-.07-.16-.1-.27-.55-.6-.48-.53,.02,.02,.17,.1,.35,.27,.19,.16,.38,.41,.5,.63,.26,.54,.21,.56,.28,.87,.02,.13,.04,.27,.04,.33,0,.05,0,.02-.01,0-.02-.06-.02-.01-.01,.01,0,.03-.06-.09,.03,.09,.1,.19,.18,.43,.22,.58l.33,1.25,.17,.66,.1,.38c.07,.27,.08,.63,.01,.93-.07,.29-.19,.5-.27,.63-.17,.24-.21,.31-.11,.11,.04-.08,.11-.3,.1-.5,0-.21-.06-.4-.11-.5-.09-.26-.51-.56-.52-.52-.05,0,.28,.08,.68,.48,.19,.19,.34,.45,.41,.65,.08,.21,.12,.41,.13,.67,.01,.53-.25,.97-.25,.97-.02,.07,.11-.33,.04-.57-.01-.05-.03-.1-.04-.14l-.03-.06s-.08-.13-.14-.19c-.06-.06-.09-.08-.04-.03,.05,.05,.19,.18,.3,.33,.23,.3,.34,.72,.3,.62,0,.02-.09-.12,.02,.06,.12,.19,.23,.45,.27,.61,.19,.72-.23,1.46-.95,1.65-.6,.16-1.21-.11-1.51-.62l-.1-.17Z"/>
  <path class="cls-1" d="M8.28,19.6c.29-.06,.78,0,1.07,.17,.29,.16,.4,.28,.38,.25,0-.01-.23-.17-.48-.19-.21-.02-.4,0-.67,.15-.24,.15-.32,.32-.31,.27,.02-.03,.08-.2,.32-.47,.24-.28,.73-.53,1.1-.56,.4-.07,.97,.1,1.22,.3,.27,.19,.36,.31,.38,.32,.02,.02-.09-.13-.4-.24-.15-.05-.32-.07-.45-.06-.14,.01-.16,.02-.28,.05-.21,.06-.43,.26-.44,.28-.02,.03,.11-.19,.43-.43,.32-.24,.73-.35,.98-.37,.25-.04,.66,0,.93,.11,.29,.12,.28,.1,.1,.04-.19-.06-.36-.06-.45-.04-.15,0-.48,.14-.62,.29-.15,.15-.13,.12,.03-.07,.16-.21,.58-.53,.96-.63,.09-.03,.17-.05,.26-.06,.08-.01,.04,0,.06-.01,.01,0,.02-.01,.02-.01,0,0-.04,0,.12-.05,.15-.05,.32-.09,.44-.12,.14-.03,.11-.03,.13-.04-.11,.02,.36-.13,.59-.16h.07s.17-.03,.17-.03c.11,0,.24,0,.37,.01,.26,.03,.52,.12,.72,.22,.4,.22,.54,.39,.58,.41,.03,.03-.06-.11-.41-.25-.32-.16-.88-.07-.7-.09,.02-.01-.05,0-.04,0,.01-.01,.26-.1,.42-.14,.18-.04,.3-.07,.44-.09,.13-.02,.34-.04,.45-.04,.11,0,.04-.01,.06-.02h.04c-.07,0-.29,.04-.46,.12-.39,.18-.59,.47-.61,.5-.02,.04,.02-.09,.26-.4,.22-.31,.81-.72,1.29-.8,.28-.05,.29-.05,.5-.06,.16,0,.35,0,.54,.04,.19,.03,.35,.09,.44,.12,.09,.03,.08,.02,.02,0-.15-.06-.44-.09-.55-.08h-.04s-.02,0-.01,0h.07c.1-.02,.18-.03,.3-.03,.21,0,.46,.03,.69,.09,.48,.15,.73,.35,.71,.32-.02-.03-.39-.22-.7-.24-.16-.01-.25,0-.38,.01-.13,.02-.31,.07-.48,.15-.36,.17-.58,.48-.57,.45,0,0,.12-.26,.54-.61,.2-.16,.46-.31,.7-.4,.13-.05,.24-.08,.35-.1l.16-.03,.14-.04s.16-.04,.28-.07l.17-.04,.08-.02,.25-.03c.36-.04,.93,.07,1.24,.22,.14,.06,.21,.1,.2,.09-.03-.02-.11-.06-.26-.11-.27-.1-.66-.08-.68-.07,.11-.02,.24-.04,.37-.06,.15-.02,.19-.02,.2-.03h.05s.11-.04-.03-.02c-.15,.01-.5,.15-.69,.28-.19,.16-.08,.02,.31-.25,.37-.25,.85-.39,1.12-.42-.04,0-.2,.02-.37,.09-.08,.03-.13,.06-.1,.04,.04-.02,.17-.1,.31-.17,.32-.14,.63-.22,.83-.25,1.29-.18,2.48,.71,2.66,1.99,.18,1.29-.71,2.48-1.99,2.66,.05-.01,.2-.04,.37-.12,.07-.03,.13-.07,.1-.06-.04,.02-.16,.09-.31,.15-.32,.13-.63,.2-.84,.22,.11-.02,.42-.1,.66-.27,.24-.18,.25-.2-.07,.05-.31,.24-.82,.43-1.13,.47-.22,.04-.18,.02-.26,.03h-.19c-.14,.02-.27,.02-.28,.02-.02,0-.06,0-.11,0-.18,.03-.73,.05-1.16-.09-.22-.07-.39-.15-.48-.2-.08-.05-.08-.05-.02-.02,.16,.08,.58,.16,.77,.13,.04,0,.1,0,.13-.02h-.04s-.07,0-.07,0c-.04,0-.07,0-.2,.02l-.34,.04h-.04s.06,0,.08-.01c.07-.02,.14-.04,.24-.07,.17-.06,.36-.17,.49-.28,.29-.25,.31-.37,.23-.24-.07,.1-.41,.54-.91,.78-.25,.12-.5,.2-.71,.23-.21,.03-.38,.04-.62,.02-.47-.02-.99-.28-1.15-.4-.16-.12-.05,0,.28,.09,.15,.04,.32,.06,.45,.06,.08,0,.12,0,.17-.01h.04s-.05,0-.05,0h-.1c-.27,.04-.72,0-1.03-.12-.14-.05-.22-.09-.21-.09,.02,0,.1,.03,.21,.05,.11,.02,.22,.02,.3,.02,.12-.01,.06,0,.25-.04,.32-.05,.77-.36,.89-.55,.14-.19,.1-.17,0,0-.11,.16-.42,.59-.95,.84-.24,.12-.54,.18-.69,.2l-.21,.02c-.14,.01-.37,0-.42,0-.05,0,0-.01-.03-.01-.03,0-.06,0-.04-.01,0,0,.1-.04-.04,0-.14,.05-.37,.1-.51,.12h-.11s-.12,.03-.12,.03h-.18c-.24,.01-.53-.03-.77-.13-.5-.2-.72-.46-.8-.53-.08-.09-.06-.04,.2,.11,.13,.07,.31,.13,.49,.15,.09,.01,.18,.01,.25,0h.11s0-.02,0-.02c-.1,0,.06-.04-.36,.06-.13,.03-.33,.05-.35,.05-.04,0-.02,0-.03-.01l-.35,.08-.21,.03s-.1,.01-.06,0c.05,0,.09-.02,.14-.04,.22-.06,.51-.28,.56-.37,.04-.07-.02,.04-.29,.3-.27,.26-.74,.46-1.05,.49-.26,.04-.59,.04-.93-.06-.34-.11-.48-.21-.35-.15,.12,.05,.37,.07,.46,.05,.08,0,.33-.07,.52-.21,.19-.15,.22-.23,.09-.08-.11,.14-.47,.45-.83,.56-.2,.06-.29,.08-.52,.1-.21,.02-.47,0-.69-.08-.47-.16-.7-.41-.8-.51-.09-.11-.11-.11,.03-.01,.12,.1,.53,.23,.77,.18,.21,0,.55-.19,.68-.35,.13-.15,.11-.18,.05-.06-.07,.09-.24,.4-.62,.64-.4,.24-.76,.29-1.13,.25-.41-.03-.79-.27-.92-.38-.15-.13-.16-.13,0-.04,.15,.09,.47,.13,.6,.09-.74,.11-1.42-.41-1.53-1.14-.11-.74,.41-1.42,1.14-1.53Z"/>
</svg>